<svg xmlns="http://www.w3.org/2000/svg"  viewBox="0 0 28.949 30.238">
  <g transform="translate(-424.012 -252.838)">
    <path id="Path_2228" data-name="Path 2228" d="M445.461,277.336l-.306,1.842c4.687.834,5.963,2.063,5.963,2.633,0,1.1-4.782,3.115-12.632,3.115s-12.632-2.017-12.632-3.115c0-.525,1.447-1.844,5.963-2.633l-.351-1.842c-2.761.525-7.455,1.8-7.455,4.473,0,3.246,7.282,4.913,14.474,4.913s14.474-1.667,14.474-4.913h0C452.961,279.75,450.417,278.258,445.461,277.336Z" transform="translate(0 -3.646)" fill="inherit"/>
    <path id="Path_2501" data-name="Path 2501" d="M440.056,254.54a5.827,5.827,0,0,1,5.82,5.821c0,3.923-3.446,10.835-5.827,15.018-2.378-4.149-5.814-11.014-5.814-15.018a5.828,5.828,0,0,1,5.82-5.821m0-1.7a7.536,7.536,0,0,0-7.523,7.524c0,6.531,7.523,18.334,7.523,18.334s7.523-11.938,7.523-18.334a7.536,7.536,0,0,0-7.523-7.524Z" transform="translate(-1.268 0)" fill="inherit"/>
  </g>
</svg>
