<svg xmlns="http://www.w3.org/2000/svg" viewBox="0 0 20.7 20.818">
  <path id="loup-zoom" d="M646.086,1233.03l5.914,5.914-1.774,1.774-5.914-5.914v-.946l-.355-.355a7.524,7.524,0,0,1-4.968,1.774,7.143,7.143,0,0,1-5.441-2.248,7.8,7.8,0,0,1-2.247-5.441,7.144,7.144,0,0,1,2.247-5.441,7.8,7.8,0,0,1,5.441-2.248,7.673,7.673,0,0,1,7.689,7.689,7.525,7.525,0,0,1-1.774,4.968l.355.355h.828Zm-10.882-1.538a5.427,5.427,0,1,0-1.538-3.785A5.471,5.471,0,0,0,635.2,1231.492Zm6.742-3.194H639.58v2.366H638.4V1228.3h-2.366v-1.183H638.4v-2.366h1.183v2.366h2.366Z" transform="translate(-631.3 -1219.9)" fill="inherit"/>
</svg>
