<svg xmlns="http://www.w3.org/2000/svg" width="33" height="33" viewBox="0 0 33 33">
  <path id="tour-map" d="M298.065,301.883h-25a4,4,0,0,0-4,4v25a4,4,0,0,0,4,4h25a4,4,0,0,0,4-4v-25A4,4,0,0,0,298.065,301.883Zm-4.5,8a11.563,11.563,0,0,1,1.6,1.924,27.441,27.441,0,0,1-4.089.7,15.788,15.788,0,0,0-1.226-3.322,8.8,8.8,0,0,0-1.578-2.234A11.541,11.541,0,0,1,293.569,309.879Zm-7.662-3.261c.149.006.3.014.445.025a3.453,3.453,0,0,1,.933.539,7.232,7.232,0,0,1,1.827,2.385,14.784,14.784,0,0,1,1.129,3.018c-1.228.106-2.668.178-4.334.189Zm0,6.994c1.752-.011,3.256-.088,4.533-.2a22.807,22.807,0,0,1,.483,4.377h-5.016Zm0,5.015h5.018a22.7,22.7,0,0,1-.488,4.376c-1.276-.112-2.779-.189-4.53-.2Zm-8.758-8.489a11.564,11.564,0,0,1,5.55-3.188,9.108,9.108,0,0,0-1.719,2.515,16.188,16.188,0,0,0-1.087,3.04,27.508,27.508,0,0,1-4.087-.7A11.7,11.7,0,0,1,277.149,310.138Zm-1.8,2.413a26.166,26.166,0,0,0,4.354.78,23.693,23.693,0,0,0-.489,4.458h-5.33A11.562,11.562,0,0,1,275.349,312.551Zm-1.465,6.076h5.331a23.727,23.727,0,0,0,.486,4.457,26.222,26.222,0,0,0-4.354.781A11.579,11.579,0,0,1,273.884,318.627Zm3.523,7.911a11.617,11.617,0,0,1-1.6-1.926,27.47,27.47,0,0,1,4.09-.7,15.753,15.753,0,0,0,1.225,3.322,8.823,8.823,0,0,0,1.578,2.234A11.548,11.548,0,0,1,277.407,326.538Zm7.662,3.259c-.148-.005-.3-.013-.445-.024a3.431,3.431,0,0,1-.933-.54,7.23,7.23,0,0,1-1.827-2.384,14.829,14.829,0,0,1-1.129-3.019c1.228-.1,2.668-.178,4.334-.188Zm0-6.994c-1.752.011-3.256.088-4.532.2a22.794,22.794,0,0,1-.484-4.376h5.016Zm0-5.014h-5.017a22.705,22.705,0,0,1,.487-4.377c1.276.112,2.78.189,4.53.2Zm0-5.015c-1.666-.011-3.105-.083-4.332-.188a15.209,15.209,0,0,1,1-2.756,6.01,6.01,0,0,1,2.894-3.187c.147-.011.294-.019.441-.025Zm1.278,17c-.146.01-.293.019-.44.024v-6.155c1.666.01,3.106.083,4.333.188a15.225,15.225,0,0,1-1,2.755A6.006,6.006,0,0,1,286.347,329.773Zm7.48-3.5a11.569,11.569,0,0,1-5.55,3.189A9.109,9.109,0,0,0,290,326.951a16.1,16.1,0,0,0,1.087-3.04,27.459,27.459,0,0,1,4.087.7A11.743,11.743,0,0,1,293.827,326.277Zm1.8-2.413a26.276,26.276,0,0,0-4.353-.78,23.854,23.854,0,0,0,.489-4.457h5.33A11.562,11.562,0,0,1,295.627,323.864Zm-3.866-6.075a23.744,23.744,0,0,0-.485-4.458,26.257,26.257,0,0,0,4.353-.78,11.564,11.564,0,0,1,1.464,5.238Z" transform="translate(-269.066 -301.883)" fill="#fff"/>
</svg>
