<svg xmlns="http://www.w3.org/2000/svg" width="33" height="33" viewBox="0 0 33 33">
  <g id="tour-pin" transform="translate(-281.138 -404.945)">
    <path id="Path_2076" data-name="Path 2076" d="M297.543,414.2a2.291,2.291,0,0,0-.025,4.582h.025a2.291,2.291,0,0,0,0-4.582Z" fill="#fff"/>
    <path id="Path_2077" data-name="Path 2077" d="M310.138,404.945h-25a4,4,0,0,0-4,4v25a4,4,0,0,0,4,4h25a4,4,0,0,0,4-4v-25A4,4,0,0,0,310.138,404.945Zm-5.686,11.519c0,5.874-6.909,16.831-6.909,16.837-.014-.023-6.908-10.846-6.908-16.837a6.909,6.909,0,1,1,13.817-.15Z" fill="#fff"/>
  </g>
</svg>
