<svg xmlns="http://www.w3.org/2000/svg" width="33" height="33" viewBox="0 0 33 33">
  <g id="tour-stop" transform="translate(-396.403 -393)">
    <path id="Path_2051" data-name="Path 2051" d="M423.016,405.794c0-.633-.438-1.01-1.213-1.01a2.609,2.609,0,0,0-.642.062v2.028a2.41,2.41,0,0,0,.519.041C422.507,406.915,423.016,406.5,423.016,405.794Z" fill="#fff"/>
    <path id="Path_2052" data-name="Path 2052" d="M425.4,393h-25a4,4,0,0,0-4,4v25a4,4,0,0,0,4,4h25a4,4,0,0,0,4-4V397A4,4,0,0,0,425.4,393Zm-5.781,10.755a12.751,12.751,0,0,1,2.1-.143,3.3,3.3,0,0,1,2.1.551,2,2,0,0,1,.734,1.59,2.2,2.2,0,0,1-.632,1.631,3.187,3.187,0,0,1-2.232.723,3.979,3.979,0,0,1-.53-.03v2.456h-1.539Zm-4.282-.2a3.2,3.2,0,0,1,3.261,3.476,3.276,3.276,0,0,1-3.374,3.619,3.2,3.2,0,0,1-3.231-3.5A3.326,3.326,0,0,1,415.34,403.551Zm-8.838.112h5.279v1.3h-1.875v5.565h-1.56v-5.565H406.5Zm-3.274,3.985c-1.141-.4-1.885-1.029-1.885-2.028,0-1.172.978-2.069,2.6-2.069a4.213,4.213,0,0,1,1.753.346l-.347,1.254a3.262,3.262,0,0,0-1.436-.326c-.673,0-1,.306-1,.662,0,.439.387.633,1.273.969,1.214.448,1.784,1.08,1.784,2.049,0,1.151-.886,2.13-2.772,2.13a4.481,4.481,0,0,1-1.947-.418l.316-1.284a3.983,3.983,0,0,0,1.723.428c.714,0,1.091-.3,1.091-.744C404.381,408.188,404.054,407.944,403.228,407.648ZM422.9,417h-20a2,2,0,1,1,0-4h20a2,2,0,0,1,0,4Z" fill="#fff"/>
    <path id="Path_2053" data-name="Path 2053" d="M415.309,409.412c1.05,0,1.651-1,1.651-2.334,0-1.233-.591-2.294-1.661-2.294-1.05,0-1.662,1-1.662,2.334S414.269,409.412,415.309,409.412Z" fill="#fff"/>
  </g>
</svg>
