<svg xmlns="http://www.w3.org/2000/svg" width="33" height="33" viewBox="0 0 33 33">
  <g id="tour-cash" transform="translate(-281.138 -404.945)">
    <path id="Path_2078" data-name="Path 2078" d="M302.312,423.065h-.445a.679.679,0,0,0-.413.144.657.657,0,0,0-.257.526v.445a.67.67,0,0,0,.67.67h.442a.67.67,0,0,0,.67-.67h0v-.445A.67.67,0,0,0,302.312,423.065Z" fill="#fff"/>
    <path id="Path_2079" data-name="Path 2079" d="M310.138,404.945h-25a4,4,0,0,0-4,4v25a4,4,0,0,0,4,4h25a4,4,0,0,0,4-4v-25A4,4,0,0,0,310.138,404.945Zm-6.8,6.79a1.32,1.32,0,0,1,.354-.048,1.338,1.338,0,0,1,1.292.991l.418,1.532H294.27l6.831-1.863Zm-4.9-1.748a1.342,1.342,0,0,1,1.8.606l.5,1.019-9.519,2.6h-1.3Zm9.7,21.443a1.341,1.341,0,0,1-1.341,1.341H286.977a1.341,1.341,0,0,1-1.341-1.341V416.491a1.389,1.389,0,0,1,.048-.351,1.341,1.341,0,0,1,1.3-.991H306.8a1.336,1.336,0,0,1,1.333,1.342v3.66h-7.958a2.276,2.276,0,0,0-2.275,2.277v2.982a2.281,2.281,0,0,0,2.28,2.279h7.955Zm1.378-6.021a1.333,1.333,0,0,1-.436.989,1.3,1.3,0,0,1-.47.279,1.362,1.362,0,0,1-.434.072h-8a1.34,1.34,0,0,1-1.339-1.343v-2.985a1.34,1.34,0,0,1,1.341-1.34h7.993a1.338,1.338,0,0,1,1.34,1.34Z" fill="#fff"/>
  </g>
</svg>
