<svg xmlns="http://www.w3.org/2000/svg" width="33" height="34.015" viewBox="0 0 33 34.015">
  <path id="calendar" d="M310.138,404.945h-.6l0-.012a1,1,0,1,0-2,0l0,.012h-3.391l0-.012a1,1,0,1,0-2,0l0,.012h-3.391l0-.012a1,1,0,1,0-2,0l0,.012H293.3a1,1,0,0,0-2,0h-3.456l0-.012a1,1,0,1,0-2,0l0,.012h-.71a4,4,0,0,0-4,4v25a4,4,0,0,0,4,4h25a4,4,0,0,0,4-4v-25A4,4,0,0,0,310.138,404.945Zm-14.605,28.317h-8.341a1.328,1.328,0,0,1,0-2.656h8.341a1.328,1.328,0,0,1,0,2.656Zm0-5.313h-8.341a1.328,1.328,0,0,1,0-2.656h8.341a1.328,1.328,0,0,1,0,2.656Zm0-5.312h-8.341a1.328,1.328,0,0,1,0-2.656h8.341a1.328,1.328,0,0,1,0,2.656Zm12.573,10.625h-8.34a1.328,1.328,0,0,1,0-2.656h8.34a1.328,1.328,0,0,1,0,2.656Zm0-5.313h-8.34a1.328,1.328,0,0,1,0-2.656h8.34a1.328,1.328,0,0,1,0,2.656Zm0-5.312h-8.34a1.328,1.328,0,0,1,0-2.656h8.34a1.328,1.328,0,0,1,0,2.656Z" transform="translate(-281.138 -403.93)" fill="#fff"/>
</svg>
