<svg xmlns="http://www.w3.org/2000/svg" width="33" height="33" viewBox="0 0 33 33">
  <path id="tour-people" d="M425.369,393h-25a4,4,0,0,0-4,4v25a4,4,0,0,0,4,4h25a4,4,0,0,0,4-4V397A4,4,0,0,0,425.369,393ZM415,402.037a3.091,3.091,0,1,1-.106,4.37A3.091,3.091,0,0,1,415,402.037Zm-8.527,0a3.091,3.091,0,0,1,4.263,4.476h0a3.091,3.091,0,1,1-4.263-4.476ZM416.067,416H401.144v-2.665a2.348,2.348,0,0,1,1.385-2.025,9.355,9.355,0,0,1,2.985-1.278,16.53,16.53,0,0,1,3.091-.426,11.26,11.26,0,0,1,3.092.426,10.941,10.941,0,0,1,2.985,1.278,2.57,2.57,0,0,1,1.385,2.025Zm8.527,0h-6.4v-2.665a4.6,4.6,0,0,0-2.131-3.73h.959a11.253,11.253,0,0,1,3.091.426,13.477,13.477,0,0,1,3.092,1.279,2.348,2.348,0,0,1,1.385,2.025Z" transform="translate(-396.369 -393)" fill="#fff"/>
</svg>
