
<svg version="1.1"  xmlns="http://www.w3.org/2000/svg" xmlns:xlink="http://www.w3.org/1999/xlink" x="0px" y="0px"
	 viewBox="0 0 496 496" style="enable-background:new 0 0 496 496;" xml:space="preserve">
<g>
	<g>
		<path d="M474.456,408.844l-36-28C437.752,380.296,436.892,380,436,380h-2.16c3.816-4.252,6.16-9.848,6.16-16
			c0-13.236-10.764-24-24-24c-13.236,0-24,10.764-24,24c0,6.152,2.344,11.748,6.16,16H396c-0.892,0-1.752,0.296-2.456,0.844
			L360,406.932l-33.544-26.088C325.752,380.296,324.892,380,324,380h-2.16c3.816-4.252,6.16-9.848,6.16-16c0-13.236-10.764-24-24-24
			c-13.236,0-24,10.764-24,24c0,6.152,2.344,11.748,6.16,16H284c-0.892,0-1.752,0.296-2.456,0.844L248,406.932l-33.544-26.088
			C213.752,380.296,212.892,380,212,380h-2.16c3.816-4.252,6.16-9.848,6.16-16c0-13.236-10.764-24-24-24c-13.236,0-24,10.764-24,24
			c0,6.152,2.344,11.748,6.16,16H172c-0.892,0-1.752,0.296-2.456,0.844L136,406.932l-33.544-26.088
			C101.752,380.296,100.892,380,100,380h-2.16c3.816-4.252,6.16-9.848,6.16-16c0-13.236-10.764-24-24-24s-24,10.764-24,24
			c0,6.152,2.344,11.748,6.16,16H60c-0.892,0-1.752,0.296-2.456,0.844l-36,28C20.572,409.6,20,410.764,20,412v20
			c0,1.528,0.872,2.92,2.244,3.592s3,0.508,4.216-0.436L56,412.18v19.424l-11.92,59.608c-0.236,1.176,0.072,2.396,0.828,3.32
			C45.668,495.46,46.8,496,48,496h20c1.888,0,3.516-1.316,3.912-3.16L80,455.088l8.088,37.752C88.484,494.684,90.112,496,92,496h20
			c1.2,0,2.332-0.54,3.092-1.464c0.756-0.924,1.064-2.144,0.828-3.32L104,431.604V412.18l29.544,22.976
			c0.112,0.088,0.24,0.132,0.356,0.204c0.116,0.072,0.216,0.172,0.344,0.232c0.044,0.024,0.096,0.028,0.144,0.048
			c0.18,0.08,0.364,0.128,0.552,0.18c0.172,0.048,0.336,0.1,0.512,0.124c0.184,0.024,0.364,0.02,0.552,0.02
			c0.184,0,0.368,0.004,0.548-0.02c0.176-0.024,0.344-0.08,0.516-0.128c0.184-0.052,0.368-0.1,0.548-0.18
			c0.048-0.02,0.1-0.024,0.144-0.048c0.128-0.064,0.228-0.16,0.344-0.236c0.116-0.072,0.244-0.116,0.352-0.204L168,412.18v19.424
			l-11.92,59.608c-0.236,1.176,0.072,2.396,0.828,3.32C157.668,495.46,158.8,496,160,496h20c1.888,0,3.516-1.316,3.912-3.16
			L192,455.088l8.088,37.752c0.396,1.844,2.024,3.16,3.912,3.16h20c1.2,0,2.332-0.54,3.092-1.464
			c0.756-0.924,1.064-2.144,0.828-3.32L216,431.604V412.18l29.544,22.976c0.112,0.088,0.24,0.132,0.356,0.204
			c0.116,0.072,0.216,0.172,0.344,0.232c0.044,0.024,0.096,0.024,0.144,0.048c0.18,0.08,0.368,0.128,0.56,0.184
			c0.168,0.048,0.332,0.1,0.504,0.124c0.184,0.024,0.368,0.02,0.552,0.02c0.184,0,0.368,0.004,0.552-0.02
			c0.172-0.024,0.336-0.076,0.504-0.124c0.188-0.052,0.376-0.1,0.56-0.184c0.048-0.02,0.096-0.024,0.14-0.048
			c0.124-0.06,0.224-0.16,0.34-0.232c0.116-0.072,0.248-0.12,0.356-0.204L280,412.18v19.424l-11.92,59.608
			c-0.236,1.176,0.072,2.396,0.828,3.32C269.668,495.46,270.8,496,272,496h20c1.888,0,3.516-1.316,3.912-3.16L304,455.088
			l8.088,37.752c0.396,1.844,2.024,3.16,3.912,3.16h20c1.2,0,2.332-0.54,3.092-1.464c0.756-0.924,1.064-2.144,0.828-3.32
			L328,431.604V412.18l29.544,22.976c0.112,0.088,0.24,0.132,0.356,0.204c0.116,0.072,0.216,0.168,0.34,0.232
			c0.044,0.024,0.096,0.024,0.14,0.044c0.184,0.08,0.372,0.132,0.564,0.184c0.168,0.048,0.332,0.1,0.5,0.124
			c0.184,0.024,0.368,0.02,0.552,0.02c0.184,0,0.368,0.004,0.552-0.02c0.172-0.024,0.332-0.076,0.5-0.124
			c0.192-0.052,0.38-0.1,0.564-0.184c0.044-0.02,0.096-0.024,0.14-0.044c0.124-0.06,0.224-0.16,0.34-0.232
			c0.116-0.072,0.248-0.12,0.356-0.204l29.544-22.976v19.424l-11.92,59.608c-0.236,1.176,0.072,2.396,0.828,3.32
			c0.768,0.928,1.9,1.468,3.1,1.468h20c1.888,0,3.516-1.316,3.912-3.16L416,455.088l8.088,37.752c0.396,1.844,2.024,3.16,3.912,3.16
			h20c1.2,0,2.332-0.54,3.092-1.464c0.756-0.924,1.064-2.144,0.828-3.32L440,431.604V412.18l29.544,22.976
			c1.212,0.944,2.84,1.108,4.216,0.436c1.368-0.672,2.24-2.064,2.24-3.592v-20C476,410.764,475.428,409.6,474.456,408.844z M80,348
			c8.824,0,16,7.176,16,16c0,8.824-7.176,16-16,16s-16-7.176-16-16C64,355.176,71.176,348,80,348z M132,423.82l-29.544-22.976
			c-1.216-0.94-2.844-1.108-4.216-0.436S96,402.472,96,404v28c0,0.26,0.028,0.528,0.08,0.784L107.12,488H95.232l-11.324-52.84
			C83.516,433.316,81.888,432,80,432s-3.516,1.316-3.912,3.16L64.764,488H52.88l11.044-55.216C63.972,432.528,64,432.26,64,432v-28
			c0-1.528-0.872-2.92-2.244-3.592s-3.004-0.504-4.216,0.436L28,423.82v-9.864L61.372,388h37.256L132,413.956V423.82z M192,348
			c8.824,0,16,7.176,16,16c0,8.824-7.176,16-16,16c-8.824,0-16-7.176-16-16C176,355.176,183.176,348,192,348z M244,423.82
			l-29.544-22.976c-1.216-0.94-2.844-1.108-4.216-0.436S208,402.472,208,404v28c0,0.26,0.028,0.528,0.08,0.784L219.12,488h-11.888
			l-11.324-52.84c-0.392-1.844-2.02-3.16-3.908-3.16s-3.516,1.316-3.912,3.16L176.764,488H164.88l11.044-55.216
			C175.972,432.528,176,432.26,176,432v-28c0-1.528-0.872-2.92-2.244-3.592c-1.376-0.672-3.004-0.504-4.216,0.436L140,423.82v-9.864
			L173.372,388h37.256L244,413.956V423.82z M304,348c8.824,0,16,7.176,16,16c0,8.824-7.176,16-16,16c-8.824,0-16-7.176-16-16
			C288,355.176,295.176,348,304,348z M356,423.82l-29.544-22.976c-1.216-0.94-2.844-1.108-4.216-0.436S320,402.472,320,404v28
			c0,0.26,0.028,0.528,0.08,0.784L331.12,488h-11.888l-11.324-52.84c-0.392-1.844-2.02-3.16-3.908-3.16s-3.516,1.316-3.912,3.16
			L288.764,488H276.88l11.044-55.216C287.972,432.528,288,432.26,288,432v-28c0-1.528-0.872-2.92-2.244-3.592
			c-1.376-0.672-3.004-0.504-4.216,0.436L252,423.82v-9.864L285.372,388h37.256L356,413.956V423.82z M416,348
			c8.824,0,16,7.176,16,16c0,8.824-7.176,16-16,16c-8.824,0-16-7.176-16-16C400,355.176,407.176,348,416,348z M468,423.82
			L468,423.82l-29.544-22.976c-1.212-0.94-2.84-1.108-4.216-0.436c-1.368,0.672-2.24,2.064-2.24,3.592v28
			c0,0.26,0.028,0.528,0.08,0.784L443.12,488h-11.888l-11.324-52.84c-0.396-1.844-2.024-3.16-3.912-3.16s-3.516,1.316-3.912,3.16
			L400.764,488H388.88l11.044-55.216c0.052-0.256,0.08-0.524,0.08-0.784v-28c0-1.528-0.872-2.92-2.244-3.592
			c-1.376-0.672-3.004-0.504-4.216,0.436L364,423.82v-9.864L397.372,388h37.256L468,413.956V423.82z"/>
	</g>
</g>
<g>
	<g>
		<path d="M78.828,237.172L28,186.344V138c0-7.72-6.28-14-14-14s-14,6.28-14,14v88c0,0.896,0.3,1.76,0.852,2.464L36,273.38V316
			c0,2.212,1.788,4,4,4h36c2.212,0,4-1.788,4-4v-76C80,238.936,79.58,237.92,78.828,237.172z M72,312H44v-40
			c0-0.896-0.3-1.76-0.852-2.464L8,224.62V138c0-3.308,2.692-6,6-6s6,2.692,6,6v50c0,1.064,0.42,2.08,1.172,2.828l5.796,5.8
			C20.636,198.504,16,204.38,16,211.312c0,4.088,1.592,7.936,4.484,10.828l24.688,24.688l5.656-5.656L26.14,216.484
			c-1.36-1.36-2.14-3.244-2.14-5.172c0-4.032,3.28-7.312,7.312-7.312c1.916,0,3.796,0.772,5.156,2.128L72,241.656V312z"/>
	</g>
</g>
<g>
	<g>
		<path d="M482,124c-7.72,0-14,6.28-14,14v48.344l-50.828,50.828C416.42,237.92,416,238.936,416,240v76c0,2.212,1.788,4,4,4h36
			c2.212,0,4-1.788,4-4v-42.62l35.148-44.916C495.7,227.76,496,226.896,496,226v-88C496,130.28,489.72,124,482,124z M488,224.62
			l-35.148,44.916C452.3,270.24,452,271.104,452,272v40h-28v-70.344l35.532-35.528c1.36-1.356,3.24-2.128,5.156-2.128
			c4.032,0,7.312,3.28,7.312,7.312c0,1.924-0.78,3.812-2.14,5.172l-24.688,24.688l5.656,5.656l24.688-24.688
			c2.892-2.892,4.484-6.74,4.484-10.828c0-6.932-4.636-12.808-10.968-14.684l5.796-5.8C475.58,190.08,476,189.064,476,188v-50
			c0-3.308,2.692-6,6-6c3.308,0,6,2.692,6,6V224.62z"/>
	</g>
</g>
<g>
	<g>
		<path d="M248,0C157.572,0,84,73.572,84,164s73.572,164,164,164s164-73.572,164-164S338.428,0,248,0z M388.376,96H248
			c-4.412,0-8-3.588-8-8s3.588-8,8-8h56c8.824,0,16-7.176,16-16s-7.176-16-16-16h-36c-4.412,0-8-3.588-8-8s3.588-8,8-8h62.988
			C355.584,47.52,375.576,69.688,388.376,96z M128.384,64H172c4.412,0,8,3.588,8,8s-3.588,8-8,8h-20c-8.824,0-16,7.176-16,16
			s7.176,16,16,16h8c4.412,0,8,3.588,8,8s-3.588,8-8,8H96.24C101.916,104.076,113.088,82.268,128.384,64z M248,320
			c-73.628,0-135.46-51.288-151.76-120H180c4.412,0,8,3.588,8,8s-3.588,8-8,8h-32c-8.824,0-16,7.176-16,16c0,8.824,7.176,16,16,16
			h60c4.412,0,8,3.588,8,8s-3.588,8-8,8h-12c-8.824,0-16,7.176-16,16c0,8.824,7.176,16,16,16h134.988
			C306.932,311.176,278.484,320,248,320z M342.508,288H196c-4.412,0-8-3.588-8-8s3.588-8,8-8h12c8.824,0,16-7.176,16-16
			c0-8.824-7.176-16-16-16h-60c-4.412,0-8-3.588-8-8s3.588-8,8-8h32c8.824,0,16-7.176,16-16c0-8.824-7.176-16-16-16H94.568
			C92.912,182.908,92,173.56,92,164s0.912-18.908,2.568-28H160c8.824,0,16-7.176,16-16c0-8.824-7.176-16-16-16h-8
			c-4.412,0-8-3.588-8-8s3.588-8,8-8h20c8.824,0,16-7.176,16-16s-7.176-16-16-16h-36.408C163.996,26.448,203.872,8,248,8
			c24.656,0,47.98,5.772,68.728,16H268c-8.824,0-16,7.176-16,16s7.176,16,16,16h36c4.412,0,8,3.588,8,8s-3.588,8-8,8h-56
			c-8.824,0-16,7.176-16,16s7.176,16,16,16h143.984c3.224,7.704,5.816,15.732,7.776,24H352c-8.824,0-16,7.176-16,16
			c0,8.824,7.176,16,16,16h16c4.412,0,8,3.588,8,8s-3.588,8-8,8h-40c-8.824,0-16,7.176-16,16c0,8.824,7.176,16,16,16h20
			c4.412,0,8,3.588,8,8s-3.588,8-8,8h-36c-8.824,0-16,7.176-16,16c0,8.824,7.176,16,16,16h61.876
			C365.004,268.108,354.432,278.892,342.508,288z M312,248c-4.412,0-8-3.588-8-8s3.588-8,8-8h36c8.824,0,16-7.176,16-16
			c0-8.824-7.176-16-16-16h-20c-4.412,0-8-3.588-8-8s3.588-8,8-8h40c8.824,0,16-7.176,16-16c0-8.824-7.176-16-16-16h-16
			c-4.412,0-8-3.588-8-8s3.588-8,8-8h49.432c1.656,9.092,2.568,18.44,2.568,28c0,30.916-9.076,59.732-24.652,84H312z"/>
	</g>
</g>
<g>
	<g>
		<path d="M298.676,125.392c-6.016-6.056-14.02-9.392-22.536-9.392s-16.52,3.336-22.536,9.392l-5.604,5.64l-5.604-5.64
			c-6.016-6.056-14.02-9.392-22.536-9.392c-8.516,0-16.52,3.336-22.536,9.392c-12.408,12.488-12.408,32.8,0,45.288l47.84,48.14
			c0.752,0.756,1.768,1.18,2.836,1.18s2.084-0.424,2.836-1.18l47.84-48.14C311.084,158.192,311.084,137.88,298.676,125.392z
			 M293.004,165.04L248,210.324l-45.004-45.284c-9.316-9.376-9.316-24.632,0-34.008c4.508-4.536,10.496-7.032,16.864-7.032
			c6.368,0,12.356,2.496,16.864,7.032l8.44,8.496c1.5,1.508,4.172,1.508,5.672,0l8.44-8.496c4.508-4.536,10.496-7.032,16.864-7.032
			c6.368,0,12.356,2.496,16.864,7.032C302.32,140.408,302.32,155.664,293.004,165.04z"/>
	</g>
</g>
<g>
	<g>
		<path d="M264,240h-8c-8.824,0-16,7.176-16,16c0,8.824,7.176,16,16,16h8c8.824,0,16-7.176,16-16C280,247.176,272.824,240,264,240z
			 M264,264h-8c-4.412,0-8-3.588-8-8s3.588-8,8-8h8c4.412,0,8,3.588,8,8S268.412,264,264,264z"/>
	</g>
</g>
<g>
	<g>
		<path d="M144,148h-8c-8.824,0-16,7.176-16,16c0,8.824,7.176,16,16,16h8c8.824,0,16-7.176,16-16C160,155.176,152.824,148,144,148z
			 M144,172h-8c-4.412,0-8-3.588-8-8s3.588-8,8-8h8c4.412,0,8,3.588,8,8S148.412,172,144,172z"/>
	</g>
</g>
<g>
	<g>
		<path d="M492,40c-19.852,0-36-16.148-36-36c0-2.212-1.788-4-4-4c-2.212,0-4,1.788-4,4c0,19.852-16.148,36-36,36
			c-2.212,0-4,1.788-4,4s1.788,4,4,4c19.852,0,36,16.148,36,36c0,2.212,1.788,4,4,4c2.212,0,4-1.788,4-4c0-19.852,16.148-36,36-36
			c2.212,0,4-1.788,4-4S494.212,40,492,40z M452,65.676c-4.396-9.56-12.116-17.28-21.676-21.676
			c9.56-4.396,17.28-12.116,21.676-21.676c4.396,9.56,12.116,17.28,21.676,21.676C464.116,48.396,456.396,56.116,452,65.676z"/>
	</g>
</g>
</svg>
