<svg xmlns="http://www.w3.org/2000/svg"  viewBox="0 0 13.403 13.403">
  <g  transform="translate(0 0)">
    <g>
      <path d="M74.676,61.131H68.568a3.652,3.652,0,0,1-3.647-3.648V51.376a3.652,3.652,0,0,1,3.647-3.648h6.108a3.652,3.652,0,0,1,3.648,3.648v6.108A3.652,3.652,0,0,1,74.676,61.131ZM68.568,48.407A2.972,2.972,0,0,0,65.6,51.376v6.108a2.973,2.973,0,0,0,2.969,2.969h6.108a2.972,2.972,0,0,0,2.969-2.969V51.376a2.972,2.972,0,0,0-2.969-2.969Z" transform="translate(-64.921 -47.728)" fill="inherit"/>
    </g>
    <g  transform="translate(2.545 2.545)">
      <path  d="M78.1,65.063a4.156,4.156,0,1,1,4.157-4.157A4.161,4.161,0,0,1,78.1,65.063Zm0-7.635a3.478,3.478,0,1,0,3.478,3.478A3.482,3.482,0,0,0,78.1,57.428Z" transform="translate(-73.942 -56.75)" fill="inherit"/>
    </g>
    <path  d="M102.332,55.872a.626.626,0,1,1-.625-.626A.625.625,0,0,1,102.332,55.872Z" transform="translate(-90.88 -53.125)" fill="inherit"/>
  </g>
</svg>
