
<svg version="1.1" xmlns="http://www.w3.org/2000/svg" xmlns:xlink="http://www.w3.org/1999/xlink" x="0px" y="0px"
	 viewBox="0 0 511.997 511.997" style="enable-background:new 0 0 511.997 511.997;" xml:space="preserve">
<g>
	<g>
		<path d="M392.793,276.873c-2.474-5.034-8.917-8.85-14.552-8.26c-4.801,0.503-7.928,2.83-10.397,6.024
			c-4.731,3.924-7.234,10.209-7.18,16.38c0.093,10.765,8.967,25.265,21.409,20.324C394.528,306.396,398.336,288.152,392.793,276.873
			z M374.259,304.71c-2.546-1.2-4.654-3.7-6.049-6.618c-0.695-2.016-0.991-4.232-1.284-6.452c-0.142-1.078-0.309-2.055-0.409-3.001
			c0.628-5.361,3.863-10.391,8.682-12.448c5.198-1.127,10.898,1.366,12.135,8.631C388.544,291.939,383.917,308.836,374.259,304.71z"
			/>
	</g>
</g>
<g>
	<g>
		<path d="M418.108,266.287c-5.565-3.938-13.321-3.368-17.56,1.354c-0.612,0.493-1.196,1.034-1.726,1.657
			c-3.119,3.668-3.254,7.3-1.403,11.495c0.161,1.176,0.434,2.233,0.808,3.073c1.843,4.138,4.303,7.267,8.996,7.989
			c3.888,0.598,8.48-0.358,11.396-3.131C424.255,283.359,424.771,271.003,418.108,266.287z M416.729,278.582
			c-0.818,3.572-3.999,7.347-7.627,7.886c-2.106-0.184-4.159-1.291-5.503-3.331c-1.989-3.018-2.607-5.981-1.509-9.465
			c0.225-0.715,0.55-1.648,0.98-2.556c0.188-0.165,0.375-0.331,0.568-0.494c0.503-0.424,1.081-0.776,1.703-1.069
			c0.272-0.075,0.544-0.154,0.847-0.186c0.231-0.024,0.409-0.121,0.559-0.242C412.004,268.453,418.008,273,416.729,278.582z"/>
	</g>
</g>
<g>
	<g>
		<path d="M412.361,233.939c-2.672-2.408-6.954-3.954-10.518-3.071c-1.638,0.406-3.333,1.317-4.446,2.6
			c-0.483,0.557-0.782,1.368-1.103,2.131c-1.036,1.138-1.76,2.597-2.159,4.061c-0.871,3.194-0.722,7.023,1.028,9.907
			c2.013,3.316,4.838,3.406,8.328,3.685c3.641,0.289,6.281-0.311,8.885-3.178C416.358,245.691,416.982,238.104,412.361,233.939z
			 M409.37,245.193c-0.918,1.573-2.455,2.919-4.286,3.03c-1.237,0.075-2.681,0.087-3.909-0.287
			c-1.176-0.867-1.789-2.371-2.141-3.772c-0.632-2.515,0.377-6.02,2.74-7.389c1.403-0.425,3.098-0.711,4.579-0.609
			C410.064,237.611,411.515,241.517,409.37,245.193z"/>
	</g>
</g>
<g>
	<g>
		<path d="M464.684,320.269c-0.183-5.607-2.309-9.05-7.164-12.327c-4.195-2.831-9.19-3.638-13.934-1.649
			c-0.697,0.292-1.46,0.646-2.218,1.061c-3.759,1.027-7.258,5.683-8.636,8.837c-2.034,4.661-0.694,11.07,1.603,15.392
			c2.033,3.826,5.26,6.747,8.914,8.368c2.579,2.03,5.402,2.162,8.127,1.339c3.336-0.368,6.592-1.904,9.284-4.883
			c1.921-2.124,2.938-4.173,3.475-6.337c0.592-1.367,1.011-2.822,1.157-4.391C465.47,323.773,465.216,321.978,464.684,320.269z
			 M454.933,333.675c-4.15,2.806-8.719,2.06-12.168-0.641c-1.622-2.444-2.93-5.057-4.687-7.418c-0.134-0.18-0.23-0.321-0.344-0.478
			c-1.14-4.587,0.559-7.664,2.595-10.891c0.488-0.6,1.08-1.268,1.732-1.928c3.389-1.728,7.041-2.755,10.659-1.528
			c1.396,0.653,2.619,1.617,3.482,2.879c1.141,1.67,2.684,3.664,3.711,5.649C461.071,324.557,459.373,330.67,454.933,333.675z"/>
	</g>
</g>
<g>
	<g>
		<path d="M485.273,302.503c-2.268-2.441-5.496-3.739-8.755-4.136c-3.629-0.444-5.335,0.792-7.07,3.324
			c-0.086,0.065-0.159,0.145-0.242,0.212c-0.093-0.007-0.177-0.028-0.275-0.028c-2.459,0-3.341,2.437-2.658,4.2
			c-0.012,0.035-0.03,0.065-0.042,0.101c-0.953,2.944-0.873,7.559,0.747,10.295c0.262,0.442,0.573,0.845,0.903,1.228
			c0.699,1.145,1.598,2.189,2.714,3.064c2.85,2.235,7.151,1.819,10.54-0.034c0.581-0.204,1.143-0.444,1.666-0.736
			c3.313-1.859,4.336-4.932,4.91-8.498C488.155,308.742,487.236,304.615,485.273,302.503z M482.954,310.838
			c-0.253,2.103-1.45,3.979-3.43,4.843c-2.643,1.153-7.375,0.6-8.579-2.406c-0.977-2.442-0.565-4.57,0.317-6.592
			c0.19-0.275,0.331-0.58,0.422-0.904c0.301-0.597,0.627-1.187,0.965-1.774c0.701-0.472,1.358-0.867,2.182-1.028
			c0.61-0.061,1.262-0.06,1.977,0.042c0.122,0.023,0.245,0.047,0.372,0.075c0.074,0.014,0.147,0.03,0.219,0.048
			c0.125,0.029,0.254,0.065,0.382,0.099c2.983,0.935,4.816,4.063,5.193,7.211C482.971,310.588,482.967,310.726,482.954,310.838z"/>
	</g>
</g>
<g>
	<g>
		<path d="M469.16,259.609c-1.11-1.241-2.006-1.345-3.537-1.808c-1.467-0.444-2.801-1.267-4.392-1.239
			c-2.096,0.035-3.557,1.233-4.736,2.726c-4.532,1.328-6.076,9.783-4.262,13.544c1.475,3.057,4.028,4.616,7.129,5.601
			c3.286,1.043,5.771,1.936,8.565-0.699C473.071,272.884,473.881,264.892,469.16,259.609z M466.689,269.59
			c-1.153,2.735-4.423,4.35-7.139,3.64c-1.615-0.844-2.932-2.213-3.266-3.851c-0.386-1.891,0.196-3.772,1.11-5.427
			c1.206-0.898,2.408-1.799,3.852-2.186C465.579,260.602,468.174,266.072,466.689,269.59z"/>
	</g>
</g>
<g>
	<g>
		<path d="M276.068,349.446c-0.662-4.304-4.488-6.487-8.343-7.72c-3.382-1.082-7.248-0.758-10.527,0.694
			c-0.481,0.184-0.941,0.419-1.382,0.699c-0.002,0.001-0.005,0.002-0.006,0.004c-0.075,0.047-0.148,0.094-0.222,0.143
			c-3.412,2.047-5.867,5.439-5.847,9.81c0.001,0.283,0.118,0.527,0.295,0.708c-0.31,2.806,0.089,5.555,1.366,7.532
			c5.184,8.022,17.719,10.266,22.605,0.738C275.839,358.477,276.686,353.456,276.068,349.446z M269.145,360.512
			c-2.195,2-6.134,2.554-9.394,1.65c-1.451-0.564-2.794-1.42-3.854-2.549c-0.586-0.624-1.003-1.304-1.286-2.016
			c-0.154-0.568-0.253-1.169-0.228-1.834c0.145-3.817,4.751-8.748,9.168-10.006c2.215,0.008,4.862,0.861,6.61,2.253
			C272.582,351.601,272.004,357.906,269.145,360.512z"/>
	</g>
</g>
<g>
	<g>
		<path d="M287.817,234.694c-3.382-3.04-9.215-4.713-13.546-2.917c-5.955,2.471-10.577,13.454-7.323,19.639
			c0.411,1.655,1.11,3.213,2.137,4.557c2.893,3.787,8.673,5.708,13.315,4.302c4.474-1.356,7.633-7.126,8.545-11.355
			C292.064,243.736,291.978,238.433,287.817,234.694z M285.63,247.454c-0.487,2.11-2.001,5.468-3.939,6.859
			c-0.307,0.221-0.633,0.389-0.963,0.536c-0.557,0.155-1.138,0.258-1.752,0.266c-4.46,0.069-7.368-4.14-7.774-8.226
			c0.139-2.089,0.802-4.32,1.862-6.27c1.579-1.973,3.964-3.451,6.474-3.883c0.26-0.03,0.526-0.047,0.791-0.055
			c0.915,0.239,1.807,0.611,2.611,1.099c1.037,0.63,1.763,1.437,2.256,2.351c0.207,0.492,0.399,0.985,0.573,1.455
			C286.259,243.418,286.081,245.5,285.63,247.454z"/>
	</g>
</g>
<g>
	<g>
		<path d="M495.43,422.746c-0.124-6.378-0.256-12.362-3.128-18.214c-1.285-2.617-3.029-4.609-4.848-6.831
			c-1.614-1.973-2.979-4.381-5.11-5.861c-2.949-2.049-6.265-2.844-9.634-2.85c1.889-6.4,1.596-13.385-0.808-19.727
			c-1.651-4.357-3.38-8.23-6.877-11.424c-3.401-3.106-6.954-3.968-11.138-5.535c-3.968-1.486-11.781-2.582-15.775,0.486
			c-3.083-4.958-7.104-8.933-12.701-12.007c-0.836-0.459-1.711-0.81-2.611-1.068c0.574-2.084,0.867-4.246,0.759-5.999
			c-0.158-2.595-0.2-5.04-0.209-7.651c-0.005-1.626-0.506-2.971-0.676-4.557c-0.237-2.223,0.088-4.312-0.635-6.474
			c-3.116-9.313-13.676-13.997-22.819-11.319c-4.928,1.443-8.314,5.635-10.994,9.798c-1.338,2.078-2.438,4.325-2.965,6.754
			c-0.763,3.518-0.049,5.68-2.893,8.393c-3.484,3.324-4.874,1.326-7.059-2.015c-1.266-1.935-2.747-4.092-4.391-5.729
			c-3.113-3.099-7.321-3.399-11.007-1.104c-9.24,5.753-11.616,17.192-10.391,27.244c1.44,11.816,8.067,22.162,12.417,33.019
			c2.389,5.964,3.824,11.533,1.696,17.832c-1.68,4.972-4.528,9.377-7.558,13.586c-2.573,3.572-5.919,6.477-9.69,8.736
			c0.072-6.026-0.832-12.184-1.396-18.003c-0.864-8.932-1.672-18.05-3.551-26.841c-2.036-9.518-3.368-18.915-4.895-28.5
			c-1.35-8.473-2.976-16.646-3.81-25.198c-0.407-4.187-1.786-8.164-2.239-12.337c-0.511-4.709-0.559-9.35-1.231-14.038
			c-1.246-8.712-1.88-17.529-3.588-26.18c-1.024-5.19-2.354-10.215-3.004-15.482c-0.579-4.688-1.051-9.408-2.014-14.039
			c-0.94-4.517-2.282-9.065-3.678-13.462c-0.519-1.634-1.067-3.517-1.777-5.325c0.412-0.07,0.826-0.141,1.223-0.212
			c7.733-1.396,10.979-8.997,10.586-16.194c-0.198-3.615-2.243-7.314-5.171-9.451c-2.934-2.141-6.352-2.273-9.777-2.45
			c-0.001-9.781,0.639-19.839-0.098-29.564c-0.516-6.812,0.176-16.339-4.076-22.156c-2.319-3.172-5.954-4.053-9.8-4.19
			c-0.081-1.055-0.131-2.11-0.18-3.165c4.715,0.568,9.423,1.178,14.098,1.979c2.585,0.444,5.184,0.811,7.786,1.157
			c3.635,0.771,7.269,1.546,10.909,2.288c9.559,1.947,19.16,3.705,28.689,5.796c9.006,1.977,18.098,3.071,27.103,5.003
			c14.291,3.067,29.146,3.294,43.73,4.174c9.69,1.316,19.365,2.667,29.059,3.974c5.357,0.722,12.875,0.774,14.499-5.131
			c2.959-4.127,4.856-9.194,7.056-13.716c1.95-4.009,3.651-8.201,5.12-12.449c1.67-3.892,2.923-7.791,3.693-12.231
			c0.331-1.91,0.609-3.81,0.867-5.709c0.761-4.616,1.269-9.26,1.651-13.926c0.679-4.75,1.502-9.306,0.663-14.222
			c-0.053-0.311-0.102-0.623-0.154-0.934c-0.224-3.271-0.654-6.584-1.05-9.67c-0.791-6.184-1.391-12.407-2.562-18.531
			c-1.543-8.064-8.79-20.034-17.703-21.504c-5.04-0.832-9.857,0.23-14.778,1.153c-6.702,1.258-13.424,2.263-20.128,3.51
			c-13.245,2.462-26.75,4.803-40.139,6.258c-13.346,1.45-26.52,5.307-39.798,7.523c-13.7,2.286-27.514,4.607-41.072,7.552
			c-10.503,2.282-20.975,4.786-31.538,6.807c-2.758-3.299-5.796-6.073-9.659-7.876c0.961-3.547-0.283-8.079-1.358-11.357
			c-1.234-3.764-4.803-5.819-8.422-6.792c-4.073-1.093-8.215-1.649-12.388-1.925c-0.646-8.514,2.162-17.68-1.654-25.682
			c-3.07-6.439-10.694-9.827-17.552-8.773c-8.365,1.284-15.881,1.934-18.707,11.319c-1.573,5.221-1.681,10.963-1.513,16.358
			c0.058,1.866-0.149,4.036,0.479,5.825c0.258,0.733,0.687,1.357,1.162,1.954c-4.526,0.693-8.991,1.783-13.351,3.486
			c-9.103,3.556-12.425,15.877-9.056,24.525c-6.334,4.41-11.627,10.212-15.156,17.705c-4.459,9.471-6.727,20.625-8.38,30.906
			c-1.546,9.616-1.699,18.879-0.623,28.484c-2.021,0.715-3.838,1.722-5.339,3.648c-2.038,2.612-2.756,6.805-2.829,10.07
			c-0.094,4.282-0.533,8.521-0.488,12.824c0.061,5.746,0.04,11.483,0.223,17.226c0.154,4.832-0.977,9.5,0.546,14.152
			c-2.135,0.242-4.198,0.726-5.692,1.774c-5.603,3.932-5.214,16.096,1.227,18.952c2.977,1.32,7.28,1.044,10.552,1.349
			c-1.368,1.325-2.618,2.887-3.716,4.756c-4,6.816-6.342,15.742-7.747,23.475c-1.616,8.89-2.879,17.861-4.367,26.791
			c-1.789,10.738-2.654,21.638-4.426,32.346c-1.789,10.804-3.548,21.492-4.599,32.394c-0.928,9.619-2.433,19.279-3.278,28.906
			c-0.394,4.491-1.416,9.026-1.944,13.51c-0.175,1.486-0.362,4.14-0.706,6.527c-8.148,1.496-16.563,3.571-24.021,6.552
			c-10.604,4.24-19.917,9.959-29.374,16.223c-2.801,1.856-5.536,3.729-8.22,5.647c-0.061,0.033-0.125,0.061-0.187,0.095
			c-1.914,1.021-3.519,2.318-5.013,3.738c-4.256,3.263-8.356,6.723-12.302,10.549c-4.169,4.041-7.722,8.315-11.358,12.82
			c-0.022,0.027-0.042,0.052-0.064,0.077c-1.625,1.501-3.208,3.043-4.705,4.67c-4.331,4.71-7.656,9.716-11.352,14.857
			c-1.437,1.998-3.225,3.618-4.519,5.737c-1.366,2.238-2.359,4.432-4.073,6.451c-3.002,3.537-3.816,9.882-3.571,14.496
			c0.64,12.062,15.818,13.701,24.669,16.5c5.257,1.662,10.072,1.69,15.445,2.18c2.523,0.23,4.936,1.163,7.477,1.41
			c3.443,0.336,6.883-0.175,10.328,0.031c24.937,1.488,49.758-0.505,74.588-2.76c5.812-0.528,11.602-1.813,17.409-2.173
			c6.126-0.381,12.301-0.606,18.403-1.328c13.258-1.569,26.524-1.587,39.855-1.608c6.565-0.01,12.957-0.029,19.471,0.929
			c6.229,0.916,12.396,1.95,18.695,2.262c5.976,0.297,11.886,1.008,17.883,0.777c6.12-0.235,12.211-1.108,18.295-1.398
			c24.403-1.164,47.971-10.229,72.57-10.211c23.555,0.017,47.037,2.027,70.11-3.065c6.342-1.399,12.86-3.288,18.51-6.59
			c5.623-3.286,10.194-8.398,14.695-13.024c4.486-4.613,7.635-9.753,11.525-14.785c3.885-5.025,5.74-11.421,7.819-17.353
			C496.28,435.048,495.554,429.096,495.43,422.746z M358.833,350.596c-1.544-5.059-3.188-12.136-0.896-17.234
			c0.785-1.744,2.051-3.48,3.272-4.958c2.815-3.41,4.329-3.165,6.756,0.409c2.423,3.568,3.76,7.705,8.31,9.047
			c4.109,1.211,7.798,0.216,10.852-2.611c1.802-1.667,3.723-3.537,4.723-5.806c1.106-2.508,0.758-5.197,1.422-7.799
			c1.608-6.3,7.641-12.94,14.657-10.835c6.965,2.089,7.58,10.932,7.402,16.967c-0.089,3.046,0.031,7.275-1.072,10.151
			c-1.369,3.569-6.32,4.259-9.138,7.065c-5.631,5.611-4.103,14.232-0.898,20.711c1.442,2.913,2.813,5.888,4.011,8.92
			c-5.759,0.274-10.624,6.224-16.366,7.91c-2.741,0.805-2.25,0.744-4.751-1.902c-2.811-2.973-2.364-2.809-1.076-5.949
			c1.017-2.483,2.417-4.55,3.77-6.838c1.657-2.805,3.495-6.563,2.145-9.86c-0.463-1.129-1.192-1.965-2.074-2.576
			c-1.2-1.628-3.02-1.846-4.978-1.297c-2.424,0.058-4.925,0.851-6.671,2.008c-2.413,1.601-4.035,4.11-5.705,6.41
			c-2.032,2.799-3.486,4.196-6.03,5.233C363.637,362.162,360.669,356.614,358.833,350.596z M346.895,429.952
			c9.156-4.701,15.171-11.307,20.984-19.427c6.006-8.39,7.686-19.367,4.62-29.044c-0.91-2.873-2.075-5.638-3.351-8.355
			c0.274-0.07,0.547-0.156,0.82-0.258c2.022-0.384,3.552-1.538,4.721-3.222c0.458-0.454,0.877-0.916,1.245-1.364
			c2.043-2.494,3.815-6.267,6.919-7.509c3.501-1.399,3.691,0.302,2.204,3.311c-0.615,1.245-1.378,2.397-2.125,3.562
			c-0.133,0.205-0.264,0.407-0.389,0.622c-0.492,0.786-0.97,1.58-1.368,2.429c-3.165,6.751-4.705,16.148,4.55,18.837
			c0.904,0.263,1.916,0.329,2.967,0.28c1.821,0.145,3.671-0.325,5.408-1.094c0.882-0.29,1.717-0.607,2.459-0.918
			c4.625-1.937,8.992-7.923,14.084-5.941c1.239,4.685,1.851,9.514,1.378,14.514c-0.245,2.589-0.756,4.901-0.697,7.531
			c0.054,2.429,0.612,4.967,0.172,7.39c-0.87,4.791-4.175,8.395-6.064,12.656c-3.75,8.46-14.501,13.382-22.801,16.513
			c-10.663,4.022-22.306,5.25-33.629,4.914c-11.28-0.335-23.176-1.678-34.177-4.232c-4.649-1.079-9.085-2.917-13.641-4.311
			c-5.349-1.638-10.8-3.611-15.776-6.183c-7.793-4.029-15.118-8.339-22.483-12.972c1.677-0.193,3.354-0.364,5.042-0.333
			c6.85,0.13,12.947,2.824,19.01,5.703c9.218,4.379,18.825,8.545,28.91,10.427C326.37,435.432,337.277,434.89,346.895,429.952z
			 M303.768,64.323c23.914-5.532,48.458-9.411,72.672-13.498c5.9-0.996,11.708-2.828,17.643-3.519
			c5.067-0.591,10.233-0.803,15.266-1.679c11.843-2.065,23.747-4.239,35.641-6.075c5.69-0.879,11.349-1.866,17.033-2.805
			c2.501-0.413,5.645-0.897,8.154-0.136c2.456,0.745,5.128,3.453,6.906,5.455c4.158,4.684,5.408,10.503,6.223,16.518
			c0.764,5.648,1.76,11.556,2.102,17.264c0.72,12.037,0.087,24.222-2.637,36.007c-1.495,6.464-3.334,12.712-5.736,18.914
			c-1.184,3.055-2.755,6.008-4.229,8.935c-1.563,3.104-2.86,6.98-5.114,9.646c-0.306,0.363-0.507,0.744-0.648,1.129
			c-0.849,0.486-1.743,0.83-2.665,1.08c-4.458,0.183-9.617-1.153-13.145-1.622c-8.831-1.173-17.609-2.823-26.46-3.76
			c-17.353-1.839-34.914-3.448-52.007-7.136c-8.143-1.757-16.635-2.949-24.901-4.228c-8.825-1.366-17.56-3.724-26.45-4.698
			c-7.913-0.867-15.895-1.621-23.857-2.541c-0.055-0.603-0.105-1.206-0.184-1.807c-0.526-3.921-0.046-7.838-0.603-11.732
			c-1.27-8.889-1.598-18.022-3.048-26.902c-0.548-3.359-0.344-6.649-1.631-9.843c-1.323-3.287-2.292-6.612-4.302-9.559
			C293.125,66.694,298.441,65.556,303.768,64.323z M280.106,69.643c2.301,2.99,3.5,5.796,4.76,9.318
			c1.15,3.219,1.245,6.672,1.644,10.119c0.955,8.245,1.103,16.642,2.503,24.828c0.605,3.535-0.247,7.07,0.195,10.622
			c0.084,0.679,0.151,1.357,0.218,2.036c-6.372-0.861-12.71-1.897-18.969-3.26c-5.237-1.141-10.597-1.98-15.946-2.783
			c8.256-4.588,13.271-13.442,12.742-24.275c-0.307-6.299-1.979-12.663-6.281-17.404c-1.485-1.637-3.782-3.472-5.772-4.4
			c-1.016-0.474-1.954-1.014-2.884-1.537c5.879-0.87,11.734-1.357,17.627-2.178c3.293-0.459,6.559-0.982,9.814-1.538
			C279.876,69.343,279.986,69.487,280.106,69.643z M242.89,118.769c-3.293-0.457-6.606-0.822-9.896-1.226
			c-2.284-0.281-4.251-1.024-6.047-2.053c-0.175-0.125-0.35-0.242-0.526-0.377c-4.082-3.125-5.024-6.53-6.216-11.193
			c-1.768-6.918-0.276-12.854,4.222-18.28c2.458-2.965,5.993-5.653,9.869-7.453c2.505-1.057,5.284-2.016,8.093-2.227
			c0.013-0.001,0.025-0.002,0.039-0.004c0.935-0.068,1.874-0.053,2.807,0.069c2.409,0.317,6.704,2.73,8.948,3.997
			c2.656,1.498,4.148,4.061,5.689,6.569c3.812,6.204,3.223,16.522-0.413,22.722C255.903,115.377,249.483,118.067,242.89,118.769z
			 M219.567,21.393c0.35-3.47,0.745-8.744,3.275-11.405c2.424-2.55,6.57-2.097,9.727-2.584
			c16.869-2.601,10.675,16.183,11.692,27.003c-3.933-0.016-7.872,0.083-11.783,0.092c-4.594,0.011-9.182,0.14-13.723,0.593
			C220.049,30.878,219.128,25.745,219.567,21.393z M197.214,52.792c1.736-5.913,4.844-7.65,10.516-8.99
			c7.473-1.767,14.164-2.908,21.884-2.893c7.647,0.014,15.298-0.365,22.824,0.603c3.393,0.436,6.928,0.458,10.227,1.608
			c2.981,1.039,3.278,2.018,3.777,5.046c0.249,1.515,0.628,2.996,0.659,4.508c-8.367-1.404-16.416-1.422-24.989-1.421
			c-4.717,0.001-9.532-0.262-14.237,0.134c-4.586,0.384-8.98,1.679-13.447,2.702c-6.642,1.521-13.052,3.872-18.801,7.201
			C196.271,58.486,196.373,55.662,197.214,52.792z M179.771,94.034c0.879-3.083,2.009-6.178,3.405-9.154
			c2.999,0.242,5.698,0.088,8.862-0.206c2.373-0.221,9.78-1.924,11.309,0.532c1.222,1.963-0.712,8.596-1.087,10.45
			c-0.709,3.51-1.133,7.053-1.816,10.568c-0.479,2.466-0.628,6.278-2.696,7.455c-2.278,1.296-6.371,1.25-8.826,1.573
			c-4.237,0.558-8.999,0.45-13.504,0.163C176.434,108.259,177.745,101.139,179.771,94.034z M174.643,121.322
			c2.221,0.111,4.376-0.042,6.751,0.147c4.962,0.395,9.893-0.798,14.765-1.65c1.204-0.211,2.553-0.413,3.835-0.776
			c0.488-0.107,0.912-0.254,1.284-0.444c1.197-0.495,2.259-1.206,2.959-2.342c2.074-3.369,2.174-9.387,2.755-13.264
			c0.883-5.906,5.829-19.11-0.479-23.379c-3.319-2.247-8.847-1.417-12.555-0.958c-2.529,0.313-5.261,0.359-7.833,0.827
			c1.532-2.408,3.282-4.661,5.304-6.649c4.632-4.554,12.434-8.443,18.565-10.409c7.704-2.471,16.284-3.951,24.343-3.952
			c4.214,0,8.427,0.002,12.641,0.006c4.514,0.004,9.553-0.588,13.991,0.344c3.264,0.685,6.869,1.044,9.942,2.325
			c1.855,0.774,3.275,1.778,4.523,2.942c-0.77,0.124-1.538,0.258-2.31,0.375c-7.492,1.134-14.883,1.454-22.288,3.131
			c-3.912,0.886-8.643,1.466-12.166,3.553c-5.224,0.987-11.115,3.611-15.063,6.888c-4.732,3.929-6.059,8.574-7.738,14.032
			c-0.248,0.808-0.466,1.625-0.63,2.455c-0.776,3.921-0.178,6.776,0.716,10.57c0.916,3.887,0.847,6.916,3.588,10.013
			c5.778,6.529,12.475,8.788,20.844,8.819c6.036,1.255,12.149,2.29,18.182,3.306c8.821,1.486,17.57,3.495,26.44,4.654
			c1.633,0.213,3.269,0.409,4.904,0.605c0.098,1.467,0.192,2.932,0.299,4.405c-0.691,0.034-1.366,0.06-2.008,0.061
			c-8.876,0.021-17.828,0.562-26.703,0.97c-8.967,0.413-17.664,0.395-26.65-0.041c-4.567-0.222-9.165,0.726-13.745,0.835
			c-2.219,0.053-4.446,0.356-6.633,0.014c-1.878-0.293-3.31-0.727-5.233-0.505c-8.767,1.014-17.725-0.128-26.603-0.334
			c-3.646-0.084-6.636,0.612-10.057,1.497C173.289,133.328,173.905,127.312,174.643,121.322z M166.721,153.705
			c0.551-3.375,0.625-5.899,4.367-7.064c3.816-1.188,7.523-2.342,11.545-2.289c4.016,0.053,8.079,0.019,12.089,0.163
			c3.882,0.139,7.714,0.963,11.618,0.75c6.771-0.37,13.547,0.505,20.468-0.034c8.064-0.628,15.982,0.962,24.031,0.317
			c15.008-1.202,30.245-0.662,45.323-1.264c1.825-0.074,3.656-0.433,5.147,0.728c1.745,1.358,1.932,4.058,2.108,6.146
			c0.331,3.92,0.499,7.88,0.795,11.804c0.711,9.453-0.049,19.296-0.181,28.825c-2.383-0.073-4.778,0.06-7.17,0.03
			c-2.38-0.029-4.786,0.141-7.195,0.366c-0.065-0.277-0.164-0.545-0.305-0.791c0.741-8.245-0.033-16.746-0.763-24.904
			c-0.369-4.12-0.219-13.234-5.805-14.391c-2.116-1.875-4.728-2.632-7.55-0.823c-6.58,4.22-4.282,16.864-4.221,23.156
			c0.045,4.57,0.495,8.925,1.162,13.418c0.231,1.557,0.177,3.293,0.583,4.832c0.061,0.233,0.151,0.442,0.233,0.657
			c-3.178,0.068-6.364,0.08-9.553,0.048c-0.506-3.875,0.071-8.409-0.171-12.062c-0.309-4.664-0.059-9.384-0.55-14.025
			c-0.14-1.321-0.272-2.726-0.477-4.1c-0.169-1.74-0.538-3.436-1.328-4.813c-1.117-2.303-3.031-3.868-6.543-3.663
			c-6.848,0.399-7.61,8.585-7.888,14.188c-0.394,7.928,0.263,15.835,1.912,23.535c0.03,0.275,0.053,0.548,0.087,0.823
			c-0.319,0.002-0.639,0-0.957,0.002c-2.805,0.029-5.579,0.33-8.353,0.621c-0.049-0.165-0.11-0.327-0.183-0.48
			c-0.891-9.736,0.648-19.641-0.836-29.434c-0.693-4.568-2.863-15.207-10.06-12.741c-6.523,2.235-7.451,12.531-7.193,18.167
			c0.277,6.058,1,12.074,1.401,18.122c0.213,3.22,0.63,4.867,1.633,6.901c-3.148,0.037-6.284,0.16-9.472,0.511
			c-0.259,0.029-0.526,0.051-0.788,0.076c-0.021-0.2-0.065-0.387-0.131-0.56c-0.577-4.341-0.209-9.314-0.394-13.679
			c-0.218-5.133-0.271-10.427-1.035-15.52c-0.853-5.688-4.378-12.023-11.244-10.11c-5.829,1.624-5.837,10.247-5.809,15.078
			c0.051,8.742,0.795,17.108,2.321,25.64c-2.564,0.066-5.074,0.26-7.576,0.51c-1.072-4.476-0.448-9.664-0.795-14.262
			c-0.43-5.714-0.363-11.474-0.781-17.192c-0.196-2.687-0.2-7.245-2.366-9.22c-2.002-1.826-6.136-1.534-8.514-0.665
			c-7.276,2.659-5.856,15.342-5.859,21.325c-0.002,5.077,0.494,9.965,0.775,15.006c0.123,2.216-0.006,4.796,1.263,6.568
			c-2.444,0.176-4.891,0.325-7.329,0.427c-0.708,0.029-1.502,0.046-2.324,0.069C168.465,184.135,164.341,168.288,166.721,153.705z
			 M277.189,189.372c0.241-5.635-0.149-11.123-0.315-16.823c-0.104-3.592-0.544-7.298,0.105-10.864
			c0.28-1.536,1.04-3.486,2.098-4.661c0.303,0.151,0.633,0.374,1.011,0.727c2.865,2.668,2.64,9.516,2.728,13.233
			c0.171,7.276,0.906,14.546,0.509,21.833c-0.84,0.08-1.678,0.152-2.512,0.21c-1.191,0.083-2.386,0.141-3.581,0.193
			C277.3,191.949,277.259,190.661,277.189,189.372z M251.476,182.668c0.025-3.026-0.022-6.056-0.03-9.071
			c-0.005-1.673,0.829-10.922,3.099-13.862c0.499-0.08,1.069,0.199,1.719,0.991c1.674,2.039,1.55,7.573,1.62,10.054
			c0.1,3.524,0.054,7.021,0.281,10.544c0.233,3.621,0.341,7.22,0.149,10.849c-0.021,0.399-0.048,0.781-0.074,1.158
			c-2.156-0.028-4.31-0.051-6.46-0.059C252.317,189.786,251.785,186.246,251.476,182.668z M233.615,194.366
			c-0.898,0.046-1.797,0.078-2.7,0.072c-1.317-0.01-2.625-0.019-3.927-0.023c0.341-2.068,0.227-4.183-0.014-6.311
			c0.002-3.31-0.065-6.618-0.092-9.999c-0.037-4.66-2.467-15.615,1.373-19.882c0.229-0.051,0.474-0.094,0.753-0.123
			c0.936-0.096,1.616-0.049,2.129,0.134c0.801,1.472,1.153,4.135,1.355,5.441c0.595,3.865,0.993,8.017,1.147,11.933
			C233.883,181.77,232.834,188.232,233.615,194.366z M200.589,177.812c-0.039-0.8-0.101-1.599-0.171-2.398
			c0.005-1.724,0.041-3.45,0.046-5.185c0.004-1.18-0.123-2.928-0.039-4.605c0.7-3.084,2.254-6.625,4.957-3.442
			c1.209,1.423,1.106,5.14,1.432,6.893c0.239,1.284,0.5,2.553,0.723,3.827c0.168,1.955,0.315,3.912,0.395,5.849
			c0.221,5.251-0.474,11.481,0.529,16.709c-2.559,0.174-5.124,0.286-7.645,0.334C201.294,189.855,200.872,183.741,200.589,177.812z
			 M176.983,183.516c-0.131-4.72-2.377-21.426,3.099-23.6c0.193-0.077,0.893-0.001,1.475,0.019c0.369,0.351,0.681,0.815,0.939,1.34
			c0.253,1.719,0.5,3.986,0.495,3.816c0.328,3.863,0.563,7.811,0.738,11.679c0.292,6.439-0.382,13.789,1.035,20.145
			c-1.221,0.135-2.448,0.269-3.692,0.388c-1.354,0.131-2.711,0.251-4.069,0.365C178.789,193.897,177.079,186.964,176.983,183.516z
			 M162.087,213.524c-0.845-0.089-2.404,0.218-3.155-0.128c-1.751-0.808-2.112-3.92-2.038-5.502c0.212-4.579,4.707-4.1,8.556-4.2
			c7.927-0.206,15.731-0.739,23.63-1.564c8.529-0.891,17.234,0.025,25.777-0.708c7.923-0.68,15.882,0.442,23.766-0.492
			c8.791-1.043,17.82-0.311,26.659-0.235c7.963,0.069,15.828-0.493,23.751-0.593c3.535-0.045,7.042-0.131,10.534-0.036
			c1.498,0.041,2.788-0.382,4.23-0.45c2.074-0.096,4.155,0.604,6.249,0.668c5.266,0.161,9.708,0.677,8.713,7.241
			c-0.521,3.43-1.41,5.057-5.321,5.368c-1.591,0.127-3.163,0.371-4.729,0.659c-1.799-0.61-3.776-0.746-5.726-0.776
			c-3.961-0.061-7.701-0.462-11.634-0.795c-9.907-0.839-20.128,0.529-30.059,0.329c-3.733-0.075-7.25,0.809-11.013,0.72
			c-4.99-0.119-9.968-0.438-14.963-0.184c-4.547,0.23-8.924,0.899-13.501,0.773c-4.545-0.125-9.147-0.507-13.671,0.008
			c-8.473,0.967-18.566-0.46-27.54,0.735c-2.355-0.169-4.51-0.117-6.974,0.193C169.599,215.062,166.024,213.938,162.087,213.524z
			 M164.717,250.925c1.408-7.073,3.224-16.401,7.772-22.171c4.56-5.784,15.351-5.812,21.962-5.227
			c8.522,0.753,17.046-0.698,25.597-0.457c9.05,0.255,17.965-1.047,27.04-0.67c3.625,0.151,7.007,0.105,10.593-0.418
			c4.053-0.591,8.541-0.348,12.699-0.364c8.773-0.031,17.34-0.076,26.051,0.621c2.65,0.212,7.375-0.889,9.234,0.775
			c0.974,0.871,1.434,3.574,1.831,4.766c0.799,2.412,1.387,4.885,2.081,7.327c2.585,9.094,3.072,18.316,4.842,27.554
			c0.445,2.32,0.852,4.639,1.257,6.959c-13.137,0.178-26.183,1.187-39.366,1.192c-6.236,0.002-12.336,0.606-18.554,0.578
			c-7.788-0.035-15.822-0.439-23.576,0.175c-13.94,1.103-27.994,1.403-41.995,1.507c-6.084,0.045-12.038,0.234-18.019-0.43
			c-3.312-0.368-7.175-0.089-10.509,0.052c-1.129,0.048-2.067,0.228-2.947,0.483C162.083,265.761,163.248,258.31,164.717,250.925z
			 M155.589,303.91c0.9-8.674,2.565-17.355,4.22-25.94c3.781,0.498,7.962-0.116,11.622,0.043c6.181,0.269,12.313,0.732,18.613,0.777
			c14.301,0.106,28.864,0.503,43.088-0.74c7.351-0.642,14.94,0.017,22.325,0.027c6.236,0.01,12.348-0.591,18.558-0.579
			c14.337,0.025,28.529-1.074,42.813-1.204c0.647,3.813,1.297,7.626,2.008,11.434c1.491,7.981,1.13,16.155,2.225,24.174
			c-3.757,0.444-7.499,0.153-11.278,0.321c-3.253,0.145-6.4,0.769-9.675,0.7c-6.783-0.141-13.91,0.11-20.626,0.777
			c-8.715,0.868-17.648,0.44-26.424,0.476c-7.367,0.03-15.154-1.023-22.447-0.385c-6.373,0.558-12.725,0.562-19.155,0.507
			c-7.235-0.061-14.486,0.739-21.783,0.698c-4.168-0.023-8.219,0.697-12.399,0.704c-3.894,0.007-7.784-0.215-11.679-0.1
			c-3.817,0.112-7.702,0.516-11.481,0.981c-0.221,0.028-0.433,0.069-0.646,0.11C154.312,312.454,155.142,308.214,155.589,303.91z
			 M144.521,378.234c1.431-7.324,2.248-14.572,3.102-21.984c0.952-8.269,2.726-16.421,3.446-24.725
			c0.278-3.218,0.794-6.398,1.384-9.566c3.977,0.077,7.937-0.472,11.983-0.516c0.683-0.007,1.369-0.019,2.053-0.028
			c0.718,0.036,1.441,0.063,2.151,0.115c7.123,0.523,14.419,0.121,21.561,0.142c15.361,0.049,30.722,0.102,46.082,0.119
			c15.062,0.017,30.191,0.481,45.245,0.148c7.388-0.163,14.734-1.158,22.132-1.443c6.291-0.242,12.474-0.556,18.765-0.621
			c0.397,2.196,0.756,4.399,0.965,6.68c0.375,4.08,0.98,8.048,1.556,12.1c0.669,4.714,1.901,9.25,2.354,14.005
			c0.488,5.131,1.307,10.207,2.345,15.255c1.979,9.613,3.237,19.083,4.645,28.754c0.671,4.609,0.399,9.346,1.112,13.916
			c0.585,3.744,1.191,8.192,0.828,12.168c-0.519,0.599-0.903,1.291-1.096,2.019c-4.353,1.045-8.843,1.419-13.136,1.074
			c-13.115-1.051-24.391-7.375-36.445-11.971c-6.568-2.505-13.112-4.121-20.191-3.252c-3.492,0.428-7.327,0.846-10.647,2.22
			c-2.398-1.247-4.81-2.459-7.117-3.999c-3.819-2.55-8.138-5.131-12.279-7.099c-8.879-4.22-18.21-8.388-27.724-11.064
			c0.658-9.032,1.854-18.542,0.601-27.31c-1.047-7.333-7.937-15.191-15.699-14.915c-8.308,0.294-16.472,7.138-19.67,14.597
			c-2.854,6.659-3.075,16.058-1.986,23.95c-9.367,0.005-18.77-0.067-28.057,1.211C143.551,385.034,143.824,381.802,144.521,378.234z
			 M201.447,389.183c-7.982-1.595-16.367-2.071-24.51-2.162c1.179-11.128-0.515-28.207,12.696-31.003
			c10.181-2.155,11.789,7.75,11.87,15.441C201.565,377.364,201.439,383.273,201.447,389.183z M460.694,472.78
			c-8.107,7.517-18.915,9.645-29.463,11.721c-4.234,0.834-8.892,0.824-13.2,0.92c-5.68,0.125-10.97,0.626-16.672,0.158
			c-5.268-0.433-10.582-0.116-15.866-0.095c-6.451,0.025-13.023-0.331-19.453,0.186c-21.862,1.757-43.094,7.304-64.783,10.025
			c-10.418,1.308-21.568,2.054-32.077,1.057c-5.607-0.532-11.198-0.654-16.779-1.498c-5.709-0.863-11.413-1.962-17.193-2.221
			c-23.063-1.035-45.945,1.239-68.902,2.57c-5.325,0.309-10.515,1.626-15.834,1.98c-5.594,0.372-11.245,0.406-16.826,0.915
			c-11.067,1.011-22.076,2.244-33.185,2.517c-11.303,0.277-22.643-0.283-33.911-0.6c-2.7-0.076-5.107-0.967-7.745-1.366
			c-2.606-0.394-5.183,0.077-7.775-0.271c-5.256-0.705-10.45-2.758-15.544-4.163c-1.814-0.5-5.761-1.292-7.15-2.489
			c-1.704-1.468-0.888-4.537-0.568-6.425c0.471-2.779-0.372-0.798,0.629-2.526c0.775-1.339,1.895-2.517,2.654-3.93
			c1.326-2.47,2.374-4.425,4.163-6.552c1.903-2.263,3.07-4.892,4.692-7.343c1.734-2.619,3.918-4.907,5.935-7.31
			c3.477-4.144,7.511-7.869,11.544-11.457c4.164-3.704,7.635-8.277,11.514-12.302c1.63-1.691,3.052-3.498,4.567-5.173
			c1.182-0.955,2.398-1.872,3.707-2.69c7.723-4.826,15.649-10.145,23.9-13.968c4.564-2.115,9.049-4.427,13.723-6.311
			c4.561-1.839,9.594-2.602,14.327-3.889c9.61-2.614,19.492-4.153,29.459-4.106c10.252,0.047,20.404,0.26,30.633,0.786
			c10.85,0.557,21.627,4.169,31.39,8.788c8.243,3.899,16.154,7.779,23.708,12.934c3.733,2.547,8.021,3.845,11.765,6.445
			c4.361,3.028,8.714,5.718,13.422,8.139c17.345,8.923,34.889,16.239,54.358,18.982c20.321,2.864,41.512,4.343,60.894-3.838
			c8.85-3.735,15.797-8.956,23.062-15.031c2.987-2.497,3.748-4.79,5.429-8.102c1.429-2.818,3.06-5.402,4.405-8.202
			c0.664,0.581,1.394,1.086,2.189,1.495c0.558,0.562,1.194,0.986,1.916,1.211c0.891,0.277,2.153,0.248,3.577,0.098
			c1.004,0.047,2.009,0.031,2.982-0.006c1.969-0.075,3.83-0.398,5.765-0.75c0.281-0.052,0.577-0.131,0.873-0.217
			c1.029,0.111,1.843,0.423,2.342,1.023c-0.993,3.222-6.951,5.908-8.944,7.551c-2.749,2.266-4.237,4.915-5.655,8.097
			c-2.654,5.956-3.394,11.285,2.055,15.914c4.778,4.059,10.914,3.475,15.978,0.155c5.284-3.463,14.357-11.971,21.302-8.903
			c2.865,1.266,3.31,4.684,5.737,6.482c1.925,1.426,4.782,1.972,7.148,1.973c1.103,0.001,2.194-0.124,3.266-0.34
			C473.658,460.35,466.977,466.954,460.694,472.78z M485.952,432.564c-0.249,3.534-1.599,7.064-3.069,10.452
			c-4.171,2.596-8.95,4.497-12.209,0.78c-3.245-3.7-5.322-6.137-10.753-6.39c-5.579-0.26-9.658,1.849-14.134,4.914
			c-4.068,2.785-14.918,11.462-18.255,4.393c-0.757-1.603-0.225-3.981,0.748-6.205c1.938-2.091,6.6-5.883,9.964-9.946
			c0.052-0.048,0.108-0.089,0.16-0.139c3.01-2.872,7.069-8.007,5.694-12.436c-1.425-4.59-5.726-4.327-9.531-3.559
			c-3.16,0.638-6.683,1.786-9.93,1.276c-2.21-0.347-3.744-1.622-4.823-3.31c0.589-4.374-0.259-9.005,0.405-13.382
			c0.794-5.226,0.2-10.855-0.687-16.064c-0.803-4.708-2.33-9.598-4.296-13.953c-2.133-4.728-5.695-8.776-5.928-14.17
			c-0.194-4.497,4.669-8.189,8.894-8.607c5.059-0.501,10.565,3.917,13.421,7.71c6.054,8.043,5.472,19.24,3.693,28.488
			c-1.144,5.942,8.113,8.351,9.013,2.484c0.803-5.224,1.473-8.882,0.323-14.082c-0.465-2.106-0.621-4.34-1.122-6.412
			c-0.428-1.767-1.287-3.173-1.992-4.874c-0.049-0.119-0.102-0.235-0.153-0.354c4.873-1.961,9.039,0.007,14.053,1.667
			c7.324,2.425,10.655,11.818,10.571,18.975c-0.155,13.237-13.603,20.445-16.988,32.674c-0.562,2.031,1.288,3.464,3.152,3.152
			c3.734-0.627,5.576-3.932,7.615-6.786c2.761-3.864,5.96-7.398,8.723-11.242c0.435-0.605,0.835-1.228,1.217-1.859
			c4.373,0.44,7.47,2.279,10.194,6.018c3.807,5.225,6.03,9.073,6.005,15.749C485.908,422.487,486.3,427.625,485.952,432.564z"/>
	</g>
</g>
<g>
	<g>
		<path d="M109.79,221.314c-4.204-2.156-7.807-5.165-11.431-8.206c-1.859-1.56-3.146-3.275-4.732-5.084
			c-1.62-1.848-3.677-3.116-5.35-4.879c-1.538-1.621-1.989-3.443-3.07-5.295c-0.951-1.63-2.053-2.669-2.66-4.482
			c-3.167-9.463-5.256-19.496-4.257-29.576c0.466-4.703,1.985-9.407,3.322-13.923c1.666-5.625,4.868-10.256,7.599-15.372
			c2.907-5.445,10.588-12.648,6.389-19.345c-3.698-5.896-13.127-4.394-18.507-2.367c-8.184,3.083-15.397,8.842-21.987,14.419
			c-7.207,6.1-14.28,10.804-18.79,19.443c-2.295,4.394-3.443,9.195-5.396,13.72c-2.113,4.895-3.498,10.878-4.361,16.135
			c-1.462,8.891-1.626,20.514,2.302,28.79c4.339,9.146,10.283,16.951,18.826,22.426c1.937,1.241,4.046,2.174,5.981,3.402
			c7.194,4.568,18.339,8.478,26.933,7.676c6.666-0.622,13.208-0.388,19.712-2.186c3.434-0.95,7.327-2.065,9.343-5.068
			c2.268-0.871,4.404-2.406,4.392-5.066C114.037,223.781,111.942,222.418,109.79,221.314z M96.975,228.997
			c-4.036,1.335-7.809,1.595-12.026,1.667c-4.179,0.071-8.11,0.58-12.195-0.566c-4.221-1.185-8.327-3.096-12.327-4.867
			c-7.157-3.167-14.468-8.608-18.001-15.737c-0.906-1.831-2.1-3.522-2.975-5.353c-0.946-1.979-1.129-4.23-1.869-6.311
			c-1.505-4.233-2.127-8.698-2.376-13.178c-0.494-8.978,1.544-18.343,4.726-26.759c1.751-4.629,4.46-8.125,7.193-12.166
			c2.485-3.674,4.781-7.304,8.113-10.291c5.186-4.28,10.461-8.672,16.239-11.938c3.149-1.78,6.304-3.828,9.823-4.754
			c3.017-0.793,9.501-2.048,7.703,2.881c-1.012,2.772-3.601,5.056-5.031,7.661c-2.244,4.089-4.821,8.119-6.768,12.355
			c-6.242,13.583-7.706,29.891-4.243,44.418c0.788,3.306,2.06,6.545,3.059,9.79c0.951,3.089,3.093,5.733,4.588,8.597
			c1.613,3.089,4.481,4.75,6.9,7.141c2.94,2.906,5.388,5.906,8.635,8.544c2.402,1.951,4.855,4.188,7.529,5.817
			C101.264,226.694,99.412,228.189,96.975,228.997z"/>
	</g>
</g>
<g>
</g>
<g>
</g>
<g>
</g>
<g>
</g>
<g>
</g>
<g>
</g>
<g>
</g>
<g>
</g>
<g>
</g>
<g>
</g>
<g>
</g>
<g>
</g>
<g>
</g>
<g>
</g>
<g>
</g>
</svg>
