<svg xmlns="http://www.w3.org/2000/svg"  viewBox="0 0 56.448 36.725">
  <g  transform="translate(-420.146 -274.291)">
    <path id="Path_1435" data-name="Path 1435" d="M452.858,483.317c-.206-.044-.412-.087-.617-.133-.282-.064-.568-.117-.845-.2-.376-.112-.751-.232-1.117-.374a5.864,5.864,0,0,1-1.527-.857c-.134-.106-.275-.2-.421-.306a4.292,4.292,0,0,1-1.673.885,6.6,6.6,0,0,1-2.208.206,9.933,9.933,0,0,1-1.355-.195q-1-.209-1.995-.479c-.41-.111-.807-.272-1.209-.411-.217-.075-.435-.147-.647-.234-.049-.02-.074-.1-.136-.186.168.029.277.055.389.065a10.5,10.5,0,0,0,1.24.092,11.7,11.7,0,0,0,1.5-.159c.573-.092,1.143-.205,1.707-.343.444-.109.88-.257,1.312-.408s.849-.311,1.262-.495a6.632,6.632,0,0,0,1.55-.9.324.324,0,0,1,.48.03,7.825,7.825,0,0,0,1.361,1.089,7.285,7.285,0,0,0,1.782.824,10.512,10.512,0,0,0,1.3.323,6.048,6.048,0,0,0,2,.017c.4-.077.8-.12,1.2-.212a5.461,5.461,0,0,0,.893-.3,10.182,10.182,0,0,0,1.207-.58c.426-.254.823-.558,1.223-.853.172-.127.314-.294.484-.425a.227.227,0,0,1,.216,0c.246.2.476.416.715.623a6.456,6.456,0,0,0,1.74,1.073,10.455,10.455,0,0,0,1.227.454,7.655,7.655,0,0,0,1.2.215,10.4,10.4,0,0,0,1.247.066,6.059,6.059,0,0,0,.965-.1c.345-.059.686-.143,1.025-.232a7.335,7.335,0,0,0,1.676-.691,7.5,7.5,0,0,0,1.735-1.328c.188-.191.268-.17.458.026a6.153,6.153,0,0,0,1.573,1.219c.413.214.833.417,1.262.6.255.108.534.157.8.246a6.172,6.172,0,0,0,1.522.253,8.9,8.9,0,0,0,1.381-.055,7.254,7.254,0,0,0,.912-.138c.282-.059.559-.146.835-.23a6.566,6.566,0,0,0,1.579-.729c.4-.253.771-.565,1.15-.857a3.94,3.94,0,0,0,.328-.306c.211-.206.265-.207.494-.023a5.5,5.5,0,0,0,1.47.845c.6.233,1.2.478,1.817.682.45.149.918.244,1.38.354.394.094.789.19,1.188.26a8.493,8.493,0,0,0,.953.106c.389.024.78.034,1.17.033a5.154,5.154,0,0,0,.574-.063v.134c-.061.022-.122.046-.184.066-.411.131-.821.264-1.233.39-.427.131-.852.276-1.287.377-.5.115-1,.2-1.5.275a8.622,8.622,0,0,1-1.268.125,8.965,8.965,0,0,1-1.284-.126,3.888,3.888,0,0,1-1.93-.844.159.159,0,0,0-.219-.007c-.349.243-.69.5-1.056.717a8.559,8.559,0,0,1-1,.471,6.9,6.9,0,0,1-.8.283c-.31.088-.627.151-.942.221-.222.049-.445.09-.668.135h-2.688c-.318-.067-.641-.118-.954-.2-.531-.146-1.067-.286-1.581-.48a6.6,6.6,0,0,1-1.925-1.139.158.158,0,0,0-.219,0c-.359.251-.708.516-1.084.738a7.529,7.529,0,0,1-.953.445,7.3,7.3,0,0,1-.812.285c-.31.088-.628.151-.943.22-.222.049-.445.09-.668.135h-2.688a.258.258,0,0,0-.068-.032c-.244-.039-.49-.063-.731-.118-.319-.072-.636-.154-.947-.256-.372-.123-.742-.253-1.1-.411a6.566,6.566,0,0,1-1.62-1.011c-.076-.065-.131-.047-.2,0a14.541,14.541,0,0,1-1.343.873,11.088,11.088,0,0,1-1.517.6,8.67,8.67,0,0,1-.96.217l-.617.133Z" transform="translate(-15.979 -172.301)" fill="#fff"/>
    <path id="Path_1436" data-name="Path 1436" d="M671.767,278.793a6.716,6.716,0,0,0-1.217-2.126A6.51,6.51,0,0,0,668,274.787c-.372-.151-.766-.246-1.151-.364-.154-.047-.31-.088-.465-.132H664.2c-.177.045-.358.08-.531.136a13.512,13.512,0,0,0-1.347.461,6.576,6.576,0,0,0-1.508.978,6.752,6.752,0,0,0-1.379,1.585,6.091,6.091,0,0,0-.871,2.163,10.325,10.325,0,0,0-.169,1.344,5,5,0,0,0,.065,1.062,9.616,9.616,0,0,0,.316,1.425,6.5,6.5,0,0,0,.993,1.887,6.761,6.761,0,0,0,1.707,1.6,6.577,6.577,0,0,0,2.061.912,6.865,6.865,0,0,0,1.346.215,6.983,6.983,0,0,0,4.015-1,6.088,6.088,0,0,0,1.268-.989c.3-.318.543-.685.821-1.022a4.738,4.738,0,0,0,.729-1.356,6.928,6.928,0,0,0,.454-2.587A7.2,7.2,0,0,0,671.767,278.793Zm-3.755-3.172a6.245,6.245,0,0,1,2.783,2.73c-.238.1-.461.183-.682.275-.382.159-.762.321-1.144.481-.17.071-.339.147-.514.205a.169.169,0,0,1-.149-.063c-.267-.488-.514-.987-.792-1.469a8.425,8.425,0,0,0-.574-.822c-.062-.083-.051-.116.015-.186C667.309,276.4,667.653,276.015,668.013,275.622Zm-3.308,5.066c.046.109.03.166-.074.208l-2.127.866a11.893,11.893,0,0,1-.651-2.542l2.028-.517C664.151,279.358,664.424,280.024,664.7,280.687Zm-.154-2.266,1.765-1.067a11.292,11.292,0,0,1,1.372,2.277l-2.257.926Zm.5,3.118,1.084,2.635c-.329.179-.654.352-.974.534-.214.122-.426.249-.626.391-.092.065-.136.039-.192-.029a12.336,12.336,0,0,1-1.494-2.44.812.812,0,0,1-.038-.158Zm.744-.119c-.019-.045-.043-.088-.072-.149l2.3-.954c.185.663.375,1.3.533,1.937.086.351.118.715.173,1.073.013.087-.023.122-.118.139-.356.064-.71.136-1.062.22-.217.052-.426.136-.641.2a.146.146,0,0,1-.124-.067C666.452,283.019,666.124,282.219,665.795,281.42Zm1.5-6.1-.855.93-1.509-1.247A5.771,5.771,0,0,1,667.291,275.324Zm-2.829.347a5.394,5.394,0,0,1,1.367,1.111l-1.571.926-.969-2.337A2,2,0,0,1,664.461,275.671Zm-1.833,0,.94,2.28a8.049,8.049,0,0,1-1.773.484C661.648,277.395,662.115,275.855,662.628,275.67Zm-1.316.767a6.274,6.274,0,0,0-.207,2.048h-1.378A5.843,5.843,0,0,1,661.313,276.437Zm-1.9,2.771c.5.019.98.041,1.461.054.29.008.3,0,.333.284a10.506,10.506,0,0,0,.567,2.289c.024.066.036.135.056.212l-2.425.991A5.838,5.838,0,0,1,659.409,279.208Zm3.48,7.431c-.076.151-.179.131-.3.07a5.937,5.937,0,0,1-2.086-1.666c-.283-.373-.522-.78-.779-1.173a.491.491,0,0,1-.038-.115c.409-.167.813-.329,1.214-.5s.79-.335,1.208-.513a12.561,12.561,0,0,0,1.745,2.893c-.27.269-.541.537-.81.808A.811.811,0,0,0,662.888,286.64Zm.6.41.822-.823,1.378,1.1A6.416,6.416,0,0,1,663.487,287.05Zm2.913-.267a4.649,4.649,0,0,1-1.462-1.07l1.486-.844.84,2.039A1.542,1.542,0,0,1,666.4,286.783Zm1.555-.106-.843-2.051a8.229,8.229,0,0,1,1.7-.441A3.467,3.467,0,0,1,667.955,286.677Zm1.355-.849q.1-.843.2-1.705h1.177A5.971,5.971,0,0,1,669.31,285.828Zm1.732-2.424-1.581-.075c-.059-.348-.1-.725-.19-1.092-.139-.585-.306-1.163-.464-1.743-.031-.116-.084-.226-.106-.343a.166.166,0,0,1,.07-.142c.58-.249,1.163-.49,1.747-.731.186-.076.374-.145.581-.225A5.885,5.885,0,0,1,671.042,283.4Z" transform="translate(-200.773)" fill="#fff"/>
    <path id="Path_1437" data-name="Path 1437" d="M506.9,350.2c-.117-.365-.219-.736-.36-1.091a1.743,1.743,0,0,0-.666-.864,2.836,2.836,0,0,0-1.539-.4c-.28,0-.56-.01-.84,0a1.733,1.733,0,0,0-.485.085,6.958,6.958,0,0,0-.8.318,4.55,4.55,0,0,0-.681.412,3.6,3.6,0,0,0-.822.859,2.814,2.814,0,0,0-.483,1.049c-.049.245-.067.5-.1.734-.162-.1-.328-.216-.506-.31a3.818,3.818,0,0,0-1.664-.462,4.735,4.735,0,0,0-1.5.191,3.713,3.713,0,0,0-2.146,1.645,2.891,2.891,0,0,0-.431,1.321c-.023.354.007.712.013,1.068l.061.028.129-.138c.231-.245.445-.509.7-.73a2.674,2.674,0,0,1,1.555-.557,2.937,2.937,0,0,1,1.914.485,3.93,3.93,0,0,1,1.539,1.739,5.913,5.913,0,0,1,.5,2.052,4.692,4.692,0,0,1-.333,2.125,2.4,2.4,0,0,1-.839,1.117,2.146,2.146,0,0,1-1.2.441,5.138,5.138,0,0,1-.993-.018c-.453-.087-.888-.261-1.336-.381a3.568,3.568,0,0,1-1.315-.717,14.676,14.676,0,0,1-2.119-2.215c-.6-.746-1.164-1.529-1.739-2.3-.44-.59-.871-1.187-1.307-1.78-.588-.8-1.17-1.607-1.77-2.4-.257-.34-.553-.65-.831-.973a11.154,11.154,0,0,0-1.885-1.719,10.717,10.717,0,0,0-1.831-1.061,12.565,12.565,0,0,0-1.947-.718q-.561-.155-1.127-.29c-.24-.058-.483-.109-.728-.145-.376-.055-.753-.1-1.131-.137-.49-.05-.98-.121-1.47-.127-.662-.008-1.325.033-1.987.061-.344.014-.689.025-1.029.071-.555.075-1.111.156-1.659.272a18.352,18.352,0,0,0-1.78.452c-.648.206-1.278.469-1.915.71a14.535,14.535,0,0,0-2.393,1.2,17.278,17.278,0,0,0-2.487,1.825c-.36.319-.692.671-1.031,1.014a14.251,14.251,0,0,0-1.98,2.576,13.951,13.951,0,0,0-1.254,2.636c-.192.54-.321,1.1-.469,1.658-.1.382-.087.427.27.608.458.232.919.459,1.392.658.424.178.864.322,1.3.467.259.086.526.149.791.216s.508.139.767.18c.434.07.872.125,1.309.172.495.053.991.111,1.488.129.479.017.96-.012,1.439-.03.215-.008.429-.038.642-.063.262-.031.525-.061.786-.1.227-.038.453-.088.677-.141.2-.048.4-.107.6-.161l.028.037c-.242.212-.481.427-.727.634a5.626,5.626,0,0,1-1.885,1,9.871,9.871,0,0,1-1.433.342,11.452,11.452,0,0,1-1.479.164,9.5,9.5,0,0,1-1.964-.092c-.455-.076-.917-.121-1.368-.216-.379-.079-.745-.215-1.119-.318a8.864,8.864,0,0,1-1.523-.575c-.113-.055-.23-.1-.358-.156a38.36,38.36,0,0,0,.068,5.838,7.921,7.921,0,0,0,6.119-2.543A8.177,8.177,0,0,0,476,364.815a8.173,8.173,0,0,0,11.831-.007c.092.1.17.2.261.287a6.638,6.638,0,0,0,1.4,1.068c.335.177.665.367,1.011.522a6.316,6.316,0,0,0,1.918.542c.428.046.856.1,1.285.128a3.021,3.021,0,0,0,.5-.03,9.841,9.841,0,0,0,1.037-.11c.394-.079.777-.214,1.166-.322a6.818,6.818,0,0,0,1.823-.875,5.515,5.515,0,0,0,1.3-1.1c.059-.071.115-.107.208-.008a7.476,7.476,0,0,0,2.319,1.667.177.177,0,0,0,.253-.045c.356-.4.729-.789,1.063-1.207a5.623,5.623,0,0,0,.885-1.4,4.836,4.836,0,0,0,.353-1.3c.036-.345,0-.7.009-1.046a5.98,5.98,0,0,0-.311-1.8,15.432,15.432,0,0,0-.562-1.541c-.345-.822-.719-1.633-1.081-2.448a8.314,8.314,0,0,1-.681-1.857,3.084,3.084,0,0,1,.028-1.412,4.144,4.144,0,0,1,1.263-2.036,2.982,2.982,0,0,1,1.689-.794,2.36,2.36,0,0,1,1.549.4c.122.08.242.164.385.261A.638.638,0,0,0,506.9,350.2Zm-38.564,7.028a1.444,1.444,0,0,1-1.874-.468,1.125,1.125,0,0,0,1.482-.571,1.216,1.216,0,0,0-.48-1.59,1.4,1.4,0,0,1,.871,2.63Z" transform="translate(-31.856 -60.712)" fill="#fff"/>
    <g id="Group_2885" data-name="Group 2885" transform="translate(420.146 279.254)">
      <path id="Path_1438" data-name="Path 1438" d="M440.661,360.426c-.15-.355-.305-.695-.437-1.044a1.9,1.9,0,0,1-.139-.587c0-.113.1-.236.17-.343.122-.183.266-.351.381-.537.064-.1.124-.075.189-.03q.784.548,1.565,1.1c.45.318.9.637,1.344.962a.162.162,0,0,1,.037.152c-.091.162-.194.317-.3.47-.09.131-.189.255-.305.41l-1.683-1.171a1.2,1.2,0,0,0,.259.588c.151.207.332.393.484.6a.255.255,0,0,1,.014.228c-.1.179-.231.343-.354.519a2.878,2.878,0,0,0-1.478-.325l.209.143,1.279.885a.2.2,0,0,1,.056.286c-.166.23-.337.458-.488.7-.064.1-.117.1-.2.046q-.5-.347-.99-.7c-.636-.449-1.27-.9-1.908-1.346-.1-.071-.1-.135-.035-.23.173-.243.331-.5.513-.733a.392.392,0,0,1,.244-.107A4.808,4.808,0,0,1,440.661,360.426Z" transform="translate(-435.435 -349.668)" fill="#fff"/>
      <path id="Path_1439" data-name="Path 1439" d="M569.082,308.929c.189.082.375.172.568.242.114.041.185.086.165.22-.043.291-.081.584-.127.92a7.93,7.93,0,0,1-.762-.371c-.369-.23-.724-.485-1.073-.745a.324.324,0,0,1-.082-.257c.034-.3.091-.6.137-.88.19.024.377.063.566.069a.508.508,0,0,0,.468-.638.632.632,0,0,0-.571-.4.907.907,0,0,1-.309-.042c-.129-.058-.149.016-.161.1-.071.529-.133,1.059-.206,1.588-.051.376-.114.75-.175,1.15l-1.115-.151c.177-1.274.351-2.536.528-3.81a.379.379,0,0,1,.092-.009c.6.088,1.2.161,1.792.274a1.644,1.644,0,0,1,1.089.581.929.929,0,0,1,.2.442,1.908,1.908,0,0,1-.116,1.011A1.327,1.327,0,0,1,569.082,308.929Z" transform="translate(-543.404 -305.904)" fill="#fff"/>
      <path id="Path_1440" data-name="Path 1440" d="M467.158,344.958l-.793.714c-.143-.255-.278-.481-.4-.716-.021-.041.015-.133.052-.177.093-.109.2-.2.335-.336l-.813-.4-.05.051c.181.393.35.792.547,1.177.159.311.355.6.527.909a.184.184,0,0,1,0,.167c-.25.247-.51.484-.785.741-.143-.237-.285-.438-.391-.657-.3-.62-.606-1.24-.877-1.873a8.689,8.689,0,0,1-.334-1.076.235.235,0,0,1,.052-.193,7.227,7.227,0,0,1,.662-.618c.06-.047.211,0,.312.03a11.065,11.065,0,0,1,2.906,1.5,2.231,2.231,0,0,1,.277.206.169.169,0,0,1,0,.263c-.207.2-.415.4-.636.587a.241.241,0,0,1-.217-.009A3.858,3.858,0,0,1,467.158,344.958Z" transform="translate(-457.25 -336.86)" fill="#fff"/>
      <path id="Path_1441" data-name="Path 1441" d="M543.975,305.852h1.112c.01.189.023.388.029.586.014.491,0,.983.043,1.472a2.862,2.862,0,0,1-.043.885,1.1,1.1,0,0,1-.586.8,2.1,2.1,0,0,1-1.848.033,1.118,1.118,0,0,1-.65-.959c-.046-.464-.053-.931-.072-1.4-.015-.384-.023-.769-.034-1.154,0-.055,0-.11,0-.191h1.1c.014.227.032.47.042.713.025.6.044,1.191.069,1.787a.439.439,0,0,0,.45.426c.286-.037.45-.115.45-.439,0-.622-.04-1.244-.059-1.866C543.97,306.325,543.975,306.106,543.975,305.852Z" transform="translate(-522.773 -305.852)" fill="#fff"/>
      <path id="Path_1442" data-name="Path 1442" d="M592.857,312.15l-.247.94-.5-.134c-.215-.059-.429-.127-.647-.175a.221.221,0,0,0-.188.059.21.21,0,0,0,.014.192q.265.382.551.749a1.233,1.233,0,0,1,.107,1.506.747.747,0,0,1-.542.3,2.127,2.127,0,0,1-.868-.089c-.428-.131-.862-.239-1.338-.368.05-.194.1-.392.151-.59.011-.042.03-.083.04-.126.064-.264.06-.253.324-.163.324.111.655.2.987.293a.171.171,0,0,0,.194-.242c-.154-.239-.33-.465-.486-.7a2.5,2.5,0,0,1-.319-.562,1.026,1.026,0,0,1,.284-1.189.968.968,0,0,1,.876-.144c.487.139.973.282,1.46.423A1.319,1.319,0,0,0,592.857,312.15Z" transform="translate(-562.614 -310.749)" fill="#fff"/>
      <path id="Path_1443" data-name="Path 1443" d="M429.268,387.641l-.36.822-.817-.371c.046-.142.083-.294.144-.435.19-.438.391-.871.586-1.307.123-.274.243-.549.365-.825.022-.049.04-.1.067-.165l.853.379-.346.815.706.321c.381.173.761.348,1.143.517.2.091.412.175.62.256.119.046.148.109.093.229-.124.268-.237.54-.353.811-.043.1-.1.125-.206.073-.519-.242-1.042-.473-1.565-.707C429.895,387.918,429.592,387.784,429.268,387.641Z" transform="translate(-426.842 -372.855)" fill="#fff"/>
      <path id="Path_1444" data-name="Path 1444" d="M491.28,322.591l-1.388-2.512-.776.421c-.139-.246-.282-.485-.408-.732-.038-.073-.017-.142.085-.2.563-.3,1.118-.62,1.675-.933.2-.115.407-.232.614-.343.071-.038.141-.047.192.049.106.2.228.4.329.607a.141.141,0,0,1-.08.219,6.988,6.988,0,0,0-.612.351c.3.54.618,1.091.928,1.645.134.24.268.48.387.727.026.053.014.178-.022.2C491.9,322.266,491.594,322.424,491.28,322.591Z" transform="translate(-477.91 -316.315)" fill="#fff"/>
      <path id="Path_1445" data-name="Path 1445" d="M425.825,411.367c.1-.446.193-.87.3-1.291a.189.189,0,0,1,.162-.083c.246.048.488.115.756.181l-.592,2.561-3.69-.847c.058-.286.107-.571.176-.851.085-.347.089-.334.441-.239.412.111.83.2,1.246.3l1.087.253C425.745,411.357,425.783,411.36,425.825,411.367Z" transform="translate(-422.348 -393.614)" fill="#fff"/>
      <path id="Path_1446" data-name="Path 1446" d="M423.866,453.106a1.049,1.049,0,0,0-1.448-.949.9.9,0,0,0-.546.551.321.321,0,0,1-.041-.043.915.915,0,0,0-1.306-.216,1.293,1.293,0,0,0-.38.6v2.453h3.781C423.909,454.689,423.907,453.9,423.866,453.106Zm-.8,1.178H420.94c.016-.246.016-.49.056-.727a.215.215,0,0,1,.253-.168.277.277,0,0,1,.237.273,3.684,3.684,0,0,1,0,.4c0,.053,0,.106,0,.159h.873c0-.18,0-.356,0-.533a.351.351,0,0,1,.431-.369.527.527,0,0,1,.271.449C423.074,453.938,423.069,454.106,423.069,454.284Z" transform="translate(-420.146 -429.087)" fill="#fff"/>
      <path id="Path_1447" data-name="Path 1447" d="M423.3,430.707c.027-.329.061-.626.071-.924,0-.14.066-.166.183-.169.152-.005.3-.023.46-.036.025-.415.049-.806.073-1.2a10.54,10.54,0,0,0-3.867,1.06c-.012.259-.023.519-.037.78a.421.421,0,0,1-.032.1v.235a7.131,7.131,0,0,0,1.526.834c.576.234,1.168.43,1.755.637a3.632,3.632,0,0,0,.4.093l.082-1.166c-.375-.115-.731-.22-1.083-.335a2.841,2.841,0,0,1-.341-.158,1.123,1.123,0,0,1,.154.031C422.854,430.56,423.069,430.632,423.3,430.707Zm-.828-.255,0,0v-.006c-.193-.075-.388-.147-.58-.225-.084-.035-.163-.083-.283-.145l.9-.284c-.015.237-.028.446-.041.655Z" transform="translate(-420.146 -409.11)" fill="#fff"/>
      <path id="Path_1448" data-name="Path 1448" d="M515.672,311.227a1.689,1.689,0,0,0-1.446-.778,2.434,2.434,0,0,0-.742.13,1.777,1.777,0,0,0-1.25,1.113,2.2,2.2,0,0,0,.045,1.548,1.721,1.721,0,0,0,1.681,1.267,2.269,2.269,0,0,0,1.242-.311,1.679,1.679,0,0,0,.891-1.407A2.467,2.467,0,0,0,515.672,311.227Zm-1.485,2.3a.8.8,0,0,1-.609-.353,1.9,1.9,0,0,1-.332-.932.738.738,0,0,1,.535-.725.89.89,0,0,1,1.07.68c.046.174.082.35.1.444A.813.813,0,0,1,514.187,313.526Z" transform="translate(-497.651 -309.725)" fill="#fff"/>
    </g>
  </g>
</svg>
