<svg xmlns="http://www.w3.org/2000/svg"  viewBox="0 0 101.943 59.069">
  <g id="Group_5018" data-name="Group 5018" transform="translate(-336.573 -58.169)">
    <path id="Path_3139" data-name="Path 3139" d="M399.618,109.583c6.66,5.119,13.32,4.517,19.981,0,6.66,5.119,12.257,4.942,18.917,2.231-5.071,7.117-11.535,6.861-18.917,1.381-6.661,4.516-13.321,5.119-19.981,0-6.661,4.516-13.321,5.119-19.981,0-6.661,4.516-13.321,5.119-19.981,0-7.035,2.638-9.9,4.135-16.367-1.806,6.66,2.356,9.706,1.966,16.367-1.806,6.66,5.119,13.32,4.517,19.981,0C386.3,114.7,392.957,114.1,399.618,109.583Z" fill="inherit" fill-rule="evenodd"/>
    <g id="Group_5011" data-name="Group 5011">
      <path id="Path_3140" data-name="Path 3140" d="M379.314,110.65l.606,0c-.094-.07-.189-.141-.283-.214C379.529,110.507,379.422,110.579,379.314,110.65Z" fill="inherit"/>
      <path id="Path_3141" data-name="Path 3141" d="M399.374,110.6h.458l-.214-.162Z" fill="inherit"/>
      <path id="Path_3142" data-name="Path 3142" d="M358.94,110.7l1.07,0q-.177-.13-.354-.267Z" fill="inherit"/>
      <path id="Path_3143" data-name="Path 3143" d="M419.434,110.544h.314l-.149-.109Z" fill="inherit"/>
      <path id="Path_3144" data-name="Path 3144" d="M430.052,79.841q-4.517-4.9-9.834,3.036c-7-1.746-9.586.923-10.164,5.6,3.95-8.512,14.54,2.07,10.673,9.577-1.782,3.46-10.01,3.552-16.039-7.58-4.893-9.034-15.456-14.943-26.534-14.442-13.291.6-22.207,6.676-28.74,19.457,1.8,4.22,9.7,4.511,20.6,3.381-4.867,3.689-11.258,5.622-21.477,2.891-.037,2.331-.4,5.638-.5,8.164,3.823.6,6.76-.346,11.623-3.1,6.66,5.119,13.32,4.516,19.981,0,6.66,5.119,13.32,4.516,19.981,0,6.66,5.119,13.32,4.516,19.981,0a21.445,21.445,0,0,0,5.3,3.079c4.781-4.775,5.333-11.074-.263-20.031C421.24,84.435,424.235,80.509,430.052,79.841Zm-61.331,14a2.151,2.151,0,1,1,2.151-2.151A2.155,2.155,0,0,1,368.721,93.846Z" fill="inherit"/>
    </g>
    <g id="Group_5012" data-name="Group 5012">
      <path id="Path_3145" data-name="Path 3145" d="M367.493,92.937c.535,0,.972-.582.972-1.3s-.437-1.3-.972-1.3-.973.583-.973,1.3S366.957,92.937,367.493,92.937Z" fill="inherit" fill-rule="evenodd"/>
      <path id="Path_3146" data-name="Path 3146" d="M367.492,93.045a1.452,1.452,0,1,1,1.081-1.4A1.276,1.276,0,0,1,367.492,93.045Zm0-2.592c-.476,0-.864.533-.864,1.188s.388,1.188.864,1.188.865-.533.865-1.188S367.969,90.453,367.492,90.453Z" fill="inherit"/>
    </g>
    <g id="Group_5021" data-name="Group 5021" transform="translate(400.779 57.621)">
      <path id="Path_3147" data-name="Path 3147" d="M415.115,79.706a6.916,6.916,0,0,1-1.768-.274c-1.848-.687-4.843-3.079-6.923-6.987a16.858,16.858,0,0,1-2.145-8.149c.072-2.621,1.6-3.3,3.265-4.182h0c1.664-.887,3.225-1.857,5.441-.455a16.868,16.868,0,0,1,5.567,6.327,16.17,16.17,0,0,1,2.031,9.275,5.254,5.254,0,0,1-2.031,2.616C417.924,78.21,415.847,79.706,415.115,79.706Zm-6.053-20.443a3.5,3.5,0,0,0-1.664.4h0c-1.362.726-2.147,2.38-2.21,4.659a15.964,15.964,0,0,0,2.038,7.7c2.806,5.268,7.449,8.3,10.349,6.752s2.977-7.087.172-12.355a15.959,15.959,0,0,0-5.25-5.987A6.582,6.582,0,0,0,409.063,59.264Z" transform="translate(-400.536 -57.714)" fill="inherit"/>
      <path id="Path_3155" data-name="Path 3155" d="M.714.017,24.127,0V.911L.843.9Z" transform="matrix(0.883, -0.47, 0.47, 0.883, 0.449, 17.109)" fill="inherit"/>
      <rect id="Rectangle_3084" data-name="Rectangle 3084" width="0.911" height="20.576" transform="matrix(0.883, -0.47, 0.47, 0.883, 6.948, 3.076)" fill="inherit"/>
      <path id="Path_3148" data-name="Path 3148" d="M401.226,67.83l-.144-.771.144-.223a1.425,1.425,0,0,0,.187,0,28.662,28.662,0,0,0,8.386-2.707,21.182,21.182,0,0,0,6.547-5.325l.911.469C413.255,63.91,408.415,66.8,401.226,67.83Z" transform="translate(-400.498 -57.715)" fill="inherit"/>
      <path id="Path_3149" data-name="Path 3149" d="M408.408,80.05l-.979-.321c4.816-5.2,9.95-8.016,16.078-8.485l-.288,1.047c-2.679.015-4.875.961-8,2.4C412.131,76.17,408.408,80.05,408.408,80.05Z" transform="translate(-400.565 -57.844)" fill="inherit"/>
      <path id="Path_3151" data-name="Path 3151" d="M411.648,80.493a12.016,12.016,0,0,1-2.923-.359,10.358,10.358,0,0,1-6.755-5.16c-2.827-5.309-.371-12.16,5.474-15.274h0c5.847-3.113,12.9-1.327,15.73,3.981s.37,12.16-5.475,15.273A12.885,12.885,0,0,1,411.648,80.493ZM407.923,60.6c-5.35,2.85-7.618,9.084-5.055,13.9a9.355,9.355,0,0,0,6.1,4.652,11.574,11.574,0,0,0,8.247-1.091c5.351-2.85,7.618-9.084,5.055-13.9s-9-6.411-14.352-3.56Z" transform="translate(-400.779 -57.621)" fill="inherit"/>
    </g>
    <path id="Path_3152" data-name="Path 3152" d="M339.229,105.393l.052-.329a1.835,1.835,0,0,0,0-.86.5.5,0,0,0-.429-.3.532.532,0,0,0-.514.137,1.7,1.7,0,0,0-.269.805l-.056.354,1.217.193Zm3.385,2.1-6.041-.956.262-1.655a10.476,10.476,0,0,1,.293-1.42,2.2,2.2,0,0,1,.337-.664,1.3,1.3,0,0,1,.578-.429,1.464,1.464,0,0,1,.748-.062,1.221,1.221,0,0,1,.778.392,1.679,1.679,0,0,1,.329.907,1.453,1.453,0,0,1,.61-.934,1.567,1.567,0,0,1,1.133-.193,1.741,1.741,0,0,1,.817.339,1.427,1.427,0,0,1,.477.675,2.413,2.413,0,0,1,.114.8,11.234,11.234,0,0,1-.165,1.5l-.27,1.7Zm-.992-1.722.092-.577a1.738,1.738,0,0,0-.016-.853.53.53,0,0,0-.449-.321.6.6,0,0,0-.566.139,1.612,1.612,0,0,0-.281.8l-.1.6,1.316.208Zm.013-6.092.373-1.616-2.107.154c-.064,0-.165.008-.306.009s-.321.006-.542.008c.139.069.27.135.395.2s.244.128.359.19l1.828,1.053Zm1.7,2.791.373-1.616-1-.557.533-2.308,1.137-.055.373-1.616L338.321,97l-.469,2.035,5.485,3.433Zm1.626-6.668-5.748-2.092.57-1.566,4.4,1.6L344.9,91.8l1.342.489L344.963,95.8Zm1.874-4.873-4.2-2.047-.6,1.232-1.3-.634,1.933-3.963,1.3.635-.6,1.232,4.2,2.047-.731,1.5Zm5.658-9.188-5.5-2.835-.973,1.338,2,2.6c.12.152.225.28.313.382a2.821,2.821,0,0,0,.257.263,3.956,3.956,0,0,0-.682-.292c-.049-.017-.086-.029-.106-.038l-3.1-1.106-.969,1.335,4.393,4.359.911-1.254-1.928-1.845c-.166-.158-.332-.312-.5-.465s-.344-.3-.521-.451a6.645,6.645,0,0,0,.915.382c.079.03.137.052.175.065l2.808,1.012.653-.9-1.831-2.357-.113-.15a7.446,7.446,0,0,0-.649-.755c.228.145.441.277.639.393s.379.221.544.312L351.579,83l.916-1.261Zm.51-3.425,1.271-1.066L352.5,76.106c-.054-.035-.137-.093-.25-.177s-.26-.189-.438-.32c.069.139.134.271.194.4s.118.249.172.368l.826,1.941Zm-.32,3.253-2.315-6.043,1.6-1.342,5.551,3.327-1.271,1.066-.941-.64-1.815,1.522.461,1.044-1.271,1.066Zm8.4-6.106,1.5-.731-2.047-4.2,1.231-.6-.634-1.3-3.962,1.933.634,1.3,1.232-.6,2.047,4.2Zm8.6-6.221a3.112,3.112,0,0,1-.286,2.443,3.342,3.342,0,0,1-.836.963,3.34,3.34,0,0,1-2.408.691,3.215,3.215,0,0,1-1.206-.378,3.1,3.1,0,0,1-.975-.8A3.136,3.136,0,0,1,363.7,68.6a3.208,3.208,0,0,1,.823-.96,3.328,3.328,0,0,1,3.627-.317,3.13,3.13,0,0,1,1.537,1.92Zm-2.645,2.628a1.47,1.47,0,0,0,.962-.805,1.876,1.876,0,0,0,.081-1.363,1.857,1.857,0,0,0-.8-1.107,1.532,1.532,0,0,0-2.2.629,2.065,2.065,0,0,0,.7,2.477,1.464,1.464,0,0,0,1.248.169Zm3.97-5.9,1.656-.145.259,2.964a9.422,9.422,0,0,0,.115.936,1.752,1.752,0,0,0,.156.466.692.692,0,0,0,.363.328,1.438,1.438,0,0,0,1.155-.1.715.715,0,0,0,.3-.386,1.781,1.781,0,0,0,.072-.486,9.2,9.2,0,0,0-.05-.942l-.036-.416-.223-2.548,1.653-.144.282,3.222a6.6,6.6,0,0,1,.008,1.49,2,2,0,0,1-.337.849,1.888,1.888,0,0,1-.808.631,4.156,4.156,0,0,1-1.307.3,4.112,4.112,0,0,1-1.342-.069,1.912,1.912,0,0,1-.908-.48,2.041,2.041,0,0,1-.478-.778,6.528,6.528,0,0,1-.251-1.469l-.056-.633-.226-2.589ZM378.26,71.6V65.484H380a7.313,7.313,0,0,1,1.426.094,1.866,1.866,0,0,1,.7.315,1.662,1.662,0,0,1,.508.639,2.048,2.048,0,0,1,.177.858,1.822,1.822,0,0,1-.348,1.155,1.7,1.7,0,0,1-1.017.59L383.11,71.6h-1.884l-1.4-2.395V71.6Zm1.563-3.226h.31a1.333,1.333,0,0,0,.787-.184.672.672,0,0,0,.248-.576.812.812,0,0,0-.232-.655,1.224,1.224,0,0,0-.779-.194h-.334v1.609Zm4.363,1.337a3.018,3.018,0,0,0,.677.692,1.431,1.431,0,0,0,.7.272.829.829,0,0,0,.563-.132.563.563,0,0,0,.254-.434.594.594,0,0,0-.144-.485,2.374,2.374,0,0,0-.808-.413,2.747,2.747,0,0,1-1.211-.738,1.473,1.473,0,0,1-.278-1.094,1.879,1.879,0,0,1,.71-1.375,2.127,2.127,0,0,1,1.564-.419,3.38,3.38,0,0,1,.945.219,3.122,3.122,0,0,1,.819.485l-.625,1.149a2.2,2.2,0,0,0-.549-.415,1.545,1.545,0,0,0-.577-.174.782.782,0,0,0-.5.1.443.443,0,0,0-.22.351.453.453,0,0,0,.133.381,1.783,1.783,0,0,0,.611.319l.073.027a3.105,3.105,0,0,1,1.283.72,1.506,1.506,0,0,1,.282.569,2.053,2.053,0,0,1,.051.705,2.028,2.028,0,0,1-.772,1.5,2.406,2.406,0,0,1-1.75.441,3.034,3.034,0,0,1-1.14-.317,3.333,3.333,0,0,1-.947-.767Z" fill="inherit" fill-rule="evenodd"/>
    <g id="Group_5017" data-name="Group 5017">
      <path id="Path_3153" data-name="Path 3153" d="M431.825,71.121a3.667,3.667,0,1,1-2.593,1.074,3.654,3.654,0,0,1,2.593-1.074Zm2.192,1.475a3.1,3.1,0,1,0,.908,2.192A3.09,3.09,0,0,0,434.017,72.6Z" fill="inherit"/>
      <path id="Path_3154" data-name="Path 3154" d="M433.853,76.889h-.725L431.8,75.218h-.641v1.671H430.6v-4.2h1.083a3.932,3.932,0,0,1,.606.039,1.207,1.207,0,0,1,.465.183,1.062,1.062,0,0,1,.348.364,1.092,1.092,0,0,1,.129.554,1.246,1.246,0,0,1-.234.773,1.381,1.381,0,0,1-.638.46l1.5,1.829Zm-1.208-3.019a.77.77,0,0,0-.065-.327.563.563,0,0,0-.2-.233.774.774,0,0,0-.276-.111,1.975,1.975,0,0,0-.393-.033h-.554v1.587h.492a2.028,2.028,0,0,0,.432-.042.669.669,0,0,0,.328-.176.724.724,0,0,0,.179-.282A1.138,1.138,0,0,0,432.645,73.87Z" fill="inherit"/>
    </g>
  </g>
</svg>
