<svg xmlns="http://www.w3.org/2000/svg" viewBox="0 0 39 28.364">
  <g transform="translate(0 0)">
    <path id="Path_2161" data-name="Path 2161" d="M120.8,327.155a8.4,8.4,0,0,1-6.434-2.933,10.02,10.02,0,0,1-2.014-3.3A10.923,10.923,0,0,1,111.61,317a15.648,15.648,0,0,1,2.713-8.426,24.079,24.079,0,0,1,7.266-7.245q3.852-2.538,6.041-2.539a2.043,2.043,0,0,1,1.445.526,1.815,1.815,0,0,1,.569,1.4,2.547,2.547,0,0,1-1.663,2.189,21,21,0,0,0-5.822,4.071q-1.749,1.881-1.75,2.757,0,.832,1.312,1.007l.569.087.657.044a7.1,7.1,0,0,1,4.618,2.648,8.306,8.306,0,0,1,1.773,5.363,7.97,7.97,0,0,1-2.188,5.6A8.31,8.31,0,0,1,120.8,327.155Z" transform="translate(-90.644 -298.791)" fill="inherit"/>
    <path id="Path_2162" data-name="Path 2162" d="M144.765,327.155a8.4,8.4,0,0,1-6.434-2.933,10.018,10.018,0,0,1-2.013-3.3,10.886,10.886,0,0,1-.745-3.917,15.642,15.642,0,0,1,2.714-8.426,24.056,24.056,0,0,1,7.266-7.245q3.853-2.538,6.042-2.539a2.043,2.043,0,0,1,1.444.526,1.815,1.815,0,0,1,.569,1.4,2.547,2.547,0,0,1-1.663,2.189,20.978,20.978,0,0,0-5.821,4.071q-1.751,1.881-1.751,2.757,0,.832,1.313,1.007l.569.087.656.044a7.1,7.1,0,0,1,4.617,2.648,8.3,8.3,0,0,1,1.773,5.363,7.97,7.97,0,0,1-2.188,5.6A8.31,8.31,0,0,1,144.765,327.155Z" transform="translate(-135.573 -298.791)" fill="inherit"/>
  </g>
</svg>
