<svg xmlns="http://www.w3.org/2000/svg"  viewBox="0 0 9.486 11.858">
  <path id="reload" d="M452.243,37.131a4.8,4.8,0,0,0-3.38,1.364,4.43,4.43,0,0,0-1.364,3.32,4.617,4.617,0,0,0,1.423,3.38,4.522,4.522,0,0,0,3.32,1.364,4.757,4.757,0,0,0,4.743-4.743H455.8a3.23,3.23,0,0,1-1.067,2.49,3.661,3.661,0,0,1-2.49,1.067,3.319,3.319,0,0,1-2.49-1.067,3.661,3.661,0,0,1-1.067-2.49,3.23,3.23,0,0,1,1.067-2.49,3.661,3.661,0,0,1,2.49-1.067v2.372l2.964-2.964L452.243,34.7Z" transform="translate(-447.5 -34.7)" fill="inherit"/>
</svg>
