<svg xmlns="http://www.w3.org/2000/svg" viewBox="0 0 12.84 10.534">
  <path  d="M186.307,54.119a1.891,1.891,0,0,1-1.332.289,2.28,2.28,0,0,0,1.043-1.594,1.628,1.628,0,0,1-1.636.938l.005.014a2.591,2.591,0,0,0-2.13-.86c-.551.016-2.651.254-2.439,3.457,0,0-3.817-.064-5.726-3.054a3.512,3.512,0,0,0,.944,3.51,1.588,1.588,0,0,1-1.31-.3,3.318,3.318,0,0,0,2.371,2.644,2.26,2.26,0,0,1-1.576.121,3.366,3.366,0,0,0,2.827,1.83c-1.22,1.474-3.881,1.474-3.881,1.474,2.324,1.341,11.59,1.806,11.59-6.479a5.7,5.7,0,0,0-.045-.7l.007.019A2.337,2.337,0,0,0,186.307,54.119Z" transform="translate(-173.467 -52.814)" fill="inherit"/>
</svg>
