<svg xmlns="http://www.w3.org/2000/svg"  viewBox="0 0 14.798 8.193">
  <path  d="M277.8,270.1h2.58a.255.255,0,0,1,.231.15,15.122,15.122,0,0,0,2.185,3.482.175.175,0,0,0,.309-.024c.272-.661.773-2.269-.2-3.41a.2.2,0,0,1,.072-.313,3.5,3.5,0,0,1,2.88-.05.548.548,0,0,1,.325.5l.219,3.311a.236.236,0,0,0,.278.234c1.078-.229,1.713-1.844,2.341-3.531a.53.53,0,0,1,.5-.348H291.9a.315.315,0,0,1,.315.364,9.568,9.568,0,0,1-2.056,3.5.693.693,0,0,0,0,.893l2.124,2.529a.279.279,0,0,1-.214.459h-2.688a.79.79,0,0,1-.581-.254l-1.88-1.565a.257.257,0,0,0-.374-.033c-.233.283-.215.632-.325,1.426a.507.507,0,0,1-.508.426H283.87a1.76,1.76,0,0,1-.756-.167c-1.055-.5-3.936-2.272-5.557-7.234A.26.26,0,0,1,277.8,270.1Z" transform="translate(-277.544 -269.649)" fill="inherit"/>
</svg>
