<svg xmlns="http://www.w3.org/2000/svg" width="28.895" height="17.5" viewBox="0 0 28.895 17.5">
  <g id="Group_4855" data-name="Group 4855" transform="translate(-402.539 -26.922)">
    <g id="Group_4399" data-name="Group 4399" transform="translate(421.688 28.314)">
      <path id="Path_2475" data-name="Path 2475" d="M445.819,34.828l-4.2-.392,2.015-4.674Zm-2.771-1.243,1.215.113-.633-1.464Z" transform="translate(-441.614 -29.762)" fill="#ac9a6b"/>
    </g>
    <g id="Group_4400" data-name="Group 4400" transform="translate(408.07 28.314)">
      <path id="Path_2476" data-name="Path 2476" d="M413.824,34.856l2.2-5.094,2.03,4.7Zm2.2-2.621-.643,1.491,1.237-.117Z" transform="translate(-413.824 -29.762)" fill="#ac9a6b"/>
    </g>
    <g id="Group_4401" data-name="Group 4401" transform="translate(421.526 33.483)">
      <path id="Path_2477" data-name="Path 2477" d="M448.244,49.84l-4.778-2.829-1.5.888-.686-3.045,5.159-4.543,4.748.442-4.167,3.67Zm-4.779-3.969,3.324,1.968-.848-3.768,2.9-2.553-2.067-.193-4.405,3.88.262,1.162Z" transform="translate(-441.284 -40.311)" fill="#ac9a6b"/>
    </g>
    <g id="Group_4402" data-name="Group 4402" transform="translate(402.54 33.468)">
      <path id="Path_2478" data-name="Path 2478" d="M405.5,49.829l1.214-5.418-4.17-3.665,4.931-.464,5.189,4.562-.706,3.149-1.683-1Zm-.6-8.321,2.9,2.55-.844,3.769,3.321-1.971,1.022.605.284-1.266-4.435-3.9Z" transform="translate(-402.54 -40.281)" fill="#ac9a6b"/>
    </g>
    <g id="Group_4403" data-name="Group 4403" transform="translate(407.873 26.922)">
      <path id="Path_2479" data-name="Path 2479" d="M416.94,44.422l1.445-6.448-4.963-4.364,6.58-.618,2.616-6.069,2.622,6.067,6.58.613-4.96,4.368,1.451,6.448-5.687-3.368Zm-1.166-10.049,3.694,3.247-1.076,4.8,4.231-2.51,4.232,2.507-1.08-4.8,3.691-3.251-4.9-.456L422.618,29.4l-1.947,4.517Z" transform="translate(-413.422 -26.922)" fill="#ac9a6b"/>
    </g>
  </g>
</svg>
