<svg xmlns="http://www.w3.org/2000/svg" viewBox="0 0 96.745 103.464">
  <g  transform="translate(-46.167 -55.6)">
    <path id="Path_1648" data-name="Path 1648" d="M142.851,93.414a.271.271,0,0,0-.207-.082.1.1,0,0,1-.048-.025,4.111,4.111,0,0,0-.069-.407,1.5,1.5,0,0,1,0-.9.5.5,0,0,0-.1-.652.879.879,0,0,0-.695-.155.9.9,0,0,0-.585.429.248.248,0,0,1-.072.055,2.516,2.516,0,0,1-.7.261,3.022,3.022,0,0,0-.737.265,1.122,1.122,0,0,1-.811.063.966.966,0,0,0-.689.169c-.329.18-.545.21-.75.1a.442.442,0,0,0-.485.019c-.11.071-.218.145-.327.219-.175.119-.356.243-.54.35s-.286.158-.482.066a1.082,1.082,0,0,0-.89-.083,4.549,4.549,0,0,0-.613.348l-.052.033a1.274,1.274,0,0,1-.94.275,1.715,1.715,0,0,1-1.162-.883c-.029-.049-.056-.1-.083-.146a1.165,1.165,0,0,0-.592-.607.658.658,0,0,0-.175-.042.62.62,0,0,1,.207-.123.378.378,0,0,0,.323-.416,2.191,2.191,0,0,0-.973-1.529.268.268,0,0,0-.08-.033.762.762,0,0,1-.641-.519.679.679,0,0,0-.188-.26,1.019,1.019,0,0,1-.074-.077,1.618,1.618,0,0,0-.488-.37,1.1,1.1,0,0,1-.478-.409c-.129-.242-.3-.574-.669-.642a1.661,1.661,0,0,1-.573-.268,2.675,2.675,0,0,0-.434-.236c-.012,0-.015-.006-.037-.056-.01-.021-.019-.042-.031-.063a.741.741,0,0,0-.8-.428.22.22,0,0,1-.268-.079h0a1.263,1.263,0,0,0-.258-.474.834.834,0,0,1-.209-.4,5.722,5.722,0,0,0-.387-1.385l-.009-.023a2.7,2.7,0,0,0-1.129-1.579l-.042-.023a.569.569,0,0,1-.3-.278.937.937,0,0,0-.655-.467c-.165-.039-.218-.1-.25-.193-.026-.073-.054-.147-.082-.22a2.627,2.627,0,0,1-.2-.7c-.022-.266-.064-.532-.106-.788a5.607,5.607,0,0,1-.109-1.293.426.426,0,0,0-.115-.31,1.386,1.386,0,0,1-.423-.98.387.387,0,0,0-.236-.391,2.091,2.091,0,0,1-.48-.355,1.784,1.784,0,0,0-.8-.488l-.016-.022a.4.4,0,0,0-.069-.079,1.217,1.217,0,0,1-.3-.495c-.033-.079-.066-.159-.106-.239v-.1c0-.078,0-.156,0-.234a.246.246,0,0,0,.286.02c.1-.061.185-.181.053-.4l-.01-.017a.592.592,0,0,0-.2-.226,2.208,2.208,0,0,1-.838-.876c-.032-.064-.061-.131-.09-.2a1.42,1.42,0,0,0-.43-.637,3.642,3.642,0,0,0-.739-1.181l-.064-.078c-.06-.151-.135-.294-.207-.433a2.62,2.62,0,0,1-.289-.721.771.771,0,0,0-.253-.489l-.05-.042.028-.055.013-.027a.365.365,0,0,0,.014-.3.608.608,0,0,0,.58.015.56.56,0,0,0,.238-.553,4.256,4.256,0,0,1,.234-1.37l.044-.154a2.057,2.057,0,0,0-.408-1.893,2.98,2.98,0,0,0-.464-1.06v-.01a.293.293,0,0,0-.077-.228.278.278,0,0,0-.219-.066l-.047,0a.721.721,0,0,0-.372.091.561.561,0,0,1-.643.063.571.571,0,0,0-.672.059.823.823,0,0,0-.118.106c-.062.063-.093.089-.122.094a1.059,1.059,0,0,0-.465-.34.764.764,0,0,1-.359-.257.225.225,0,0,0-.173-.1.313.313,0,0,0-.247.059c-.111.1-.188.083-.382-.006-.05-.023-.1-.045-.149-.063a.782.782,0,0,0-.487-.029,5.4,5.4,0,0,0-1.617.775c-.044.033-.088.069-.131.105-.223.183-.417.343-.692.261a1.03,1.03,0,0,0-.744-.287,1.355,1.355,0,0,0-.21,0,.452.452,0,0,1-.276-.03,1.559,1.559,0,0,0-.456-.175,1.5,1.5,0,0,1-.385-.14,2.4,2.4,0,0,0-1.049-.226c-.14-.01-.284-.019-.418-.037a1.366,1.366,0,0,0-1.009.033c-.154.057-.166.052-.223-.087-.251-.619-.435-.66-1.055-.556a.551.551,0,0,1-.457-.051,1.033,1.033,0,0,0-.713-.212c-.216.009-.31-.076-.327-.281,0-.013,0-.027,0-.04,0-.079-.011-.29-.219-.322a2.145,2.145,0,0,1-.445-.138,2.442,2.442,0,0,0-.483-.15,2.931,2.931,0,0,0-1.434.091,4.429,4.429,0,0,0-1.41.666,1.242,1.242,0,0,0-.37,1.66c.177.269.119.423-.067.649-.572.694-.917.775-1.474.346l-.023-.018a4.008,4.008,0,0,0-.818-.527,4.812,4.812,0,0,0-1.863-.531c-.808-.016-1.151-.329-1.268-1.153-.029-.2-.092-.624-.591-.595A.756.756,0,0,1,92,62.74c-.05-.016-.1-.031-.15-.043a1.466,1.466,0,0,1-.416-.2,1.421,1.421,0,0,0-.661-.262,1.682,1.682,0,0,1-.368-.083,1.162,1.162,0,0,0-.876-.016.817.817,0,0,1-.84-.142,1.989,1.989,0,0,0-.667-.289l-.1-.021c-.184-.034-.337-.071-.352-.165a2.447,2.447,0,0,0-.079-.32,1.69,1.69,0,0,1-.075-.328c-.021-.233-.136-.352-.341-.353h-.033a.292.292,0,0,0-.348.288.07.07,0,0,1-.074.047c-.146-.021-.243-.119-.338-.341-.016-.039-.06-.142.124-.224a2.434,2.434,0,0,0,1.044-.884,1.079,1.079,0,0,0,.182-.863.815.815,0,0,0-.484-.722.292.292,0,0,1-.114-.218.249.249,0,0,1,.02-.166,1.123,1.123,0,0,0,.5-.409,1.866,1.866,0,0,1,.153-.175.523.523,0,0,0,.145-.567.418.418,0,0,0-.334-.286.308.308,0,0,1-.122-.053.191.191,0,0,0-.275,0,.236.236,0,0,0-.033.321l-.007,0a.383.383,0,0,0-.226.082c-.007-.027-.014-.053-.022-.077a.476.476,0,0,1-.029-.149V56.1a.317.317,0,0,0-.22-.369,1.609,1.609,0,0,0-1.514.117,1.387,1.387,0,0,1-.8.225,2.693,2.693,0,0,0-.515.072.261.261,0,0,0-.115-.111.737.737,0,0,0-.3-.149,1.048,1.048,0,0,1-.112-.04.535.535,0,0,0-.4-.025.251.251,0,0,0-.137.164.22.22,0,0,1-.01.032l-.042-.01L82.611,56a1.318,1.318,0,0,0-.134-.022,1.009,1.009,0,0,1-.114-.019.382.382,0,0,0-.518-.191l-.018-.05-.164.132a.221.221,0,0,1-.034.019.33.33,0,0,0-.158.152c-.065.009-.127.023-.189.036a.945.945,0,0,1-.351.034.279.279,0,0,0-.311.19.269.269,0,0,1-.092-.007l-.035-.005a.19.19,0,0,0-.1-.144.211.211,0,0,0-.15-.1.259.259,0,0,0-.209-.071,4.857,4.857,0,0,0-1.509-.1.149.149,0,0,0-.1.061.7.7,0,0,1-.5.023.478.478,0,0,0-.608.137l-.03.034-.034.015-.042.018a2.794,2.794,0,0,0-.939-.01,3.09,3.09,0,0,1-.7.022l-.037-.005a.446.446,0,0,0-.383.074.281.281,0,0,0-.16.092.867.867,0,0,1-.09.016.552.552,0,0,0-.3.114c-.022.006-.044.01-.066.015a.583.583,0,0,0-.245.1.264.264,0,0,0-.143.068.578.578,0,0,0-.316.321l-.02.019a.294.294,0,0,1-.1.072.434.434,0,0,0-.311-.158h0a.485.485,0,0,0-.339.185c-.021.022-.069.024-.144.025l-.062,0a.531.531,0,0,1-.069,0,.377.377,0,0,0-.374.133l-.007.007a.574.574,0,0,0-.323.323l-.035.035-.012.022a.29.29,0,0,1-.076.014.372.372,0,0,0-.287.137l-.006.007a.277.277,0,0,0-.164.091.88.88,0,0,1-.411-.023,1.49,1.49,0,0,0-.345-.043c-.281.008-.343-.061-.387-.288a.255.255,0,0,0-.224-.225.246.246,0,0,0-.248.15c-.028.074-.074.092-.2.126-.037.01-.077.021-.117.036a.65.65,0,0,0-.4-.1H69.13c-.123,0-.246,0-.365.005a2.249,2.249,0,0,1-.745-.054l-.114-.14c-.106-.13-.212-.26-.315-.392a.318.318,0,0,1-.022-.137.376.376,0,0,0-.253-.4.725.725,0,0,0-.387.025.619.619,0,0,1-.243.031.245.245,0,0,0-.3.144,6.9,6.9,0,0,1-.516.934c-.142.228-.288.463-.413.709a1.346,1.346,0,0,0-.48.614c-.031.023-.066.045-.1.067a.838.838,0,0,0-.257.211,1.261,1.261,0,0,0-.442.16,1.77,1.77,0,0,1-.212.1c-.156.055-.324.1-.486.144a2.433,2.433,0,0,0-1.382.727,1.261,1.261,0,0,1-.284.228,1.011,1.011,0,0,0-.491.554l-.029.1a2.408,2.408,0,0,1-.133.392l-.513.513a1.446,1.446,0,0,0-.453.949c-.019.1-.037.2-.062.291l-.009.035a.759.759,0,0,0,.045.689.254.254,0,0,1-.008.343c-.107.127-.21.258-.313.389a3.689,3.689,0,0,1-1.4,1.26l-.093.038a1.316,1.316,0,0,0-.464.269,2.8,2.8,0,0,1-1.814.762,1.39,1.39,0,0,1-.182,0,.669.669,0,0,0-.781.376l-.118.121a6.021,6.021,0,0,0-.8,1.326l-.173.085a5.177,5.177,0,0,1-.49.222l-.1.034c-.271.1-.609.215-.7.645a.35.35,0,0,1-.056.083.745.745,0,0,0-.085.123,3.839,3.839,0,0,1-.2.334A1.809,1.809,0,0,0,52,71.417a.6.6,0,0,1-.34.5,3.159,3.159,0,0,0-.658.488,3.2,3.2,0,0,1-.53.409l-.156.148a.447.447,0,0,0-.178.309,1.45,1.45,0,0,1-.261.552,2.147,2.147,0,0,0-.263.494.327.327,0,0,0-.157.257l-.049.071c-.06.088-.12.176-.178.265a.549.549,0,0,0-.055.12c-.007.02-.017.049-.011.049a.06.06,0,0,1-.016,0,.569.569,0,0,0-.538.351l-.018.028a4.693,4.693,0,0,0-.506,1.311c-.033.121-.066.242-.1.362-.007.024-.018.05-.028.077a.435.435,0,0,0-.031.361.271.271,0,0,0,.187.136.274.274,0,0,0,.232-.035.256.256,0,0,0,.052-.049c.026.18.094.432.275.461.084.014.1.043.138.13a.981.981,0,0,0,.047.093c0,.035.011.069.017.1a.754.754,0,0,1,.017.239c-.006.051-.035.076-.109.129a.4.4,0,0,0-.2.286.441.441,0,0,0-.062.319.658.658,0,0,1,0,.073.461.461,0,0,0-.039.653.908.908,0,0,1,.1.156,1.121,1.121,0,0,0,.129.2,4.7,4.7,0,0,0,.042.582,3.269,3.269,0,0,1,.03.714,1.288,1.288,0,0,0-.137.571.278.278,0,0,0-.064.217v.008a2.478,2.478,0,0,0-.314.621.227.227,0,0,0-.084.149.247.247,0,0,0-.071.157.54.54,0,0,0-.127.246.26.26,0,0,0-.076.21.277.277,0,0,0-.066.218.635.635,0,0,0-.136.369A2.241,2.241,0,0,1,46.4,86.4l-.024.008a.255.255,0,0,0-.211.281.341.341,0,0,0,.117.241.287.287,0,0,0,.219.06c.061-.006.085,0,.132.153a1.9,1.9,0,0,0,.177.377.843.843,0,0,1,.168.579l-.028.145.144.03.015,0c0,.014,0,.036,0,.051a.435.435,0,0,0,.011.183.236.236,0,0,0-.185.062.2.2,0,0,0-.056.144l0,.008a.444.444,0,0,0-.035.146v.025a6.092,6.092,0,0,1-.059.879.891.891,0,0,0,.486,1.1.2.2,0,0,1,0,.054c0,.012,0,.024,0,.034a.566.566,0,0,0,.192.417.571.571,0,0,0-.2.066.285.285,0,0,0-.165.212.253.253,0,0,0,.029.152.23.23,0,0,0-.157.222c-.007.114.033.254.26.274h.02a.17.17,0,0,0,.071.052.35.35,0,0,0,.092.274.438.438,0,0,0,.415.046l.051-.011a.669.669,0,0,0,.254-.124.347.347,0,0,1,.191-.086.3.3,0,0,0,.209-.111.694.694,0,0,0,.276.372.462.462,0,0,1,.19.235.183.183,0,0,0,.133.142.279.279,0,0,0,.264-.1l.014-.016a1.062,1.062,0,0,1,.066.416.153.153,0,0,0,.068.143,1.706,1.706,0,0,1,.178.221,1.21,1.21,0,0,0,.483.449,1.349,1.349,0,0,1,.366.3c.057.058.114.115.173.168l.005,0h0a.251.251,0,0,0-.172.1.28.28,0,0,0-.025.216l.033.151.15-.037c.256-.063.3.028.419.326.017.044.034.089.053.133a.894.894,0,0,1,.042.34,1.163,1.163,0,0,0,.053.417.212.212,0,0,0-.091.087.265.265,0,0,0,.062.309c.054.047.074.076-.016.271l-.147.32.333-.115a.861.861,0,0,1,.268-.066.517.517,0,0,1-.031.159.254.254,0,0,0,.022.21.429.429,0,0,0-.142.038l-.112.051.036.158c.019.094.059.289.263.311a1.22,1.22,0,0,1,.477.195,2.6,2.6,0,0,0,.287.15c.087.037.176.071.265.1a1.755,1.755,0,0,1,.809.481,2.608,2.608,0,0,0,.958.759c-.01.234.141.384.45.445a1.079,1.079,0,0,1,.528.333c.062.058.124.116.191.17a4.532,4.532,0,0,1,.527.535,4.013,4.013,0,0,0,.735.7,9.141,9.141,0,0,0,1.305.7c.245.114.5.233.74.362a.7.7,0,0,0,.615-.025l.245-.119a5.511,5.511,0,0,1,.877-.373,4.058,4.058,0,0,0,.523-.208,2.873,2.873,0,0,1,.584-.217,11.129,11.129,0,0,1,1.406-.164c.232-.017.473-.035.709-.06a4.309,4.309,0,0,1,1.367.147c.118.025.236.051.354.073.086.017.173.03.262.042a1.442,1.442,0,0,1,.775.263.562.562,0,0,0,.548.105l.058-.011a.98.98,0,0,0,.413-.208.75.75,0,0,1,.3-.161,4.659,4.659,0,0,0,1.432-.448l.052-.03a2.627,2.627,0,0,1,1.652-.509.428.428,0,0,0,.541-.382c.012-.075.059-.138.083-.14a2.667,2.667,0,0,0,.533-.11,2.492,2.492,0,0,1,.424-.093l.183-.018a18.072,18.072,0,0,1,2.783-.126,1.283,1.283,0,0,1,.957.383,4.82,4.82,0,0,1,.966,1.752,1.3,1.3,0,0,0,1.014.934,3.7,3.7,0,0,0,1.094-.066,5.19,5.19,0,0,1,.7-.082,1.9,1.9,0,0,0,.483-.092,1.521,1.521,0,0,1,.44-.082c.035,0,.07,0,.106.005a.722.722,0,0,0,.484-.089.344.344,0,0,0,.125.127.43.43,0,0,0,.382,0l0,.009a.772.772,0,0,1,.051.174.594.594,0,0,0,.268.449,1.129,1.129,0,0,0,.679.2.7.7,0,0,0,.249.608.468.468,0,0,1,.172.519,5.279,5.279,0,0,0-.161,1.343.5.5,0,0,1-.064.294c-.059.091-.12.179-.182.268-.085.123-.173.249-.254.38l-.021.034a.422.422,0,0,0-.091.4.357.357,0,0,0,.272.172.6.6,0,0,0,.023.239.3.3,0,0,0-.341.236.665.665,0,0,0,.043.432l-.058.007v.133c0,.045,0,.089,0,.133a2.385,2.385,0,0,1,0,.259c-.03.346-.109.564-.236.649a.486.486,0,0,1-.42,0l-.137-.045-.05.136a.613.613,0,0,0,.095.572,5.139,5.139,0,0,1,.582,1.1,3.8,3.8,0,0,0,.812,1.27l.081.1a4.569,4.569,0,0,0,.6.558,4.989,4.989,0,0,1,.5.448c.222.238.439.48.657.721.287.318.583.648.886.964a1.845,1.845,0,0,1,.278.442,2.62,2.62,0,0,0,.268.448.952.952,0,0,1,.2.387.3.3,0,0,1-.037.057.262.262,0,0,0,0,.377.931.931,0,0,1,.238.56,2.34,2.34,0,0,0,.083.337,1.576,1.576,0,0,0,.316.492,1.3,1.3,0,0,1,.253.38l.077.219a8.494,8.494,0,0,0,.793,1.8.477.477,0,0,1,.023.281,1.085,1.085,0,0,0-.473.653.827.827,0,0,0,.18.6v.005a3.791,3.791,0,0,0,.635,1.436,1.382,1.382,0,0,1,.3,1.048c-.006.034-.012.069-.019.1a1.949,1.949,0,0,0-.047.413,1.185,1.185,0,0,1-.675,1.286c-.384.249-.378.411-.376.464.007.182-.086.266-.25.4a1.464,1.464,0,0,0-.2.184.18.18,0,0,1-.028.02.265.265,0,0,0-.147.26.912.912,0,0,1-.084.422,1.187,1.187,0,0,0-.1.413,3.714,3.714,0,0,1-.222,1.131,5.05,5.05,0,0,0-.219.923l0,.022c-.007.067-.018.179-.063.2a.457.457,0,0,0-.295.611c.005.03.011.06.016.092a1.513,1.513,0,0,0,.048.2.918.918,0,0,1,.047.228.351.351,0,0,0-.167.531l.013.027a1.323,1.323,0,0,1,.04.846,1.042,1.042,0,0,0-.019.423,2.778,2.778,0,0,0,.882,1.667.836.836,0,0,1,.142.178l.012.018a14.654,14.654,0,0,1,.955,1.758c.224.463.457.941.724,1.393.05.084.1.17.148.256a6.556,6.556,0,0,0,.655.992l.069.081c.34.4.633.74.385,1.262a.436.436,0,0,0,0,.29c0,.019.009.039.012.057.012.07.028.142.044.215a1.232,1.232,0,0,1,.042.587,1.386,1.386,0,0,0,.183,1.116c.023.047.047.093.068.138a1.834,1.834,0,0,1,.236.788,4.39,4.39,0,0,0,.425,1.851c.012.025.012.025.011.034a2.214,2.214,0,0,0,.335,1.2l.049.1a5,5,0,0,0,1.556,1.848.242.242,0,0,1,.051.06,8.107,8.107,0,0,1,.8,1.759l.087.24a5.763,5.763,0,0,0,1.029,1.832,1.9,1.9,0,0,1,.414,1.3c0,.132-.03.172-.043.182a.162.162,0,0,1-.122.007.337.337,0,0,0-.277.045.443.443,0,0,0-.141.34c0,.023,0,.045-.008.067a.582.582,0,0,0,.184.469c.1.125.14.181.108.274a.165.165,0,0,0,.019.149.23.23,0,0,0,.2.082H96.1a.23.23,0,0,1,.171.141.219.219,0,0,1,0,.208.745.745,0,0,0,.016.763.373.373,0,0,0,.2.211.263.263,0,0,0,.21-.01.28.28,0,0,0,.163-.176.245.245,0,0,0,.008-.037.572.572,0,0,0,.385.216l.045.01c.063.015.1.06.151.144a.616.616,0,0,0,.2.209,1.486,1.486,0,0,0,.733.263,1.181,1.181,0,0,0,.736-.337,4.008,4.008,0,0,1,.885-.217,2.223,2.223,0,0,1,.295-.005,1.015,1.015,0,0,0,.943-.341.528.528,0,0,1,.4-.18,1.568,1.568,0,0,1,.466.043,2.141,2.141,0,0,0,.445.054.741.741,0,0,0,.323-.1c.089-.043.141-.068.194-.053.128.035.258.059.383.082a2.056,2.056,0,0,1,.675.2.677.677,0,0,0,.474.057.23.23,0,0,0,.148-.12c.108-.231.2-.25.507-.11a.511.511,0,0,0,.269.025.569.569,0,0,1,.088-.005.268.268,0,0,0,.193-.066.28.28,0,0,0,.074-.2.256.256,0,0,1,.075-.209.146.146,0,0,1,.13.008,1.486,1.486,0,0,0,1.439-.23l.113-.063a8.828,8.828,0,0,0,1.122-.78c.154-.119.307-.239.464-.353l.021-.015a5.114,5.114,0,0,0,1.132-1.015,1.487,1.487,0,0,1,.443-.405,5.578,5.578,0,0,0,1.72-1.837l.162-.236c.105-.153.2-.314.284-.47a2.747,2.747,0,0,1,.606-.823c.048-.04.095-.08.141-.121a2.072,2.072,0,0,1,.534-.372,1.611,1.611,0,0,0,.9-1.2,5.579,5.579,0,0,1,.277-.845,3.948,3.948,0,0,0,.343-1.332,2.069,2.069,0,0,1,.042-.318,1.547,1.547,0,0,0,0-.763l-.066-.222a1.166,1.166,0,0,1,.363-.257,9.777,9.777,0,0,1,2.03-.741l.072-.021a1.9,1.9,0,0,0,.977-.73c.027-.034.057-.066.086-.1a.6.6,0,0,0,.21-.608,1.791,1.791,0,0,1,.223-1.269c.018-.036.1-.223-.01-.329s-.091-.179-.021-.373c.018-.049.035-.1.05-.152.04-.148.124-.455-.259-.568a.054.054,0,0,1,0-.028.387.387,0,0,0,.289-.492.532.532,0,0,1-.006-.107c0-.012,0-.026.007-.041.041-.22-.018-.349-.177-.384a.227.227,0,0,0-.263.1c-.128-.176-.188-.288-.117-.48a.7.7,0,0,0-.217-.783c-.2-.127-.193-.188-.138-.458l.005-.027c.056-.273.074-.365.336-.463a2.055,2.055,0,0,0,.794-.721l.059-.076a.86.86,0,0,1,.418-.334.991.991,0,0,0,.779-.454l.084-.1.087-.1a5.547,5.547,0,0,1,1.52-1.346c.083-.044.165-.092.248-.142a1.815,1.815,0,0,1,.5-.239l.178-.039a4.207,4.207,0,0,0,1.413-.5,6.5,6.5,0,0,0,1.2-1.037l.1-.105a3.19,3.19,0,0,0,1.021-1.576,1.056,1.056,0,0,1,.065-.19,1.217,1.217,0,0,0,.1-.316,1.433,1.433,0,0,0-.173-.792,1.278,1.278,0,0,1-.156-.609c.005-.068.016-.137.027-.206a1.834,1.834,0,0,0,.031-.46,1,1,0,0,0-.1-.4.487.487,0,0,0,.235-.469,4.085,4.085,0,0,0-.086-.867,3.271,3.271,0,0,1-.072-.937c0-.025,0-.049.006-.071l0-.031h.012l.021,0a.281.281,0,0,0,.24-.063.239.239,0,0,0,.063-.2.428.428,0,0,1,.007-.063c.012-.077.049-.313-.191-.361l-.02,0c0-.012,0-.028.005-.039l.005-.039c.081-.681-.046-.911-.646-1.172a.569.569,0,0,1-.333-.395,3.017,3.017,0,0,1-.137-.615,2.36,2.36,0,0,0-.3-.977.588.588,0,0,1-.039-.718.753.753,0,0,0-.008-.717c-.141-.22-.068-.352.122-.579a.533.533,0,0,0,.116-.511.437.437,0,0,0-.334-.282c-.026-.005-.032-.007-.046-.091a.616.616,0,0,0-.376-.462c-.15-.061-.176-.1-.177-.237a1.124,1.124,0,0,0-.019-.181.369.369,0,0,1,.012-.251l.071-.136a4.162,4.162,0,0,0,.395-.932,1.2,1.2,0,0,1,.347-.689,1.338,1.338,0,0,0,.3-.429l.037-.07c.1-.185.178-.378.255-.565a5.2,5.2,0,0,1,.281-.605l.018-.032a1.772,1.772,0,0,0,.334-1.05c-.005-.074.086-.131.178-.15.594-.122.731-.259.815-.81a.26.26,0,0,1,.015-.059.781.781,0,0,0,.828-.424c.04-.054.08-.109.123-.157a3.766,3.766,0,0,0,.426-.629c.078-.134.152-.261.235-.381a5.438,5.438,0,0,1,.636-.711c.091-.091.182-.182.271-.274.155-.163.309-.328.462-.493a18,18,0,0,1,1.419-1.416l.093-.08a9.056,9.056,0,0,1,1.56-1.161l.115-.062a4.461,4.461,0,0,0,1.166-.8l.391-.408a17.047,17.047,0,0,0,2.751-3.409c.1-.186.22-.372.332-.552a4.884,4.884,0,0,0,.79-1.758,2.592,2.592,0,0,1,.605-1.158,1.452,1.452,0,0,0,.254-.607,1.074,1.074,0,0,1,.32-.635,1.668,1.668,0,0,0,.434-.775,2.251,2.251,0,0,1,.281-.609,2.105,2.105,0,0,0,.293-1.318c0-.146,0-.283.01-.417.008-.112.02-.117.114-.154a.321.321,0,0,1,.078,0,.754.754,0,0,0,.114,0,.145.145,0,0,1,.026,0,.267.267,0,0,0,.209-.051.242.242,0,0,0,.079-.174l0-.024A.3.3,0,0,0,142.851,93.414Zm-16.6,3.886ZM124.3,87.267Zm-6.6,35.9Zm-.59-.2Zm-4.643-13.26Zm.193,25.956Zm2.955-68.049Zm-.194.106a1.436,1.436,0,0,0,.055.326l-.023-.018a.348.348,0,0,0-.127-.265.518.518,0,0,1-.211-.335l.03.016Zm-.284,45.062Zm-.127-45.909h0Zm-1.183,10.58Zm.472,37.444Zm.6-38.39Zm-8.979,65.874ZM103.7,109.5Zm-8.19,18.236ZM92.9,106.74h0Zm-.335,21.478h0Zm-4.451-10.473ZM85.692,74.222ZM83.219,61.708Zm1.39,1.457h0Zm-.92-1.184Zm-.229-2.07Zm-.006,1.846Zm.713-4.812Zm.134,6.013h0Zm-.575-3.177Zm.1-.062Zm.357,3.147h0a.2.2,0,0,0,.035.013A.2.2,0,0,1,84.187,62.866ZM80.843,79.861Zm.641-.641ZM79.2,97.277Zm.133-16.162ZM79.2,95.876ZM75.378,58.882h0Zm-.048.056ZM75.093,80.39Zm-.292-.059ZM71.935,96.807l0,0h0ZM71.02,58.193Zm.365,2.366Zm.213,1.8Zm-3.746,1.721Zm-.26.076Zm-.053,24.3Zm-.147.062h0ZM67,90.343Zm-.01.118Zm-2.148-5.91,0,0h0Zm-.274,5.376Zm1.176-24.579h0Zm-.6-6.388h0l-.005,0h0ZM62.826,92.947ZM61.158,68.973ZM61.4,66.7Zm-1.11,34.2Zm.365-20.979Zm-4.142,0Zm-.5-7.907Zm-.092,0Zm-2.53,14.9Zm.45,5.691ZM53.5,87.044h0ZM52.223,85.3h0l0,0h0Zm.075.087Zm-1.149-1.027Zm-2.95.2Zm.03-1.155.03.067-.062-.027A.082.082,0,0,1,48.227,83.4Z" fill="inherit"/>
    <path id="Path_1649" data-name="Path 1649" d="M362.7,319.8a3.874,3.874,0,0,0-.177-1.194c-.188-.468-.5-.889-.706-1.357a.229.229,0,0,0-.376.016c-.13.213-.258.369-.539.333a.2.2,0,0,0-.2.128c-.03.1.075.1.121.143.173.17.307.377.137.628a.672.672,0,0,0-.134.4.229.229,0,0,1-.138.235c-.129.045-.117-.1-.181-.148a.862.862,0,0,0-.12-.056l-.053.3a.446.446,0,0,1-.043-.173c-.021-.084.074-.212-.083-.246a.266.266,0,0,0-.262.108c-.116.124-.007.225.057.275.174.138.047.3.077.461-.091-.235-.341-.457-.466-.268-.155.234-.419.5-.378.8a.691.691,0,0,1-.348.675,1.454,1.454,0,0,0-.712,1.127c-.132-.366-.187-.376-.508-.126a1.8,1.8,0,0,1-1.372.567c-.08-.011-.189,0-.2.082-.027.243-.2.174-.342.187-.12.011-.279-.062-.352.037-.221.3-.514.264-.818.232-.1-.01-.211-.025-.2.138a1.758,1.758,0,0,1-.536,1.253c-.211.267-.477.568-.266.973a.19.19,0,0,1,.012.146c-.155.671.27,1.286.2,1.952,0,.008.011.018.016.028a1.531,1.531,0,0,1-.345,1.732,1.721,1.721,0,0,0-.511.861c-.021.174-.089.339-.342.3a.225.225,0,0,0-.237.23.839.839,0,0,1-.3.565.517.517,0,0,0-.18.483,4.587,4.587,0,0,1,.065.755.846.846,0,0,0,.234.628.712.712,0,0,1,.14.668c-.182.356-.043.727-.159,1.074a.406.406,0,0,0,.17.5c.1.062.1.167.091.269a.989.989,0,0,0,.8.923.778.778,0,0,1,.415.246,1.029,1.029,0,0,0,1.128.133A2.145,2.145,0,0,1,356,336.44a.976.976,0,0,0,.818-.421c.274-.379.351-.85.634-1.222a2.176,2.176,0,0,0,.235-.49c.264-.641.426-1.321.727-1.942a28.117,28.117,0,0,0,1.171-2.646c.106-.292.33-.521.406-.81a13.113,13.113,0,0,1,.791-1.852,4.2,4.2,0,0,0,.523-1.9.85.85,0,0,1,.43-.742c.045.156-.135.277.008.345s.2-.079.255-.19a2.237,2.237,0,0,1,.111-.236c.049-.079.111-.163,0-.223-.076-.043-.141,0-.167.1-.009.034-.057.109-.124.044s.017-.07.043-.1a.539.539,0,0,0,.1-.335,9.3,9.3,0,0,0-.129-1.1c-.018-.16-.032-.314.16-.4a4.953,4.953,0,0,1,.158.567c.025.152.083.219.235.213.131-.005.245.012.323-.156a1.457,1.457,0,0,0,.145-1.406A4.519,4.519,0,0,1,362.7,319.8Zm-4.269,6.4-.069-.1.069.1Z" transform="translate(-222.094 -190.011)" fill="inherit"/>
  </g>
</svg>
