<svg xmlns="http://www.w3.org/2000/svg" viewBox="0 0 88.769 103.115">
  <g transform="translate(-107.758 -326.096)">
    <g id="Group_2940" data-name="Group 2940" transform="translate(107.758 326.096)">
      <path id="Path_1650" data-name="Path 1650" d="M332.727,535.127c-.075-.029-.148-.029-.209-.134s-.105-.091-.12-.226,0-.044-.075-.163-.15.163-.12-.2-.089-.33-.089-.435-.05-.093.015-.165c.164-.18.179-.18.21-.3.019-.074-.091,0-.3-.044s-.2-.105-.346-.06-.241-.24-.254.06-.06.419.089.508.09-.014.151.091-.165.1.03.18.164-.075.194.075-.014.164.06.239-.044.09.121.209.03.061.164.121.06.135.18.239.044.09.18.15.075.15.134.061S332.8,535.157,332.727,535.127Z" transform="translate(-308.178 -511.791)" fill="inherit"/>
      <path id="Path_1651" data-name="Path 1651" d="M328.486,515.421c.3.148.284.119.39.075.07-.031.029-.106-.015-.21a1.3,1.3,0,0,0-.136-.225c-.089-.18.015-.09-.1-.283s-.135-.106-.15-.271-.061-.18-.106-.2-.163-.031-.193-.118-.03-.122-.09-.151c-.149-.075-.374-.225-.225-.06s.165.2.179.344-.075.135-.075.269-.284.106-.074.285.269.15.418.271S328.186,515.272,328.486,515.421Z" transform="translate(-304.94 -494.391)" fill="inherit"/>
      <path id="Path_1652" data-name="Path 1652" d="M310.206,497.537c-.03-.135-.075-.18-.15-.195s-.075-.015.016-.121.2-.075.089-.1-.3-.075-.3-.075c-.059.045-.239-.029-.223.224s-.181.107.014.256a.633.633,0,0,1,.254.343c.075.151-.014.241.091.286s-.029-.18.03-.255-.016-.031.075-.15S310.218,497.59,310.206,497.537Z" transform="translate(-288.593 -479.278)" fill="inherit"/>
      <path id="Path_1653" data-name="Path 1653" d="M319.375,498.724a.673.673,0,0,0-.016-.151l-.3-.089c-.045.074-.136.181-.136.269s-.166.091.03.15.136-.1.2.06-.2.225-.089.315-.061.014.1.089.12.149.21,0,0-.12.091-.225.134-.21.089-.254S319.375,498.814,319.375,498.724Z" transform="translate(-296.922 -480.57)" fill="inherit"/>
      <path id="Path_1654" data-name="Path 1654" d="M316.156,505.605c.014-.195-.076-.195-.045-.315a.284.284,0,0,0-.091-.254c-.046-.061-.046-.106-.135-.121s-.268,0-.224.047c.063.063-.106.134-.017.239s.017.165.062.285a.4.4,0,0,0,.164.254c.119.09-.06.09.075.225s.089.194.179.043S316.14,505.8,316.156,505.605Z" transform="translate(-294.017 -486.328)" fill="inherit"/>
      <path id="Path_1655" data-name="Path 1655" d="M326.377,508.685c.046-.075-.075-.059.046-.15s.029-.044-.031-.164-.194-.179-.255-.15c-.18.089-.27.285-.18.36s.089-.015.2.075S326.332,508.759,326.377,508.685Z" transform="translate(-303.251 -489.287)" fill="inherit"/>
      <path id="Path_1656" data-name="Path 1656" d="M322.65,508.72c-.119.012-.089.118-.089.24s-.045.163.046.268a.3.3,0,0,1,.1.3c-.015.178-.029.27.014.27s.016-.15.061-.24a.856.856,0,0,0,.075-.21.4.4,0,0,0,0-.195C322.845,509.049,322.8,508.7,322.65,508.72Z" transform="translate(-300.228 -489.741)" fill="inherit"/>
      <path id="Path_1657" data-name="Path 1657" d="M347.62,537.21a1.717,1.717,0,0,1-.315-.314.656.656,0,0,0,.113.359,1.239,1.239,0,0,0,.337.292c.091.044.068-.09.068-.18S347.74,537.3,347.62,537.21Z" transform="translate(-322.412 -514.99)" fill="inherit"/>
      <path id="Path_1658" data-name="Path 1658" d="M165.641,382.723c.014.044.134.163.121.193a.108.108,0,0,0-.009.083c.009.023.21.044.21.044l.119-.044.1-.044c.091-.136.113-.188.091-.211a.655.655,0,0,1-.113-.149c-.007-.03-.037-.157-.044-.171a.586.586,0,0,1,.217-.121c.022.007.076-.007.105-.089a.838.838,0,0,0,.044-.129c.007-.037,0-.074.038-.1l.067-.052s.1-.1.121-.053.014.135.059.182.089-.016.143-.054a.572.572,0,0,1,.134-.082c.03-.007.068-.046.1-.031s.045.037.091.09.15.022.135.09c0,.009,0,.014-.009.017a.665.665,0,0,1,.084.081c.155.172.26.157.155.172s-.149-.009-.185.044,0,.121-.031.166.007.021.031.1a1.948,1.948,0,0,0,.34.359c.117-.079.246-.18.2-.328a.35.35,0,0,0,.37-.29c-.046-.009-.1-.1-.137-.13s-.09-.061-.166-.121-.043-.21-.134-.24-.15-.21-.223-.21-.076-.1-.211-.12a.776.776,0,0,1-.24-.044c-.18-.075-.24-.134-.3-.12s-.046-.224-.181-.03-.15-.074-.209.119.014.135-.059.194-.106.031-.315.106a.529.529,0,0,1-.331.03l-.208.029s-.03.045-.285.045a.464.464,0,0,1-.375-.135c-.09-.061-.239-.1-.284-.164a.733.733,0,0,0-.136-.165.577.577,0,0,1-.179-.2,1.261,1.261,0,0,1-.135-.284c-.045-.119-.038-.155-.075-.2l-.062-.069c-.208-.239-.212-.292-.253-.319s.061-.181.031-.269a1.058,1.058,0,0,1,0-.315c0-.15.059-.164.044-.315a.656.656,0,0,1,.03-.359c.044-.076.074.014.089-.18a2.919,2.919,0,0,1,.1-.435,2.892,2.892,0,0,0,.1-.329.311.311,0,0,0-.073-.195c-.045-.074-.09-.047-.162-.16l0,0c-.075-.12-.114-.192-.15-.239-.134-.182-.479-.286-.509-.332s.044-.134-.106-.15-.225-.1-.328-.074-.331.06-.479.09-.135.059-.3.09-.224-.12-.389-.09-.1-.075-.284-.03-.1-.045-.27.03a.433.433,0,0,1-.094.031c-.083.012-.113-.021-.205.059-.12.1-.36.315-.345.044a.368.368,0,0,1,.008-.058.687.687,0,0,1,.216-.375c.031-.045.165-.1.165-.18s.015-.135.015-.194,0-.285-.015-.42-.285-.225-.029-.27c.12-.021.142-.069.132-.124s-.065-.128-.072-.177c-.016-.089-.121-.209-.045-.27s.15-.149.15-.045.075.331.075.39c0,0,.121-.179.1-.225a.529.529,0,0,1,.016-.255c.03-.105.059-.075.075-.179a.371.371,0,0,0,0-.225c-.031-.166-.061-.269,0-.375s-.061-.015.179-.254.225-.135.3-.3.223-.105.075-.255-.105-.226-.24-.24-.105-.1-.285,0a2.189,2.189,0,0,1-.254.135,1.778,1.778,0,0,1-.465-.09c-.075-.015-.17-.06-.224,0a.7.7,0,0,1-.539.195c-.165-.016-.194-.1-.286.031s.106-.092-.089.134-.164-.165-.195.359,0,.51-.075.585-.06.015-.1.135.045.149-.059.239a1.036,1.036,0,0,1-.225.179c-.122.046,0,.108-.122.151-.209.075-.193-.075-.283-.045s.03-.119-.15-.045-.374.181-.374.181.029-.016-.135.044a1.207,1.207,0,0,1-.36.044c-.075.017-.016-.119-.225-.03s-.075-.014-.209.091-.195.119-.27.105-.016-.121-.15-.166-.059-.179-.21-.179.031.029-.149,0a.916.916,0,0,1-.285-.075c-.164-.089-.18-.1-.18-.15s-.075-.328-.149-.359-.061-.329-.135-.314-.091-.09-.195-.211-.164-.044-.255-.3.134.254-.091-.255-.253-.329-.3-.4a.57.57,0,0,1-.135-.33,1.375,1.375,0,0,1,.016-.508c.044-.106.075-.106.089-.211a.551.551,0,0,0-.03-.285c-.029-.059-.075-.164-.045-.209,0,0,.226-.149.21-.211s-.195-.465-.15-.509.284-.27.284-.329a1.815,1.815,0,0,1,.043-.184v0a.918.918,0,0,0,.018-.176,1.336,1.336,0,0,0-.015-.344c-.03-.18.015-.24-.105-.389s-.225-.165-.18-.27.06-.224.121-.284a1.268,1.268,0,0,1,.179-.135c.119-.164.074-.33.164-.344a1.019,1.019,0,0,0,.18-.045c.045-.015.075-.158.15-.165.165-.016.09.045.24,0s.434-.121.434-.163,0-.046.105-.134.209-.032.225-.182.03-.029.016-.149.028-.119.179-.075a.713.713,0,0,0,.3.014.776.776,0,0,1,.524-.254.608.608,0,0,1,.194.1c.091.061-.014.017.24.076a.841.841,0,0,0,.314.045c.045,0,.134-.038.2-.045a.517.517,0,0,1,.389.06c.134.075.15,0,.225.089s-.016.106.091.165.119.091.238.031.03-.046.119-.061l.09-.015s-.193.12.016.12.343-.149.284-.2c0,0,.134-.045.166.075s.059.2.164.136.2-.136.12-.18a.322.322,0,0,1-.15-.239v-.165l-.15-.075s.03-.09-.09-.1-.429.013-.329-.06c.225-.165.18-.1.255-.06s.21-.03.285,0,.029.03.179-.015.1-.134.225-.045a1.544,1.544,0,0,0,.39.165.42.42,0,0,0,.059-.12c.014-.06.093-.181.134-.119.136.194.284.194.33.134a.255.255,0,0,1,.195-.1,1.232,1.232,0,0,1,.255.016c.045.013.358.029.358.029l.3.06.061.151s.179.118.165.178.194.136.194.136a3.35,3.35,0,0,0,.374-.09c.046-.015.21-.106.21-.106.24-.075.18-.089.24-.015s.046.075.135.121.195.075.24.165.135.061.18.15.135.2.15.239a2.021,2.021,0,0,0,.118.21l.017.15a.7.7,0,0,0-.09.4c0,.09-.049.206-.015.24.195.2.12.254.24.3a.4.4,0,0,1,.18.211,1.526,1.526,0,0,1,.075.149.654.654,0,0,1,.075.224c0,.09-.1.255-.031.2l.21.239a.372.372,0,0,0,.134,0c.06-.015.15-.059.165.061a2.4,2.4,0,0,0,.075.329c.016.046.105.074.15.09s.164.015.164.075l.181-.18a.716.716,0,0,1,.059-.179c.046-.089.136-.225.136-.225s.09-.193.028-.209-.028-.03-.059-.24a.59.59,0,0,1,0-.3c.015-.075.045-.044.015-.134s0-.059-.091-.15-.014-.164-.12-.224-.06-.09-.1-.24.031.2-.045-.15-.135-.314-.074-.45.1-.148.074-.238a.959.959,0,0,0-.164-.24c-.045-.061-.195-.075-.24-.254a1.6,1.6,0,0,1-.059-.315c-.014-.136-.135-.091-.014-.27s.029-.031.014-.27-.074-.164.014-.314a2.252,2.252,0,0,0,.24-.374c.045-.136-.03-.075.164-.24s.436-.376.525-.434a1.775,1.775,0,0,0,.314-.24,1.105,1.105,0,0,0,.181-.178c.074-.091.074-.166.194-.255s.059-.18.225-.12a.509.509,0,0,0,.33.015c.059-.015-.062.134.164-.15s.314-.285.344-.344.255-.211.284-.165.03.089.134.029.24-.151.21-.165c-.285-.134-.36-.179-.3-.239s-.074-.1.1-.12.174.043.24,0c.165-.1.315-.179.331-.239s.044-.165.044-.165c-.225-.106-.27-.031-.284-.136a.359.359,0,0,1,.03-.194s.12.029.089-.121a1.042,1.042,0,0,1,0-.3c0-.075,0-.15-.134-.135s-.105-.015-.225-.1-.269-.134-.164-.164.255.09.255-.029a.225.225,0,0,0-.105-.181.438.438,0,0,1-.12-.224c-.016-.286-.195-.345-.046-.389s-.015.374.211-.06.134-.584.238-.63-.045.285-.03.525-.06.09.015.24.18.119.195.24-.225.179-.074.3.268.046.283-.075-.029-.179.076-.255.15-.1.15-.148.089-.106.06-.226-.136-.165-.136-.255-.044.03-.06-.149c-.007-.081-.013-.142-.019-.186.036.071.109.165.169.155a.9.9,0,0,1,.18-.016c.045,0,.015.046.12-.029s.463-.315.4-.42.03-.15.046-.255.1-.194.059-.283-.209-.031-.209-.15a.415.415,0,0,1,.075-.27.664.664,0,0,1,.194-.089l-.045.3.226-.163a.226.226,0,0,1,.119-.077c.091-.029.1-.149.21-.134s.209-.015.3,0-.1.164.179-.03a.511.511,0,0,1,.479-.075c.15-.044.075.014.15-.044a1,1,0,0,0,.165-.226.213.213,0,0,0,.165-.045c.059-.059.27-.12.24-.181s-.06-.1-.12-.208.03-.075-.045-.226-.164.045-.074-.15.1-.119.1-.284,0-.255.15-.329.121-.15.27-.27-.12-.105.2-.179.134.06.238.014.286-.014.286-.075a.8.8,0,0,1,.1-.225.234.234,0,0,1,.254-.105c.046,0,.271-.03.271-.03l.389-.119s.075-.015.09-.059.075-.18.119-.136.21.136.211-.013v0c.055-.28.03-.274-.031-.254v0c0-.02,0-.033.015-.03.135.031.322.067.39-.015l.15-.179s.15.164.195.134a1.22,1.22,0,0,1,.33-.12,1.814,1.814,0,0,0,.27-.075c.059-.015.044-.165.1-.165s-.03.015.059,0,.06.15.06.15c-.06.1-.029.164.076.135a1.168,1.168,0,0,1,.329-.076c.059.017.164.062.148.135s.031.136-.134.136.059-.179-.3-.015-.284.09-.375.1,0-.1-.195.03a3.107,3.107,0,0,0-.389.33c-.134.119-.15.224-.254.3s.029.106-.015.225-.059.209.061.209.194.09.314.06.359-.06.42-.134.359-.239.39-.36a.3.3,0,0,1,.163-.224,1.3,1.3,0,0,1,.33-.119,4.125,4.125,0,0,0,.51-.12c.1-.031.328-.091.464-.121a1.553,1.553,0,0,0,.495-.209,1.277,1.277,0,0,1,.195-.164l.255-.016a.734.734,0,0,1-.2-.165c-.045-.075.075-.255-.016-.225s-.163-.074-.329,0-.225.105-.27.165-.059-.12-.164-.12-.345.1-.451.12-.179-.225-.179-.225l-.271.016a.414.414,0,0,1-.238-.2.747.747,0,0,0-.225-.089.777.777,0,0,1-.135-.12.352.352,0,0,1-.015-.165s-.014-.134-.06-.134-.154-.154-.18-.195c-.074-.119-.149-.225-.149-.225s.329-.254.3-.345a.358.358,0,0,0-.121-.194c-.059-.044-.433.165-.418.105a.132.132,0,0,0-.076-.136,1.736,1.736,0,0,1-.15-.134,2,2,0,0,0,.63-.061c.089-.075.2-.09.284-.179s.24-.18.254-.269-.2-.136-.254-.21a1.568,1.568,0,0,0-.225-.239,1.174,1.174,0,0,0-.42-.106.491.491,0,0,0-.225-.016c-.059.03-.4.09-.45.121s0,.014-.15.074-.18.1-.254.12a2.854,2.854,0,0,0-.3.075c-.21.059-.24.015-.328.09a2.063,2.063,0,0,1-.406.255c-.134.061-.045.029-.27.181a6.446,6.446,0,0,0-.509.419c-.12.09.1-.1-.225.166s-.494.419-.494.419c-.06.133.133-.33.133-.33s.285-.2.344-.239a1.866,1.866,0,0,0,.255-.255,1.254,1.254,0,0,0,.15-.21c.045-.088.016-.12.12-.149a.633.633,0,0,0,.315-.164,1.441,1.441,0,0,1,.195-.271c.045-.029.2-.119.2-.119a.586.586,0,0,1,.134-.031.5.5,0,0,0,.21-.015c.044-.029.3-.179.3-.179l.18-.21a2.281,2.281,0,0,1,.27-.285c.044-.014.375-.165.375-.165l.195-.059s.749-.029.809-.029.118-.03.24-.045.343-.105.387-.076c.028.017.078.055.125.089l.086.061c.045.029.2-.029.256,0a1.922,1.922,0,0,0,.434-.029l.15.1h.553a1.05,1.05,0,0,1,.3-.059,2.9,2.9,0,0,0,.525-.224c.044-.015.178.03.269-.09s.524-.255.524-.36.211-.238.239-.285.2-.045.271-.059a1.458,1.458,0,0,0,.418-.061c.1-.06.3-.135.345-.105s.4-.12.4-.12l.254-.209.105-.21-.194-.224-.075-.18c.075-.18.239-.209.223-.344s-.1-.166-.089-.286.15-.179.03-.254a3.51,3.51,0,0,0-.42-.225,2.316,2.316,0,0,0-.4-.076c-.089-.014-.164.106-.18.15s.046.166-.059.195,0-.089-.031-.345-.089-.238-.209-.238a1.587,1.587,0,0,0-.419.075,3.018,3.018,0,0,0-.285.163l-.224.106s-.015.044-.165.135a2.1,2.1,0,0,1-.4.21.333.333,0,0,1-.225-.09c-.077-.075-.061-.165.014-.181s.435.031.449-.044.195-.135.211-.179.089-.031.134-.106.118-.134.164-.105a.531.531,0,0,0,.345-.014.85.85,0,0,1,.271-.076l.238-.089.21-.1a1.487,1.487,0,0,1-.3-.135c-.1-.149.03-.314-.121-.3a1.036,1.036,0,0,0-.374.075c-.134.059-.134.134-.209.029s-.03-.181-.075-.224-.1-.225-.18-.134-.1.074-.179.178a.243.243,0,0,1-.211.092,1.116,1.116,0,0,0,.075-.21c0-.044-.15-.091-.209-.091s-.121-.074-.164-.044-.09-.3-.09-.3a1.511,1.511,0,0,0-.12-.164c-.075-.089.014-.06-.075-.089s.1,0-.09-.03,0,.09-.059.09-.1-.18-.181-.194-.1-.241-.164-.241-.045-.164-.15-.134-.164-.12-.164-.12-.209-.105-.016-.134.3-.061.3-.061.12-.21.046-.21-.061-.254-.151-.284-.1-.12-.194-.195-.089-.18-.045-.194.239-.061.12-.151a2.119,2.119,0,0,0-.33-.224c-.119-.06-.119-.1-.209-.121s0-.075-.075-.18-.061-.163-.136-.163-.1.059-.179-.046,0-.434-.045-.434c-.02,0-.05-.024-.08-.049s-.064-.088-.145-.191c-.314-.4-.06-.073-.073-.134s0-.121-.047-.15a.61.61,0,0,1-.209-.134c-.075-.091-.044-.27-.15-.286s-.075-.074-.1-.194-.011-.261-.075-.194a1.2,1.2,0,0,0-.285.389c-.074.1-.046-.082-.073.1a.018.018,0,0,0,0,.007c-.03.2-.24.061-.254.166s.03.121.075.21.119.118.059.179-.179-.1-.179.061-.136.21-.105.269.33-.09.074.12-.12.453-.223.434c-.164-.03-.15-.33-.271-.269s.045-.076-.119.059-.059-.015-.164.135a.236.236,0,0,1-.061.07c.006,0,.011.015.016.049.014.121-.093.068-.181.1-.239.105-.164-.03-.239.105-.164.119-.03-.15-.134-.165s0-.121-.164.045-.031.089-.167.164-.239,0-.15-.149.166-.224.122-.239,0-.224-.105-.315.059-.09-.106-.09a1.628,1.628,0,0,0-.524.18c-.2.12,0,.254-.2.12s-.254-.36-.15-.329.15.09.226.059.135.015.149-.059c.007-.032.015-.018.021-.011a.811.811,0,0,1-.035-.125c-.061-.239-.016.225-.075-.1s-.181-.285-.2-.389-.045-.151-.045-.2.076-.074.076-.239-.06-.15-.06-.241-.2.03.015-.254.21-.4.21-.4c-.2-.061-.15-.076-.254-.076s-.061.061-.255.076-.075-.149-.121-.135-.3.059-.3.059l-.134-.029a.588.588,0,0,0-.315-.119.9.9,0,0,1-.12-.179c-.045-.181.015-.225-.059-.255s-.09-.165-.2-.165-.24-.059-.285-.046-.014-.118-.044-.164,0-.135-.134-.194.014-.21-.271-.2-.253.075-.253.075a.616.616,0,0,0-.465-.013c-.1.044-.075.044-.209.1s-.031.149-.136.059-.1-.134-.179-.149-.1-.059-.181-.013-.014-.092-.134.013-.12.121-.18.016,0-.165-.091-.18.075-.179-.195-.075-.33.091-.389.044-.105-.194-.224-.149a.842.842,0,0,0-.27.1c-.1.075-.239.044-.315.15s-.089.015-.089.224.12.12.149.3a1.175,1.175,0,0,0,.121.329c.045.12.15-.045.045.12s-.015.33-.06.42a1.411,1.411,0,0,0-.075.209c-.03.09-.03.076.046.195s.195.21.195.314.03.134.014.21.09.15.1.209.076.241.015.285-.254.014-.27.089c-.044.225-.014.225-.136.36a.523.523,0,0,1-.239.165.6.6,0,0,1-.075.165c-.046.061-.27.255-.164.27a1.046,1.046,0,0,1,.54.195c.164.15.418.12.418.179s.075.046.15.2.179.224.209.329.076.12.076.194a.923.923,0,0,0,.014.151c.014.149.1.06-.031.4a.871.871,0,0,0-.029.33c.029.1.059.238.059.238s-.014.151-.059.18,0,.166-.211.27-.33.135-.4.226a2.1,2.1,0,0,1-.255.253,1.224,1.224,0,0,1-.119.105,1.246,1.246,0,0,1-.269.15,1.517,1.517,0,0,0-.33.029c-.119.045-.089-.149-.225-.044s-.15.089-.15.209.27.27.255.313-.015.017,0,.2a.644.644,0,0,0,.059.27c.03.074.224.1.15.209s-.015.09-.045.225.045.165.03.329a.809.809,0,0,0,.075.39c.029.061.165-.031.18.1s.1.209.088.269-.1.03-.148.075a2.108,2.108,0,0,0-.12.195c-.046.06-.105.1-.06.149.135.135.209.166.18.241s-.15.284-.18.224a.5.5,0,0,0-.195-.149c-.15-.075-.136-.15-.239-.015s-.106.044-.106.194.075.09.136.24-.136-.179-.27-.255a.367.367,0,0,0-.329-.014c-.225.119-.286.119-.345.179a.325.325,0,0,1,.1-.119.429.429,0,0,0,.121-.15c.06-.12.06.015.06-.12s.045-.194-.015-.21-.106-.074-.181-.12.09-.06-.1-.12-.224-.175-.286-.179c-.2-.016-.33.179-.2-.016a1.1,1.1,0,0,1,.15-.174c.041.029.107.066.006-.006.005-.007,0-.01-.02-.014-.2-.135-.15-.2-.24-.21s-.045-.06-.134-.075-.062-.09-.121-.15-.091-.074-.075-.119.03.014.06-.135a.817.817,0,0,0,.03-.225c0-.075.106-.075,0-.179a.494.494,0,0,1-.1-.3l.014-.163s-.12-.091-.12-.15,0-.208.045-.24a.393.393,0,0,0,.121-.18c.014-.06.15.059-.06-.224-.026-.035-.045-.06-.061-.078,0-.076.084-.018-.014-.089a.447.447,0,0,0-.315-.088c-.089.014-.18.029-.3.044a.816.816,0,0,1-.389-.016c-.075-.044,0-.149-.135-.149a2.1,2.1,0,0,0-.3.015c-.15.016-.119-.031-.27.044s0,.015-.149.075c-.226-.314-.12-.4-.331-.388s-.211-.005-.268-.03c-.165-.074.059-.105-.27-.21s-.359-.1-.434-.09-.13.04-.181-.015c-.179-.2.031-.209-.209-.314s-.225-.105-.254-.165-.15-.089-.195-.119a1.222,1.222,0,0,0-.209-.076l-.165-.045c-.179-.074-.179-.165-.27-.165s-.118-.089-.223-.059-.135.09-.209.031-.047-.136-.135-.2-.09-.089-.18-.105.194-.09-.179-.015-.421.015-.525.076a2.178,2.178,0,0,1-.329.149.938.938,0,0,1-.27.044c-.075,0-.209.016-.179-.044s0-.045.1-.149.15-.136.134-.181,0-.03-.1-.179a.831.831,0,0,1-.134-.27.637.637,0,0,0-.105-.27c-.091-.1-.059-.194-.091-.268s.121,0-.075-.134a.691.691,0,0,0-.315-.151c-.134-.045-.169-.077-.209-.06-.179.074-.359.179-.314.149,0,0-.03-.344-.06-.284a1.768,1.768,0,0,0-.18-.2c-.059-.046-.15-.075-.091-.134s.122-.105.122-.166v-.224c0-.1.134-.3.089-.434a.563.563,0,0,1-.045-.225c-.015-.149-.075-.134.016-.224s.284-.164.269-.254.165-.211.151-.285.089-.045.089-.255.046-.259.09-.269a.709.709,0,0,0,.314-.195s.046-.105,0-.164-.059-.106.046-.135a2.23,2.23,0,0,0,.24-.091l.135-.075s.075-.149-.016-.18a.075.075,0,0,1,0-.148c.075-.015.3-.075.3-.075l.136-.03c-.076-.165-.136-.255-.076-.24a1.463,1.463,0,0,0,.254,0,.932.932,0,0,0,.136.075.909.909,0,0,0,.255-.061l.12-.119.165-.016s.119-.149.059-.18-.195-.09-.225-.165.03-.059-.1-.164-.165-.148-.27-.135a.489.489,0,0,1-.2.015c-.059-.015.045-.209-.118-.164s-.256.136-.27.074-.03-.136-.03-.136a.782.782,0,0,0-.195-.09c-.136-.044-.241-.164-.164-.119a3.818,3.818,0,0,0,.523.135s-.06.06-.03.09.059-.045.194-.03a.335.335,0,0,1,.21.1.783.783,0,0,0,.27.061.592.592,0,0,1,.194.089.752.752,0,0,0,.4.016s-.03-.045.031-.059l.165-.046s.028-.179.028-.225-.014-.194-.014-.194c.165-.045.209.029.209.029l.181.12h.15s.239-.059.239-.015a.614.614,0,0,0,.18-.044l.254-.181.21-.074s.014-.135.059-.165a3.1,3.1,0,0,0,.225-.225l.014-.12.21-.178.03-.136-.014-.285h-.15a.487.487,0,0,0-.21-.06.117.117,0,0,1-.076-.027.556.556,0,0,0,.407-.076,1.667,1.667,0,0,1,.178-.165c.091-.061.144-.132.2-.165a.8.8,0,0,0,.224-.182c.136-.134.091-.119.15-.208l.061-.09s-.136-.209-.179-.209a1.032,1.032,0,0,1-.21-.076s0-.12.043-.134.151-.046.151-.046a.468.468,0,0,0,.255.059l.134-.059.166.136c.075.208.12.164.165.224a.935.935,0,0,0,.21.059s.074-.015.119-.03l.135-.134a.167.167,0,0,0,.164.029c.105-.029.117.064.18.076.15.03.15-.016.18-.076s-.121-.209-.121-.209l-.12-.134-.164-.165c-.15-.09-.059-.134-.21-.119s-.27-.016-.119-.046a1.388,1.388,0,0,0,.15-.03.054.054,0,0,0,.049-.049.165.165,0,0,0,.011.02c.089.149.089.134.15.149s.091.059.134.075a1.4,1.4,0,0,1,.18.209c.015.046.1.008.135.074.089.165.15.18.15.18a1.451,1.451,0,0,0,.269.165c-.119-.21-.15-.1-.119-.21s-.059-.059.03-.1-.179-.03.089-.045a.761.761,0,0,0,.39-.1c.015-.134-.15-.12.015-.134s.178-.105.178-.105l.091-.149.15-.031c.075-.014.089-.048.15-.134a.649.649,0,0,0,.105-.211c.089-.163.12-.254.06-.283s-.255-.121-.255-.121a.6.6,0,0,0-.166-.194c-.1-.076-.21-.046-.225-.2s.136.059-.015-.15-.089-.135-.149-.21-.121.016-.06-.075-.075-.1.06-.089.194-.046.239,0,.089.06.134.029-.014-.105.031-.12.071-.072.134-.06c.151.03.194-.029.225-.075,0,0,.091-.18.046-.164s-.136-.089-.2-.075-.12.09-.134,0-.195-.06,0-.15.18,0,.194-.09l-.059-.211c-.209-.1-.329-.059-.45-.1s-.1.015-.179-.06-.015-.135-.075-.149-.284.045-.24,0,.046-.091.15-.1c0,0,.031-.18-.029-.18a1.19,1.19,0,0,0-.255.091.705.705,0,0,1-.18,0c-.045-.016-.075-.135-.209-.135a2.7,2.7,0,0,1-.286-.031c-.045,0-.255.031-.255.031s-.195-.105-.24-.075a1.928,1.928,0,0,1-.328.075s-.015-.195-.151-.045-.014.136.045.136l.045.268c.03.18-.134.1.03.18s.165-.1.27.119-.059.121.1.226.315-.03.165.106a.9.9,0,0,1-.285.179s-.059-.045-.15.029-.195-.164-.209.03,0,.279-.029.315c-.12.165-.12.1-.12.27s.09.21-.029.239l-.12.03-.119.134c-.136.106-.167.106-.21.2s-.061.029-.016.149a.277.277,0,0,1,0,.211l-.209.029c-.209.119-.245.079-.269.149-.076.211-.061.286-.076.211s-.046-.286-.046-.286a1.548,1.548,0,0,0-.179-.239s-.258-.179-.27-.224c-.044-.2-.029-.271-.06-.36s-.12-.12-.03-.194.09-.195.2-.135.059.225.1.06a.267.267,0,0,0,.046-.164.96.96,0,0,0-.12-.226v-.181l-.1-.163-.091-.165-.15.029-.195-.119-.18-.061a.157.157,0,0,0-.075-.06.225.225,0,0,0-.254,0c-.089.074-.15.121-.164.18s-.15.107-.135.15c.061.18.017.057-.074.149-.165.166-.2.21-.21.3a.98.98,0,0,1-.045.167,1.126,1.126,0,0,1-.03-.316c.015-.134,0-.224.03-.269s.255-.076.045-.165-.29-.057-.284-.121c.014-.164.119-.164.179-.148s.163.07.135-.016c-.06-.181,0-.225-.119-.24s-.136-.134-.2-.106-.165-.1-.21-.119-.089-.1-.149-.12-.106-.105-.167-.015.084.115-.045.165a.674.674,0,0,1-.4-.015c-.195,0-.284-.121-.209-.181s-.36.24.075-.06.463-.33.523-.285.12.06.135,0,.045-.209-.031-.24-.059-.134-.193-.164.016.044-.134-.03a.622.622,0,0,1-.256-.224c-.089-.105-.179-.209-.179-.254s-.117,0-.134-.046a.565.565,0,0,1-.015-.314c0-.075.031-.031-.046-.165a.663.663,0,0,0-.224-.255c-.045-.015-.24-.314-.285-.314s-.089-.015-.15-.015-.223-.09-.27-.075-.089-.06-.134-.045-.09-.1-.09-.1.2-.037.285-.046a.562.562,0,0,0,.314-.15l.075-.18.21-.194-.09-.134s.015-.015-.03-.1.03,0-.046-.09a1.117,1.117,0,0,1,.225-.045,3.248,3.248,0,0,0,.375-.075.473.473,0,0,1,.225.03c.15.105.568-.09.509-.09,0,0,.1-.029.119-.255s.017-.314.063-.3.163-.046.163-.046a.323.323,0,0,1,.105-.135.383.383,0,0,0,.164-.149c.03-.061.18-.329.195-.375s-.044-.18-.044-.18a.832.832,0,0,0-.179-.059c-.045,0-.18-.089-.255-.075a1.977,1.977,0,0,1-.375.016,1.038,1.038,0,0,0-.375.015.192.192,0,0,0-.18-.1c-.134,0-.089-.091-.223-.091a2.345,2.345,0,0,0-.345.046c-.12.015-.27-.015-.375,0s-.225-.046-.33-.015-.165-.03-.314.045-.12.045-.195.135-.135-.046-.075.089a.793.793,0,0,1,.06.285s-.046-.119-.134-.09-.121-.059-.151.031,0,.09-.03.24-.03.044-.03.149.06.18,0,.329a.712.712,0,0,0-.075.27c0,.06-.029.149.014.2s0,.029.121.134.09.179.135.255a.527.527,0,0,1,.075.209c.015.09-.059.18-.059.3a.315.315,0,0,0,.044.179c-.016.181.06.062-.016.181s-.176.051-.224.135c-.1.178-.076.1,0,.164s.136.183.091.195a.616.616,0,0,1-.345-.029.31.31,0,0,0-.136.088,1.091,1.091,0,0,0-.179.256c-.061.1-.061.075-.061.179s-.074.24-.014.329.03.046.15.105.136.092.211.105-.151.15-.18.226a.48.48,0,0,0-.059.254,1.324,1.324,0,0,0,.165.359c.014.06.134.075.164.12s.164.015.164.015l.165.059.225.062a1.067,1.067,0,0,0,.375.18l.225.029a.235.235,0,0,0,.093.077c-.031,0-.059.021-.079.073-.059.163-.1.03-.059.163s.1.121.1.165-.15.18-.15.18-.164.143-.119.149c.179.03.314.03.359-.015s.045-.076.089-.134a1.013,1.013,0,0,0,.091-.165s.1.12.075.182a.8.8,0,0,0-.03.192c-.045.167.089.107-.03.226s-.315.3-.315.3-.075-.06-.135.059-.135.076-.24.106-.029-.045-.18.03-.059-.044-.211.06-.1-.135-.149.1-.195.225-.12.3.15,0,.179.165a2.055,2.055,0,0,0,.089.269c.031.12.046.09,0,.21-.038.1-.076.161-.087.2,0-.019-.008-.045-.017-.082-.06-.27-.044-.36-.1-.345a.446.446,0,0,1-.18-.03c-.15-.03-.225-.074-.254-.15s-.12-.134,0-.2.209-.1.209-.149v-.179a1.492,1.492,0,0,1,.015-.149c-.089-.12-.044-.224-.1-.2-.195.089-.165,0-.195.089l-.075-.135c-.179.075-.045.046-.179.075-.181-.059-.18-.075-.21-.15s0-.132-.061-.149c-.166-.046.015-.06-.166-.046s-.224-.089-.268.03.089.061-.045.12-.181.106-.225.076-.093-.076-.136-.059c-.18.074-.269-.031-.18.074s.135.029.15.134c.012.077-.01.131.009.171a.217.217,0,0,0-.128.023.274.274,0,0,0-.016.21.136.136,0,0,1-.134.18c-.045,0-.136-.121-.136-.121s.12-.209-.119-.1-.209.046-.209.046a1.112,1.112,0,0,1-.226.03c-.1,0-.267-.008-.314,0a2.108,2.108,0,0,0-.33.075.931.931,0,0,0-.165.016c-.209.06-.286.029-.329.06s-.15.075-.165.029.018-.13-.029-.134c-.165-.015-.27-.015-.315-.015s.15.046-.044,0-.222-.062-.269-.119c-.137-.165-.061-.209-.2-.195s-.1-.09-.21-.014-.15-.031-.254.014-.116.106-.194.045l-.136-.1c-.149-.09-.149-.135-.194-.149s.046-.046-.134-.09-.256.03-.3-.106-.031-.043-.045-.134.045,0-.016-.09-.044-.136-.119-.224-.015-.15-.105-.15-.119-.046-.209-.03.075-.044-.089.015-.151.062-.285.121.03,0-.134.059a2.866,2.866,0,0,0-.359.105,1.211,1.211,0,0,1-.345.06,2.213,2.213,0,0,0-.254.06c-.045.016-.06-.03-.165.06a.6.6,0,0,0-.179.2c-.016.044-.06.1-.06.149a1,1,0,0,0,.21.164c.074.031.031,0,.164-.015a.4.4,0,0,1,.226.029s.1-.119.15-.119h.044s-.06-.106.061-.09a.578.578,0,0,0,.239-.029.3.3,0,0,0,.15.014c.075-.014.12-.075.166-.075a1.44,1.44,0,0,1,.255-.1.6.6,0,0,0,.164-.03s.1-.12.165-.1c0,0,.089.015.044.121a.24.24,0,0,1-.179.134c-.046.015-.21.045-.21.045a.958.958,0,0,1-.3.194s-.1-.059-.15-.015-.041-.013-.12.044c-.21.15-.239.106-.3.165,0,0-.1-.015-.15.135s-.148.059-.044.149a.494.494,0,0,1,.165.2c.044.09.089.2.089.2.12.134.179.134.209.194s.016.047.045.165a1.591,1.591,0,0,0,.06.195s-.121-.153-.18-.119c-.134.074-.247-.052-.195.029a.786.786,0,0,1,.136.345c0,.059.059.013.059.119,0,0-.24-.284-.3-.284s-.163.016-.209-.03-.129-.12-.045-.165a.561.561,0,0,0,.24-.2s.059-.2,0-.164-.031-.12-.09-.135a.656.656,0,0,0-.224-.044c-.165.044-.207.1-.256.044a1.175,1.175,0,0,1-.166-.254l.016-.134a1.41,1.41,0,0,1-.4-.1c-.194-.091-.21-.194-.21-.194a.412.412,0,0,0-.33.044.255.255,0,0,1-.239.059c-.075-.029-.12-.134-.179-.015a1.274,1.274,0,0,0-.089.239,1.64,1.64,0,0,0-.256,0c-.044.016-.089-.013-.194,0a.815.815,0,0,0-.226.031c-.059.031-.089-.044-.163-.015s-.075-.075-.181,0a.764.764,0,0,1-.224.106s-.031-.046-.136-.031-.134-.1-.225-.074-.089-.029-.164,0-.125.081-.165.031c-.119-.15-.03-.121-.119-.15s-.06-.121-.18-.076-.12.015-.194.03-.061-.06-.135-.044-.089-.075-.089-.075-.017-.045.134-.12-.014-.075.18-.134.2-.117.285-.09a.134.134,0,0,0,.178-.06s.076-.091.016-.121a2.65,2.65,0,0,1-.374-.329c-.029-.045-.374-.134-.389-.181s-.134-.089-.24-.119a.905.905,0,0,0-.343-.03.585.585,0,0,0-.27.121c-.166.1-.075.015-.3.015a1.032,1.032,0,0,1-.375-.029c-.3-.151-.135-.107-.3-.151s-.255,0-.314-.061-.031-.09-.166-.15-.089-.1-.254-.1-.255-.045-.375-.029-.075.045-.209.014-.1-.075-.21-.15-.075-.2-.225-.179a2.249,2.249,0,0,1-.554-.119.979.979,0,0,0-.195-.062,1.553,1.553,0,0,0-.359-.075c-.09.015-.284-.015-.4-.015a.534.534,0,0,0-.313.06c-.091.061-.017-.045-.091.135s-.091.195-.166.224-.179.09-.238.075-.211.061-.211-.059-.059.015,0-.12l.061-.136a.578.578,0,0,1-.135-.015c-.045-.014-.061-.12-.031-.194a.382.382,0,0,0,.016-.225c-.016-.075.075-.178-.046-.163a.615.615,0,0,0-.284.059c-.225.165-.27.1-.225.165s.059-.061.1.045.045.254-.03.283-.061-.149-.134-.013a.548.548,0,0,0-.091.269.174.174,0,0,1-.12.134s-.165-.18-.211-.18a1.142,1.142,0,0,1-.254-.106.461.461,0,0,1-.164-.149c-.076-.09-.059-.254-.18-.3s-.044-.18-.119-.24a.952.952,0,0,1-.225-.21c-.089-.12-.044-.179-.179-.225a1.9,1.9,0,0,0-.254-.09c-.091-.015.061-.06-.091-.015a.077.077,0,0,1-.058,0,1.327,1.327,0,0,0,.089.348c.03.1.135.149.089.21s-.143-.006-.195.074c-.15.224-.059.075-.15.224s-.165.1-.209.135c-.15.1-.21-.015-.21-.015-.179,0-.36-.03-.419.015s.046-.015-.136.075a.974.974,0,0,0-.284.18c-.1.09.165-.15-.1.09s-.359.225-.359.225,0-.106-.149-.106-.166-.089-.24-.029-.089.044-.164.12a.871.871,0,0,1-.166.134c-.045.029-.09-.06-.166,0a2.252,2.252,0,0,1-.194.135.173.173,0,0,0-.016.164.154.154,0,0,1,0,.151l-.15.029c-.089.134.18.239-.089.134s-.374-.194-.285-.24-.03-.014.09-.045c.031-.007.038-.007.036,0l.024-.011a1.166,1.166,0,0,0,.24-.149.981.981,0,0,0,.15-.121s.014-.061.134-.12.12-.09.225-.1-.045.089.105-.016-.046-.119.209-.165.09-.045.33-.06a.832.832,0,0,0,.359-.09c.046-.015.165-.075.165-.075a1.649,1.649,0,0,0,.211-.1l.373-.27s.12-.194.03-.179-.075-.061-.195,0-.165.016-.255.09-.164.016-.209.029-.016-.1-.165-.014a2.351,2.351,0,0,0-.285.149c-.12.089,0,.015-.12.089s-.209,0-.285.03a.376.376,0,0,0-.178.134c-.06.074-.06,0-.166.03s-.179-.044-.3.044-.166.046-.209.151-.03.059-.1.164-.106.014-.179.045-.06-.1-.166-.016-.2.129-.179.091c.12-.194.179-.18.12-.194s-.091-.105-.179-.105-.076-.06-.166-.06-.12-.059-.166.06.105.029-.044.12,0,.089-.151.089a1.043,1.043,0,0,0-.464.061c-.075.06-.045-.029-.179.1s-.15-.015-.135.134-.015.12.074.179.181.046.24.106.018.057.074.165l-.268-.134a2.1,2.1,0,0,0-.329-.1v-.007h-.014c-.06.016-.269,0-.314.016a1.284,1.284,0,0,1-.344.03,1.685,1.685,0,0,1-.36-.09c-.06-.046-.044-.1-.21-.18a1.182,1.182,0,0,1-.3-.165c-.15-.105-.129-.128-.195-.164-.012-.008-.023-.012-.033-.019l.018-.192a.486.486,0,0,0-.208,0h0l-.014,0a.808.808,0,0,1-.082.038,1.115,1.115,0,0,1-.113.032c-.12.031-.27-.075-.374-.044s-.2-.03-.314.016a.546.546,0,0,1-.24.03v.006h-.032c-.059,0-.045-.014-.134-.06s-.075-.059-.18-.134a.673.673,0,0,0-.209-.1c-.094-.039-.057-.1-.144-.127.014,0-.023-.022-.247-.083-.495-.134-.42-.091-.42-.091a.651.651,0,0,0-.315-.089,3.482,3.482,0,0,0-.433.105.637.637,0,0,1-.15.06c-.1.03-.21-.016-.315,0a.611.611,0,0,1-.345-.031c-.044-.045-.014-.059-.1-.1a1.986,1.986,0,0,1-.194-.1c-.076-.046.028-.15-.211-.106a1.983,1.983,0,0,1-.449.09.368.368,0,0,0-.24.031c-.134.045-.19.086-.253.045-.24-.15-.315-.21-.315-.21a.892.892,0,0,1-.239-.045.5.5,0,0,0-.241-.075c-.045.015-.066-.015-.15-.03a2.538,2.538,0,0,0-.39-.029,1.029,1.029,0,0,0-.269.015c-.166.03-.254.03-.316.045a.56.56,0,0,1-.164,0s-.014-.179-.194-.074a.9.9,0,0,1-.3.119c-.089.031-.016.12-.089.031s.014,0-.076-.09a.946.946,0,0,1-.136-.164c-.133,0-.267.076-.328.014-.135-.135.037-.22-.015-.255a.558.558,0,0,0-.284-.135c-.12-.015-.1-.15-.285-.09s-.194.121-.374.121-.136-.076-.285-.016-.014.105-.15.06-.074-.134-.15-.179c-.149-.091-.059-.12-.209-.1s-.156-.079-.209,0c-.166.24-.031.194-.166.24s-.248.026-.225-.046c.046-.135.046-.209.12-.18,0,0,.164-.09.09-.134a.875.875,0,0,0-.314-.075c-.06,0-.277,0-.3-.044-.075-.136-.091-.18-.209-.091s-.286.15-.36.269.045.12-.164.195a2.055,2.055,0,0,1-.42.134c-.119.016-.209-.014-.389,0s-.193-.038-.256-.028a.7.7,0,0,0-.45.179c-.15.1-.089.089-.208.15s-.135.074-.181.164,0,.03-.134.105-.119.03-.208.061a.781.781,0,0,0-.143.059s-.383-.225-.495-.09-.381.156-.471.4-.405.336-.405.494.157.113-.044.315a4.23,4.23,0,0,1-.54.381,1.331,1.331,0,0,1-.517.157l-.2-.065-.2.088h-.315c-.223.18-.246.023-.223.18s-.2.27-.225.337.225.091.291.158-.066.09.091.157.449.269.54.247a.319.319,0,0,1,.246.022c.113.046.292.046.315.158s.18.2.2.269-.045.2.067.225a2.274,2.274,0,0,0,.247.27s.164.008.2.09a.111.111,0,0,0,.149.059c.031-.014.054-.006.127-.037s.084-.054.121-.038.118.038.118.038a.618.618,0,0,0,.1-.12.732.732,0,0,1,.121.045.361.361,0,0,0,.111.029c.1.032.2.053.2.053a.1.1,0,0,1,.03.06.067.067,0,0,1-.044.069c-.076.021-.084.074-.053.1s.059.044.053.068c0,0-.046.061.059.089a.377.377,0,0,1,.164.1l.128-.023a.276.276,0,0,1,.142-.044.3.3,0,0,0,.113-.008c.066-.008.277-.015.277-.015l.112.059-.016.15a.284.284,0,0,0-.081,0c-.038.009-.083-.067-.158-.037s-.082.068-.127.082-.091.007-.127.037-.037.016-.023.075-.007.091-.038.1-.089-.081-.133-.058a1.263,1.263,0,0,0-.144.052c-.03.022-.011.033-.06.075-.1.081-.075.052-.15.081a3.407,3.407,0,0,1-.643-.015.339.339,0,0,0-.15-.043c-.083,0-.076-.017-.157.021s-.054-.03-.135.007a.5.5,0,0,1-.18.037.531.531,0,0,1-.054-.075c-.014-.03.038.023-.021-.06s-.067-.06,0-.135a.772.772,0,0,0,.1-.127.1.1,0,0,0-.015-.083c-.03-.029-.046-.1-.1-.1a1.107,1.107,0,0,0-.142-.013c-.037.007.12-.076-.067-.007a1.533,1.533,0,0,1-.375.127c-.038-.016-.142-.09-.195-.008s-.053.077-.128.1-.127-.03-.172.008-.052-.016-.1.059-.053.053-.03.12.105.129.068.15-.121-.021-.2-.015a.954.954,0,0,0-.211.008c-.066.023-.074-.008-.127.023s-.066,0-.164.083-.09.082-.127.111-.046.015-.091.03a.173.173,0,0,1-.134.008c-.053-.023-.24.067-.24.067-.082.061-.217.108-.217.136,0,.127.03.262.074.269s.1-.016.121.015.172.008.172.052.121.045.15.053.217-.031.24-.023.1-.016.15.015.1.008.164.045.143.06.06.1a3.046,3.046,0,0,1-.3.066c-.031.015-.113-.091-.15-.006s.022.1.051.127a.325.325,0,0,1,.121.165c.021.082.089.09.089.141s-.016.128.016.15a.487.487,0,0,0,.157.031s.119,0,.15.038a.36.36,0,0,0,.15.075c.029.007.195.016.195.016a.648.648,0,0,1,.134,0c.022.006-.03-.009.068,0a2.314,2.314,0,0,0,.262-.009l.307-.053s.016-.007.068-.037.127-.083.158-.053a.205.205,0,0,0,.171.089c.091-.007.143-.022.2-.029s.1-.053.127.014.061.076.068.12.086.011.127,0c.082-.022.082-.022.127,0s.059.075.119.007a1.065,1.065,0,0,1,.174-.142c.037-.03.037-.053.1-.083s.144-.074.144-.074.074-.022.112-.039a.532.532,0,0,1,.111-.029,1.258,1.258,0,0,0,.164-.06.7.7,0,0,1,.15-.046c.1.015.15.023.165.052a.265.265,0,0,1,.016.113c0,.037.014.074-.031.1s-.037.008-.082.045a.813.813,0,0,0-.068.067.211.211,0,0,0-.052.136c0,.038.195.211.195.211s.113.187.09.209.014.1.007.135.03.067-.038.1-.021.053-.08.091.08.015-.024.105a.71.71,0,0,1-.216.127.7.7,0,0,1-.3.037.934.934,0,0,0-.136-.045.122.122,0,0,0-.1,0c-.06.023-.038-.007-.112.038a1.172,1.172,0,0,0-.187.1c-.06.052-.046.068-.067.1a1.18,1.18,0,0,0-.067.112l-.106.045c-.067.007-.113.007-.157.014s-.009-.044-.083-.014-.113.037-.135.03c-.081-.03-.09-.038-.1-.091s.059-.036-.016-.052a.91.91,0,0,0-.194-.023h-.112a.515.515,0,0,0-.173.075c-.03.023,0,.016-.052.068s-.084.115-.119.142c-.091.068-.076.015-.1.113s-.007.127.028.156l.091.069s-.024.066-.038.1c-.037.091-.112-.013-.171,0a.248.248,0,0,0-.136.068.428.428,0,0,1-.1.1c-.052.031-.067-.044-.112.061a1.527,1.527,0,0,1-.1.163c-.037.076.06-.075-.037.076s-.067.15-.052.216-.039.068-.1.15-.113.024-.113.09-.021.1.014.15.129.129.135.165a.164.164,0,0,0,.023.067c.023.054.091.083.1.106a.086.086,0,0,0,.082.031c.03-.008.106-.023.121-.046s.081-.066.089-.113a.4.4,0,0,1,.091-.127.931.931,0,0,0,.075-.082.574.574,0,0,1,.12-.082l-.068.165c-.089.053-.142.053-.165.105a.9.9,0,0,0-.028.105c-.023.068-.023.081-.007.112s.044-.007.1.045.134.03.143.068-.024.083.007.089.119-.015.15-.007.142-.023.112.029-.023.1.045.067a1.07,1.07,0,0,1,.172-.051.105.105,0,0,1,.075-.038c.046,0-.067.008.046,0s.044-.015.112-.007.038-.091.089.045.083.134.054.171a.463.463,0,0,1-.129.1c-.021.008-.074-.037-.074-.037s-.135-.165-.156-.113a.186.186,0,0,1-.083.1c-.112.06-.145.03-.15,0-.007-.061-.016-.084-.053-.107s-.022-.088-.066-.081l-.122.022c-.037.008-.007-.044-.1,0s-.044-.006-.112.09-.067.1-.105.128-.12.082-.082.082a.688.688,0,0,1,.217.023c.068.112.052.089.1.127s.007-.082.141.082.271.21.271.247a.378.378,0,0,0,.03.15.1.1,0,0,0,.067.062c.038.013.082,0,.12.029s.038.03.143.023a3.008,3.008,0,0,0,.307-.051s.031.075.075.036.143-.067.165-.1a1.1,1.1,0,0,1,.15-.111.46.46,0,0,0,.074-.039.5.5,0,0,0,.1-.119.885.885,0,0,1-.021-.166c0-.075-.136.015.052-.142s.226-.218.24-.186c.029.066,0,.1-.038.141s-.1.076-.113.127a.2.2,0,0,0,0,.113,1.748,1.748,0,0,0,.068.2c.022.068.045.076.045.128s.075.111.067.172-.037.037-.007.06.136.03.143.09a.275.275,0,0,1-.007.155c-.024.031-.024-.021-.084.039s-.1.128-.1.166.016.1.069.1a.191.191,0,0,1,.112.067c.036.038.052.068.021.113a.136.136,0,0,0-.021.118.424.424,0,0,1-.031.15s-.171.03-.021.03a.683.683,0,0,0,.254-.03c.037-.015-.076.016.15-.066s.419-.181.419-.181.2-.157.233-.09-.008-.015.029.068.082.067.135.067.075-.029.083.023.119-.008.119-.008l.052-.052s.05.084.068.112c.082.136.166.127.186.165.076.134.106.18.106.18.082.023.119.037.119.037l.084-.089.044-.285.1-.082a.255.255,0,0,0,.045-.075c.009-.029-.045-.127-.021-.165a.289.289,0,0,1,.083-.075.74.74,0,0,0,.1.1c.023.006.119.127.1.15s-.113.007-.151.045a.238.238,0,0,0-.074.1c-.024.061-.052.075.014.113s.142.022.158.044a.469.469,0,0,0,.082.069l.263-.129.074-.068.179-.061s.2-.1.226-.155.014-.069.067-.113.112-.134.127-.082a.4.4,0,0,1-.044.246c-.038.039-.1.1-.129.142s.038.068-.021.1-.218.067-.285.15-.089.023-.067.119.09.1.1.158a.167.167,0,0,1-.052.128c-.023.021-.083.044-.075.075a1.187,1.187,0,0,1-.022.187c-.022.195-.074.172-.03.255s.1.083-.014.1-.181,0-.226.016-.066.044-.112.1-.022.03-.1.06a.2.2,0,0,0-.134.12c-.03.06-.068.061-.068.113s.046.015-.022.09,0,.037-.068.074a.474.474,0,0,1-.149.061c-.061.014-.015-.083-.136,0s-.1.106-.195.149a1.142,1.142,0,0,1-.134.068c-.053.022-.136.029-.173.066a1.365,1.365,0,0,1-.142.145c-.083.066-.091.044-.158.082s-.068-.008-.075.066.03.076-.008.158-.076.082-.1.091c-.1.044.007.023-.166-.016,0,0-.089.031-.118.016a1.138,1.138,0,0,0-.225-.007.919.919,0,0,1-.12.03c-.023,0-.052-.023-.1.008s-.029-.008-.082.044-.115.056-.143.1c-.045.067-.12.09-.134.132s-.045.032-.076.076-.059.047-.066.12-.1.12-.1.12c-.081.016-.133,0-.133.031s-.068.023-.113.044-.1-.029-.113.016-.081.03-.044.067a.184.184,0,0,0,.1.067c.03,0,.075,0,.075.038s0,.09.03.1a.912.912,0,0,0,.113.006s.066.008.074-.014.053-.128.053-.128l.067-.022.068.128.12-.121a.2.2,0,0,0,.068-.014,1.453,1.453,0,0,0,.126-.1.149.149,0,0,0,.037-.067c.007-.038.019-.094.06-.106.076-.023.066-.093.1-.1.136-.021.174-.031.174,0s.029.052.036.075-.036.076.076.038.1-.031.128-.067l.187.022c.045.061.09.121.12.1s.075-.045.091-.075a1.177,1.177,0,0,1,.067-.106l.015-.1.2-.053s.022-.06.03-.09.1.03.1.03c.054.081-.014.15.008.157a.968.968,0,0,0,.187-.044l.036-.083.091-.089.277-.134a.085.085,0,0,1,.068-.024c.036.009.1-.022.142-.006s.083-.038.105-.031.045-.008.066-.052.061-.113.061-.113.089,0,.082-.022a.56.56,0,0,0-.091-.135c-.021-.015-.014-.059.015-.074a.861.861,0,0,0,.127-.075c.037-.031.277-.173.277-.173l.083-.029s.075-.045.1-.008.113-.1.136-.089a.578.578,0,0,0,.15-.051,1.411,1.411,0,0,0,.149-.069,1.468,1.468,0,0,0,.225-.315.423.423,0,0,0-.007-.082c-.007-.022-.029-.082.023-.076a.757.757,0,0,0,.157-.022.911.911,0,0,0,.158-.059.553.553,0,0,1,.06-.09,1.558,1.558,0,0,1,.165-.1l.194-.083.084-.075.209-.082.075-.054a.112.112,0,0,1,.082-.029.483.483,0,0,0,.232-.03.854.854,0,0,0,.054-.149.4.4,0,0,0,.029-.09.113.113,0,0,1,.037-.081l.15-.121.1-.008s.068,0,.09-.036.007-.023.045-.1.083-.1.06-.135-.022-.015-.03-.09.007-.157-.046-.142-.15-.044-.194-.037a.6.6,0,0,1-.151.022c-.045-.009-.093-.02-.082-.068-.023-.059.052-.232.075-.225s.037.03.082-.029.03-.075.091-.1a.762.762,0,0,0,.12-.084.693.693,0,0,1,.067-.05.585.585,0,0,1,.187-.076.556.556,0,0,0,.15-.053c.053-.066.143-.128.15-.173s0-.066.031-.1a.628.628,0,0,1,.112-.089v-.09s-.007-.082.03-.105a.326.326,0,0,0,.075-.067s.12-.06.127-.083a.3.3,0,0,1,.061-.075c.022-.021.014-.06.075-.1a.664.664,0,0,1,.15-.105c.052-.022.12-.2.157-.2s.022-.03.1-.082.089-.067.134-.075a.577.577,0,0,0,.15-.06c.046-.023.068-.083.105-.1s.135-.052.165-.038.067-.029.1.023a.083.083,0,0,0,.128.024.794.794,0,0,1,.1-.06c.046-.03.165-.03.195-.066a.434.434,0,0,1,.165-.121c.053-.015.181,0,.12.045a1.019,1.019,0,0,0-.157.1c-.059.06-.059.052-.082.105s-.091.1-.007.112.029,0,.126.061.2.081.142.111a.218.218,0,0,1-.239-.021.186.186,0,0,0-.179-.016c-.061.031-.038.008-.113.031s-.15.037-.187.006a.554.554,0,0,1-.076-.075s.024-.09-.067-.037-.165.031-.21.127-.007.1-.059.128-.075-.023-.134.022-.061.029-.052.074-.016.045-.024.1.045.006.038.1.016.037-.038.127-.148.128-.148.172-.068.076-.091.128-.089.03-.089.1.045.032,0,.128-.129.059-.045.1a.951.951,0,0,0,.247.031c.03.006.171.022.171.022a.09.09,0,0,1-.007.075c-.023.03-.007.113-.091.158a.806.806,0,0,1-.164.074c-.029.008-.135-.039-.157-.016s-.084.033-.052.083.029.1.052.112h.075c.134,0,.42-.06.472-.052s-.1.134.119-.031.263-.18.345-.239.09-.066.143-.1a2.409,2.409,0,0,1,.254-.112.406.406,0,0,0,.15-.03.883.883,0,0,1,.127-.1c.089-.054.075-.082.142-.062a.233.233,0,0,0,.143.008.386.386,0,0,0,.09-.029,1.532,1.532,0,0,0,.143-.084,2.674,2.674,0,0,0,.239-.247c.022-.045.082-.075.067-.127s.075-.082-.038-.082-.112.037-.157-.037-.091-.09-.075-.151a.209.209,0,0,1,.089-.135c.052-.038.106-.038.128-.075s.015-.074.044-.126a.279.279,0,0,1,.1-.106c.023-.007.12-.023.12-.023l-.082.195a1.2,1.2,0,0,0,.037.142.083.083,0,0,0,.121,0,.524.524,0,0,0,.082-.1.179.179,0,0,1,.089-.023c.029.007.188.03.188.03s.082-.059.1-.023.15-.016.171-.022.016-.084.067-.069a.147.147,0,0,1,.1.129c.016.082.113.059.134.1s.059.038.083.076.059.068.044.09-.142-.084-.172.023.045.06-.007.141.225-.022.225-.022.113.03.12.068.143.089.143.089.052-.022.067-.008.12.016.135-.007.075-.045.1-.075.082-.045.126-.082a1.168,1.168,0,0,1,.181-.091c.03-.014.134-.059.075-.014s-.15.126-.2.171-.052.045-.028.1.126.078.134.09c.059.083.187.091.2.113s.082.029.075.075.075.015.083.044.487-.1.524-.066.052.066.1.075a.435.435,0,0,0,.136-.015.65.65,0,0,1,.157.007c.007.016.1-.037.1-.037l.1-.03.144-.016a.268.268,0,0,1,.082.023c.023.015.112-.023.128.008s.112.045.134.051a.479.479,0,0,0,.284-.074.276.276,0,0,1,.046.113c0,.044.022.036.029.074s.046.15.068.15a.3.3,0,0,1,.135.023c.1.029.143.029.172.044s.127.015.165.037a.2.2,0,0,0,.187-.044.406.406,0,0,1,.143-.1l.171-.044c.03-.007.052-.06.114-.044s.156.111.127.149-.083.022-.144.052-.1,0-.142.059-.068.038-.029.1.539.247.568.292a.149.149,0,0,0,.113.083c.045,0,.052-.052.113-.007s.119.052.149.1.112.03.127.09.135.052.135.112a.125.125,0,0,0,.067.113,1.307,1.307,0,0,1,.135.051c.038.024.112.016.121.068s.037.046.051.1.076.023.121.052.038-.029.091.037-.068.128.12.1a1.957,1.957,0,0,0,.247-.044c.059-.015.014-.044.119-.037s.023-.18.052-.172.174.089.136-.015-.075-.113-.067-.142.082-.1.082-.1.12.166.112.2a.5.5,0,0,0-.007.15c.007.023.045-.008.075.023a1.223,1.223,0,0,0,.247.09s.162.02.171,0c.038-.074.045-.216,0-.24s-.014-.09-.03-.157.061-.209.075-.112.09.211.09.277.1.135.082.188.106.089.136.112.044.008.1.059.2.061.224.09a.924.924,0,0,0,.226.083s.142.083.134.128a.773.773,0,0,1-.03.157c-.016.023.172.008.172.044a.279.279,0,0,1-.038.15c-.038.075.059.075.083.12s.164.105.119.142-.089.054-.089.1.067.059.1.1.209.1.209.1a.548.548,0,0,1,.1.089.947.947,0,0,1,.052.158c0,.029.142.09.15.126s.089.112.127.15.113.065.12.112c.015.1.1.1.142.113s.134.022.118.061-.1.037-.141.066-.031.03-.052.083.014.067-.03.112.271.014.292.008.075-.06.12-.06.157-.021.172.023.059.067.074.127.142.135.083.18-.09.031-.112.074-.045.061-.015.1.12.06.157.083.106.082.091.127,0,.045-.068.076-.075.014-.075.074.007-.029,0,.061a.237.237,0,0,0,.082.179c.022.023.127-.037.12.008s.052.113,0,.174-.059.052-.075.1.112.1.1.143.067.06.067.06l.014-.006h0l.151-.062h.1a.172.172,0,0,0,.038-.011l.025-.008c.023-.007.045-.011.048,0s.052.052.052.091a.248.248,0,0,1-.134.162c-.053.015-.093-.011-.119,0a.037.037,0,0,0-.033.027c-.021.06.016.037.008.126s-.051.068-.008.09.226-.006.226.007.089-.013.089.046.09.135.1.157a.606.606,0,0,0,.089.1l.014-.007,0,0c.121-.045.233-.24.255-.262a.283.283,0,0,1,.066-.054.018.018,0,0,1,.022.014c.017.045.114.143.09.187s-.03.03-.059.1.12.105.111.149a.777.777,0,0,0-.022.165c.008.03.112.068.135.09s.12.262.157.262.113-.038.105.045a.338.338,0,0,0,0,.156.467.467,0,0,0,.1.091s.082.014.089.044.121.037.121.06v.023l.164-.037,0,0,.014,0a.392.392,0,0,1,.068-.059s.01,0,.014,0c.031.008.1.008.114.038s.119.1.066.134a.084.084,0,0,1-.017.008c-.066.017-.175,0-.213.016l-.006,0-.01,0a.164.164,0,0,0-.091.083c-.022.038-.121.049-.134.076a.323.323,0,0,0-.038.233c.007.051-.016.134.016.127l.016-.005h0a1.653,1.653,0,0,0,.154-.071c.018,0,.072,0,.039.061a.268.268,0,0,1-.1.1c-.038.031-.059.007-.074.075a.509.509,0,0,0,.006.158c0,.045.091.1.135.157s.144.1.166.089l.009-.005h.007a.26.26,0,0,1,.043-.024c.016,0,.031-.005.037.007.015.031.128.091.128.091l.012-.008,0,0s.122-.079.148-.089.1-.028.1.011.119,0,.128.068.037.1,0,.142-.068.052-.023.068.194.029.194.06.091.029.091.029a2.2,2.2,0,0,0,.561-.029l.009,0h.007a.367.367,0,0,0,.067-.033c.011,0,.02,0,.023.015.007.045-.016.067-.052.149s-.054.067-.008.12.12.074.143.059l.01,0h.006l.015-.006c.027-.007.057-.009.052.012s-.017.143-.024.187.016.06.038.09.165.053.165.053h.127l.126.006s.076.023.054.091.082.15.089.171.053.046.075.053.052,0,.113.009a.2.2,0,0,1,.127.037c.037.029.112.1.112.128s.075.067.045.1h0c-.018,0-.036-.021-.047-.005-.012,0-.022,0-.026.042a.754.754,0,0,0,0,.106h.017c0,.041.007.072.007.072a1.289,1.289,0,0,0,.164.1.719.719,0,0,0,.127.038.153.153,0,0,1,.091.059c.014.023.045.023.037.083s-.1.053-.12.082-.059.022-.038.074.088.092.045.113a.41.41,0,0,1-.253.044c-.046,0-.136-.006-.173,0a.5.5,0,0,0-.15.038.19.19,0,0,1-.188-.044c-.037-.039.008-.039-.119-.106s-.158-.1-.2-.082-.045.007-.083.021-.038-.015-.075.015-.052.016-.052.09.12.157.12.188-.06.021-.075.089a.372.372,0,0,0-.023.142c.007.038.066.03.112.09s.038.015.1.1.15.053.134.1a1.108,1.108,0,0,0,.054.3.247.247,0,0,1,0,.142.135.135,0,0,0,.014.128c.031.052.106.1.1.15s-.1.126-.1.149.03.061.052.158.1.044.052.134a.772.772,0,0,1-.09.142l-.037.366s-.03.212-.038.271.008.067,0,.1a.863.863,0,0,0,.008.121c0,.044,0,0,.014.074s0,.063-.014.105c-.031.1-.014.179-.031.224s.022.112.016.166.022.119.014.157.059.045.008.1-.075.045-.1.083-.052.014-.066.066.03.113-.007.18a.577.577,0,0,0-.06.143c-.007.029,0,.022,0,.106s.007.028-.038.134-.128.044-.052.187.224.436.232.465.068.052.037.134-.1-.008-.075.091a1.962,1.962,0,0,0,.045.216c.03.089.075.134.061.187s.036-.016.014.082-.052.09-.052.172.066-.044,0,.085a.965.965,0,0,0-.068.127c-.053.111-.1-.008-.059.149s0,.134.037.231.067.076.1.136.121-.007.129.089.059.1.059.188.105.1.06.239.068.322.068.4-.022.03.03.112.082.015.128.1.044.044.081.089a1.7,1.7,0,0,1,.142.173c.009.021.03-.024.061.074s.089.09.1.105.068-.06.068.016-.009.142.037.142.113-.075.127-.067.052-.015.09-.037a.27.27,0,0,1,.134-.03.606.606,0,0,0,.166,0c.067-.015.1-.03.119-.007s.162,0,.12.015a1.7,1.7,0,0,1-.209.052c-.038.015-.06-.008-.1.015a.3.3,0,0,1-.1.029c-.091.105-.143.129-.113.173s.042.041.022.081c-.075.15-.134.024-.075.15a1.954,1.954,0,0,0,.128.233.262.262,0,0,0,.12.1c.03.014.067-.068.091.007a.664.664,0,0,1,.007.21c0,.075-.007.157,0,.21a.222.222,0,0,0,.075.127,3.275,3.275,0,0,1,.232.24c.023.029.076.053.1.082s.076.045.084.1.008.081.028.1c.1.1.159.082.167.134s.014.03.029.106.016.006.016.118.007.037.044.134.031-.03.038.1-.022.1.031.158.113.053.128.075.075-.015.1.015.141.008.141.008-.066-.068.084,0a2.1,2.1,0,0,0,.463.075c.038.016.105.031.121.067s.089.03.1.089.052.024.075.075.045.045.09.038.052-.045.1-.015.061-.016.09.015a.226.226,0,0,0,.075.045c.03.016.06-.007.083.045s.06.044.082.1.038.036.084.082.09.015.111.059.075.053.112.1a2.75,2.75,0,0,1,.217.345,1.2,1.2,0,0,1,.054.235l-.016.009a.051.051,0,0,1,0,.014c-.006.036-.021.014,0,.067s-.021-.016.022.051a.414.414,0,0,1,.09.165c.015.075.059.06.082.128a.9.9,0,0,0,.075.149.561.561,0,0,1,.068.09,1.339,1.339,0,0,1,.128.2c.022.067.164.24.2.322s.134.082.134.173.023.1.016.15.022-.007.037.1.075.127.075.194.06.1.045.151,0,.051.007.1.024.043.054.082a.253.253,0,0,0,.066.061c.038.029.172.112.172.112l.136.121.141.082.187.157s.068.1.09.1a.2.2,0,0,1,.1.082,1.182,1.182,0,0,0,.1.127.2.2,0,0,1,.052.068c.007.03.075.119.067.18s-.014.1-.014.1c.014.113.014.128-.007.167s-.059-.047-.09-.016-.1.067-.142.016-.008-.076-.083-.06l-.12.021c-.046.008-.1,0-.127.023s-.06.008-.1.045-.008.076.021.1.128-.022.143.031.118.135.15.165a.773.773,0,0,1,.112.163c.045.085.031.085.09.092s.128-.031.164.014.075.067.136.128.172.03.187.067.052.007.091.029.082.016.112.038.022-.038.075,0,.075.008.158.1a2.836,2.836,0,0,0,.277.195.345.345,0,0,0,.089.1c.052.038.1.068.1.113s.052.082.039.164.03.068-.03.15-.016.046-.052.157.007.044.007.143-.016.045.052.15.037.12.134.165.089.029.2.082a.572.572,0,0,1,.217.166c.059.066.262.194.284.224s.038.119.075.134.142.038.163.067a1.553,1.553,0,0,1,.115.111c.028.046.043.009.1.076s.075-.022.082.113.017.183.046.194a.423.423,0,0,0,.21.015,1.169,1.169,0,0,0,.2-.15l-.007-.113a.808.808,0,0,0-.053-.09c-.022-.029-.059-.09-.089-.127a.177.177,0,0,1-.052-.113c-.008-.06.023-.037-.015-.119s-.031-.03-.06-.121-.112-.059-.15-.059-.173,0-.2-.029-.12-.122-.142-.114-.06.022-.1-.061-.067-.12-.052-.163-.005-.066.031-.1a.159.159,0,0,0,.059-.181.225.225,0,0,0-.1-.113c-.03-.007-.1-.126-.1-.126s.052-.1-.016-.113-.036-.06-.127-.1-.188-.024-.059-.091.171-.053.171-.089a1.526,1.526,0,0,0-.217-.255s.1.082.067.007a.48.48,0,0,0-.105-.171c-.075-.082-.059-.158-.134-.18s-.089-.082-.166-.172a1.31,1.31,0,0,1-.1-.128.346.346,0,0,0-.112-.081c-.052-.031-.12-.188-.172-.219a.262.262,0,0,1-.134-.126c-.045-.083-.031-.263-.113-.286a.315.315,0,0,1-.172-.239.324.324,0,0,0-.1-.2c-.03-.022-.2-.037-.1-.173s.136-.186.068-.239-.164-.217-.209-.21-.061-.022-.134.015-.091.008-.166-.007-.113-.075-.166-.105a.409.409,0,0,1-.164-.171.746.746,0,0,1-.075-.211c-.015-.075-.053-.283-.053-.283s.015-.016-.015-.144-.007.068-.045-.209-.321-.42-.014-.315a2.89,2.89,0,0,0,.456.1c.022.022.038.014.082,0s.083-.069.143-.015.044.007.089.089.12.09.128.127a.078.078,0,0,0,.074.06c.031,0,.084-.1.091.007a.721.721,0,0,0,.091.254l-.052.188a.9.9,0,0,1,.15.173,1.67,1.67,0,0,0,.053.172c.03.075.142.127.127.179s.015.038.052.12a1.876,1.876,0,0,0,.12.194c.021.045.075.068.082.135a.371.371,0,0,0,.052.181.987.987,0,0,1,.075.1c.038.043.127.058.135.1s.036.06.059.12a1.7,1.7,0,0,0,.127.21l.119.082c.022.016.045-.015.151.06s0,.053.052.075.187.068.187.068l.082.029s.059.076.052.1a1.818,1.818,0,0,0,.031.277c.007.023.067.037.091.052s.053-.03.08.008.113.022.12.045.052.014.1.112a.258.258,0,0,0,.112.127.822.822,0,0,0,.194.15s.061-.008.075.037.083.03.038.12a1.453,1.453,0,0,1-.075.165c-.038.052-.038.046-.038.1a.429.429,0,0,0,.075.156.533.533,0,0,1,.12.069c.016.022.082.037.106.051s.157.083.157.083a.108.108,0,0,1,.083.037c.023.038.134.172.134.172l.09.016s.082-.029.111.008.068.051.075.1a.2.2,0,0,1,0,.121.144.144,0,0,0-.007.1c.007.044.075.075.1.127s.157.1.172.142.081.038.1.061.066.014.1.052.119.015.142.09.075.059.1.127-.084.044.082.129.284.186.27.216.111.18.111.2.3.208.307.238a1.111,1.111,0,0,0,.066.165c.017.022.09.022.1.136a1.987,1.987,0,0,0,.06.231c0,.053.038.045-.016.106s-.044.014-.007.075.1.1.111.149a.553.553,0,0,0,.046.1c.008.023.045.069.016.113s-.03,0-.038.075a.8.8,0,0,0,0,.194c.008.032.05.024.016.084a.744.744,0,0,1-.127.171c-.044.044-.075,0-.044.075s.073.157.089.2a1.975,1.975,0,0,1,.15.216c.023.067.023.217.053.232s.134.113.165.134.1.129.126.134.091-.036.136-.021.164.021.179.052a.417.417,0,0,0,.143.135c.052.023.172.119.172.15s.052.014.074.067a.37.37,0,0,0,.083.105.626.626,0,0,0,.172.1c.037.023.037-.005.1.023a.9.9,0,0,1,.181.1c.105.067.345-.008.367.014a1.331,1.331,0,0,0,.181.091s.135-.016.157.022.164.12.172.149.134.089.134.12.179.128.179.128a.284.284,0,0,1,.084.037c.03.023-.023.047.15.076a.5.5,0,0,1,.239.111,1.1,1.1,0,0,1,.142.089h.172l.15.069a.338.338,0,0,1,.068.029c.059.031.171-.006.2.008s.171.068.171.068.1.007.1.045.053.06.106.082a.832.832,0,0,1,.149.054c.045.029.076.006.165.058s.629.248.629.248.188.06.226.03.2.037.231.044.157.037.181.037a.724.724,0,0,0,.2-.037c.029-.023.013-.015.075-.037a.789.789,0,0,0,.261-.1,1.23,1.23,0,0,1,.263-.12.235.235,0,0,0,.112-.052c.03-.039-.023-.046.067-.054a.253.253,0,0,1,.15.015c.083.023.263.091.263.091.12.058.217.082.263.1s.268.225.3.232a.668.668,0,0,1,.148.1c.023.022.114.075.128.1s.009.031.1.075.076-.089.143.052a2.9,2.9,0,0,0,.157.249,1.3,1.3,0,0,1,.082.179.14.14,0,0,0,.034.068.146.146,0,0,0,.117.067,5.145,5.145,0,0,1,.666.24s.075.066.1.044a.348.348,0,0,1,.2-.03.617.617,0,0,1,.209.075l.005,0c.056.038.058.007.145.086a1.214,1.214,0,0,0,.279.134c.036.031.1-.022.157.023a.853.853,0,0,0,.246.082s.211.016.232.022a1.183,1.183,0,0,0,.285.031,1.447,1.447,0,0,1,.382.015h0c.031.022.119-.014.119.053a1.1,1.1,0,0,1-.029.179c0,.024.016.05.04.074s.051.043.073.06c.044.037.238.12.246.173s.134.151.12.172.044.015.067.1.12.149.136.173.015.023.082.082.2.082.21.105.067.075.075.1.082.066.082.111.033.067.035.094h0a.035.035,0,0,1-.012.026c-.038.029-.046.252-.038.276a.9.9,0,0,1,.008.165.283.283,0,0,0,.037.164c.03.037.082.135.111.128a.218.218,0,0,1,.1.022l.083.021a.919.919,0,0,1,.174.106c.007.023.127.127.142.075l.016-.052s.014-.12.014-.142-.059-.06-.089-.135.127.054.134.083a.709.709,0,0,0,.045.157.247.247,0,0,0,.053.068c.023.015.082-.008.091.023s.045.1.075.082.067-.038.1-.016.105.016.135.052.12.016.113.068.089.1.089.127.03-.008.03.06-.022.052-.036.1.022.045.036.083.038.029.045.075.078.042.1.053c.076.037.008.134.06.112s.142.008.158-.021.007-.1.044-.076-.022,0,.09.037a.445.445,0,0,1,.172.1c.2.023.344.03.4.045s.151.023.174.059.1.083.112.113.082.023.082.023.045.089.031.134.081.029.1.046.074-.008.1-.017S165.625,382.676,165.641,382.723ZM158.679,354c.069-.046.344-.241.47-.344a1.138,1.138,0,0,1,.47-.206,1.43,1.43,0,0,0,.527-.321c.023-.057.092-.378.172-.344s.149.115.149.16.16-.172.229-.241.195-.195.183-.264.195-.092.264-.023a.828.828,0,0,1,.149.161c.011.034.183-.034.275-.046a1.51,1.51,0,0,1,.332.046,1.049,1.049,0,0,1,.16.16c.011.034.126.1.115.172s.252.3.3.367-.034.137-.034.206.069.057.126.012.08-.184.137-.184.3-.069.31,0,.16.172.115.275-.092.206,0,.252.287.183.252.229-.149.08-.149.138a.146.146,0,0,0,.115.149c.08.011.252.115.241.172s-.057.115,0,.161a.858.858,0,0,0,.252.08,2.357,2.357,0,0,1,.665-.046c.08.057.321.023.378.057s.252.046.287.069.138.057.149.1.183.034.229.023.252.023.287.092.138.16.16.229.172.011.195.126.206.172.195.241.08.126.057.161.023.149-.115.206-.218.092-.321.023-.275-.115-.321-.172a1.092,1.092,0,0,0-.275-.241c-.069-.023-.149-.126-.172-.08s-.046.183.023.195.115.069.172.172.206.16.115.252-.115.161-.229.206-.161.046-.161.1a1.4,1.4,0,0,1,.035.229c0,.138.034.241-.012.3s-.057.149-.149.195a1.161,1.161,0,0,0-.229.195.561.561,0,0,0-.115.241c-.012.115,0,.172-.069.206s-.172-.034-.241.069-.172.115-.1.195.172.023.264.034a.3.3,0,0,0,.252-.1c.057-.069.126-.16.218-.16a1.687,1.687,0,0,0,.3-.057.549.549,0,0,1,.092-.126,1.833,1.833,0,0,1,.218-.08l.206.046c.1.115.183.126.229.1a.614.614,0,0,0,.126-.138l.1-.115s.115.046.149.057a.79.79,0,0,0,.206-.046s.138-.023.172-.023a.548.548,0,0,0,.138-.057s.126-.115-.115-.137-.309-.08-.344-.069-.08-.069-.011-.115a.433.433,0,0,1,.252-.115c.138-.011.172-.011.172-.16s-.115-.138,0-.149.241-.092.3-.046.172.035.183.069.31-.149.378-.149.138-.035.183.011-.034.08.115.1a.495.495,0,0,0,.413-.1c.034-.023.1-.241.183-.241s.092-.092.241-.137a2.9,2.9,0,0,0,.3-.126c.092-.034.206-.206.3-.229s.138-.092.092-.023a6.762,6.762,0,0,1-.573.585c-.115.092-.206.023-.218.149s.046.126,0,.252-.011.137-.08.206-.046.069-.138.1-.121.013-.16.046c-.126.1.012.252-.252.138s-.264-.138-.378-.126-.241-.023-.321-.012-.372-.06-.367.023a.856.856,0,0,1-.011.355.4.4,0,0,1-.206.229c-.115.057-.3.126-.3.126a.983.983,0,0,1-.126.241c-.046.034-.172.034-.275.08s-.275.115-.275.115a.211.211,0,0,0-.218,0c-.115.069-.092.1-.206.16s-.493.092-.63.149a.7.7,0,0,1-.424-.057,1.485,1.485,0,0,0-.241-.08c-.08-.011-.195-.023-.218-.092s-.115.034-.023-.069-.011-.023.137-.161a4.982,4.982,0,0,0,.355-.585,1.069,1.069,0,0,1,.138-.1.186.186,0,0,0,.069-.195,2.331,2.331,0,0,0-.057-.275c-.034-.057.057-.149-.011-.264a.239.239,0,0,0-.172-.138c-.046-.012,0-.149-.115-.1s-.069.1-.183.195-.138.183-.241.195-.3-.115-.229-.172a.292.292,0,0,1,.218-.115c.172-.035.229-.08.218-.1s.023-.012.034-.161a3.809,3.809,0,0,1,.011-.642c.046-.069-.034-.275-.1-.309a1.617,1.617,0,0,0-.39-.172c-.057.011-.252-.069-.321-.034s-.172-.057-.172-.057.011-.023-.126.115-.1.092-.172.241.023.08-.069.218-.034.321-.149.16-.069-.195-.172-.126a.685.685,0,0,0-.16.149c-.069.069-.149.126-.16.206a.723.723,0,0,0-.023.264.149.149,0,0,1-.034.195.385.385,0,0,0-.092.286.335.335,0,0,0,.092.161c.069.08.195.08.183.264a.967.967,0,0,1-.069.378c-.057.149-.138.275-.172.367s.057.149-.057.241a1.513,1.513,0,0,1-.287.172s-.39-.092-.436-.172a4.282,4.282,0,0,1-.137-.516c-.023-.08-.138-.252-.034-.413s.138-.172.138-.264-.092-.355-.034-.482.057-.149.138-.218a.52.52,0,0,0,.195-.252.985.985,0,0,0,.115-.344c0-.092.069-.126.034-.241s.011-.229-.034-.172-.172.355-.309.539-.149.218-.184.184-.057-.126.046-.252.1-.08.183-.264.092-.069.092-.229.046-.287.1-.252a1.107,1.107,0,0,0,.275.046c.126.023.069.069.183.023s.172-.161.218-.172.069-.08.206-.08.115.057.195,0,.069-.161.149-.115.034.012.218.046.172,0,.309.023.126-.023.241.012.046.011.115.034,0-.069-.126-.161a.666.666,0,0,0-.309-.149c-.069,0-.08.035-.172-.069s-.034-.149-.126-.149-.149-.069-.3-.023-.183-.057-.332.046a.84.84,0,0,1-.3.172.653.653,0,0,1-.252-.046c-.08-.023-.126-.183-.229-.115s-.183-.149-.321-.206-.229-.115-.344-.092-.321.034-.16-.046.264-.161.39-.218.275-.126.115-.172-.264-.08-.378-.023a2.541,2.541,0,0,0-.321.229,1.376,1.376,0,0,0-.31.241c-.115.126-.092.172-.252.206s-.1-.057-.275.012-.092.034-.172.069-.16-.023-.252-.034-.195-.046-.161-.08.1-.126.046-.126-.149-.08-.252-.011-.023.057-.126.137a.655.655,0,0,1-.321.092.2.2,0,0,1-.115-.011l-.011-.092C158.3,354.208,158.61,354.047,158.679,354ZM141.055,336.14c.019.019.066.038.057.052s.076.014.1.019.147-.019.156.014.066.033.024.095-.2.076-.246.071a.375.375,0,0,1-.18-.033.243.243,0,0,1-.113-.09c-.019-.019-.09-.038-.123-.061a.2.2,0,0,0-.123-.024.612.612,0,0,0-.109.028c-.052.019-.071-.019-.123-.009s-.147,0-.166.019-.024,0-.057.043-.109.1-.123.118-.118.014-.066.047.147.052.189.085.128.095.123.133.024.052-.033.076a.515.515,0,0,1-.189,0,.137.137,0,0,0-.109.028c-.043.033-.024.057-.071.095a.207.207,0,0,1-.071.047c-.047.024-.038,0-.114.066s-.185.2-.232.194a.153.153,0,0,0-.18.033.431.431,0,0,1-.213.085c-.047.019-.147-.024-.147-.043a.178.178,0,0,1,.024-.085.781.781,0,0,1,.118-.09,1.2,1.2,0,0,1,.166-.038,1.016,1.016,0,0,0,.114-.043.5.5,0,0,0,.175-.08c.019-.028.038-.1.057-.113s.1-.014.113-.047.062-.08.062-.095.009-.052.009-.066,0-.061-.014-.076-.1-.085-.123-.08a.753.753,0,0,0-.2.014c-.043.024-.109.033-.128.057s-.128.024-.156.043-.033,0-.071.052-.014.057-.08.114a.437.437,0,0,0-.109.118c-.019.033,0,.08-.033.123a.288.288,0,0,0-.047.066.333.333,0,0,1-.085.095c-.033.024-.09,0-.118,0a.561.561,0,0,1-.095-.014c-.024,0-.033-.057-.066-.043a.508.508,0,0,1-.147,0,.531.531,0,0,0-.123,0,.319.319,0,0,1-.151.019c-.043-.014-.137,0-.156-.028s-.052-.033-.071-.066-.033-.1,0-.109.057.019.114,0a.6.6,0,0,1,.132-.028c.014,0,.033-.014.043-.038a.658.658,0,0,0,.038-.095.181.181,0,0,1,.033-.08c.019-.024.014-.047.057-.08s.222-.161.265-.185.028-.043.052-.09-.028-.118-.052-.114a1.469,1.469,0,0,1-.161-.024c-.047,0-.17-.066-.151-.08s.076,0,.151-.028a.747.747,0,0,1,.208-.019c.024,0,.142-.038.147.019a.1.1,0,0,0,.1.095.6.6,0,0,0,.184,0c.057-.014.137-.028.175-.038s.08-.08.047-.076-.156-.1-.223-.118a1.771,1.771,0,0,1-.194-.1c-.028-.009-.113-.024-.156-.038a.231.231,0,0,0-.133-.028c-.062.009-.113,0-.166,0a.535.535,0,0,0-.147.028c-.052.024-.17.066-.17.066l-.109.043c-.062.024-.147-.028-.2-.019s-.1-.028-.128-.028a.161.161,0,0,0-.09.028c-.038.024-.071-.028-.132.009a.391.391,0,0,1-.095.052.478.478,0,0,1-.184-.017.543.543,0,0,1-.278.171c-.15.021-.214-.171-.214-.171.171-.214.064-.32.171-.214s.235,0,.3-.021a.992.992,0,0,1,.256,0s.192-.064.278-.086.278-.043.278-.043l.321-.192a1.925,1.925,0,0,0,.278.043c.085,0,.235.021.3-.043a2.682,2.682,0,0,1,.449-.214l.513-.171a.735.735,0,0,1,.32-.086.882.882,0,0,1,.32.15.952.952,0,0,0,.278.107s-.406.021-.427.086-.363.043-.278.107.192.192.064.192-.385-.021-.32,0a2.229,2.229,0,0,1,.342.128,1.856,1.856,0,0,1,.288.051.13.13,0,0,0,.137-.019.134.134,0,0,1,.132-.009c.028.019.2-.024.222,0s.09,0,.142,0,.142-.024.156-.057.038-.137.081-.123.076-.019.109-.047.066-.085.095-.085.057-.01.085.019.095.1.085.147.066.09.019.128-.132.071-.151.123-.043.118-.052.147a.23.23,0,0,1-.1.095,1.1,1.1,0,0,0-.123.08C141.055,336.1,141.036,336.121,141.055,336.14Zm6.151,3.4a1.566,1.566,0,0,1-.343.027,2.276,2.276,0,0,1-.288-.082c-.082-.027-.219.055-.219.055a3.006,3.006,0,0,1,.315.1c.1.041-.082.247-.123.247s-.123.027-.165-.041-.315-.041-.315-.041-.055.082-.1.069-.247.069-.315.069-.068.178-.068.219-.165.219-.261.206-.247.178-.261.233a.68.68,0,0,1-.178.26c-.055.027-.26.041-.274-.014s-.233-.027-.288-.027-.1.26-.1.315-.1.137-.192.165-.247-.014-.247.041-.11.055-.165.068-.137-.027-.137-.082-.343.069-.343.069-.329.055-.37.055-.219-.014-.261-.082a.414.414,0,0,0-.206-.123.274.274,0,0,0-.219.041c-.069.055-.206.014-.274,0s-.137-.178-.206-.206-.082-.26-.082-.26a.856.856,0,0,0,.233.26.281.281,0,0,0,.274.014.848.848,0,0,0,.151-.123c.082-.082.1,0,.165,0s.178.069.274.055.1-.082.11-.206.151-.247.192-.3.1-.041.274.027.151-.014.261-.069.041-.123-.041-.137-.1-.151-.165-.165-.027-.151-.1-.26-.219-.165-.3-.233-.165-.151-.2-.182c-.018,0-.026-.005-.01-.01l.01.01c.03,0,.087,0,.113,0a.842.842,0,0,1,.247.11,2.062,2.062,0,0,0,.233.151c.055.014.137.068.178.055s.219.041.3.041a.12.12,0,0,1,.123.109c0,.041.165.137.165.137l.247.11a.617.617,0,0,0,.288.027c.055-.011.082.082.288-.014.045-.021.151-.055.151-.055a.317.317,0,0,0,.219-.1c.082-.1.014-.082.165-.192s.11-.041.178-.082.082-.082.192-.151.055,0,.165-.055.068-.1.151-.206.11-.1.164-.11.178.055.247.055.356.014.439,0a1.009,1.009,0,0,1,.329.11S147.317,339.522,147.207,339.536Zm7.139,10.235a1.28,1.28,0,0,0-.332-.413.415.415,0,0,1-.172-.275c0-.08.149-.218.092-.241a.706.706,0,0,0-.286.034c-.115.023-.069-.069-.138-.183s.057-.149.1-.264.115-.264.161-.252a1.072,1.072,0,0,0,.332,0c.08-.023.206-.608.206-.608s.08.229.115.321c.027.072.092-.057.195-.046s.08.057-.08.161a1.812,1.812,0,0,1-.275.172c-.16.08.057.138.138.218s.195.115.241.172-.023.241-.034.287.092.149.149.149.126.069.1.195a.336.336,0,0,0,.08.3.571.571,0,0,1,.1.229c.011.034.126.309.195.332s.138.218.172.264a.944.944,0,0,1,.08.321.711.711,0,0,1-.1.367c-.092.149-.172.3-.3.206s-.08-.115-.092-.241a.6.6,0,0,1,.034-.287,1.154,1.154,0,0,0,.08-.344,1.1,1.1,0,0,0-.034-.252,1.26,1.26,0,0,0-.195.149c-.034.046-.126.046-.08-.08a.382.382,0,0,0-.023-.252.258.258,0,0,0-.206-.183C154.524,349.717,154.357,349.863,154.346,349.771Z" transform="translate(-107.758 -326.096)" fill="inherit"/>
    </g>
    <g id="Group_2941" data-name="Group 2941" transform="translate(165.527 379.821)">
      <path id="Path_1659" data-name="Path 1659" d="M727.788,1112.805c.039-.22-.017-.03,0,0Z" transform="translate(-721.122 -1084.683)" fill="inherit"/>
      <path id="Path_1660" data-name="Path 1660" d="M694.657,855.953a1.566,1.566,0,0,1-.024-.209c.015.031.025.042-.006-.023a.163.163,0,0,0-.031-.069h0l-.073-.149c-.27-.538-.225-.629-.343-.613a1.426,1.426,0,0,1-.345.016c-.1-.016-.076-.075-.181-.075h-.314s-.03.06-.15-.044-.179-.151-.209-.256-.061-.284-.165-.344a1.377,1.377,0,0,0-.27-.1c-.044-.015-.089-.105-.2-.151s-.223-.209-.268-.222-.15-.106-.225-.15-.24-.136-.284-.166-.285.03-.315-.03-.075-.059-.165-.089a.424.424,0,0,0-.314-.044c-.135.044-.15-.015-.286.074s-.134.016-.268.059-.1-.029-.24-.043-.18-.181-.33-.15a.292.292,0,0,1-.224-.03c-.06-.014-.03-.12-.2-.164s-.119-.149-.254-.045.031,0-.135.1a.827.827,0,0,1-.329.12c-.15-.015-.045-.12-.15-.015s.045.151-.1.165-.181-.045-.09-.195.1-.148.09-.21c-.031-.255-.061-.225-.165-.329s-.15-.06-.225-.089-.209-.031-.255-.09-.1-.031-.15-.091a.233.233,0,0,0-.24-.06c-.073.029-.194-.091-.254-.075s-.119-.136-.195-.105-.074-.134-.164-.1-.06-.134-.15-.12-.1-.031-.178.044-.046-.044-.121-.015-.165-.075-.241.015-.074-.031-.149.121a1.456,1.456,0,0,1-.179.3c-.135.18-.135.105-.285.238s-.089.017-.149.135-.047.061-.136.135-.075-.03-.089.075l-.017.1s.031-.3-.1-.254a2.556,2.556,0,0,1-.3.075s-.149-.15-.208-.15-.061-.025-.15-.1c-.15-.136.24.029.314.014a.968.968,0,0,1,.193-.014c.211-.017.255,0,.361-.017a1.586,1.586,0,0,0,.344-.148.261.261,0,0,0,.061-.136.878.878,0,0,1,.044-.195,1.665,1.665,0,0,0,.045-.255c.015-.074.09-.18-.045-.18s-.313.031-.388.016-.1-.06-.21-.016-.1,0-.315-.044-.089-.18-.269-.03-.27.165-.27.224.061-.015.075.165.015.33-.045.315-.134-.1-.12-.135-.084-.093-.105-.149c-.089-.24-.165-.224-.1-.315s.044-.075.121-.181-.076-.059.134-.149a1.244,1.244,0,0,0,.315-.149c.1-.076.15-.076.2-.165s-.031-.121.044-.226.12.21.059-.164a.908.908,0,0,1-.014-.225.156.156,0,0,0-.075-.15c-.045-.015-.18-.134-.225-.134s-.134-.121-.194-.105-.046-.121-.061-.18a1.22,1.22,0,0,1,.016-.225c0-.075.046-.15-.061-.255s-.045-.179-.1-.284.06-.06-.061-.256-.268-.164-.268-.164-.026-.042-.063-.093a.964.964,0,0,0-.178-.206,3.85,3.85,0,0,0-.4-.3c-.089-.029-.164-.076-.27-.119s-.119-.164-.253-.135-.046-.12-.167-.12-.06-.088-.148-.074-.061-.105-.151-.091a.2.2,0,0,1-.038,0c-.086-.005-.2-.056-.26-.017s-.059,0-.179.044-.181-.119-.27-.061.03-.029-.165-.029-.225-.045-.328,0-.076.119-.135.135-.014-.15-.2-.061-.15.03-.24.076a.057.057,0,0,1-.087-.019.218.218,0,0,0-.063-.071.649.649,0,0,1-.268-.269,1.417,1.417,0,0,0-.419-.3c-.017.017-.017-.06-.121-.043s-.252.082-.268-.017a2.377,2.377,0,0,1-.031-.24c-.015-.119-.089-.149-.133-.224s-.017-.149-.135-.178-.15-.047-.2-.122a.347.347,0,0,0-.209-.134,1.177,1.177,0,0,1-.164-.086.14.14,0,0,0-.061-.018c-.06,0-.029-.09-.12-.136s-.12-.149-.254-.149-.218-.049-.3,0c-.255.149-.345.165-.3.075a.6.6,0,0,1,.119-.195,1.636,1.636,0,0,0,.166-.24c-.166-.164-.134-.239-.225-.239s-.089-.06-.209-.016-.134.016-.164-.061.03-.148-.016-.163-.134.075-.225.135-.195.045-.211,0a1.125,1.125,0,0,1-.014-.194s-.225.135-.256.031-.029-.151.017-.211-.256.1.045-.06a2.909,2.909,0,0,0,.255-.16c-.15-.013-.358-.04-.376-.005-.03.06-.239.076-.314.06s-.046-.06-.225-.014-.134-.135-.36.089l-.224.225a1.172,1.172,0,0,0-.36-.03c-.089.03-.134-.045-.3-.075s-.061-.09-.2-.136-.06-.179-.2-.119a.4.4,0,0,1-.27.06c-.164,0,.12-.12-.255,0s-.284.241-.479.12-.075-.1-.195-.12c-.034,0-.048,0-.055.013a.033.033,0,0,1,0-.013,1.024,1.024,0,0,0-.166-.254s.045-.2-.089-.2-.331-.06-.435-.06-.15-.076-.223-.09-.017-.09-.076-.18.059-.24-.089-.255-.165-.164-.27-.016a1.174,1.174,0,0,0-.209.36c-.016.09.164.03-.016.165s-.284.09-.45.164-.193.091-.225.18a.319.319,0,0,0-.015.21c.015.121.269.135.269.314s.059.06.045.314.15.21-.016.345-.208.045-.3.016a.733.733,0,0,1-.269-.391c-.014-.1-.179-.029.046-.313a.913.913,0,0,0,.059-.779c-.014-.043-.113-.018-.1-.125,0,0,0-.006,0-.009.015-.12-.016-.149.1-.149s.254.029.315-.03.2-.165.149-.226.047.061.047.061a.178.178,0,0,0,.1.016c.046-.016.014-.046,0-.121s.014-.179-.121-.193a.977.977,0,0,0-.3,0,.606.606,0,0,0-.329.089.581.581,0,0,0-.256.239c-.03.075-.014.106-.18.2a1.086,1.086,0,0,0-.254.164c-.134.105.016.09-.134.105s.045.045-.15.015-.166-.136-.3-.075.134-.239-.134.06-.059.164-.3.179-.315,0-.4.061-.12.164-.209.254-.016-.045-.045.18.014.45-.075.539-.075.09-.165.09-.1-.105-.209.059-.165.33-.256.39-.074.015-.149.135-.031.1-.075.194c-.013.024-.027.03-.044.027a.351.351,0,0,1-.371.289c.051.148-.079.247-.2.329.07.064.124.112.124.112s-.016.015-.016.066.016.023.045.106.12.1.113.15.075.059.037.15a.37.37,0,0,0-.014.195c0,.053.03.209.03.269s-.082.12-.075.211.03.037.068.134.089.142.082.208.007.136-.007.218a2.19,2.19,0,0,1-.022.225.558.558,0,0,0,.052.308c.03.037.083-.039.015.082a.894.894,0,0,1-.15.186,1.268,1.268,0,0,0-.082.143.706.706,0,0,0-.075.135c-.03.066-.022.074-.09.113s-.014-.039-.067.036.061,0-.052.075-.172.023-.225.051-.037.008-.1.031-.179.067-.179.157a1.122,1.122,0,0,1-.037.24c-.016.069-.009.046-.045.053s-.017.082-.031.1a.456.456,0,0,0-.051.106.151.151,0,0,0-.008.037c-.007.059.052.113.045.156s-.068.046-.12.046-.1-.029-.15-.007a1.386,1.386,0,0,0-.2.105c-.022.022-.022.037-.061.06s-.15,0-.18.022-.022-.031-.081.023-.075.015-.075.09-.046.111.008.17.037.076.052.121.037.007.03.081.029-.015-.075.083-.164.121-.181.173,0,.044.009.112a.448.448,0,0,1,.008.135,1.121,1.121,0,0,1-.031.292,1.088,1.088,0,0,0-.143.187c-.046.083-.046.03-.046.12s.068.074.023.149-.089-.007-.044.076.187.1.142.135-.052.03-.067.075-.023.06.044.113.164.044.164.126a.16.16,0,0,0,.069.128s.1.052.134-.007.068-.106.1-.173.1-.244.113-.209c.044.088-.045.359-.045.359s.074,0,.021.113a.915.915,0,0,1-.239.247l-.008,0c-.021.014-.088.054-.119.08s-.1.029-.172.09.007-.031-.114.074-.171.135-.2.188a1.984,1.984,0,0,0-.081.27.913.913,0,0,0-.069.186c-.007.068-.007-.022,0,.12a.3.3,0,0,0,.052.2c.045.1.016.1.09.15s.1-.015.128.1.059.082.045.164.045.061-.038.12-.069-.015-.083.059.014.046,0,.113.068.06.157.157a.467.467,0,0,0,.262.127.151.151,0,0,1,.076.008c.038.015.15.015.143.053s.082.112.118.157.143.09.143.15a.288.288,0,0,0,.022.142,1.625,1.625,0,0,1,.1.172c0,.023.112.076.112.15a1.328,1.328,0,0,0,.143.315.212.212,0,0,0,.044.1.6.6,0,0,1,.091.15.38.38,0,0,0,.076.111c.028.038.059.053.082.083s.075.03.1.082.1.046.1.129.054.149.068.246.045.112.1.293a3.86,3.86,0,0,0,.157.4c.03.084.03.037.06.1a2.436,2.436,0,0,0,.187.315c.053.067.127.059.15.15a1.869,1.869,0,0,0,.074.247,1.3,1.3,0,0,0,.128.194c.023.038.053.015.112.15s-.007.127.1.247.179.106.188.2a1.163,1.163,0,0,0,.073.233c.014.06.068.03.046.142s-.059.127-.067.209-.023.061.008.127.045.068.112.135l.262.209a.259.259,0,0,0,.045.21c.075.09.1,0,.134.09s.225.059.239.105.12.1.12.164.074.108.12.136c.18.1.27.059.33.134a1.871,1.871,0,0,0,.495.36c.089.014.134.09.225.119s.165-.059.239.017.179.119.225.164.106.03.166.061.134.014.179.044a.558.558,0,0,1,.269.194,2.448,2.448,0,0,1,.194.3.6.6,0,0,0,.27.313c.2.15,0-.1.2.15.031.04.056.072.078.1.124.144.142.12.117.158a.371.371,0,0,0-.031.269c.031.1.046.269.061.345s.03.15.046.209a.4.4,0,0,1,0,.2,1.421,1.421,0,0,0-.03.241.294.294,0,0,0,.03.194c.043.105.043-.046.089.179s.06.255.015.36a1.6,1.6,0,0,0-.1.239c-.061.285-.075.2-.075.375s.1-.15-.016.255-.12.283-.12.4c.03.33.027.366.03.419a4.692,4.692,0,0,1-.119,1.229c-.075.134-.134.164-.134.3s.1.164.044.314-.014.12-.059.3a1.507,1.507,0,0,0-.044.179c-.046.209-.016.209-.062.359a1.309,1.309,0,0,0-.045.15,1.524,1.524,0,0,0-.089.345c-.045.27.059.09-.045.27-.024.042-.036.049-.042.042s0,.01,0,.017c-.059.33-.045.33,0,.48s.135.075.075.255-.088.219-.12.3l-.09.224c.016.419-.09.583-.059.719a2,2,0,0,1,0,.418c0,.135.059.151.059.285s.045.165.016.283-.046.12-.089.255a1.366,1.366,0,0,1-.121.285c-.043.075.045-.03,0,.134s-.1.18-.179.329-.09.075-.09.226.09.089.059.284-.075.135-.15.3a2.9,2.9,0,0,1-.209.391c-.06.09,0,.149-.06.329s0,.179-.076.3-.1.029-.15.164a.5.5,0,0,1-.148.241c-.27.315-.195.315-.195.524a.727.727,0,0,0,.03.3c.045.24-.075.074.045.24a.584.584,0,0,1,.12.314c.014.06.03.316.03.316a.338.338,0,0,1,.03.149c-.016.046.014.015-.075.149s-.06.015-.091.136l-.029.119a.491.491,0,0,1-.03.315,1.342,1.342,0,0,1-.136.255c-.089.136-.089.015-.089.136a.542.542,0,0,0,.045.284.7.7,0,0,0,.135.164.385.385,0,0,0,.165.09c.18.074.193.074.27.031s.074-.106.195-.046.209.046.135.15-.215.01-.165.135c.059.15.12.074.09.224s.03.06-.031.151-.014.1,0,.179-.119.074-.119.149a1.089,1.089,0,0,1-.016.21c-.016.1.03.029-.016.1s-.014-.269-.045.076,0,.283-.029.344a.573.573,0,0,0-.031.225c0,.06-.014.015,0,.12s.088.118.136.165c.15.15.075.225.03.284,0,0-.206-.043-.225.107-.045.343-.1.343-.045.343s.24.255.164.255-.089-.2-.209-.076-.134.15-.134.211.075.12.059.224a.6.6,0,0,1-.134.24l-.166.241s-.164.135-.134.044.071-.192-.014-.211c-.211-.044-.315-.148-.211-.178,0,0-.148-.21-.209-.165-.21.15-.27.208-.256.268s.09.046.059.135-.028.06-.149.135-.4.045-.329.164.27.224.314.2.226-.226.226-.226.163,0,.148.076-.06.09.015.134.33-.255.315-.15.044,0,.015.165l-.03.165c-.03.165-.24.045-.27.165s-.014.1.075.224.3-.06.3.03-.15.239-.014.163.1-.15.194-.059.306.174.24.21a.688.688,0,0,1-.39.075s-.149-.09-.194.03-.061.164-.015.21l-.254.314s.209.015.225.135.269.24.179.36a1.037,1.037,0,0,0-.134.329s.089.03.059.106-.09-.017-.15.1a.255.255,0,0,0-.014.254c.028.046.269.151.239.211s-.007.084-.12.164c-.209.151-.225.03-.314.121s-.12.015.014.135a.446.446,0,0,0,.345.149c.135,0,.1-.18.195-.029s.2.194.2.331-.031.1-.015.223.089.165.135.149.134.09.165-.059.03-.254.059-.225.134,0,.18.029.12.121.166.091.134-.165.118-.074a1.9,1.9,0,0,0-.03.3c0,.106-.163.029-.209.121s.059.029.046.148.134-.089.075.121.194-.195.284-.045.209.119.284.18.195-.015.21.121a.737.737,0,0,0,.059.224c.016.044.181.179.061.21s-.225-.135-.33-.031-.134.016-.164.165,0,.044.03.179-.105.181.075.225.374.044.434.075.226-.134.226-.225a.933.933,0,0,0-.031-.285c-.029-.1.135-.286.135-.286l.141-.09.159-.1s-.105-.09.074-.134a.43.43,0,0,1,.3.028h.017s.163.09-.092.181-.493.329-.42.374a1.849,1.849,0,0,0,.36.061c.045.016.21-.031.193.044a.527.527,0,0,1-.1.181s-.194-.15-.209.03a1.65,1.65,0,0,0,.015.3c0,.121.27.15.27.225s.164.09.015.134a.394.394,0,0,1-.269-.014s-.42-.074-.465-.015-.149.044-.239.118-.136.241-.031.21.375.136.42.091.211-.016.285-.03.285-.029.285-.029a.294.294,0,0,0,.105.15.312.312,0,0,0,.284.06c.045-.031-.15-.075.134,0,.028.007.051.012.074.017.214.043.234-.028.3.014s.306-.062.359-.031c.2.119.255.059.33.105s.149-.046.225-.016a.622.622,0,0,0,.254-.015s.224-.061.181,0,.194.074.269.031.33-.165.33-.165l-.061-.076s.106-.164-.045-.148-.313-.09-.463-.076a.811.811,0,0,1-.33-.06,1.121,1.121,0,0,0-.21-.224c-.1-.075-.119-.03-.149-.134s-.016-.286-.1-.24-.179-.046-.256-.074-.209-.3-.255-.345-.09-.046-.059-.181.091-.226.016-.24-.09-.224-.225-.149-.15.075-.225.075h-.008c-.068-.011-.087-.149-.233-.193s-.21-.06-.21-.15a.383.383,0,0,1,.007-.093.1.1,0,0,1,.069-.072.348.348,0,0,1,.3.06.564.564,0,0,0,.344.105c.106-.016.165-.105.075-.165a2.164,2.164,0,0,1-.269-.4,1.662,1.662,0,0,1-.165-.315c-.016-.045.03-.254.015-.344s-.09-.255,0-.24.03-.105.2-.285.21-.284.33-.254.255.014.268-.03-.045-.3-.014-.36.24-.508.3-.614.164-.09.27-.165.254-.074.419-.239.345-.24.359-.314.076-.15.045-.21.015-.09-.15-.12-.06-.18.031-.24.134-.015.089-.181-.03-.27-.1-.27-.134-.044-.211-.029a1.116,1.116,0,0,1-.3,0c-.074-.016-.254-.031-.284-.136s-.15-.134-.164-.3a.531.531,0,0,1,.1-.375,1.174,1.174,0,0,0,.134-.328c.015-.061,0-.09.061-.135s.239-.15.239-.15-.059.09.164-.03.435-.344.465-.3.134.286.241-.029a3.187,3.187,0,0,0,.134-.555l-.091-.15.106-.18s.07-.352.134-.373a.5.5,0,0,0,.284-.181s-.238-.24-.225-.3.046-.119.121-.1.095-.069.165.015c.164.194.074.314.179.3s.1.375.225-.06.225-.539.059-.539-.238-.178-.345-.059a1.428,1.428,0,0,0-.18.27c-.179-.046-.293-.106-.3-.165-.015-.166-.09-.15-.076-.256s.06-.209.076-.284a1.463,1.463,0,0,1,.029-.21c.031-.1-.18-.194-.105-.3s0-.09.24-.031.449,0,.42.105a.183.183,0,0,0,.179.24c.15,0,.254-.045.329-.03a.7.7,0,0,0,.256-.015.6.6,0,0,0,.239-.12c.044-.059.42-.1.179-.194s-.27-.119-.24-.195a.948.948,0,0,1,.18-.209c.074-.284.134-.315.134-.405s.105-.074.016-.254-.207-.27-.136-.3c.3-.119.27-.045.419-.031s-.059.016.151.016a1.986,1.986,0,0,0,.3-.016s.076.046.315,0,1.034-.254,1.094-.254a2.083,2.083,0,0,0,.225-.03s.119-.091.149-.046.119-.134.165-.1.164-.074.21-.119.044-.09.1-.12a.771.771,0,0,0,.149-.119,1.518,1.518,0,0,0,.195-.329.369.369,0,0,1,.121-.15c.075-.045.075-.09.089-.15s-.029.03,0-.179.062-.091.031-.271.031-.18-.1-.224a.25.25,0,0,1-.18-.195c-.03-.075,0,.12-.03-.075s.061-.241.044-.315c-.03-.136.03-.3-.03-.314s-.014-.225-.15-.2-.464-.149-.539-.18a.309.309,0,0,1-.149-.135.254.254,0,0,1-.045-.226c.016-.119.1.047.075-.207s.09-.33.06-.375a.145.145,0,0,1-.03-.181c.045-.1-.045-.089.045-.164s.12-.075.089-.225a.739.739,0,0,1,0-.266.009.009,0,0,0,0,0,1.535,1.535,0,0,1,.059.419c-.013.151-.043.165-.043.268a3.158,3.158,0,0,1-.016.451c-.089.21-.15.255-.1.3s.15.255.254.224.063-.081.166-.029c.179.089.315-.016.329.089s.136.164.225.21a1.985,1.985,0,0,0,.3.059c.151.06.134.06.211.047s.164.014.239-.016.044-.09.165-.061.214,0,.27.03a.745.745,0,0,0,.524-.03s.134-.18.179-.194.09,0,.2-.15.179-.344.225-.374a.459.459,0,0,0,.165-.194,1.142,1.142,0,0,1,.223-.285,3.2,3.2,0,0,1,.256-.21.526.526,0,0,0,.089-.254.644.644,0,0,1,.075-.285c.03-.073.03-.119.09-.164s.133.137.114-.048a1.7,1.7,0,0,0,.335-.192.446.446,0,0,1,.181-.194c.119-.061.209-.165.254-.18s.1-.091.164-.151.2-.165.18-.3a.29.29,0,0,1,.06-.253c.045-.046.059.029.119-.2s0-.225.121-.36.1-.258.389-.449c0,0,.255-.418.314-.524s.091-.089.12-.164a1.2,1.2,0,0,0,.091-.315c0-.076.089-.33.045-.39s.014-.27.014-.27a.806.806,0,0,0-.1-.21c-.059-.074,0-.089-.059-.194s-.165-.135-.06-.209.193.029.134-.15-.21-.255-.09-.285a2.989,2.989,0,0,1,.345,0,.366.366,0,0,0,.149-.059l.009,0a.865.865,0,0,1,.158-.175,1.893,1.893,0,0,1,.523-.389c.164-.151.1-.211.164-.225a.809.809,0,0,1,.2-.06.74.74,0,0,0,.239-.075.6.6,0,0,1,.165.1c.059.06.03,0,.134-.014s.285-.046.285-.046-.33-.075-.165-.194.165,0,.313-.1.211-.044.256-.2-.015-.255.045-.15.074.06.179.074.255-.058.33-.044.15-.075.179-.03.105-.044.151.016a.157.157,0,0,0,.224.03c.105-.06.166-.165.21-.1s.134.015.163.045.15,0,.181-.1a.54.54,0,0,1,.134-.255c.18-.135,0,.075.27-.179s.3-.271.3-.36-.06-.285.029-.375.225-.166.254-.285.045-.1.225-.359.089-.269.18-.343.091.33.12-.181.075-.465.046-.583-.046-.121-.016-.2-.03-.15.105-.194.179-.107.195-.152a1.345,1.345,0,0,0,.09-.268c0-.061.089-.287.029-.389a.329.329,0,0,1,0-.271c.09-.238.1-.224.09-.344s-.135-.285-.12-.419.1-.345.074-.434.045-.15.015-.3a2.945,2.945,0,0,1-.015-.315c-.015-.06.03-.015-.015-.2s-.209-.224-.06-.269a.919.919,0,0,1,.149-.045c.18-.044.285,0,.119-.059s-.239-.091-.239-.091-.029-.059.135-.059.1-.045.224-.015-.014.12.12.031.254-.121.27-.241a.684.684,0,0,1,.15-.284c.03-.044.075-.134.075-.134a1.117,1.117,0,0,1,.03-.151c.014-.045.014-.194.059-.209s.075.016.2-.151a8.817,8.817,0,0,1,.674-.643c.12-.121.166-.061.24-.2a2.963,2.963,0,0,1,.178-.268c.091-.136.135-.136.166-.2s.045-.164.09-.239.119-.195.1-.27.014-.24,0-.284a1.134,1.134,0,0,1-.03-.18c-.015-.1-.074-.24-.015-.315A.3.3,0,0,0,694.657,855.953Z" transform="translate(-663.669 -843.091)" fill="inherit"/>
      <path id="Path_1661" data-name="Path 1661" d="M789,844.5c.089,0,.134-.088,0-.208C788.943,844.242,788.911,844.5,789,844.5Z" transform="translate(-775.926 -844.162)" fill="inherit"/>
      <path id="Path_1662" data-name="Path 1662" d="M789.356,854.289c.115,0,.079-.009.232-.017s.187.07.2-.151-.028-.4-.187-.312c-.115.064-.161.224-.214.312S789.241,854.289,789.356,854.289Z" transform="translate(-776.247 -852.674)" fill="inherit"/>
    </g>
  </g>
</svg>
