<svg xmlns="http://www.w3.org/2000/svg" viewBox="0 0 71.913 103.753">
  <g  transform="translate(-3657.746 -2292.59)">
    <path id="Path_2140" data-name="Path 2140" d="M3729.658,2322.784c-.006-.156-.092-.461-.105-.617a6.1,6.1,0,0,0,0-.916,2.586,2.586,0,0,0-.441-.669c-.112-.13-.44-.3-.51-.458s.076-.521,0-.669c-.091-.18-.529-.316-.652-.476-.1-.127-.127-.475-.229-.6a3.04,3.04,0,0,0-.511-.317c-.069-.049-.228-.135-.265-.211s.023-.281,0-.37a.926.926,0,0,0-.229-.423,1.06,1.06,0,0,0-.581-.071,1.118,1.118,0,0,0-.44.229c-.053.052-.066.256-.141.264s-.15-.148-.176-.211a1.2,1.2,0,0,1-.036-.37c.005-.214.127-.632.123-.846a7.3,7.3,0,0,0-.141-.775,3.849,3.849,0,0,1-.088-.634c.014-.214.2-.615.229-.828a3.6,3.6,0,0,0,0-.74.893.893,0,0,0-.105-.37c-.165-.184-.686-.279-.916-.37a2.637,2.637,0,0,1-.458-.176,1.2,1.2,0,0,1-.334-.405c-.033-.091.042-.3,0-.387a.809.809,0,0,0-.423-.334.839.839,0,0,0-.39.124,1.049,1.049,0,0,0-.04-.192c-.045-.127-.225-.336-.284-.456a1.612,1.612,0,0,1-.146-.4,1.064,1.064,0,0,1,.066-.489c.05-.086.268-.152.317-.238a1.092,1.092,0,0,0,.053-.41c0-.113-.094-.344-.053-.449a1.125,1.125,0,0,1,.449-.383c.167-.082.59-.033.727-.158a.878.878,0,0,0,.2-.647c-.037-.117-.268-.264-.383-.3-.162-.057-.551.105-.687,0s-.106-.512-.172-.674a2.461,2.461,0,0,0-.41-.713c-.115-.1-.441-.161-.568-.251a1.692,1.692,0,0,1-.41-.436,2.086,2.086,0,0,1-.158-.806c.01-.156.179-.439.2-.594a3.08,3.08,0,0,0-.053-.726,1.685,1.685,0,0,0-.158-.5c-.086-.121-.4-.231-.476-.357a4.933,4.933,0,0,1-.171-.806c-.059-.167-.237-.476-.317-.634a4.956,4.956,0,0,1-.4-.766,1.571,1.571,0,0,1,0-.436,1.729,1.729,0,0,1,.106-.383c.046-.1.218-.253.25-.357s-.03-.312,0-.409a2.029,2.029,0,0,1,.3-.449,3.479,3.479,0,0,0,.37-.423,2.872,2.872,0,0,0,.119-.753c.011-.151-.022-.458,0-.608s.162-.451.185-.607a3.739,3.739,0,0,1,0-.568,1.339,1.339,0,0,1,.37-.41c.108-.08.4-.121.489-.225a1.139,1.139,0,0,0,.146-.581,1.458,1.458,0,0,0-.251-.74,1.868,1.868,0,0,0-.663-.233,1.81,1.81,0,0,1-.116.339,1.254,1.254,0,0,1-.33.4,3.053,3.053,0,0,1-.978.211c-.382.037-1.15-.045-1.533-.027a4.14,4.14,0,0,0-.594.066c-.179.043-.512.207-.687.264a3.288,3.288,0,0,1-.859.238,1.562,1.562,0,0,1-.475-.185c-.21-.114-.549-.489-.78-.555a2.164,2.164,0,0,0-.911.053c-.144.043-.366.3-.515.3-.191,0-.47-.4-.661-.383-.13.008-.286.277-.41.317a1.554,1.554,0,0,1-.647-.026c-.1-.027-.276-.185-.383-.2a.734.734,0,0,0-.5.119c-.076.1.076.393,0,.489a.429.429,0,0,1-.344.079.73.73,0,0,1-.291-.357.841.841,0,0,1,0-.291c.012-.088.14-.268.093-.344s-.257-.077-.344-.066a.524.524,0,0,0-.225.105.6.6,0,0,0-.119.251,1.011,1.011,0,0,0,.053.344c.02.06.111.162.119.225a.359.359,0,0,1-.066.251c-.053.039-.2,0-.264-.013-.088-.023-.282-.081-.33-.158-.063-.1.052-.369,0-.476a.31.31,0,0,0-.185-.145c-.1,0-.26.152-.3.238a1.085,1.085,0,0,0-.026.608c.026.083.183.195.211.277.035.1.073.356,0,.436-.052.056-.228.022-.3.027-.112.006-.336.016-.449.013-.162,0-.515.041-.647-.053-.092-.065-.109-.326-.185-.409a1.158,1.158,0,0,0-.436-.251.809.809,0,0,0-.515.026c-.1.082-.1.376-.132.5a3.391,3.391,0,0,1-.145.568,1.686,1.686,0,0,1-.37.423,2.08,2.08,0,0,1-.542.238c-.173.045-.542.016-.713.066a1.193,1.193,0,0,0-.383.2,2.792,2.792,0,0,0-.224.41.954.954,0,0,1-.146.2,1,1,0,0,1-.291.119c-.177.043-.6-.066-.727.066a.48.48,0,0,0-.013.4c.033.063.2.1.238.159a.961.961,0,0,1,.013.568.905.905,0,0,1-.291.357,2.085,2.085,0,0,1-.7.132c-.142.01-.446-.1-.568-.026-.077.045-.094.257-.159.317a1.894,1.894,0,0,1-.449.185,1.731,1.731,0,0,0-.489.211.75.75,0,0,0-.146.423c.008.086.148.22.172.3a1.161,1.161,0,0,1,.013.423c-.03.137-.244.362-.251.5a1,1,0,0,0,.172.449c.033.046.116.141.172.146.124.009.3-.23.422-.264.092-.027.327-.077.383,0,.039.053-.043.2-.08.251a4.566,4.566,0,0,1-.449.383.752.752,0,0,0-.132.172.889.889,0,0,0-.04.37c.015.077.127.2.145.277.029.119-.028.37,0,.489s.1.349.2.4.324-.048.422-.093.248-.242.356-.264a.427.427,0,0,1,.278.066.523.523,0,0,1,.092.317.482.482,0,0,1-.132.264c-.081.058-.3.012-.4.053a.97.97,0,0,0-.423.357.648.648,0,0,0,.066.383c.03.056.151.119.185.172.093.146.069.562.211.661.117.081.431-.063.568-.027.114.03.36.139.4.251.044.135-.194.387-.211.528a1.723,1.723,0,0,0,.066.5,1.166,1.166,0,0,0,.2.449c.106.092.414.088.542.146.076.034.2.161.277.185.219.066.706-.1.912,0a.8.8,0,0,1,.264.33c.033.077,0,.259.04.33a.506.506,0,0,0,.264.185.684.684,0,0,0,.449-.172c.083-.1.019-.409.079-.529s.307-.24.356-.357c.063-.149-.079-.514.014-.647s.4-.185.542-.211c.1-.019.331-.066.409,0s.1.358.08.475c-.02.093-.184.226-.211.317a1.836,1.836,0,0,0,0,.7c.024.1.16.279.185.383a3.385,3.385,0,0,1,.013.7c-.008.2-.052.585-.079.779-.029.213-.126.632-.146.845a5.728,5.728,0,0,0-.009.942c0,.008,0,.016,0,.024a8.77,8.77,0,0,0,.385,1.35c.148.4.588,1.144.722,1.551a8.546,8.546,0,0,1,.282,1.374c.022.219.006.661,0,.88a3.381,3.381,0,0,1-.053.863,4.372,4.372,0,0,1-.634.757c-.107.131-.333.385-.423.529-.1.165-.215.55-.335.7a2.221,2.221,0,0,1-.563.476,2.887,2.887,0,0,1-.881.211,2.292,2.292,0,0,1-.607-.088c-.182-.059-.5-.291-.678-.353-.14-.048-.439-.066-.582-.106a1.818,1.818,0,0,1-.7-.264c-.162-.183-.164-.715-.229-.951a7.259,7.259,0,0,0-.277-.9,2.213,2.213,0,0,0-.5-.757c-.167-.1-.753-.106-.771-.158a2.068,2.068,0,0,0-.388-.722c-.17-.111-.612-.022-.81-.071a3.108,3.108,0,0,1-.881-.37c-.161-.126-.474-.448-.493-.652-.013-.137.235-.356.247-.493s-.04-.458-.158-.529c-.179-.105-.626.081-.811.176a6.339,6.339,0,0,0-.722.652c-.271.221-.835.635-1.127.828a5.346,5.346,0,0,1-.6.352,5.349,5.349,0,0,0-.7.212,1.233,1.233,0,0,0-.317.405c-.1.237-.06.777-.141,1.021a8.375,8.375,0,0,1-.458.828,5.537,5.537,0,0,0-.44.933,2.975,2.975,0,0,0,0,.864c.031.179.2.509.247.687a3.321,3.321,0,0,1,.124.9,1.918,1.918,0,0,1-.264.634c-.161.226-.67.511-.828.74a2.724,2.724,0,0,0-.3.792,6.946,6.946,0,0,0,0,1.25c.024.377.147,1.123.194,1.5a5.113,5.113,0,0,1,.088.757c-.015.2-.192.562-.211.757a3.117,3.117,0,0,0,.07.916,6.506,6.506,0,0,0,.441.757,5.056,5.056,0,0,1,.423.881,1.236,1.236,0,0,1,.025.206c.02.329-.025.792-.025,1.044a6.72,6.72,0,0,0,0,1.3,10.336,10.336,0,0,0,.581,1,5.087,5.087,0,0,1,.264.845,9.142,9.142,0,0,1,.07,1.3,4.869,4.869,0,0,1-.088,1.092.477.477,0,0,1-.045.093c-.047.079-.115.168-.148.225a6.174,6.174,0,0,0-.405.7c-.064.172-.1.544-.141.722a2.037,2.037,0,0,1-.105.335c-.107.206-.432.547-.563.74-.119.174-.316.551-.44.722a2.488,2.488,0,0,1-.511.6,3.692,3.692,0,0,1-.863.141c-.159.031-.475.108-.634.141-.219.046-.66.135-.881.176a1.29,1.29,0,0,0-.46.176.788.788,0,0,0-.28.334,1.089,1.089,0,0,0,0,.511c.043.131.266.319.331.44a1.518,1.518,0,0,1,.232.634c-.015.126-.227.308-.282.423-.069.146-.136.466-.194.617s-.208.464-.282.616c-.1.2-.292.6-.405.793-.045.076-.1.193-.17.309a1.065,1.065,0,0,1-.27.343c-.124.078-.446.031-.582.088a3.61,3.61,0,0,0-.422.317,3.133,3.133,0,0,1-.634.388,1.209,1.209,0,0,1-.546,0c-.215-.077-.508-.466-.7-.581a2.849,2.849,0,0,0-.687-.264,2.6,2.6,0,0,0-.652,0c-.205.031-.586.267-.792.246a1.248,1.248,0,0,1-.546-.3,2.191,2.191,0,0,1-.264-.494,4.536,4.536,0,0,1-.317-.774c-.02-.1-.072-.334,0-.405.043-.044.186-.012.246,0a1.189,1.189,0,0,1,.388.158,1.868,1.868,0,0,1,.264.37c.053.081.131.261.193.334.088.1.29.317.423.335a.546.546,0,0,0,.37-.158.886.886,0,0,0,.053-.528,1.21,1.21,0,0,0-.246-.423,2.313,2.313,0,0,0-.441-.282c-.1-.055-.318-.143-.422-.193-.236-.114-.7-.354-.934-.476-.164-.086-.491-.26-.652-.353a.72.72,0,0,0-.916-.105c-.132.044-.36.22-.493.264-.2.067-.637.08-.846.123a10.418,10.418,0,0,0-1.162.317c-.207.078-.588.306-.793.388a5.641,5.641,0,0,1-.617.193,10.294,10.294,0,0,0-1.162.177,5.953,5.953,0,0,0-1.021.722c-.179.141-.511.455-.687.6a5.315,5.315,0,0,1-.528.4,3.112,3.112,0,0,1-.529.211,7.307,7.307,0,0,0-.916.158,3.321,3.321,0,0,0-.669.6,6.1,6.1,0,0,0-.476.6c-.13.193-.337.612-.458.81a5.654,5.654,0,0,1-.44.669,2.633,2.633,0,0,1-.511.406,8.35,8.35,0,0,1-1,.334l-.987.334c-.286.1-.857.293-1.145.388s-.825.249-1.092.352a5.806,5.806,0,0,0-.617.282c-.154.09-.424.334-.581.423a8.133,8.133,0,0,1-.951.387c-.07.017-.587.182-.775.264-.155.068-.448.239-.6.317a5.1,5.1,0,0,0-.581.3,5.622,5.622,0,0,0-.427.467,2.155,2.155,0,0,1-.291.291.854.854,0,0,1-.436.145c-.078-.016-.188-.149-.237-.211-.091-.115-.137-.477-.278-.515-.085-.023-.254.111-.3.185a1.053,1.053,0,0,0-.066.449,1.215,1.215,0,0,0,.079.449c.039.067.183.145.238.2.072.07.177.253.264.3a.548.548,0,0,0,.331.066c.09-.033.172-.233.238-.3a.983.983,0,0,1,.2-.185,1.162,1.162,0,0,1,.595-.093c.05.014.119.1.158.132.136.113.51.277.542.449.013.066-.081.194-.132.238s-.245.043-.291.106-.012.248-.013.33.063.294,0,.357c-.1.1-.42.06-.542,0s-.208-.373-.33-.436a1.27,1.27,0,0,0-.423-.013l-.082.006a2.5,2.5,0,0,0,.011.456c.036.17.248.464.282.634.038.19-.043.583-.018.775a4.391,4.391,0,0,0,.264.88c.08.183.34.5.4.687a3.311,3.311,0,0,1,.124.934c-.012.23-.227.668-.211.9.01.146.2.4.211.546a1.357,1.357,0,0,1-.105.528,2.178,2.178,0,0,1-.458.528c-.129.1-.455.21-.582.317-.1.087-.329.288-.334.423s.23.29.264.405-.024.372,0,.493a1.282,1.282,0,0,0,.211.511,1.807,1.807,0,0,0,.476.194,3.35,3.35,0,0,1,.634.264c.094.074.189.311.281.387.071.059.257.108.334.159a3.279,3.279,0,0,1,.582.511,2.12,2.12,0,0,1,.335.616,1.685,1.685,0,0,1-.036.722c-.065.169-.41.388-.458.563a1.615,1.615,0,0,0,.159,1.022c.108.143.506.195.652.3a1.035,1.035,0,0,1,.334.352c.052.166-.138.516-.105.687s.306.432.353.6a2.674,2.674,0,0,1,0,.634,3.507,3.507,0,0,1-.124,1.039c-.092.184-.537.368-.6.564a1.083,1.083,0,0,0,.141.687c.1.147.5.236.616.37a1.984,1.984,0,0,1,.317.687c.05.228-.06.708,0,.934a1.294,1.294,0,0,0,.335.581c.156.1.59-.022.74.088a1.341,1.341,0,0,1,.282.634c.025.121-.037.376,0,.493a2.074,2.074,0,0,0,.229.335c.107.168.405.488.405.687s-.353.495-.405.687a1.158,1.158,0,0,0,0,.387,1.978,1.978,0,0,0,.224.619.394.394,0,0,0,.04.05c.1.106.435.132.546.229a3.229,3.229,0,0,1,.334.564c.08.122.21.4.334.476.145.087.512.028.669.088a2.809,2.809,0,0,1,.775.529c.059.063.1.262.176.3.1.05.342-.062.458-.07a1.87,1.87,0,0,1,.423,0,1,1,0,0,1,.352.176,4.889,4.889,0,0,1,.282.529,1.425,1.425,0,0,0,.352.37c.188.092.635.011.828.088.175.07.411.463.6.458.109,0,.232-.245.335-.282a3.517,3.517,0,0,1,.493.009c.148-.022.42-.162.568-.185a1.493,1.493,0,0,1,.673,0c.08.041.137.241.211.291s.313.016.37.093,0,.278-.014.37a1.838,1.838,0,0,1-.185.581,1.539,1.539,0,0,1-.462.344c-.126.059-.456.023-.542.132a.775.775,0,0,0,0,.555.7.7,0,0,0,.291.3c.147.052.475-.136.621-.079.12.047.23.314.33.4.148.122.535.237.673.37a2.865,2.865,0,0,1,.489.806c.059.154.015.521.119.647a1.125,1.125,0,0,0,.713.278.735.735,0,0,0,.423-.264c.061-.11-.036-.381,0-.5a1.352,1.352,0,0,1,.211-.33,1.084,1.084,0,0,1,.264-.264c.106-.047.35,0,.463-.026a.682.682,0,0,0,.3-.132.748.748,0,0,0,.066-.423.968.968,0,0,0-.2-.423c-.067-.064-.279-.078-.343-.145s-.062-.217-.106-.277c-.064-.089-.3-.178-.343-.278-.037-.078-.061-.283,0-.343.084-.084.361-.031.476,0s.334.23.462.264c.092.024.295-.036.383,0s.172.245.264.264c.11.024.313-.186.422-.158.146.036.271.366.4.449s.494.086.608.2c.094.093.064.425.171.5a.594.594,0,0,0,.436,0c.081-.039.143-.241.225-.278.109-.048.357.035.476.027a1.322,1.322,0,0,0,.528-.106c.061-.044.081-.226.146-.264a.258.258,0,0,1,.211,0c.084.068.041.328.092.423s.272.189.291.291a.525.525,0,0,1-.172.383c-.1.064-.369-.053-.475,0-.123.061-.355.3-.331.436s.316.227.436.277c.084.035.274.041.356.079a1.036,1.036,0,0,1,.357.264c.091.148.012.549.119.687a.734.734,0,0,0,.409.185,1.672,1.672,0,0,0,.462-.158c.143-.053.482-.1.568-.225.065-.1-.026-.35,0-.462.019-.079.067-.271.146-.291.105-.027.272.182.356.251a2.26,2.26,0,0,1,.278.264c.055.071.094.271.171.317.105.062.385-.065.489,0,.075.046.108.243.158.317s.123.221.2.225.162-.195.238-.225a.752.752,0,0,1,.356,0c.116.033.29.242.41.251s.289-.185.4-.172a.312.312,0,0,1,.171.132c.079.16-.068.548,0,.713.083.2.525.409.608.608.035.085-.057.3,0,.37s.275.094.37.092.255-.1.344-.092a.788.788,0,0,1,.317.132,1.249,1.249,0,0,1,.238.317c.073.142.136.46.2.607a1.916,1.916,0,0,1,.158.3,2.422,2.422,0,0,1-.1.677,2.381,2.381,0,0,0,.441.15,5.08,5.08,0,0,0,.775-.088,6.078,6.078,0,0,0,.652-.053,1.092,1.092,0,0,0,.37-.159c.146-.135.251-.545.37-.7a5.651,5.651,0,0,1,.528-.511c.1-.1.283-.358.423-.387a.918.918,0,0,1,.528.176,1.508,1.508,0,0,1,.3.44c.062.133.052.462.158.564s.466.045.582.141c.082.068.1.316.176.387.131.119.547.1.669.229a.715.715,0,0,1,.106.353c.006.135-.123.395-.106.528a1.6,1.6,0,0,0,.176.37c.046.089.1.309.194.353a.666.666,0,0,0,.511-.088c.069-.057.05-.284.124-.334a.477.477,0,0,1,.37,0c.083.048.11.286.193.334a.616.616,0,0,0,.422,0,.607.607,0,0,0,.211-.282,1.171,1.171,0,0,0-.017-.405,2.063,2.063,0,0,1-.106-.334.959.959,0,0,1,.176-.405,1.3,1.3,0,0,1,.441-.3c.1-.034.333.009.44-.017a1.138,1.138,0,0,0,.334-.158c.085-.07.173-.29.264-.353a.771.771,0,0,1,.317-.087c.109,0,.314.105.423.105a.829.829,0,0,0,.422-.105c.077-.069.057-.329.142-.388a.637.637,0,0,1,.528,0c.082.06.053.314.123.388a1.977,1.977,0,0,0,.634.229c.052.018.369-.083.493-.07.143.015.392.276.529.229.1-.036.171-.284.211-.387a1.294,1.294,0,0,0,.123-.529c-.021-.1-.292-.228-.247-.317.061-.118.4.027.528.017a1.884,1.884,0,0,0,.617-.105c.1-.054.183-.289.282-.335a1.075,1.075,0,0,1,.74,0c.076.047.078.28.159.317a.864.864,0,0,0,.616-.158c.078-.059.11-.286.194-.335a1.187,1.187,0,0,1,.652,0,5.28,5.28,0,0,1,.546.3,2.988,2.988,0,0,0,.528.176,5.708,5.708,0,0,0,.687,0c.092,0,.289-.045.37,0,.145.081.271.419.352.564a3.082,3.082,0,0,0,.265.546,1.3,1.3,0,0,0,.475.247c.171.042.532-.032.7,0a4.369,4.369,0,0,1,.6.229,5.547,5.547,0,0,0,.7.3,3.625,3.625,0,0,0,.845,0c.1-.011.3-.129.387-.088a.683.683,0,0,1,.216.31,3.936,3.936,0,0,1,.506-.028,6.835,6.835,0,0,0,.828.123.588.588,0,0,0,.334-.176.964.964,0,0,0-.07-.6,1.133,1.133,0,0,0-.282-.334,3.131,3.131,0,0,0-.511-.211,2.092,2.092,0,0,1-.494-.211,1.212,1.212,0,0,1-.229-.458c-.051-.214.033-.663,0-.88a4.571,4.571,0,0,0-.282-.9,6.356,6.356,0,0,1-.405-.652,2.194,2.194,0,0,1,.018-.757,3.36,3.36,0,0,1,.335-.828c.1-.161.414-.4.51-.563.132-.225.224-.751.335-.987s.436-.646.546-.881c.13-.277.25-.889.388-1.162a9.631,9.631,0,0,1,.916-1.3c.089-.108.294-.3.387-.405a5,5,0,0,0,.564-.687,5.5,5.5,0,0,0,.211-.722c.034-.111.109-.329.141-.44.044-.153.048-.5.158-.617.172-.178.71-.224.951-.282a4.571,4.571,0,0,0,.67-.123.868.868,0,0,0,.317-.264,3.2,3.2,0,0,0,.07-1.022,4.4,4.4,0,0,0,0-.616,4.776,4.776,0,0,0-.317-1.022c-.067-.139-.306-.362-.352-.51a.829.829,0,0,1,0-.475c.055-.1.331-.147.388-.247a.615.615,0,0,0,.018-.458c-.131-.2-.729-.2-.9-.37s-.183-.689-.334-.863-.667-.228-.766-.423c-.072-.142.142-.487.079-.634-.11-.256-.661-.515-.9-.66-.138-.084-.487-.158-.581-.291a1.547,1.547,0,0,1-.08-.634c-.006-.152.1-.474.027-.608s-.445-.187-.529-.317c-.093-.145,0-.535-.079-.687a.672.672,0,0,0-.218-.2c-.2-.133-.453-.262-.522-.407a2.539,2.539,0,0,1,0-1.268c.054-.212.411-.548.423-.766s-.323-.6-.344-.819.2-.649.185-.872a2.178,2.178,0,0,0-.343-.978,2.837,2.837,0,0,0-1.215-.608c-.372-.071-1.183.329-1.506.132-.134-.082-.211-.427-.238-.581a2.48,2.48,0,0,1,.053-.9c.056-.167.348-.412.4-.581s-.055-.5-.026-.66a2.221,2.221,0,0,1,.344-.845,3.338,3.338,0,0,1,1.057-.555,7.091,7.091,0,0,0,.872-.185,1.669,1.669,0,0,0,.555-.608,2.946,2.946,0,0,0,0-.9c-.013-.279-.092-.831-.105-1.11a7.136,7.136,0,0,0,0-1.057c-.062-.24-.4-.635-.476-.872-.068-.216.01-.7-.105-.9-.157-.265-.837-.455-1-.713-.131-.2-.043-.754-.185-.951s-.688-.291-.845-.476a4.221,4.221,0,0,1-.423-1.136c-.125-.385-.329-1.169-.44-1.559-.039-.137-.138-.405-.158-.546a1.584,1.584,0,0,1,0-.458,2.1,2.1,0,0,1,.182-.446,1.01,1.01,0,0,1,.188-.259,1.668,1.668,0,0,1,.458-.158,5.912,5.912,0,0,1,.581-.177,7.9,7.9,0,0,0,.9-.053c.1-.033.237-.2.335-.229a2.113,2.113,0,0,1,.722,0c.189.031.532.249.722.247a1.173,1.173,0,0,0,.529-.194c.189-.151.343-.655.528-.81a1,1,0,0,1,.37-.159c.227-.035.73.223.916.088.1-.071.106-.354.105-.475a1.39,1.39,0,0,0-.105-.458c-.028-.057-.127-.139-.159-.194-.064-.114-.223-.371-.176-.493.063-.164.446-.292.617-.335s.553.064.722,0a1.282,1.282,0,0,0,.317-.282,3.8,3.8,0,0,0,.353-.44c.065-.1.141-.341.211-.441a1.662,1.662,0,0,1,.3-.3c.119-.084.411-.159.528-.247.074-.056.16-.247.246-.281a.671.671,0,0,1,.528.053c.125.125.091.528.071.7-.013.107-.187.308-.141.405.057.118.365.152.493.176a1.677,1.677,0,0,0,.634.018,1.5,1.5,0,0,0,.494-.4,1.216,1.216,0,0,0,.229-.494,1.244,1.244,0,0,0-.247-.669,1.736,1.736,0,0,0-.651-.282c-.133-.034-.426.014-.546-.053a.8.8,0,0,1-.229-.3,1.813,1.813,0,0,1-.176-.951c.067-.2.53-.359.617-.546a1.928,1.928,0,0,0,.017-.775c-.028-.24-.2-.7-.247-.934a7.574,7.574,0,0,1-.14-1,2.669,2.669,0,0,1,.07-.687,2.232,2.232,0,0,1,.405-.652,4.975,4.975,0,0,1,.7-.423,2.467,2.467,0,0,0,.6-.388,2.3,2.3,0,0,0,.177-.74,3.942,3.942,0,0,1,.053-.581,2.068,2.068,0,0,1,.282-.387c.076-.1.274-.256.317-.37a2.1,2.1,0,0,0,0-.564c0-.193,0-.582-.018-.775-.017-.152-.114-.446-.124-.6a5.9,5.9,0,0,1,.088-1.1c.017-.088.078-.258.105-.344a2.652,2.652,0,0,0,.159-.462c.008-.131-.1-.384-.106-.515,0-.037-.007-.085-.012-.138-.017-.19-.035-.449.065-.535s.437.062.581.04a1.14,1.14,0,0,0,.4-.159.732.732,0,0,0,.145-.2,5.31,5.31,0,0,0,.159-.555,4.258,4.258,0,0,1,.159-.452,1.158,1.158,0,0,1,.211-.327,1.11,1.11,0,0,1,.423-.145,2.341,2.341,0,0,1,.462.053c.177.029.562.259.7.146.039-.031-.032-.16,0-.2.1-.12.463-.1.621-.106.1,0,.3.089.4.053a1.055,1.055,0,0,0,.41-.489,5.879,5.879,0,0,0,0-.819,3.2,3.2,0,0,1,.2-.621,2.846,2.846,0,0,1,.357-.581c.083-.088.323-.181.4-.278a2.477,2.477,0,0,0,.159-.436,2.385,2.385,0,0,1,.277-.581,1.1,1.1,0,0,1,.529-.277.668.668,0,0,1,.247.057A3.514,3.514,0,0,0,3729.658,2322.784Zm-37.482,18.983c.034-.135.322-.271.405-.383.11-.146.237-.5.334-.652.063-.1.208-.28.282-.37a3.665,3.665,0,0,0,.352-.405,6.038,6.038,0,0,0,.168-.617c.044-.123.167-.356.22-.476.064-.144.2-.43.247-.581a2.987,2.987,0,0,0,.074-.32,1.687,1.687,0,0,0,.031-.243c.006-.2-.092-.607-.105-.811-.009-.145-.076-.458,0-.581.052-.083.26-.21.353-.176s.113.248.141.334a2.925,2.925,0,0,1,.141.634c0,.157-.152.462-.124.617.014.072.138.177.159.247,0,.015.008.031.011.049a1.935,1.935,0,0,1-.011.549c-.027.149-.209.417-.211.568a2.224,2.224,0,0,0,.159.472,5.81,5.81,0,0,0,.247.951c.052.092.268.2.3.3.04.124-.077.382-.088.511s.084.391,0,.475c-.053.053-.229-.025-.3,0-.106.038-.247.243-.353.282a2.226,2.226,0,0,1-.74,0,2.978,2.978,0,0,0-.792-.264c-.092.006-.244.138-.334.159-.116.026-.379.07-.476,0A.353.353,0,0,1,3692.176,2341.766Zm-3.593,4.091c.051-.108.289-.213.37-.3.058-.061.125-.226.194-.273.1-.068.37-.052.475-.114.134-.079.28-.4.423-.458a1.785,1.785,0,0,1,.793,0c.065.014.217.045.247.106a.59.59,0,0,1-.141.511c-.119.09-.47-.076-.6,0s-.183.432-.3.528-.475.084-.581.193c-.074.076-.062.319-.123.406a.99.99,0,0,1-.37.264c-.121.039-.435.1-.511,0-.063-.085.107-.3.123-.405S3688.534,2345.961,3688.583,2345.858Z" transform="translate(0 0)" fill="inherit"/>
    <path id="Path_2141" data-name="Path 2141" d="M4333.965,2463.393c.109.062.384-.029.5.013s.254.27.37.291a.689.689,0,0,0,.41-.132c.084-.073.1-.338.2-.4a.49.49,0,0,1,.4,0c.118.089.085.44.158.568.047.083.229.189.264.278.049.123-.061.411,0,.528a.918.918,0,0,0,.423.291,1.131,1.131,0,0,0,.555,0,1.087,1.087,0,0,0,.41-.383c.065-.125-.026-.463.079-.555s.385.064.489,0c.075-.047.124-.236.158-.317.023-.055.03-.191.08-.224a.336.336,0,0,1,.3.013c.061.061-.037.274.013.344.075.1.35.163.476.185a1.532,1.532,0,0,0,.449-.013.8.8,0,0,0,.291-.132c.039-.039.122-.152.092-.2-.053-.084-.3.007-.4,0s-.385.027-.449-.066a.382.382,0,0,1,.079-.357c.1-.08.415.077.5-.013a.237.237,0,0,0,0-.211c-.058-.086-.283-.131-.383-.159s-.3.015-.356-.053.061-.327,0-.409c-.1-.142-.549-.086-.674-.211s-.085-.484-.185-.608c-.069-.085-.282-.253-.383-.211s-.055.325-.119.409-.245.232-.343.211c-.067-.014-.131-.161-.159-.225-.039-.09-.044-.292-.079-.383a.7.7,0,0,0-.171-.291.6.6,0,0,0-.37,0,.758.758,0,0,0-.317.264c-.06.121.042.424-.026.542-.043.074-.249.11-.291.185s.042.287,0,.37a.95.95,0,0,1-.423.317c-.168.058-.551-.061-.713.013-.045.021-.086.129-.133.146a.631.631,0,0,1-.383-.066c-.064-.039-.111-.223-.185-.238s-.188.078-.225.132a.935.935,0,0,0-.079.528A.443.443,0,0,0,4333.965,2463.393Z" transform="translate(-640.341 -159.46)" fill="inherit"/>
    <path id="Path_2142" data-name="Path 2142" d="M4321.777,2528.818c.087.042.177.229.238.3s.164.251.251.291c.142.064.468-.028.621,0a.706.706,0,0,1,.317.119c.049.056.008.244.066.291s.248-.011.33,0c.109.015.356.031.422.119s.014.309,0,.41c-.01.075-.019.245-.079.291-.094.072-.39-.083-.475,0s.044.372-.014.476-.362.166-.422.277a.778.778,0,0,0,0,.489,1.183,1.183,0,0,0,.515.515.989.989,0,0,0,.475-.08,1.991,1.991,0,0,0,.476-.3c.1-.09.3-.292.317-.422s-.169-.329-.172-.449c0-.17.215-.477.211-.647s-.217-.436-.225-.594a1.068,1.068,0,0,1,.145-.529,1.181,1.181,0,0,1,.489-.264c.048-.012.163-.035.2,0s.015.122,0,.159c-.034.082-.217.169-.251.251a.9.9,0,0,0,0,.515c.035.08.166.227.251.238a.857.857,0,0,0,.542-.291,1.977,1.977,0,0,0,.132-.528c.033-.113.055-.374.146-.449.056-.047.228,0,.291-.04.1-.061.168-.318.264-.383s.333-.013.4-.092-.05-.265,0-.331.194-.035.251-.066a1.546,1.546,0,0,0,.41-.383c.045-.07.064-.244.105-.317.055-.1.243-.242.291-.343.063-.134-.015-.5.105-.582s.445.1.595.093c.115-.01.376-.047.436-.146a.588.588,0,0,0-.08-.5c-.088-.093-.421-.006-.5-.105a.379.379,0,0,1,0-.331.5.5,0,0,1,.357-.105c.14.023.33.381.462.33.088-.034.086-.275.079-.37a.942.942,0,0,0-.159-.423c-.053-.059-.242-.075-.284-.142-.063-.1.05-.373-.006-.479a.749.749,0,0,0-.344-.237,1.583,1.583,0,0,0-.991,0c-.107.071-.135.363-.2.475a.835.835,0,0,1-.18.247,1.17,1.17,0,0,1-.489.083c-.106,0-.313-.126-.414-.092-.116.039-.216.3-.317.37a1.111,1.111,0,0,1-.449.145c-.138,0-.391-.164-.528-.158a.913.913,0,0,0-.41.158c-.065.055-.159.264-.2.278a2.851,2.851,0,0,0-.528,0c-.074.027-.174.163-.238.211a5.278,5.278,0,0,0-.541.4,1.436,1.436,0,0,1-.146.515.479.479,0,0,1-.265.132c-.1,0-.252-.142-.343-.172-.13-.042-.418-.153-.542-.092-.044.021-.081.124-.093.172a.68.68,0,0,0,0,.33c.04.087.267.158.291.251a.44.44,0,0,1-.119.317c-.08.066-.342-.013-.409.066s.046.309,0,.4-.238.128-.291.2c-.087.114-.269.425-.186.542C4321.428,2528.9,4321.686,2528.773,4321.777,2528.818Z" transform="translate(-628.536 -219.152)" fill="inherit"/>
    <path id="Path_2143" data-name="Path 2143" d="M4476.623,2675.382a.6.6,0,0,0-.079.423.579.579,0,0,0,.237.225.907.907,0,0,0,.383.066.582.582,0,0,0,.3-.132.651.651,0,0,0,.08-.515c-.074-.124-.4-.2-.542-.2A.661.661,0,0,0,4476.623,2675.382Z" transform="translate(-775.521 -362.44)" fill="inherit"/>
    <path id="Path_2144" data-name="Path 2144" d="M4535.225,2604.924a.435.435,0,0,0,.119-.211.741.741,0,0,0,0-.436c-.063-.1-.31-.161-.422-.185-.071-.015-.232-.043-.291,0a.643.643,0,0,0-.132.41.691.691,0,0,0,.158.423A.734.734,0,0,0,4535.225,2604.924Z" transform="translate(-830.424 -295.02)" fill="inherit"/>
    <path id="Path_2145" data-name="Path 2145" d="M4433.044,2459.92c.036.075.046.259.105.317a.6.6,0,0,0,.4.119c.087-.019.19-.189.264-.238.1-.064.373-.093.423-.2a.5.5,0,0,0-.092-.37.889.889,0,0,0-.383-.185c-.093-.021-.29.023-.383,0-.062-.015-.161-.125-.225-.119a.424.424,0,0,0-.237.185.525.525,0,0,0,0,.278A2.026,2.026,0,0,0,4433.044,2459.92Z" transform="translate(-734.188 -157.85)" fill="inherit"/>
    <path id="Path_2146" data-name="Path 2146" d="M4438.77,2405.179c.124-.081.305-.41.238-.542-.076-.151-.5-.183-.661-.145a.745.745,0,0,0-.37.291c-.043.089-.07.326,0,.4A.888.888,0,0,0,4438.77,2405.179Z" transform="translate(-738.963 -105.975)" fill="inherit"/>
  </g>
</svg>
