<svg xmlns="http://www.w3.org/2000/svg"  viewBox="0 0 44.087 35.762">
  <g id="Group_4025" data-name="Group 4025" transform="translate(-7157 545.651)">
    <path id="Path_1663" data-name="Path 1663" d="M324.316,350.538l.165-.091.006.079.1.078.056-.255-.006-.08.159-.183.171-.012.006.085.159-.011.171-.012.16-.1-.006-.085-.086-.08-.006-.079.08-.006-.007-.092-.08.006-.176.012-.164.1-.063.084-.079.091-.33.023-.006-.085-.1-.072-.165.091-.08-.074-.007-.092-.085.006-.08.006-.005-.074-.005-.074-.092-.084-.1-.074-.062.176-.074.08-.005-.074-.087-.085-.1.007-.006-.08-.074.005.012.171.005.074-.08.08-.158.1.006.079-.177.013-.079.091.006.085-.153.1.006.085.153-.1.085-.006.085-.006.1.079.17.069.08-.086.006.08.086.159-.068.091.086.161-.068.1.006.08.251-.018.085.08.25-.1.063-.257.079-.091Z" transform="translate(6863.829 -870.473)" fill="inherit"/>
    <path id="Path_1664" data-name="Path 1664" d="M321.146,134.807l.17.069.006.09.183.073.164.063.08-.08-.091-.079.073-.177-.006-.085-.006-.085-.1-.147-.159.011-.183-.068-.09.006.006.08-.063.158Z" transform="translate(6865.32 -677.447)" fill="inherit"/>
    <path id="Path_1665" data-name="Path 1665" d="M78.207,122.825l-.086-.159-.182-.154-.079.006-.08.08-.171.1-.245.017-.159.011-.085.006-.263-.074-.005-.074-.1-.17-.074.005-.08.006-.17.189-.08.08-.153.011-.177-.148-.183-.251-.012-.164,0-.069-.1-.079-.091-.079-.006-.079-.183-.165-.023-.33.068-.256-.091-.079-.166-.074-.018-.256-.012-.166-.08.086.006.085-.14.353-.159.262-.245.1-.244.1-.16.092-.273-.319-.018-.25.17-.093.234-.1.091.073.1.074.068-.086-.012-.176-.006-.085.08-.172.068-.159-.091-.166-.171-.061-.006-.092-.091.006-.079.1-.166.012-.074.005-.085.079-.324.2-.164.012-.1-.239-.185-.257-.091-.073.08-.086.091-.006-.018-.25-.11-.25L72.9,119l.08-.177.08-.085.092-.006-.006-.092-.1-.142-.006-.085-.018-.25-.006-.092-.177.013-.011-.16-.085-.165-.093-.079-.091-.165-.092.006-.006-.08-.085-.073-.08.085-.1-.244L72,116.879l-.1-.313-.1-.165-.268-.153L71.512,116l-.091-.074-.172-.164-.011-.154-.1-.176-.086-.074-.1-.079-.108-.319-.08-.074-.177-.073-.006-.085-.165-.074-.091-.079-.116-.416-.09.006L70.112,114l-.1-.158.006.079-.092-.159-.013-.177-.084-.068-.093-.17-.1-.137-.171.012-.006-.09-.006-.08.171-.012.084-.1-.024-.337-.017-.245-.012-.171.08-.006.061-.257-.024-.342-.188-.4.069-.172.147-.182.073-.177-.1-.239-.018-.25-.092-.16-.166-.085.069-.171-.08.006-.1-.073-.092.006-.067.17-.074.005-.092-.159-.1-.085-.074.005-.09-.062-.011-.159-.085.006-.176.013-.068.084-.092.006-.074.005-.092-.17-.1-.067.091-.092-.007-.1-.1.007-.336.024-.312.2-.166.086-.245.017-.176.012.092.091.016.227-.079.1.091.073.1.079.086.172.171-.012.086.075-.159.176-.063.257.08-.006.1.084-.159.171-.164.012-.182-.147.079-.1-.1-.165-.086-.075-.073.086-.073.177.006.091.011.159.006.085-.068.176-.25.018-.177.013.006.085-.063.325.006.085-.141.181.006.08.006.09-.1-.084-.08-.075-.146.268-.012-.176-.012-.166.068-.09-.08-.08-.01-.148-.085.006-.092.006-.08-.085-.074.245.09-.006.012.171-.09.006-.006-.085-.08.006.006.085.006.085.189.244-.171.012-.085-.08-.006-.09-.085.1-.074.165-.079.006-.141.359-.085.087-.075.085.086.08.1.079-.159.183-.085.087-.069,0,.171.159.011.153.012.166.006.09-.085.08-.148.1-.25.1-.068.091-.28-.152-.166-.08-.166.012-.176-.062-.006-.09-.012-.166,0-.063.25-.109-.006-.08.166-.012.068-.1-.165-.069-.086-.08-.091-.079-.171.012-.091-.165-.08.006-.25.1-.165.012.006.085-.177.013.183.073.085.08.091.074.006.09.012.171.09.057.006.08.074-.005-.062.181.005.074.018.262.171-.012.159-.011.08.074.006.085.1.085.005.074.092.086-.08.085-.085.173.194.158.086.08-.16.1-.1-.079-.147.1-.177.013.085-.178.08-.006-.189-.158-.068.091-.171.012-.177-.073.006.085-.073.177-.068.256-.154.085-.086.087.012.171-.067.17-.079.1-.068.1.079.069.268.153.165.074.006.08.183.159.109.245.006.079-.1-.073-.085.006-.08.085-.073-.074-.178.092-.244-.062-.177-.08-.171.012-.006-.079-.08.006-.256.018-.251-.063.011.159-.084.1.006.079.182.079.08.074.262.067-.006-.085.085-.006.182.142.1.329-.164.1-.075.085-.176-.067-.171.012-.074.005-.188-.158-.086-.08-.085-.08-.073.177-.091-.079-.251-.068-.011-.154-.085.006-.006-.085-.006-.079-.092-.086-.006-.079-.1-.164-.086-.075-.006-.085.074-.091-.012-.166-.087-.085-.006-.08-.084-.068-.08-.085-.262.019-.085.006-.074.005-.1-.085.1-.007-.006-.079-.1.007-.074.005-.006-.085-.171.012-.08-.08-.113-.159.091-.16-.1.007-.08-.08.074-.005.1-.007.074-.005.182.152.079.069.1-.007-.005-.074.165.063.171.069.1-.007.074-.005.085.08.172-.012.171-.012.251.068.079-.091.079-.091.085.08.006.085.171-.012.159-.011.171-.012.159-.183.08-.006.165-.092.074-.08-.006-.079.085-.092.074-.005-.006-.085-.006-.085.085-.006.055-.342-.091-.165-.012-.166-.085.006-.012-.164-.068.084-.1-.073-.012-.171-.159.011-.09.006-.006-.092-.256-.056-.166.086-.079-.069-.092-.084-.177-.073.006.085-.085-.08-.181-.131-.245.017-.274-.152-.24-.074-.176.1-.581.041-.074.005-.108-.083-.159.1-.006-.09-.08-.075-.08.086-.1-.159-.08.006-.1-.164-.069,0-.073.177-.085.006-.1-.165-.079.006.018.256-.172.012-.091-.079-.136.01.044-.26-.015.012-.171.012-.085.006.08-.085-.012-.171-.091-.074.085-.006.079-.091-.006-.085-.006-.085-.085.006-.006-.085-.171.012-.16.1-.012-.171-.171.012-.091-.079-.159.183.006.085-.073.091-.1-.165-.006-.085.079-.091-.006-.08-.012-.171-.085.006-.16.183.006.08-.165.1.018.256.006.085-.091-.079-.006-.085-.085-.08-.006-.085-.006-.085-.006-.08-.085.006.079-.091-.091-.079-.244.189-.091-.079-.074.091.006.08.172.074-.245.1-.091-.079-.079.091.012.171-.085.006.092.079-.159.178-.1-.16-.073.091.006.08.006.085-.081.092-.091-.079-.085.006.006.085-.091-.079-.085.006-.073.091.006.079-.085.006-.079.1.012.165.091.074.012.176-.092-.084-.091-.079-.085.006-.068.181-.1-.169-.074.091.012.171.092.165.006.079-.086-.073-.1-.165.012.171-.074.17-.091-.079-.011-.159-.08.086.018.25-.079.006-.092.006-.073.086.086.086-.073.091-.081.085.006.085.092.074-.08.1-.256.018-.006-.09-.079.1.006.08.012.171.006.079-.067.176-.012-.171-.011-.159-.006-.09-.079.1-.085.006-.085.006-.08.086.085-.006.091.073.006.092-.092-.085-.079.1-.092-.086-.085.006.012.171-.074.1.245-.109.092.086.006.079-.171.012-.085.006-.074.091.006.085.166-.012.012.166-.085.006-.08.006-.079.091-.079.091L51.9,116.5l-.079.091.006.085.006.08-.079.006-.081.085.093.085-.081.091-.171.012.091.079.091.079.081-.092.012.165-.172.012-.085.006.006.085.091.074-.079.091-.085.006-.079.1-.08.086.092.084.005.074-.079.091-.085-.08-.005-.074-.08.166.006.085.092-.006.012.171-.085.092-.079.006.012.166-.079.091-.085.006.006.08.085-.006.006.09.006.085-.08.086-.171-.069-.006-.085-.092-.084-.079.1-.079.091-.09.006-.08.006.012.166-.086.085-.062.176-.085.006-.085.006.006.092.011.159-.091-.074-.08.086-.079.1-.092-.084-.073.1-.086.087-.079.006.012.171-.091-.079-.085.006.092.079.006.085-.085.006-.091-.079-.074.091-.085.006-.09.006-.08.006.006.085.092.159-.08.006-.092.006-.177-.073-.074.005-.079.091.091.081.006.085-.085.006-.171.012-.078.177-.012-.171-.08.006-.079.091-.085-.08-.092.006-.079.006.006.085.006.085.085.073.092-.006.006.085-.092.006-.073.091-.177.013.006.08.1.084.006.08-.177-.068.006.08.006.085.091.159.177-.013.007.092-.085.006-.177-.08.007.092.006.079.091.16.1.079-.086.092-.085-.08-.079.092.006.085.171.074-.079.006-.085.006.006.085.091.079.085.075.177-.013.165-.092-.159.178-.08.085-.085.1.189.158-.085.006-.092.006-.073.085-.091-.073-.08.006-.079.166.006.09-.069.171.087.085.153-.268.165-.012.006.08.012.176-.079.006.012.166-.08.085-.006-.079-.075.085.006.085.012.171.006.087.177.153.262.067-.165.178.183.078.073-.1.012.171.256-.018.171-.012.165-.092.006.08.154-.092.085-.1.067-.171.086-.092.25-.1-.006-.079.074-.092.171-.012.006.087.091.073.165-.091-.012-.172.152-.182-.012-.171L50,123.24l.158-.188.08-.086.079-.1.085-.006.012.171-.079.091-.085.006.012.164.085-.006.257.153-.141.182.028,0-.034,0,.012.172.006.079.012.171.006.085.006.08.006.09.006.08.085-.006.012.171.068-.091.1.079-.08.177.006.079.006.085.006.08.012.176.006.08.1.079-.086.092.012.166.1.079.08-.006.018.256.181.067.006.085.006.085-.085.006.006.085-.085.087.006.085.006.085.1.073.006.092.091.073.006.085.012.171-.079.091.091.074.08-.086.091.074.245-.1.091.074.079-.006.092-.006-.006-.08-.012-.171-.012-.171.073-.085.085-.006.085-.006.079-.1-.085.006.08-.085.165-.1.172.074.006.079.085-.006.171-.012.085-.006-.012-.165-.006-.085.148-.263-.012-.164.079-.092.079-.1-.006-.079-.085.006.073-.178.08-.085-.091-.079-.006-.085-.006-.08.079-.1-.006-.085.073-.172-.006-.079-.006-.092-.1-.158.165-.1-.262-.062.079-.1.177.078.085-.006.152-.182-.006-.085-.006-.086.085-.006.085-.006.091.079.075-.177.073-.085.164-.1-.177-.073-.006-.085.086-.092.079-.006.154-.257-.092-.084-.012-.166-.159.092-.006-.08-.006-.09-.1-.074-.085-.073-.006-.085-.006-.085-.166.1-.091-.079-.092-.086-.012-.164-.091-.074L53.3,121.9l-.085-.08.079-.006.079-.091-.012-.171-.006-.085-.012-.166.085-.006-.091-.073.079-.1-.012-.164.079-.091-.012-.171-.256.018-.012-.166.079-.091.177.073.079-.091.087-.006.073-.085.092-.006.158-.1-.091-.079.159-.184-.091-.079.171-.012.074-.17.086.08.165-.1-.086-.08.074-.091.085-.006.165-.1-.012-.171-.006-.08-.006-.079.073-.177.079-.006.073-.177.079-.091-.091-.074-.006-.085-.012-.171-.012-.171.08-.086-.006-.085-.006-.085.079-.091.172-.012-.012-.171-.012-.164-.006-.08.079-.006.091.074.159-.183.092.084.085-.006.085-.006.086.075.074-.086-.012-.176-.091-.074-.091-.159-.006-.085-.012-.171-.012-.171.073-.086-.085-.08-.006-.085-.091-.079-.006-.085-.006-.08-.006-.085h.005l.006.085.006.08.006.085.091.079.006.085.086.08-.074.086.012.171.012.171.006.085.092.159.091.074.012.176.085-.006.091.074.171-.012.006.09.084.068.006.085.006.085.012.171.006.085.091.074.006.085-.085.006-.079.006-.085.006.006.085-.153.268.006.08-.074.17-.079.1-.154.182.006.079.006.08-.164.1-.08.086-.079.091.006.085.012.171-.159.091-.092-.073-.085.006.012.164-.159.184.012.171.006.079.091.079.012.166-.079.1.006.08.177.073.006.079.013.177.017.245.012.171-.165.1.012.171.006.085.188.233.251-.018.092.085.171-.012.085-.006.1.165.011.159.092.084.086.075.256-.018.085-.006.073-.177.073-.086.1.165.079-.1.08-.086.166-.091.244-.1.085-.006.085-.006-.006-.085-.006-.092.08-.085.1.165.074-.1.165-.091.074-.172.091.074.176-.012.074-.005.08-.086.084-.2.013.184.164-.012.165-.1.069,0,.006.085-.057.171.006.085.159-.011.087.091.181.067.068-.084.166-.012.1-.007.08.074.085-.006.012.166-.085.006-.176.012-.166.012-.25.018.006.085-.08.006-.006-.085-.084.092.006.079.006.085.006.085-.069,0-.1-.165-.079.091.006.085.006.085.012.166h0l-.074.005-.341.024-.08.006-.091-.079-.079.006-.165.1-.006-.085-.171.012-.074.005-.08.006-.091.006-.079.091-.08.006-.164.012-.092.006-.079.006-.092.006.006.079.006.092-.074.005-.085.006-.085.006-.079.091.006.079.006.085.006.085.171-.012,0,.069.006.085-.085.006.006.079.018.262.182.147.074-.005-.005-.074.086-.092.079-.006.1.079-.08.172.012.164,0,.062-.089.029.006.085.006.085.006.08.012.164.006.085.012.171-.079.091-.075.086-.085.006-.182-.154-.086-.073-.013-.177-.182-.152-.079.006-.086-.075-.006-.085-.165.012-.164.1-.086.087-.079.006-.062.17.013.177-.074.17-.081.161-.049.513.018.25.006.085.006.08.1.25.018.256.177-.012.005.074.08.08.079-.006.1.079.042,0-.028.036-.166.012-.1.007-.022,0-.029-.066-.075-.093-.124.033-.085.006.006.079.085-.006-.074.172-.079.091-.165.012-.006-.085-.006-.08-.006-.085-.244.184.006.085-.14.13.152.041.006.079-.079.1-.08.006.006.085.006.079.006.085-.171.012-.085.006-.006-.085-.085.006-.245.1-.1-.079-.006-.079-.006-.085-.006-.092-.086-.073-.006-.085-.256.018-.079.091-.085.006-.171-.074-.079.091-.085.006.006.079-.085.006-.08.1-.092-.086-.073.1-.079.091-.08.085-.085.006-.079.091-.085.006.006.085-.08.006-.171.012-.085.006-.165.1-.073.178-.073.085.085.074.006.092-.023-.01-.126.009-.1-.113v.073l-.014-.191-.256.018-.012-.172-.012-.171-.166.012-.09.006-.006-.085-.086-.073-.006-.085-.09.006-.074.091-.09.006-.08.006-.165.091-.165.1-.085-.08.006.085-.085.006-.171.012-.085.006-.178-.073.092-.006-.006-.079.08-.006-.006-.085-.006-.092-.08.006-.092.007-.073.1-.1-.165-.08.006-.09.006-.006-.085-.08.006-.09.006-.006-.085.084-.092-.1-.074-.091-.079-.026-.021.006-.007h0l.043-.047.085-.006-.091-.079-.1-.079.085-.085.085-.006-.091-.079-.006-.08.085-.006-.006-.09-.006-.08.087-.006.073-.091.092-.006-.006-.085.159-.1.073-.172-.091-.079.079-.091.085-.006.006.085.085-.006.074-.091-.006-.085-.006-.085-.086-.073-.085.006-.085.006-.006-.085-.085.006-.006-.085.079-.091.085-.006-.091-.074-.006-.09-.085.006-.079.006.006.09-.177.013-.079.006-.081.086.093.079.006.085-.093-.079-.079.091-.006-.085-.006-.085-.091.006-.068.091.006.085-.085.006-.1-.079-.079.006-.006-.085-.085.006.006.085-.079.091.006.085.012.164.006.085.006.085.006.085.006.08.006.085-.079.091.091.079.085-.006.006.085.091.074.006.09.006.08.012.165.005.074-.022,0,.012.171.006.085.085.075.006.085-.165.1-.079.006.006.085.079-.006.006.079.006.092.177.073-.073.085.085.08-.171.012-.164.012.006.085.012.171.006.087-.08.085.006.079-.1-.152-.006-.087-.006-.085-.085.006.006.085-.08.006-.006-.085.074-.091-.178-.073-.164.012-.171.012-.085.006.006.085-.079.091.006.085.085-.006.006.087.091.073-.011.012-.085-.073-.085.085-.08.006-.024-.336-.085.006-.085.006-.073.1-.165.092-.006-.08-.006-.092-.085.1-.079.006-.085.006-.166.092-.079.091.006.079.006.085.006.085.006.085.012.171-.153.177-.085.006-.085.006-.012-.166.079-.1-.085.006.08-.086.079-.091-.006-.085-.091-.079-.166.012-.078.177.012.166-.074.1.006.08-.09.006.006.085-.074.091-.171.012.012.171.085-.006.006.079-.158.1-.012-.164-.092.007.006.079.006.085.012.166.092-.007.081.08-.07,0-.08.085.006.085-.171.012-.085.006-.079.006-.006-.085-.091-.073-.087.006-.006-.092-.085.006-.079.1-.092-.086.006.092-.159.091.006.085.006.092,0,.063-.007-.006-.006-.079-.006-.085-.006-.085-.171.012-.085.006-.085.006-.085.006-.079.006-.079.092.006.085.006.079-.074.091.006.085.012.172.006.085-.09.006-.085.006-.08.085-.087.006-.158.1-.165.092-.171.012-.166.012.006.09.085-.006.171.068.091.079-.085.006.006.09-.172-.079-.171.012-.171.012-.006-.085-.171.012-.17-.069-.177-.078.006.09-.178-.078.081-.087-.093-.079-.006-.079.081-.091-.087.006-.079.006-.092-.081-.085.006.006.087-.086.092.012.165.006.08.1.164-.086.092.006.09.005.074.1.085.006.079-.171.012-.1-.073-.079.006-.08.006.074-.1-.166.012-.171.012-.09-.068.005.074-.164.012L41.066,132l-.012-.176-.092.006-.079.006-.006-.08-.177-.078-.079.1.006.08-.166.012-.006-.08-.171.012-.092.007-.085-.085-.085.1-.074.005-.085.006-.085.006.006.08.085-.006.085-.006.074-.005.006.085.006.09-.074.005.005.074-.085.006-.085.006-.079.1.085-.006.091.073.1.165-.006-.085.172.074-.006-.085.079-.006.006.085.182.154.092-.006.006.085.079-.006.006.085.006.085.172-.012.171-.012-.086.092.092-.006.085.073-.067.177.079-.006.1.079.006.085.074-.005.006.079-.154.182.006.085.1.159.074-.005.012.171.1.079.006.079.177.073.079-.091.006.085.006.085-.079.091.085-.006-.079.091.012.171.006.08-.079.092.006.085.085-.006.006.085.006.08.091.079.006.085.012.171.006.079-.091-.073-.006-.092-.006-.079-.091-.079-.006-.085-.091-.074-.006-.085-.084.092.018.251.006.079-.068.1.012.164-.092.006.172.074-.068.086-.171.012.006.09.006.08-.086.092.006.085-.079.006.012.165-.085.006-.081.092.006.085-.158.184-.148.171h-.016l-.1-.08-.159.011-.177-.073-.1-.079-.08.006-.091.006-.166.012-.091-.079-.1-.158-.166.012-.091-.079-.079.006-.171.012-.092.006-.085-.074-.092.006-.079.006-.087-.085-.1-.079-.08.006-.176-.068-.09.006-.172-.079-.005-.074-.171.012-.092-.086-.08.006-.165.012-.1-.073-.091-.079-.158.1-.1-.164-.085-.08-.006-.085-.006-.08-.165.092-.085.006-.091-.074.006.08-.08.006-.085.006-.085.006.091.079-.079.091-.079.091-.006-.085-.091-.079-.085.006-.085.006-.087-.08-.073.177-.091-.079-.079.091-.079.091.091.079.006.079.08-.085.006.079-.079.1.171-.012.005.074-.079.1.006.08-.079.091.085-.006.006.09-.08.086-.091-.074-.08.086.012.165h.011l.005.074.006.092.006.079-.073.091.006.085.012.172-.08.085-.074.091.012.171-.085.087-.074.091.012.171-.079.091-.073.177-.08.08-.079.1.006.08-.073.091-.08.177-.079.006-.172.012-.08.085.006.085.006.085.006.087-.073.091-.079.091.006.079.006.085.165-.012.091.079.08-.006.012.171.006.085-.074.091-.08.08.006.092-.074.085.086.086-.068.17.006.085-.085.006-.086.087.006.09-.067.171-.086.092.006.085.092-.007.079-.006L34.4,141l.091.079.006.08.079-.006.085-.006.086.08.177.073.1.079.073-.091.006.085.085-.006.235-.1.084-.006.092.086.091.073.085.08.006.085.176.068.092.084.006.08-.079.091.085-.006.085-.006-.074.171.006.092-.171.012.091.073.012.172.091.079.085-.006.091.073.1.165.074-.091-.006-.085.165-.091.171-.012.079-.091.085-.006.172.074.085-.006.073-.178.164-.012.177.075.091.079.177-.012.091.159.166-.012.256-.018.085-.006.177.073.074-.091.171-.012.1.079.08-.006.006.085.079-.006.086-.092-.006-.085-.006-.085.165-.091-.006-.085.171-.012.073-.092.171-.012.08-.006.177.074.085-.093.158-.1-.012-.171.075-.085.09-.006.074-.091-.006-.085.165-.092.079-.006.171-.012.159-.183-.085-.08-.006-.085-.1-.073-.006-.092L40.9,140.8l-.012-.166-.012-.171.085-.092.073-.091.165-.1.154-.177.085-.006.086-.092.159-.183.073-.085.164-.1-.006-.079.085-.006-.006-.08.079-.1.085-.006.159-.011.177-.013.164-.012.092-.006.079-.006.085-.006.16-.1.092-.006.074-.086.171-.012.085-.006.079-.091.085-.006.079-.091.079-.091-.006-.079.074-.091-.006-.085-.012-.172-.015-.017.018-.017-.041-.025-.027-.045-.019-.044.079-.091-.091-.079.073-.177-.006-.08.079-.091.085-.006.079-.091.085-.006.079-.006.087-.006.079-.091.079-.091.09-.006.086.08.091.079.079-.006.171-.012.012.171.079-.091.085-.006.079-.091.085-.006.006.085.006.085.08-.006.085-.006.006.08.006.085.079-.092.091.079.091.079.006.085.091.079.08-.006.085-.006.09-.006.08-.006.09-.006.074-.091L46.4,137.8l-.006-.085.085-.006.079-.006.085-.006-.006-.085.092-.006.079-.006.006.085.142-.159h0l.072-.038.079-.1.085-.006.085-.006.165-.091.079-.091-.006-.085.073-.091.079-.091.171-.012.087-.006.183.159.073-.091.268.153-.006-.085.079-.091.085-.006.085-.006-.079.091.006.085.091.079-.08.085.177.154.115.34.1.325.092.08.2.409.085-.006.183.159.092.165.1.068.087.086.267.232.543.471.091-.006.092.165.171-.012.1.16.079-.091.269.238.1.079.086.074.079-.006.183.159.092-.006.085.08.012.166.006.09.005.074.177.08.085-.006.08-.006.182.073.086.074.006.091.091.073.1.246.11.249.018.251-.086.092-.079.006-.085.006.006.085.006.086.006.079.006.08-.074.1-.079.086.006.091.091.074.08-.006.085-.006.079-.006.086-.087.079-.006-.006-.09.171-.093-.006-.09-.011-.159.079-.091.074-.091.079-.091.085-.006.079-.006.092-.006-.006-.085-.006-.08-.006-.085-.012-.171-.006-.085-.006-.085-.1-.073-.159.091-.1-.136-.045-.22.019-.139.085-.006-.007-.092.08-.08-.085.006.079-.1.073-.086.092-.006.079-.006.006.08.177.078.085-.006.085-.006.085-.006.085-.006.005.074.006.092.086.08.006.079.1.085.074-.005.092-.007.079-.1-.012-.165-.012-.166-.006-.09-.183-.068-.086-.166-.1-.079-.172-.073-.171.012-.091-.073-.085-.08-.268-.067-.085-.08-.091-.079-.085.006-.166.012-.091-.074-.177-.073-.092.006.085-.092.079-.006.085-.092-.012-.171-.268-.062-.079.006-.251.018-.171.012-.171-.074-.1-.158-.085-.086-.183-.159-.1-.153-.171-.159-.012-.171.074-.091-.092-.159-.1-.165-.006-.085-.086-.08-.011-.159-.092.006-.171-.079-.177-.073-.085.006-.176-.068-.006-.09-.086-.068-.006-.092-.1-.158.079-.091-.006-.085-.006-.085.075-.086.084-.092-.006-.085-.09.006-.086-.08-.006-.079-.085.006.079-.1.08-.006-.012-.166.171-.012.085-.006.085-.006.085-.006.079-.091.079-.006-.006-.079.092-.006.08-.006.006.079.1.079-.012-.164.08-.006.017-.023-.019-.006,0-.038.006,0,.076-.1.006.09.007.09.006.09-.075.1-.087.006-.081.089.093.084.006.09.011.18.093.079.007.089.087.084.075-.187.081-.091.075-.187-.007-.09.087-.006.093.084.093.083.087.084.1.169-.076.18.006.1.012.174.173-.013.006.1.087-.006.087.073.1.089-.262.019.093.078.088.084.1.173.08-.006.185.162.006.09.18.077.167-.1.087-.006.18.168.185.161.1.174.167-.013.1.169.18.082.087-.006.1.161.08-.005.093.09.173-.013.087-.007.1.077.006.1.081.077.092-.007.011.175.168-.012.007.091.086-.007.19,0-.005-.076.026.024.006.08.006.085-.085.006.006.085.006.085.006.08.006.085.006.085.012.171-.08.085.006.085.006.085.091.079-.079.091.006.08.085-.006.006.09-.085.006.012.166.171-.012.086.08.171-.012.006.079.1.165H56.04l.091.16.091.079.166-.012.006.085.012.171.1.079.073-.091.092-.006.079-.006.092-.006.006.085.006.08-.171.012-.092.006-.073.091.085.08.006.085.006.085.092-.007.176.067.073-.085.085-.006.08-.006.006.079.165-.091.085-.006.09-.006.166-.012.085.073.1.074-.006-.08.165-.012.086.075.092.084.176.068-.073.1-.092.006-.08.086L58,142.379l-.006-.091-.091-.074-.165.092-.006-.08-.079.006-.092.006-.074.005-.09.006-.08.086-.085.006-.085.006-.08.006-.085.006-.073.1.006.08L57,142.7l.085-.006.086.074.092.085.006.08.012.171-.079.091.091.073.006.085.006.085.1.165.085-.006.09-.006.068-.091-.08-.08-.006-.085.068-.09.1.079.006.085.006.085.006.085.085.075.092-.006.091.165.085-.006-.012-.171-.006-.08-.006-.085.074-.091.012.171.085-.006.012.166.092-.006.341-.024-.006-.085-.176-.068-.006-.085-.1-.079-.012-.171-.079.006-.1-.158-.091-.079-.012-.166.085-.006.1.074.006.085.085.08.092-.006.165-.1.158-.1-.012-.172-.158.1-.092.006-.086-.086-.006-.079.073-.091.159-.178.085-.006.1.16.177.073-.006-.085-.006-.085-.012-.171L59,142.046l-.09.006-.171-.069-.1-.158-.079.006-.177-.073-.177-.073-.177.013-.086-.08.075-.086.079-.092-.006-.085-.085.006-.092-.165.074-.091.085-.006.171-.012.1.079.006.085.006.085.079-.006.08-.177-.092.006-.268-.233-.1-.164-.171-.068-.091-.079-.012-.166-.006-.09-.006-.08-.085-.08.073-.091.16-.1.085-.006.012.171.1.079.091.165.1.159.177.073.17.068-.006-.079-.17-.074-.1-.085-.005-.074-.006-.09.1.084.084.068.092.086.262.067-.006-.085-.09.006-.092-.16-.092-.084.085-.006.08-.006.012.164.171-.012.165-.086.079-.1-.085.006-.176-.068-.177-.073-.086-.08-.091-.079-.006-.085.085-.006.251-.018.085-.006L59,139.768,59,139.683l.079-.091.091.079.085.08.177-.013.079-.091-.091-.079.085-.006.159-.011.177.073.256-.018.091.079.079-.006-.005.005.091.079.171-.012.085-.006.074-.091.006.085.006.085-.08.006-.159.183.091.074.08-.086.245-.108.08-.086.165-.1-.006-.085.073-.085.166-.1.08-.085.079-.1.165-.086.079-.006.177-.013.164-.012.085-.006.079-.091-.012-.171-.085.006-.177-.073-.079.006-.189-.158-.164.012-.006-.08-.006-.085-.091-.073-.029,0-.006-.08-.012-.171-.085.006-.091-.073-.006-.085-.171.012-.074.091-.012-.171-.006-.085.074-.086.085-.006-.006-.09.08-.086-.091-.079-.012-.164.085-.006-.012-.171-.012-.166.171-.012.171-.012.073-.091-.071-.145.008-.033-.006-.08.068-.17-.086-.086-.012-.164-.006-.092.074-.085.079-.092-.085.006-.079.006-.006-.085.068-.171-.006-.085.079-.091.1.079.012.171.079-.006.079-.091-.006-.085.085-.006.073-.177-.024-.336-.053.136-.124-.146-.023-.008-.006-.08-.006-.085-.091-.074-.006-.085.079-.091.085-.006.006.085.079-.091.159-.011.079-.091.085-.006.079-.006-.012-.164-.086-.086-.085.006-.171-.062-.005-.074.08-.006.079-.1.092.084.085.069.08-.006-.017-.245.078-.177.085-.006.08.08.165-.1.159-.178.08-.006.005.074.09-.006-.011-.159-.006-.085-.012-.164.092.159.085.08.006.085.1.159-.171.012.006.085.006.085.006.08.177.078.165.063.251-.183.148-.091.085-.006.086-.092.1.251.079-.1.074-.172-.006-.085.074-.005.1.079.074-.091.079-.006.256-.018.006.085.08-.006-.006-.085.085-.006.056-.256.165-.1.012.171.1-.007.227-.273.165-.091.063-.09.085-.092.08-.006.182.073.074-.091-.086-.08.154-.092.074-.171.085-.092.079-.006.074-.1-.006-.079.1.073.074-.005.006-.08v-.011l.075-.086.085-.006L67.1,132l.011.159.09-.006.161-.171.074-.08.159-.011.01.142.006.092-.154.09-.171.1-.068.091.08.074.1.079-.166.092-.17-.069-.085.006-.086.087-.074.005.006.085.08.08.251-.018.1.079.006.079.257.068-.079.006-.092.092-.08-.08.012.171.079.069-.068.1-.1-.085-.079-.069-.08.08.013.177-.086.092.1.074.012.164-.166.012-.073.251.006.085.17.074.183.073.074-.005.164-.012.1.078.006.08.153-.011.08-.086.091.074.171-.012.006.085.176.067.166-.012.085.08.086.08.171-.012.269.319.267.061.08-.006.085-.006.086.086.08-.006.084-.1.08-.006.092.086.177-.013.012.164.079-.006.166-.012.08.08.006.087.108.146.085.08.182.154.08.08.006.09-.074.005-.074.172.006.079.006.085.085-.006-.006-.085.074-.005.1-.007.325-.023.085-.085.08-.006.073-.091.172.074.09-.006.006.079.006.085.087-.006.164-.012.257.063.006.09.08.075-.063.17.006.085.086.166.092.085.091-.006.08-.006.085-.006.079-.006.08-.006.079-.1.1.085.006.079.166-.012.085-.006.177.073,0,.069.256.147.177.08.085.073.251-.018.177-.013.074-.005.165-.091.164-.012,0-.013,0,.012v-.015l.057-.161-.006-.085,0-.069.171-.1.152-.182-.006-.085.073-.177.069-.17.176-.012.062-.176.092-.006.171.159.1.079.012.164-.1.007.1.078.093.171.006.079-.171.1-.08.006.182.056.159.075.086-.092.085-.006.336.062-.091-.079.081-.075-.177-.073-.086-.165.068-.091-.006-.085-.006-.085.085-.006.012.171.073-.177-.012-.165-.006-.08-.092-.084-.1-.16.085-.006-.006-.079-.012-.166-.006-.09-.091-.079-.006-.085.08-.086.073-.183.081-.068.166-.012-.006-.087-.08-.08-.171.1-.171.012-.159.011-.1-.158-.165.012-.086-.08-.109-.164-.086-.08-.085-.075-.1-.084-.074.005-.172-.064,0,0h-.011l-.08.006L75,134.209l-.182-.073-.1-.073-.25-.149-.177-.073-.178-.159-.023-.33L74,133.284l-.1-.084-.012-.166-.085-.172-.087.006-.005-.074-.177-.073-.257-.154.006.085-.073.091-.1-.079-.17-.074L73,132.25,73,132.17l.073-.091-.012-.164.085-.1-.1-.073-.017-.234.079-.183-.012-.165.079-.006.086.073.152-.182.085-.092.074-.08.074-.177.079.08.08-.177-.109-.245-.159.011-.079.006-.176-.067.066-.183.086-.086.079-.006-.085-.08-.268-.153-.347-.216-.171-.159-.085.1-.176.012.006.079-.074.091-.171-.074-.086-.073-.012-.166-.007-.1-.181-.067-.159.011-.08.085-.017-.245-.012-.171.153-.268-.256-.051-.085-.085.073-.1-.017-.245-.085-.085-.1-.137.073-.182.079-.006-.018-.256-.079.006.142-.262.177.08.085.154.182.073.087.085.152-.187-.006-.085-.091-.16-.1-.244-.177-.074.165-.091.164-.012L72.1,126.7l-.006-.08-.024-.346.166-.012.085-.087.081-.16.147-.182.068-.165-.007-.1-.006-.08.092-.006.085.075.087.091.158-.108.08-.166.067-.176.153-.1.092-.006.189.163-.006-.09.062-.171.085-.006.164-.012.091.074.172.074.25-.018.092.084.166-.012.09-.006.08.075-.012-.171-.08-.08-.006-.08.074-.005.434.05.256.068.074-.172-.006-.085-.006-.085.074-.005-.006-.079-.08-.08.159-.011.171-.012-.1-.166.085-.006.085-.1.171.079.166-.012-.012-.171.153-.011-.08-.16.063-.079.08-.086.176-.1.086.08.085.149.171-.012.331-.1.079-.006.091-.006-.006-.08-.012-.164.147-.1.256-.1.232-.262L78.22,123ZM58.031,139.332l.014.006-.122.072-.044-.019.076-.091.067.028Zm-1.859-.119-.006-.085,0-.006.046-.057v0l.006.085-.051.066Zm1.256-2.709-.08.079v-.016l.07-.072Zm.1.324-.006.007.006-.008Zm-.322.286h0l0,.005.091.154v.01l-.089-.157Zm.165,1.149.007.1.006.079,0,.1v-.017l0-.084-.011-.168v-.012Zm-.054-.8,0-.022.089.077,0,.026Zm.622,1.625,0,.023-.088-.081-.007-.006Zm-.357-1.5.092.079-.015.016-.069-.062-.081.005-.094.008,0-.034.089-.006Zm-1.035-1.369-.068.091.006.085,0,.05h-.006l-.006-.084-.006-.09.069-.1,0-.041,0,0Zm-.358-.284h-.009l-.007-.122.008.007Zm-.117-.445.012.171,0,.025-.01-.008-.006-.091-.012-.181h.007Zm-.1-.244-.031.078-.053,0,.035-.09.036.006Zm-4.761.33.026.017v.014l-.037-.024Zm2.153-.508,0-.027.052.043.006.085,0,.039-.053-.045Zm.463.495.044,0v.008l-.044,0Z" transform="translate(7122.867 -654.744)" fill="inherit"/>
    <path id="Path_1666" data-name="Path 1666" d="M244.444,252.634l.092-.006.085.086.006.079.086-.086-.006-.092.164-.012.08-.006-.005-.074.073-.091.091-.1-.183-.068-.233.188-.1-.164-.073.086.006.09.006.085-.166.086Z" transform="translate(6934.21 -783.226)" fill="inherit"/>
    <path id="Path_1667" data-name="Path 1667" d="M246.523,248.536l.012.164.08-.085.074-.091,0-.069-.172-.074-.073.091-.092.006,0,.069.092-.006Z" transform="translate(6932.431 -779.739)" fill="inherit"/>
    <rect id="Rectangle_2661" data-name="Rectangle 2661" width="0.086" height="0.074" transform="matrix(0.998, -0.07, 0.07, 0.998, 7158.427, -518.64)" fill="inherit"/>
    <path id="Path_1668" data-name="Path 1668" d="M120.749,415.938l-.091-.079-.006-.085-.091-.079-.079.091.006.085-.171.012-.08.006-.085.006.006.085.166-.012.09-.006.092.165.085-.006.006.08.085-.006.08-.086-.006-.085.085-.006.079-.091-.085.006Z" transform="translate(7045.677 -929.881)" fill="inherit"/>
    <path id="Path_1669" data-name="Path 1669" d="M131.084,415.237l-.087.006-.085.006-.091-.079-.085.006.006.085.091.079.085-.006.091.079.087-.006-.006-.085Z" transform="translate(7036.179 -929.41)" fill="inherit"/>
    <path id="Path_1670" data-name="Path 1670" d="M109.982,421.454l-.079.006.006.085-.171.012.006.085.006.085.165-.1.079-.006-.006-.085.086-.092Z" transform="translate(7055.021 -935.044)" fill="inherit"/>
    <path id="Path_1671" data-name="Path 1671" d="M64.842,153.535l.085.085.1.079.085.075.085-.006.087-.006.006.09.006.08.006.085.006.079.085.08.183.16.092-.006.079-.006.006.09.005.074.172.074.1.079-.006-.085.079-.091.006.085.085-.006.153-.1.092-.006.177.073.073-.091.1.079.166-.012.006.085.158-.1.086-.092.177.073.074-.005.084-.092.091.079.006.085.079-.091.085-.006.16-.1.067-.17.1.084.079-.006.177-.012-.012-.171.079-.1.079-.006-.006-.085-.006-.079.081-.092-.006-.08-.093-.084-.006-.08-.006-.085-.164.012-.006-.09.08-.08.084.069-.005-.074-.085-.08-.006-.085-.006-.085.16-.1-.006-.085-.081.091-.164.012-.006-.085-.006-.08.079-.091-.006-.085-.177-.073.006.085-.086.092-.073.091-.092.006-.085-.08-.006-.085-.16.1-.165.1-.085.006.067-.262-.091-.079.006.085-.078.177.006.085-.068.086-.1-.074-.012-.171.086-.092-.012-.166-.1-.084-.073.1-.1-.084.006.09-.073.086-.079.091-.087.006-.006-.085-.006-.08-.012-.171-.085-.073-.08.166-.067.176-.092.006-.006-.08-.079.006-.092.006-.142.262-.006-.085-.085.006-.006-.085.08-.086-.006-.09-.006-.08-.012-.171.085-.006.074-.005.08-.177-.092.006-.006-.079.086-.092-.006-.08-.012-.176-.177-.154-.171.012.091.079.1.165-.085.006.006.085.006.08.006.085-.08.085-.091-.073-.012-.166-.085.087-.012-.166-.012-.171.006.08-.08.006-.091-.074.018.256-.177-.073.1.079.085.075-.165.1-.079.006-.006-.085-.006-.08-.1-.079.006.085.006.08-.079.006-.006-.08-.081.086.006.085.087-.006.079-.006.1.073.171-.012.086.086.091.073.007.092.08-.006.09-.006.011.159-.09.006L65.6,152.3l-.171.012.1.074.085.085.091.074-.079.091-.079.006-.1-.079-.085-.075-.092.006-.172-.079-.17-.069-.165.092.006.09.171-.012.164-.012.092.074.006.085.079-.006.006.085.006.085-.073.091.012.166.073-.091.006.085-.073.091-.08.092-.085.006-.079.006-.092.006-.073.091-.1-.079-.067.176.084.069Z" transform="translate(7095.467 -692.654)" fill="inherit"/>
    <path id="Path_1672" data-name="Path 1672" d="M68.919,270.756l.006.08.092-.006.073-.086.085-.006.171-.012.171-.012.159-.011.1.074.165-.092.073-.091-.006-.085.092-.006.073-.091-.006-.079.087-.006-.006-.085-.006-.085-.006-.085.079-.091-.006-.08-.006-.092.073-.085-.012-.171-.006-.08.085-.1.073-.086,0-.007.068-.077.073-.091.092-.006.079-.006-.012-.166.086-.092.006.085.006.085.079-.006-.006-.085-.006-.085-.085-.08-.086.092-.085-.08.073-.091.092-.007-.006-.079-.006-.092-.1-.158-.006-.085-.006-.085-.079.006-.092.006-.079.006-.006-.08-.087.006-.08.086-.085.006-.085.006-.154.011.005-.007.172-.012.079-.006-.085-.073.079-.006.092-.006.073-.091-.085-.075-.1-.085.006.092-.079.006-.085.006-.087.006-.177-.08-.073.1-.171.012-.086.087-.068.09-.25.1.091.079.177.08.074-.005-.069.084-.171.012.006.085.006.085-.17.093-.086-.075-.17-.074-.006-.085-.1-.073-.086-.086-.171.012-.074.177-.085.006.091.079.006.085.006.08-.079.091-.073.091-.092.006-.073.091.091.165.006.079.092-.006.012.166.073-.086.172-.012.079-.006.006.08-.073.1-.087.006-.25.1-.159.183-.171.012.1.073-.092.007.006.092-.25.018-.08.006-.085.087.006.085.09-.006.171-.012.091.079-.085.006-.09.006-.08.006-.084.092-.074.091.086.073.085-.085.086.073-.074.091.006.085.08-.006.09-.006-.165.1.256-.018.006.08.006.085.16-.1.079-.006.1.079.171-.012.073-.091.091.079.166-.012-.006-.085.092-.006Z" transform="translate(7092.959 -797.222)" fill="inherit"/>
    <path id="Path_1673" data-name="Path 1673" d="M69.49,296.829l.17-.093-.25.1Z" transform="translate(7091.211 -823.13)" fill="inherit"/>
    <path id="Path_1674" data-name="Path 1674" d="M166.939,395.512l-.012-.171-.006-.08-.006-.092-.04-.077-.043-.037-.016.019-.075-.012-.083.046-.09.006-.039.02-.036.059-.088.04-.068.1-.054.06.023.073-.011.093.024.089.039.072.006.085.008.029-.054.055.058.087.068.07.006.085.057.077.057.007.086.08-.006-.085.084-.092-.006-.08.068-.176-.006-.085-.006-.085.08-.085Z" transform="translate(7004.279 -911.36)" fill="inherit"/>
    <path id="Path_1675" data-name="Path 1675" d="M162.278,408.613l.073-.177-.007-.092-.085.006-.006-.08-.086-.073.08-.006-.087-.086-.1-.073-.006-.085-.074.091-.09.006.006.079-.08.006-.085.006-.073.1-.092.006-.171.012-.08.085-.086-.073.006.079-.08.086.007.092.006.079.1.165.006.085.012.166.08-.006.171-.012-.079.091-.079.091.006.085.006.085-.075.085-.085.006.091.079-.073.177.091.079.006.085.006.08.172.074.085-.006L161.7,410l-.006-.085-.006-.08.086-.092.17.074.08-.006.1.074.075-.086-.006-.085-.012-.171-.012-.171.079-.171-.006-.085-.006-.085-.006-.085-.006-.085-.006-.08.08-.006.079-.091-.006-.079Z" transform="translate(7008.876 -922.929)" fill="inherit"/>
    <path id="Path_1676" data-name="Path 1676" d="M193.454,434.489l-.158.1-.171.012-.079.091-.1-.079-.079.006-.086.092-.074.005-.085.006-.085.006-.165.1-.171.012-.177-.073-.172-.074-.091-.079-.171.012-.165.1-.006-.085-.085-.075-.086.087-.079.006.012.171-.086.092.006.085.1.073.177.08.079-.006.1.073.256.068.091.079.1.166.171-.012.085.073.171-.012.176.068.006.09.1.165.165.069.086-.087.176.068-.012-.171.165-.092-.012-.171-.085.006.08-.085-.085.006-.006-.092-.006-.08.079-.091-.006-.085-.006-.079-.006-.092.08-.085.079-.006.073-.177-.006-.085Z" transform="translate(6982.01 -946.747)" fill="inherit"/>
    <path id="Path_1677" data-name="Path 1677" d="M103.67,288.985l.079-.006.086-.086-.1-.079-.079.006-.08.006.012.164Z" transform="translate(7060.549 -816.022)" fill="inherit"/>
    <path id="Path_1678" data-name="Path 1678" d="M114.209,316.054l.091.079.085-.006.085-.006-.006-.085-.085.006Z" transform="translate(7051.009 -840.45)" fill="inherit"/>
    <path id="Path_1679" data-name="Path 1679" d="M124.381,240.6l-.006-.085-.006-.08-.006-.085-.084.092-.085.006.091.074Z" transform="translate(7042.048 -772.526)" fill="inherit"/>
    <path id="Path_1680" data-name="Path 1680" d="M135.21,230.043l.091.079.006.079-.079.091.165-.1-.006-.079.079-.091-.006-.085-.006-.085-.006-.085-.012-.166-.067.257.006.085-.171.012Z" transform="translate(7032.169 -762.887)" fill="inherit"/>
    <path id="Path_1681" data-name="Path 1681" d="M103.84,242.9l.005.074.08-.172.08-.085.091.073.006.092.073-.1-.006-.079.08-.1.085-.006-.006-.079.073-.091-.006-.08-.073.086-.085.006-.166.012.012.164-.091-.073-.006-.085-.079.091.006.079-.08.177Z" transform="translate(7060.32 -774.323)" fill="inherit"/>
    <path id="Path_1682" data-name="Path 1682" d="M105.817,280.58l-.006-.092-.091-.074-.086.087-.073.1.085.074Z" transform="translate(7058.769 -808.484)" fill="inherit"/>
    <path id="Path_1683" data-name="Path 1683" d="M105.133,250.077l-.165.1.006.079.006.092.164-.1-.006-.079Z" transform="translate(7059.301 -781.26)" fill="inherit"/>
    <path id="Path_1684" data-name="Path 1684" d="M106.259,249.959l-.074.091-.086.086-.067.176.085.08.006.085.08-.177-.006-.079-.006-.092.075-.085Z" transform="translate(7058.347 -781.154)" fill="inherit"/>
    <path id="Path_1685" data-name="Path 1685" d="M104.712,259.178l.088.035,0-.041Z" transform="translate(7059.531 -789.422)" fill="inherit"/>
    <path id="Path_1686" data-name="Path 1686" d="M89.479,314.908l.166-.012-.08.006Z" transform="translate(7073.201 -839.427)" fill="inherit"/>
    <path id="Path_1687" data-name="Path 1687" d="M113.021,284.494l.083-.092h0Z" transform="translate(7052.075 -812.063)" fill="inherit"/>
    <path id="Path_1688" data-name="Path 1688" d="M92.249,249.281l.085-.006.079-.091.1.079.068-.091.085-.006.006.085-.08.086.006.085.006.085-.074.005.08.08-.068.091-.09.006-.08.085-.079.1-.092-.086-.079.1-.08.006-.085.006-.085.006-.092-.086-.079.1.006.079-.079.091.171-.012.085-.006.006.08-.085.006.006.085.171-.012.079-.091.08-.006.085-.006.006.085.006.092.006.079.171-.012.085-.006-.079.1.091.073.1.074.074-.005.171-.012.085-.006.081-.086v-.018l.142-.01.079-.006-.073.091-.079.093-.085.006-.085.006-.08.085.006.085-.085.006-.166.012-.085.006-.085.006-.091-.079-.085.006-.006-.079-.085.006-.079.006-.085.006.091.073L92,250.89l-.093-.079-.085.006.006.085-.074.172-.171.012-.243.108.006.08-.085.006-.165.1.012.171.085-.006.085-.006-.006-.085.085-.006.006.085.079-.091.158-.1.177.073.171-.012.006.085.093.079.164-.012.079-.091-.006-.085-.006-.085.079-.091.091.079.085-.006.085-.006.08-.006.085-.006.091.079.091.079.006.085.085-.006.079-.091.164-.012.091.079.171-.012-.006-.085.08-.091.091.079.085.08.085-.006.085-.006.006.079.171-.012.085-.006.085-.006.08-.006.091.079.085-.006.091.079.165-.1.085-.006.085.08.079-.091.079-.091.092-.006.075-.085.079-.091-.091-.079-.08.006-.086.092-.091-.079-.085.006-.085-.08-.091-.079-.006-.08.085-.006.079-.006.091.074.08-.086-.006-.09-.085.006.08-.08.092-.006.08-.006.085-.006-.006-.092.085-.006.079-.006.079-.091.08-.085-.006-.087.08-.171-.006-.085-.012-.171-.1-.079-.177-.073-.164.012-.091-.074-.075.086-.092.006-.079.091-.091-.079-.006-.08-.006-.085.085-.006.079-.091.086-.092-.006-.079-.006-.092-.006-.079-.1-.079-.006-.085L94.831,249l-.079.006-.006-.09.079-.006.085-.006.092.084-.03-.422-.006-.085-.006-.085-.006-.085-.091-.079-.006-.085-.085.006-.085-.074-.085.006L94.6,248l-.012-.171-.006-.085.08-.086-.006-.085-.091-.073-.006-.092-.006-.079.073-.177-.091-.074-.1-.165-.006.015-.1-.151-.091-.079-.091-.074-.085.006-.164.012-.08.006-.1-.079-.085.006-.006-.079.085-.006.1.073.08-.006.09-.006-.006-.079.159-.011.079-.1-.085.006-.091-.079-.074.005-.006-.08.159-.011.085-.006.091.074.086-.087.079-.006-.006-.09.16-.086.084-.1-.006-.079-.1-.079.084-.092.08-.006-.006-.085.092-.006.073-.086-.006-.085-.006-.085-.079.006-.092.006-.08.006-.006-.085-.1-.079-.08.006-.164.012-.092.006-.171.012-.085.006-.158.1-.08.006-.006-.085-.006-.085-.006-.085.165-.091.074-.005-.006-.085.079-.091.085-.006.085-.006.086-.087.073-.1.166-.012-.006-.085.085-.08-.1-.084-.08.006-.085.006-.006-.08-.165.092-.176-.068-.006-.09-.079.1-.08-.085.074-.005-.17-.069-.08.006.006.08-.078.177.09-.006-.084.1-.177-.078.092.084-.085.006-.08.08.091.079.006.092.006.08-.091-.074-.08.006-.006-.092-.085.006-.085.006-.079.1.006.08.006.085.006.085.091.073.006.085-.166.012.006.085.006.085-.09.006-.074.091.006.085.006.085-.165.092.028.024-.092-.037,0,.044-.079.1.085-.006.092-.006-.006-.09.061.052.091.079.068-.176.09-.006.075-.086.085-.006-.08.086-.074.091-.084.092.09-.006.006.085-.09.006-.08.006-.08.085-.074.172.006.09.006.08.08-.086.074-.171.08-.006.1.068.006.09-.085.087-.08.006.006.085.08-.006.09-.006.087.086.085-.006.006.079-.085.006.006.085-.075.086-.084.092-.074.091-.085.006.006.085-.08.085-.085.006.006.092-.085.006.006.079.012.171.006.085.085-.006-.006-.085-.006-.085.085-.006.091.079.006.085.091.079-.006-.085-.006-.085.074-.091.1.079.006.085.16-.1.006.085.085-.006-.006-.085.085-.006.086.08.085-.006.079-.091,0,.057-.074.092-.085.006.006.079-.085-.074-.08.085-.081.091.006.08.012.176.006.08.093.079.085-.006-.077.085.083-.006.17.074.006.085-.164.012.006.085-.085.006.006.085.006.085-.087.006-.079.093.006.079.085-.006.006.085.006.08.087-.006-.08.1-.085.006-.006-.09-.069.084-.072-.058-.006-.085-.079.006-.085.006-.006-.079-.252.1-.085.006-.079.091-.164.012-.079.091-.085.006Z" transform="translate(7071.753 -775.908)" fill="inherit"/>
    <path id="Path_1689" data-name="Path 1689" d="M177.5,262.924l-.092.006-.245.017-.085.006-.084.092.006.08.1.164-.006-.08-.006-.09.08-.086.074-.005.092-.006.079-.006.092-.006.08-.006.084-.092.085-.006.166-.012.091.079.091.074-.006-.08.073-.091.086-.086-.012-.171-.092.006-.006-.085.086-.092.073-.086-.079.006-.086.087-.079.006-.085.006-.079.091-.085.006-.074.091-.079.091.006.085-.085.085Z" transform="translate(6994.667 -792.286)" fill="inherit"/>
    <path id="Path_1690" data-name="Path 1690" d="M183.821,282.545l.012.171.176-.012.006.079.166-.012.085-.006-.006-.079-.006-.085-.006-.085-.006-.08-.085.006-.092-.084-.074.1-.092-.084.006.09-.09.006Z" transform="translate(6988.545 -810.226)" fill="inherit"/>
    <path id="Path_1691" data-name="Path 1691" d="M189.259,277.845l-.08.085.006.092.091.079-.08.085.006.085.091.074.171-.012.085-.006.006.09-.085.006.176.068.085-.006-.091-.074.079-.1.08-.006.074-.172-.091-.073.158-.189.08-.085-.1-.165.08-.086-.085.006.079-.091-.171.012-.085.006-.074.091.08-.006.091.074-.079.091-.08.006-.085.006.006.085.006.079-.085.006-.091-.073.079-.091-.006-.085-.085.006.006.085-.079.091Z" transform="translate(6983.733 -805.828)" fill="inherit"/>
    <path id="Path_1692" data-name="Path 1692" d="M188.991,288.72l-.006-.085-.085.006-.085.006.006.085.091.073.092.081.085-.006.085-.006-.006-.087-.091-.073Z" transform="translate(6984.06 -815.861)" fill="inherit"/>
    <path id="Path_1693" data-name="Path 1693" d="M193.15,288.531l-.085.006-.091-.079.006.085.006.079.092.081-.006-.087.085-.006Z" transform="translate(6980.328 -815.702)" fill="inherit"/>
    <path id="Path_1694" data-name="Path 1694" d="M269.728,425.212l.1.164.079-.006-.012-.171-.086-.086-.1-.073-.006-.08-.085-.085-.085.006-.091-.074-.177-.073-.171.012-.08-.08-.1-.074-.085.006-.165.092.091.079.085-.006.177-.013.08.08.176.068.092.084.176.068.091.073Z" transform="translate(6912.396 -937.866)" fill="inherit"/>
    <path id="Path_1695" data-name="Path 1695" d="M217.657,160.108l.006.08.08-.086-.006-.085.087-.006L217.9,160l.074-.251-.1-.084-.079.006.006.09-.087.006-.085.006.006.08.006.079-.079.091Z" transform="translate(6958.259 -700.131)" fill="inherit"/>
    <path id="Path_1696" data-name="Path 1696" d="M193.095,250.7h0Z" transform="translate(6980.219 -781.814)" fill="inherit"/>
    <path id="Path_1697" data-name="Path 1697" d="M276.6,449.107l-.188.089-.464-.01,0-.093-.186,0-.281.087-.279-.006,0-.186-.093,0,0,.093-.186,0-.089-.188-.188.089,0,.186-.006.279.372.008.466-.083.37.1-.006.279.656-.265.557.012.006-.279-.281.087Z" transform="translate(6907.037 -959.664)" fill="inherit"/>
    <path id="Path_1698" data-name="Path 1698" d="M207.61,454.661l0,.093.091.095.186,0,0-.093-.184-.1Z" transform="translate(6967.195 -964.848)" fill="inherit"/>
    <rect id="Rectangle_2662" data-name="Rectangle 2662" width="0.093" height="0.093" transform="matrix(0.021, -1, 1, 0.021, 7174.619, -510.192)" fill="inherit"/>
    <path id="Path_1699" data-name="Path 1699" d="M337.83,443.589l.377-.271a1.359,1.359,0,0,0-.47.269,2.547,2.547,0,0,1-.658.358l-.372-.008-.006.279-.186,0a.129.129,0,0,1,0,.186c-.095.091-.279-.006-.279-.006.174.561.552.291.552.291l.277.1.379-.364,0-.186.466-.083a.33.33,0,0,1-.275-.192C337.547,443.769,337.83,443.589,337.83,443.589Z" transform="translate(6851.77 -954.67)" fill="inherit"/>
  </g>
</svg>
