<svg xmlns="http://www.w3.org/2000/svg"  viewBox="0 0 101.975 103.464">
  <g id="island" transform="translate(-1159.197 -243)">
    <g id="bahamas" transform="translate(1169.079 252.21)">
      <g id="Group_2948" data-name="Group 2948" transform="translate(0 0)">
        <g id="Group_2947" data-name="Group 2947">
          <path id="Path_1700" data-name="Path 1700" d="M0,4.746V6.934c1.673.963,3.069,3.276,5.224,2.273,3.313-1.536,7.782.259,10.207-3.736.8-1.311,1.907-.5,2.714.278,2.092,2.007,3.717,4.135,1.262,7-1.359,1.581-.433,2.606.9,3.528a2.062,2.062,0,0,0,2.932-.056c2.188-2.132,2.088-8.445-.063-10.755-1.211-1.288-3.058-2.036-3.513-3.991H12.021c-1.3,1.388-2.977,1.066-4.609,1C4.672,2.343,2.084,2.736,0,4.746Z" transform="translate(0 -1.477)" fill="#inherit"/>
          <path id="Path_1701" data-name="Path 1701" d="M17.592,30.78h2.181c3.747-1.311,8.656-2.081,8.763-7.59.03-1.425.455-2.688-1.585-3.321a1.927,1.927,0,0,0-2.64,1.914c-.1,1.54.789,2.329-2.784,2.388C16.84,24.245,16.2,26.963,17.592,30.78Z" transform="translate(45.786 47.889)" fill="#inherit"/>
          <path id="Path_1702" data-name="Path 1702" d="M21.291,22.023a1.646,1.646,0,0,0,2.429,1.359c2.9-1.533,5.62.363,8.415.13V20.238c-2.884-1.1-4.743-3.143-8.919-.692C21.917,20.323,21.106,20.564,21.291,22.023Z" transform="translate(57.462 44.225)" fill="#inherit"/>
          <path id="Path_1703" data-name="Path 1703" d="M3.306,18.242c3.058,1.744,4.491,4.713,5.738,7.664.789,1.881,1.81,2.551,3.6,2.381,2.247-.226,2.255-1.955,2.321-4.483-2.036-4.028-2.214-9.555-5.379-14.035C8.581,8.346,7.5,7.128,5.671,7.461,3.461,7.872,4.6,9.62,4.409,10.93a6.866,6.866,0,0,1-1.722,3.3C1.184,15.936,1.64,17.287,3.306,18.242Z" transform="translate(4.795 14.545)" fill="#inherit"/>
          <path id="Path_1704" data-name="Path 1704" d="M9.589,11c1.666.578,4.724,1.3,3.828,3.61-1.122,2.91-.541,5.257,1.907,5.435,2.536.2,1.614-3.395,2.917-5.191.685-3.947-3.136-6.153-6.39-8.012C9.9,5.732,8.382,5.754,7.393,7.794,6.375,9.93,7.778,10.382,9.589,11Z" transform="translate(19.052 11.039)" fill="#inherit"/>
          <path id="Path_1705" data-name="Path 1705" d="M15.895,19.325c.74.655,2.136.585,2.244,2.081a20.535,20.535,0,0,1-1.581,1.388c-1.033.733-1.5,1.888-.789,2.769,1.022,1.274,2.236.407,3.317-.341,2.273-1.573,4.446-3.128,3.991-6.434-.933-6.738-3.139-1.133-5.157-2.869a1.674,1.674,0,0,0-2.74.537A2.238,2.238,0,0,0,15.895,19.325Z" transform="translate(40.279 36.057)" fill="#inherit"/>
          <path id="Path_1706" data-name="Path 1706" d="M11.917,14.574c.848,3.584,1.529,7.3,5.205,9.27.6.322,1.381.785,1.881.615s.744-1.059,1.2-1.792c-2.71-4.335-4.48-7.2-6.075-9.626a1.508,1.508,0,0,0-1.433-.23A2.383,2.383,0,0,0,11.917,14.574Z" transform="translate(32.151 28.883)" fill="#inherit"/>
          <path id="Path_1707" data-name="Path 1707" d="M13.716,17.689c-.159,1.533,1.947,1.081,3.147.814.433-.085,1.251-.585,1.111-1.048-2.062-6.7-5.587-8.315-5.842-8.3-.337.111-.859.111-.992.333C9.244,12.995,14.049,14.413,13.716,17.689Z" transform="translate(28.9 19.281)" fill="#inherit"/>
          <path id="Path_1708" data-name="Path 1708" d="M24,21.64c.9.57,1.877-.563,1.977-2.036-2.814-5.453-1.736-1.87-5.446-2.418a1.649,1.649,0,0,0-1.859,2.04C19.339,22.1,22.286,20.556,24,21.64Z" transform="translate(50.326 39.206)" fill="#inherit"/>
          <path id="Path_1709" data-name="Path 1709" d="M9.5,14.356c.57,2.492,2.906,2.914,4.857,3.576A1.278,1.278,0,0,0,15.975,16.4c-.818-2.155-2.8-3.1-4.676-3.769C10.051,12.738,9.267,13.33,9.5,14.356Z" transform="translate(25.553 28.653)" fill="#inherit"/>
          <path id="Path_1710" data-name="Path 1710" d="M10.587,9.906c-.122-1.633-1.314-2.118-2.632-2.177-1.492-.063-3.132.3-3.4,2.018-.267,1.622,1.188,2.1,2.51,2.144A3.249,3.249,0,0,0,10.587,9.906Z" transform="translate(12.226 15.399)" fill="#inherit"/>
          <path id="Path_1711" data-name="Path 1711" d="M14.17,13.756c.074,1.211.578,2.229,1.929,2,1.4-.23,1.929-1.462,2.244-2.71-.278-1.2-.907-2.121-2.181-1.992C14.662,11.2,14.092,12.312,14.17,13.756Z" transform="translate(38.272 24.377)" fill="#inherit"/>
        </g>
      </g>
    </g>
    <g id="jamaica" transform="translate(1212.211 243)">
      <path id="Path_1712" data-name="Path 1712" d="M45.266,14.99c-6.828-1.616-12.477-6.33-19.668-7C18.1,7.3,10.631,5.886,3.164,8.037c-1.739.5-3.1,1.61-3.162,3.58-.073,2.253,1.683,2.224,3.293,2.52,1.276.234,2.694.1,3.7,1.392,3.315,4.228,6.911,7.917,13.08,6.946a4.862,4.862,0,0,1,3.7,1.547c1.6,1.481,2.46,1.8,3.629-.744,1.253-2.743,6.047.7,7.24-3.362.16-.55.937.156,1.438.278a14.575,14.575,0,0,1,1.832.6c1.808.708,3.571,1.585,5.613,1.365a12.5,12.5,0,0,0,4.373-.617c.7-.292,1.329-.554.944-1.425C47.973,18.171,47.3,15.473,45.266,14.99Z" transform="translate(0 -6.892)" fill="#inherit"/>
    </g>
    <g id="cuba" transform="translate(1159.197 325.349)">
      <path id="Path_1713" data-name="Path 1713" d="M42.176,14.659c-2.431-1.95-4.138-4.932-8-2.777-1.035.578-2.194-.412-3.157-1.171C25.788,6.583,19.586,6.787,13.547,7.32,7.9,7.825,2.389,9.252,0,15.2c2.771.65,5.368-.117,10.234-3.566,1.965-1.393,4.637-2.486,5.555-.166.87,2.209,2.149,1.821,3.485,2.269,6.5,2.176,14.287,1.243,18.906,7.965.7,1.032,2.058.972,3.268.966,1-.009,2.245-.274,2.762.879.617,1.369-.855,1.628-1.553,2.248a1.694,1.694,0,0,0-.481,2.353c6.572-2.146,13.782.891,21.293-2.6-4.5-2.293-8.1-4.748-12.091-5.976A27.325,27.325,0,0,1,42.176,14.659Z" transform="translate(0 -7.037)" fill="#inherit"/>
      <path id="Path_1714" data-name="Path 1714" d="M4.795,13.1c.9-.172,2.176-.331,1.881-1.718A2,2,0,0,0,4.56,9.558c-1.493.093-1.234,1.49-1.441,2.293C2.809,13.055,3.919,13.271,4.795,13.1Z" transform="translate(6.159 -1.978)" fill="#inherit"/>
    </g>
  </g>
</svg>
