<?xml version="1.0" standalone="no"?>
<!DOCTYPE svg PUBLIC "-//W3C//DTD SVG 20010904//EN"
 "http://www.w3.org/TR/2001/REC-SVG-20010904/DTD/svg10.dtd">
<svg version="1.0" xmlns="http://www.w3.org/2000/svg"
 width="896.000000pt" height="896.000000pt" viewBox="0 0 896.000000 896.000000"
 preserveAspectRatio="xMidYMid meet">
<metadata>
Created by potrace 1.11, written by Peter Selinger 2001-2013
</metadata>
<g transform="translate(0.000000,896.000000) scale(0.100000,-0.100000)"
fill="#000000" stroke="none">
<path d="M6785 7369 c-38 -10 -79 -23 -90 -28 -11 -5 -53 -21 -92 -36 -40 -14
-89 -37 -108 -51 -20 -13 -38 -24 -41 -24 -3 0 -32 -21 -65 -46 -103 -79 -229
-211 -261 -273 -7 -14 -16 -28 -19 -31 -17 -14 -104 -204 -114 -250 -37 -168
-36 -160 -38 -320 -2 -135 2 -173 29 -285 8 -33 17 -69 19 -80 5 -23 10 -35
54 -127 37 -76 96 -171 138 -219 34 -40 123 -128 149 -149 173 -135 331 -203
549 -237 51 -8 237 -8 295 0 41 6 57 9 115 21 47 10 184 60 230 84 146 77 262
171 343 276 25 34 49 63 52 66 57 52 149 253 180 395 47 212 24 473 -58 670
-43 102 -122 232 -178 291 -6 7 -21 25 -35 41 -26 31 -204 183 -204 174 0 -2
-18 7 -40 20 -22 13 -43 23 -47 21 -5 -1 -8 2 -8 8 0 6 -9 10 -19 10 -11 0
-21 3 -23 8 -3 7 -138 54 -155 54 -4 0 -15 4 -24 9 -35 18 -82 23 -269 25
-169 3 -204 1 -265 -17z m489 -117 c38 -10 71 -22 73 -27 2 -6 -25 -40 -59
-78 l-63 -67 -105 86 c-154 126 -152 115 -25 109 61 -3 141 -13 179 -23z
m-402 -63 c81 -37 119 -63 191 -130 64 -60 70 -68 52 -75 -11 -4 -67 -36 -125
-70 -58 -35 -108 -60 -112 -56 -3 4 -27 59 -53 122 -26 63 -53 129 -60 145
-42 97 -42 98 16 91 27 -4 68 -16 91 -27z m638 -30 c0 -5 5 -9 12 -9 11 0 118
-70 144 -95 6 -5 24 -22 40 -36 75 -67 204 -234 204 -264 0 -13 -367 -168
-379 -160 -5 3 -20 26 -33 53 -59 115 -102 191 -145 251 -25 36 -47 71 -50 77
-2 7 22 41 55 76 32 35 72 77 87 94 27 29 65 37 65 13z m-863 -49 c3 -14 9
-29 13 -35 8 -11 96 -231 102 -253 4 -16 -46 -36 -167 -67 -104 -26 -105 -26
-106 -2 -3 46 -1 113 5 152 6 44 14 80 16 80 1 0 3 8 5 18 6 31 53 121 76 146
22 23 23 23 36 5 8 -11 17 -30 20 -44z m-248 -118 c-14 -65 -20 -120 -21 -197
l0 -70 -109 0 c-60 0 -109 1 -109 2 0 6 90 154 102 168 43 51 139 148 142 144
3 -3 1 -24 -5 -47z m832 -124 c13 -18 28 -38 34 -44 5 -6 19 -27 30 -47 11
-20 23 -37 27 -37 5 0 8 -5 8 -10 0 -6 18 -42 39 -80 57 -100 56 -108 -4 -132
-27 -10 -69 -28 -92 -38 -24 -11 -49 -20 -56 -20 -7 0 -17 -4 -22 -8 -15 -12
-125 -55 -130 -50 -14 13 -135 325 -131 335 3 7 12 13 20 13 8 0 16 4 18 9 2
4 23 20 48 34 89 52 116 68 145 87 40 25 40 25 66 -12z m-391 -228 c10 -25 39
-94 64 -154 25 -60 46 -116 46 -125 0 -10 -22 -24 -63 -40 -34 -13 -80 -32
-102 -41 -60 -27 -172 -70 -182 -70 -15 0 -87 259 -98 353 -5 44 -5 47 22 53
15 3 60 15 98 25 39 11 70 19 70 18 0 0 7 2 15 5 31 10 95 24 103 22 5 -1 17
-22 27 -46z m1174 -188 c18 -97 13 -267 -9 -352 -2 -8 -13 -47 -25 -86 -22
-70 -23 -71 -53 -68 -18 1 -74 4 -125 6 -101 3 -95 -1 -107 78 -7 44 -9 54
-20 103 -3 12 -7 31 -10 42 -2 11 -20 78 -40 149 -20 71 -34 136 -33 143 3 13
37 30 153 78 22 9 81 33 130 54 l90 38 18 -56 c10 -31 24 -89 31 -129z m-1633
141 c8 -8 16 -42 25 -108 3 -22 8 -47 10 -55 3 -8 8 -26 10 -40 3 -14 18 -69
35 -124 17 -54 27 -102 22 -107 -8 -7 -347 -148 -366 -152 -12 -2 -22 30 -46
148 -9 48 -8 262 2 315 5 26 25 106 32 128 4 10 34 12 137 8 72 -3 135 -9 139
-13z m1113 -215 c29 -102 65 -243 71 -273 2 -16 7 -39 9 -50 2 -11 7 -41 10
-67 l6 -47 -37 -9 c-21 -5 -78 -19 -128 -31 -135 -34 -142 -34 -148 -19 -54
136 -142 350 -152 371 -14 28 -14 28 42 52 30 14 59 25 64 25 5 0 17 5 27 10
19 12 203 89 214 90 4 0 13 -24 22 -52z m-449 -238 c16 -41 32 -79 35 -85 4
-5 22 -48 40 -95 18 -47 37 -89 42 -94 18 -21 8 -55 -17 -62 -14 -3 -25 -10
-25 -15 0 -5 -9 -9 -20 -9 -11 0 -20 -4 -20 -10 0 -5 -5 -10 -10 -10 -6 0 -44
-20 -85 -46 -42 -25 -80 -42 -85 -39 -39 24 -250 370 -250 410 0 3 21 15 47
26 182 78 213 90 248 99 6 1 19 9 30 16 26 18 34 8 70 -86z m-459 -190 c49
-98 131 -231 190 -309 19 -24 33 -48 32 -52 -2 -4 -40 -46 -86 -94 l-83 -88
-65 34 c-35 19 -64 37 -64 41 0 5 -5 8 -11 8 -15 0 -104 74 -162 135 -48 50
-177 235 -177 253 0 8 59 42 73 42 2 0 26 10 53 22 27 12 51 23 54 23 3 1 16
7 30 13 73 31 165 69 167 68 1 -1 23 -44 49 -96z m1293 -157 c-62 -102 -172
-228 -190 -218 -5 4 -7 9 -5 13 2 4 7 34 10 67 7 78 16 147 21 163 3 8 31 12
96 12 l91 0 -23 -37z m-274 -13 c1 -98 -63 -277 -117 -327 l-23 -22 -57 139
c-82 200 -84 181 13 208 44 13 93 26 107 28 15 3 28 7 30 8 1 2 13 3 25 2 18
-1 22 -7 22 -36z m-369 -97 c53 -135 98 -243 110 -265 14 -26 14 -28 -3 -29
-90 -8 -197 43 -309 144 -52 48 -53 46 51 99 33 16 62 33 65 37 5 6 61 39 70
40 3 1 10 -11 16 -26z m-313 -215 c18 -12 34 -25 37 -28 3 -3 27 -24 55 -45
103 -82 103 -78 -5 -71 -52 3 -104 7 -115 9 -11 3 -38 8 -60 12 -80 14 -81 19
-12 85 34 33 64 60 65 60 2 0 18 -10 35 -22z"/>
<path d="M3366 6600 c-1 -3 -1 -39 0 -80 11 -328 10 -361 -10 -376 -21 -15
-74 -19 -92 -6 -16 10 -33 46 -32 68 0 10 -3 91 -7 179 -4 88 -8 170 -8 183
-1 21 -5 22 -89 22 l-88 0 5 -170 c5 -186 12 -284 22 -315 12 -39 49 -77 98
-103 41 -21 64 -25 130 -25 86 1 92 2 145 25 46 20 84 64 101 113 12 38 13 71
5 407 0 36 -4 69 -8 73 -7 8 -169 12 -172 5z"/>
<path d="M3735 6588 c-3 -8 -7 -34 -10 -59 -2 -24 -4 -44 -5 -44 -1 0 -3 -9
-4 -20 -10 -73 -18 -134 -23 -160 -2 -16 -6 -46 -8 -65 -3 -19 -7 -51 -9 -70
-20 -131 -23 -166 -17 -172 3 -3 29 -9 56 -13 28 -3 62 -8 77 -10 38 -7 38 -8
58 141 6 44 12 90 15 102 2 11 6 47 10 79 13 122 18 137 43 124 9 -4 28 -7 40
-6 34 3 84 -35 93 -69 6 -21 3 -38 -9 -58 -19 -33 -39 -40 -102 -36 -50 3 -49
5 -65 -72 -17 -80 -7 -97 91 -160 46 -30 91 -61 99 -67 7 -7 19 -13 26 -13 6
0 27 -9 45 -21 19 -11 34 -17 35 -12 0 4 3 17 5 28 3 11 7 46 10 77 5 52 3 58
-18 70 -13 7 -25 13 -28 13 -21 4 -50 18 -50 24 0 5 13 14 30 21 81 33 127
120 121 229 -4 75 -58 139 -149 174 -23 9 -43 16 -45 16 -2 -2 -103 12 -132
17 -11 2 -38 6 -60 9 -22 3 -57 7 -77 11 -28 4 -39 2 -43 -8z"/>
<path d="M2520 6468 c-106 -33 -155 -74 -197 -166 -58 -124 -8 -327 99 -404
56 -40 107 -54 189 -52 63 1 89 7 142 31 69 33 118 77 139 124 7 16 15 29 18
29 15 0 17 162 3 220 -13 54 -70 146 -111 178 -74 58 -175 73 -282 40z m121
-157 c54 -21 81 -58 97 -136 14 -65 6 -97 -29 -134 -30 -32 -61 -44 -94 -37
-11 3 -25 5 -31 5 -36 3 -96 104 -107 181 -13 84 81 153 164 121z"/>
<path d="M4431 6440 c-45 -23 -81 -84 -81 -138 0 -49 23 -98 91 -196 84 -119
69 -124 -147 -58 -31 10 -32 9 -44 -32 -7 -22 -16 -54 -21 -70 -10 -32 -3 -44
27 -50 17 -4 45 -11 186 -50 26 -7 72 -12 103 -11 90 3 135 50 141 148 2 44
-17 109 -36 127 -3 3 -27 33 -53 67 -47 61 -56 86 -37 98 9 5 137 -23 182 -40
15 -6 31 26 44 91 1 6 5 20 8 31 5 16 -2 22 -53 37 -32 9 -65 18 -72 19 -8 2
-20 6 -26 10 -7 5 -13 6 -13 2 0 -3 -10 -1 -21 6 -48 25 -138 30 -178 9z"/>
<path d="M1911 6189 c-96 -54 -181 -104 -189 -113 -13 -12 -11 -21 17 -70 34
-59 52 -77 59 -58 2 7 11 12 21 12 9 0 26 8 37 18 10 9 26 18 34 19 16 3 20
-3 100 -153 30 -54 66 -121 82 -147 15 -26 28 -52 28 -56 0 -5 6 -14 14 -20
12 -10 29 -5 85 26 39 21 73 43 75 49 4 11 -83 177 -192 366 -18 31 -10 43 50
71 20 10 40 21 42 26 10 16 -54 131 -72 130 -9 -1 -95 -45 -191 -100z"/>
<path d="M1156 5629 c-31 -28 -56 -59 -56 -69 0 -32 50 -180 88 -259 20 -42
36 -79 35 -83 -1 -3 4 -12 12 -18 8 -7 15 -17 15 -23 0 -14 67 -147 89 -175
16 -22 16 -22 79 37 34 33 62 64 62 70 0 6 -11 30 -25 53 -44 73 -148 289
-142 294 3 3 33 -9 67 -26 l61 -31 -30 -35 -31 -34 32 -64 32 -65 64 57 c53
47 66 54 80 44 65 -46 64 -46 131 16 41 38 60 62 56 72 -5 13 -98 85 -130 100
-5 3 -28 17 -50 31 -22 14 -50 29 -62 33 -13 4 -23 12 -23 17 0 5 -6 9 -13 9
-7 0 -29 8 -50 19 -35 18 -122 54 -122 51 0 0 -17 6 -37 14 -57 24 -72 20
-132 -35z"/>
<path d="M3557 5584 c-1 -1 -44 -5 -95 -8 -51 -4 -102 -9 -115 -12 -12 -3 -38
-7 -57 -9 -77 -9 -303 -57 -375 -80 -22 -7 -65 -20 -95 -29 -30 -9 -71 -23
-90 -31 -19 -8 -89 -35 -155 -60 -116 -45 -259 -112 -334 -156 -86 -52 -216
-134 -221 -139 -3 -4 -27 -21 -55 -40 -27 -18 -54 -38 -60 -44 -5 -7 -21 -19
-34 -29 -135 -92 -404 -382 -522 -562 -57 -86 -99 -156 -99 -164 0 -4 -8 -19
-18 -32 -69 -91 -217 -509 -217 -612 0 -44 2 -45 171 -123 123 -57 151 -69
214 -89 30 -10 60 -20 65 -24 6 -3 17 -6 25 -8 15 -2 32 -6 140 -37 30 -9 73
-18 95 -21 22 -3 51 -7 65 -10 34 -7 122 -17 265 -31 130 -13 409 -7 510 11
17 3 55 10 85 15 82 15 94 17 136 29 70 19 71 23 -40 -72 -27 -23 -63 -51 -80
-62 -17 -10 -33 -22 -36 -25 -20 -22 -261 -118 -283 -112 -4 1 -16 -2 -25 -7
-9 -5 -36 -11 -60 -15 -24 -3 -47 -8 -51 -10 -4 -3 -33 -7 -66 -11 -70 -6
-115 -14 -127 -21 -4 -3 -8 -1 -8 4 0 6 -14 7 -32 3 -63 -13 -236 -4 -378 19
-30 5 -71 11 -90 14 -141 21 -380 96 -503 158 -21 10 -41 17 -45 14 -25 -15
-15 -870 11 -912 3 -6 42 -9 88 -7 309 12 611 141 830 354 l48 47 24 -22 c108
-100 214 -174 333 -234 72 -36 209 -88 216 -81 2 1 12 -3 23 -9 12 -5 41 -13
65 -17 25 -4 47 -8 51 -10 10 -7 160 -18 239 -18 68 0 150 8 204 19 12 2 37 7
56 10 95 16 302 101 410 169 65 41 159 114 202 158 20 20 40 37 45 37 4 0 31
-21 58 -45 96 -86 158 -135 173 -135 6 0 12 -3 14 -7 12 -27 259 -140 347
-159 14 -3 28 -7 32 -9 4 -3 24 -7 45 -10 22 -4 46 -8 55 -11 89 -26 340 -22
464 8 28 6 59 12 70 14 84 9 383 148 430 198 6 6 28 23 50 38 23 16 61 48 85
73 25 24 49 45 54 45 5 0 22 -13 37 -30 28 -29 110 -97 159 -133 36 -25 180
-106 180 -100 0 2 15 -4 33 -15 103 -63 348 -116 537 -116 312 0 652 130 858
328 35 34 67 62 71 64 5 1 39 -27 77 -62 38 -36 72 -66 75 -66 3 0 19 -11 34
-25 16 -13 71 -47 122 -76 82 -45 95 -50 110 -38 20 16 98 99 128 136 11 14
30 37 43 52 51 57 145 209 159 256 36 119 44 169 44 275 0 149 -5 198 -34 315
-12 49 -88 256 -117 320 -5 11 -39 88 -75 170 -37 83 -80 178 -96 212 -87 184
-121 351 -95 472 45 206 212 396 398 452 113 35 231 15 335 -55 20 -14 40 -23
44 -21 9 6 -35 145 -68 213 -23 47 -103 131 -115 121 -3 -2 -11 1 -19 7 -37
30 -121 44 -263 41 -134 -2 -145 -4 -219 -35 -221 -91 -356 -251 -381 -451 -3
-24 -7 -46 -9 -47 -2 -2 -43 17 -92 41 -157 78 -277 88 -488 41 -106 -24 -238
-117 -312 -221 -51 -72 -83 -143 -93 -210 -8 -52 -7 -203 1 -212 3 -2 25 17
49 43 98 108 170 155 266 172 69 12 185 8 242 -9 45 -13 140 -60 167 -82 57
-47 136 -131 165 -177 28 -44 68 -132 74 -160 0 -3 3 -12 7 -20 38 -92 54
-318 31 -413 -7 -26 -12 -48 -12 -50 5 -13 -50 -145 -74 -179 -87 -122 -181
-167 -349 -164 -178 2 -389 77 -513 180 -72 60 -204 192 -266 265 -25 30 -51
60 -57 67 -7 7 -13 15 -13 19 0 4 -6 12 -12 19 -7 7 -22 25 -33 40 -11 16 -25
33 -30 40 -12 12 -102 132 -125 166 -8 12 -23 31 -32 43 -32 40 -142 190 -292
397 -250 342 -291 394 -441 550 -69 72 -113 111 -205 179 -41 31 -77 58 -80
61 -30 29 -313 165 -420 200 -52 18 -102 35 -110 38 -8 3 -18 5 -22 4 -4 -1
-20 3 -35 9 -15 6 -37 13 -48 15 -32 6 -56 12 -125 28 -66 15 -122 23 -220 32
-30 3 -66 8 -80 11 -22 5 -497 12 -503 7z m-1017 -1309 c0 3 17 -2 38 -10 138
-58 180 -236 81 -348 -62 -71 -148 -96 -237 -70 -40 12 -112 58 -112 72 0 4
23 6 52 5 86 -2 155 48 178 131 21 75 0 150 -56 202 l-24 22 23 3 c12 2 30 0
40 -4 9 -5 17 -6 17 -3z"/>
<path d="M802 5257 c-65 -87 -71 -104 -57 -151 7 -23 19 -54 26 -71 7 -16 13
-32 14 -35 5 -15 26 -64 35 -79 9 -17 2 -18 -116 -15 -76 3 -133 0 -145 -6
-11 -6 -40 -42 -66 -81 l-46 -70 23 -17 c35 -25 137 -97 205 -144 33 -23 65
-46 70 -51 40 -34 183 -127 196 -127 8 0 25 17 37 38 11 21 30 48 41 61 40 46
45 40 -151 174 -37 25 -64 48 -60 51 4 2 25 2 47 0 67 -8 67 -8 133 -35 13 -5
27 -9 31 -9 13 0 61 74 61 95 0 15 -58 98 -81 115 -6 5 -39 77 -39 87 0 2 29
-16 65 -41 36 -25 70 -46 75 -46 4 0 10 -4 12 -8 6 -16 110 -82 119 -76 16 10
89 123 89 138 0 8 -24 31 -52 52 -29 21 -58 43 -65 49 -7 5 -34 25 -60 43 -26
18 -105 73 -175 122 l-128 89 -38 -52z"/>
<path d="M361 4568 c-10 -24 -44 -101 -76 -173 -31 -71 -64 -144 -71 -162 -8
-17 -14 -35 -14 -41 0 -8 107 -62 124 -62 4 0 18 27 33 60 14 33 29 60 33 60
4 0 43 -16 86 -36 117 -53 154 -70 209 -93 28 -12 61 -27 75 -34 30 -15 60
-11 60 8 0 7 13 43 30 79 l29 67 -32 14 c-18 8 -90 41 -162 73 -71 32 -149 67
-172 77 -50 22 -51 31 -19 100 l24 50 -56 27 c-32 15 -63 27 -70 28 -7 0 -21
-19 -31 -42z"/>
<path d="M601 3982 c-6 -11 -14 -38 -17 -59 -3 -21 -8 -41 -11 -46 -2 -4 -6
-20 -9 -35 -10 -59 -12 -60 -52 -51 -294 71 -376 89 -391 89 -18 0 -26 -19
-37 -90 -6 -34 -15 -74 -19 -81 -3 -4 30 -15 73 -24 42 -10 111 -26 152 -36
41 -10 89 -20 105 -23 17 -3 73 -16 125 -29 137 -33 130 -35 152 58 11 44 21
89 23 100 1 11 3 20 5 20 1 0 3 9 4 20 2 11 11 51 20 88 21 91 21 93 -16 102
-82 17 -96 17 -107 -3z"/>
<path d="M527 3534 c-1 -1 -21 -5 -43 -7 -23 -3 -81 -15 -130 -27 -49 -12 -93
-23 -99 -25 -5 -1 -21 -6 -35 -12 -83 -35 -157 -63 -167 -63 -7 0 -13 -4 -13
-10 0 -5 -7 -10 -15 -10 -11 0 -15 -12 -16 -42 0 -24 -3 -64 -5 -89 -3 -35 0
-49 13 -61 29 -24 114 -72 180 -101 120 -53 370 -140 381 -133 8 5 12 46 16
141 l1 40 -75 23 c-90 28 -132 44 -127 48 1 2 21 -3 42 -11 69 -24 70 -24 73
62 2 46 8 81 15 85 7 4 28 8 48 8 42 0 45 5 48 83 1 32 5 69 7 83 4 23 3 24
-46 23 -27 -1 -51 -3 -53 -5z m-155 -268 c-2 -25 -7 -46 -11 -46 -4 0 -34 11
-66 24 -42 17 -54 26 -44 32 18 11 112 42 119 38 3 -1 4 -23 2 -48z"/>
<path d="M344 2930 c-23 -11 -46 -32 -52 -45 -7 -16 -17 -23 -27 -19 -8 3 -15
9 -15 13 0 7 -47 34 -62 35 -3 1 -9 4 -13 8 -9 9 -65 -1 -97 -18 -14 -7 -37
-28 -50 -46 -22 -32 -23 -42 -26 -240 l-3 -208 300 0 300 0 -4 205 c-4 229
-11 256 -72 302 -47 36 -123 42 -179 13z m101 -202 c9 -16 17 -50 19 -76 l3
-48 -105 -2 c-58 -1 -102 1 -98 5 4 4 25 6 46 4 39 -2 40 -2 41 31 1 18 0 43
0 55 -3 25 34 62 59 60 10 -1 26 -14 35 -29z m-234 -17 c1 -9 1 -35 1 -58 -1
-35 2 -42 21 -46 12 -3 0 -5 -28 -5 -58 0 -87 6 -81 17 3 4 6 29 7 55 3 60 20
80 54 64 14 -6 25 -18 26 -27z"/>
<path d="M5675 2278 c-11 -7 -36 -27 -55 -46 -77 -76 -218 -172 -323 -220 -52
-24 -181 -69 -218 -76 -13 -3 -24 -5 -24 -7 0 -1 -9 -3 -20 -5 -20 -3 -46 -8
-134 -24 -57 -10 -276 -5 -361 9 -133 22 -306 80 -410 139 -25 14 -54 30 -65
36 -39 21 -112 79 -199 158 -23 21 -49 38 -58 38 -9 0 -32 -14 -50 -31 -18
-17 -53 -45 -78 -62 -25 -17 -53 -39 -63 -47 -9 -9 -30 -23 -45 -31 -15 -8
-36 -22 -46 -31 -10 -10 -23 -15 -27 -12 -4 2 -10 0 -13 -5 -5 -8 -66 -39
-146 -73 -62 -27 -155 -56 -196 -62 -37 -5 -61 -9 -121 -22 -51 -10 -268 -13
-318 -3 -27 5 -61 11 -75 13 -52 8 -88 18 -174 47 -98 33 -256 107 -256 121 0
4 -6 8 -12 8 -17 1 -120 79 -179 135 -55 53 -86 63 -114 38 -130 -118 -549
-278 -864 -329 -18 -3 -41 -7 -50 -9 -166 -30 -304 -33 -468 -10 -42 6 -42
-11 0 -28 115 -48 400 -134 507 -153 14 -3 52 -11 85 -19 96 -22 172 -29 295
-29 134 0 194 7 270 30 30 10 57 18 60 19 24 5 112 52 151 80 27 19 55 35 62
35 6 0 26 -12 42 -26 100 -87 280 -171 470 -218 180 -45 191 -46 418 -46 189
0 237 3 317 21 52 11 106 23 118 25 13 3 43 12 65 20 23 8 65 23 92 33 69 25
166 78 265 144 l84 56 25 -20 c94 -72 249 -161 306 -175 6 -2 43 -15 84 -29
41 -15 83 -29 95 -32 12 -2 39 -9 61 -14 22 -6 52 -11 68 -12 15 -1 27 -5 27
-8 0 -3 111 -7 248 -8 216 -2 259 1 338 18 50 11 97 23 105 25 8 3 25 7 39 10
61 10 260 96 323 140 21 14 40 26 43 26 3 0 10 5 17 10 54 45 91 69 101 63 6
-3 27 -18 46 -32 143 -106 249 -154 510 -227 88 -25 112 -27 340 -31 203 -4
259 -2 325 12 44 9 87 18 95 20 159 33 339 113 479 212 35 26 69 46 75 46 6 0
40 -18 75 -41 59 -39 142 -76 193 -86 13 -3 33 -7 45 -10 84 -18 279 -25 359
-11 77 13 89 15 124 19 107 14 449 107 556 152 17 7 34 10 38 7 3 -4 6 0 6 8
0 11 -26 14 -138 14 -155 1 -245 9 -346 31 -39 8 -81 17 -93 20 -12 2 -35 9
-50 15 -16 6 -29 10 -31 9 -7 -5 -89 14 -99 22 -7 6 -13 8 -13 5 0 -7 -66 14
-210 68 -166 62 -261 107 -334 159 -34 23 -66 46 -73 49 -6 4 -24 -5 -40 -19
-130 -122 -331 -253 -445 -289 -12 -4 -27 -9 -33 -11 -5 -2 -51 -14 -102 -28
-241 -64 -531 -54 -748 26 -39 14 -249 111 -255 118 -3 3 -30 22 -60 42 -55
37 -81 59 -155 129 -34 32 -43 36 -60 27z"/>
</g>
</svg>
