<svg xmlns="http://www.w3.org/2000/svg" viewBox="0 0 48.346 35.371">
  <g  transform="translate(-61.111 -260.305)">
    <g id="Group_4199" data-name="Group 4199">
      <g id="Group_4198" data-name="Group 4198">
        <g id="Group_4197" data-name="Group 4197">
          <g id="Group_4196" data-name="Group 4196">
            <path id="Path_2409" data-name="Path 2409" d="M106.868,276.893c-.237.755-.548,1.639-.946,2.571a23.019,23.019,0,0,1-2.368,4.263,37.715,37.715,0,0,1-2.954,3.59,10,10,0,0,0-2.242-.251c-.224,0-.454.007-.69.023a8.424,8.424,0,0,0-4.238,1.427,8.827,8.827,0,0,0-5.231-1.627,9.075,9.075,0,0,0-5.149,1.463,8.855,8.855,0,0,0-5.069-1.485h-.116a9.068,9.068,0,0,0-5.1,1.422,9.274,9.274,0,0,0-2.2-1,9.813,9.813,0,0,0-2.91-.435,8.947,8.947,0,0,0-2.321.286l-.147.039a7.5,7.5,0,0,0-1.433.5,22.752,22.752,0,0,1-.586-4.542c-.058-1.124-.061-4.04-.056-6.025H63.8a4.034,4.034,0,0,0,.41.955,3.8,3.8,0,0,0,3.1,1.732l.041,0H89a4.4,4.4,0,0,0,3.577-1.761,3.919,3.919,0,0,0,.54-1.144h13.748m2.589-2H91.986a.605.605,0,0,0-.582.464,4.08,4.08,0,0,1-.452,1.518,2.448,2.448,0,0,1-1.961.923H67.4a1.831,1.831,0,0,1-1.474-.766,3.7,3.7,0,0,1-.364-1.429c-.041-.284-.22-.493-.751-.494H61.123s-.047,6.283.048,8.128a23.79,23.79,0,0,0,.694,5.116c.216.806.742,2.138,1.165,2.138a.214.214,0,0,0,.141-.055,5.779,5.779,0,0,1,2.7-1.369,7.034,7.034,0,0,1,1.788-.214,7.854,7.854,0,0,1,2.318.345,5.353,5.353,0,0,1,2.813,1.724s1.472-2.056,5.078-2.056h.1c3.7.037,5.055,2.19,5.055,2.19a6.313,6.313,0,0,1,5.183-2.168,6.15,6.15,0,0,1,5.181,2.36,6.059,6.059,0,0,1,4.42-2.164c.19-.013.376-.019.558-.019a7.851,7.851,0,0,1,2.8.507,30.732,30.732,0,0,0,4-4.662,24.922,24.922,0,0,0,2.6-4.663,28.4,28.4,0,0,0,1.695-5.355Z" fill="inherit"/>
          </g>
        </g>
      </g>
    </g>
    <g id="Group_4204" data-name="Group 4204">
      <g id="Group_4203" data-name="Group 4203">
        <g id="Group_4202" data-name="Group 4202">
          <g id="Group_4201" data-name="Group 4201">
            <g id="Group_4200" data-name="Group 4200">
              <path id="Path_2410" data-name="Path 2410" d="M93.832,269.23c.024,0,.057.011.084.018a4.948,4.948,0,0,1,1.536,1.54l.014.02H91.337a3.127,3.127,0,0,0-2.834,1.549,4.482,4.482,0,0,0-.426,1.285l-.016.071H68.786a4.533,4.533,0,0,0-1.19-1.592,4.638,4.638,0,0,0-1.545-.842l1.321-2.048h26.46m.035-2H66.741a.939.939,0,0,0-.707.385l-3.29,5.1c-.137.212-.042.385.21.385h2.092a2.494,2.494,0,0,1,1.246.538,2.523,2.523,0,0,1,.87,1.622.563.563,0,0,0,.534.453H87.983c.063,0,.166.005.293.005a1.754,1.754,0,0,0,1.293-.4c.42-.477.449-1.569.678-1.977a1.157,1.157,0,0,1,1.09-.528H98.07a.372.372,0,0,0,.378-.452,8.175,8.175,0,0,0-1.334-2.681,6.535,6.535,0,0,0-2.372-2.253,2.487,2.487,0,0,0-.875-.192Z" fill="inherit"/>
            </g>
          </g>
        </g>
      </g>
    </g>
    <path id="Path_2411" data-name="Path 2411" d="M78.553,262.3l.5.474a3.322,3.322,0,0,0,2.167.863h2.288l.152.2H71.792l.977-1.54h5.784m.338-2H72.129a.931.931,0,0,0-.7.387L68.4,265.458c-.136.212-.04.387.212.387h18.6c.252,0,.335-.165.183-.367l-2.61-3.469a1.038,1.038,0,0,0-.735-.367H81.221a1.332,1.332,0,0,1-.791-.315l-.748-.707a1.326,1.326,0,0,0-.791-.315Z" fill="inherit"/>
    <g id="Group_4233" data-name="Group 4233">
      <g id="Group_4208" data-name="Group 4208">
        <g id="Group_4207" data-name="Group 4207">
          <g id="Group_4206" data-name="Group 4206">
            <g id="Group_4205" data-name="Group 4205">
              <rect id="Rectangle_2939" data-name="Rectangle 2939" width="1.169" height="1.169" rx="0.27" transform="translate(81.92 270.878)" fill="inherit"/>
            </g>
          </g>
        </g>
      </g>
      <g id="Group_4212" data-name="Group 4212">
        <g id="Group_4211" data-name="Group 4211">
          <g id="Group_4210" data-name="Group 4210">
            <g id="Group_4209" data-name="Group 4209">
              <rect id="Rectangle_2940" data-name="Rectangle 2940" width="1.169" height="1.169" rx="0.27" transform="translate(79.582 270.878)" fill="inherit"/>
            </g>
          </g>
        </g>
      </g>
      <g id="Group_4216" data-name="Group 4216">
        <g id="Group_4215" data-name="Group 4215">
          <g id="Group_4214" data-name="Group 4214">
            <g id="Group_4213" data-name="Group 4213">
              <rect id="Rectangle_2941" data-name="Rectangle 2941" width="1.169" height="1.169" rx="0.27" transform="translate(77.244 270.878)" fill="inherit"/>
            </g>
          </g>
        </g>
      </g>
      <g id="Group_4220" data-name="Group 4220">
        <g id="Group_4219" data-name="Group 4219">
          <g id="Group_4218" data-name="Group 4218">
            <g id="Group_4217" data-name="Group 4217">
              <rect id="Rectangle_2942" data-name="Rectangle 2942" width="1.169" height="1.169" rx="0.27" transform="translate(74.906 270.878)" fill="inherit"/>
            </g>
          </g>
        </g>
      </g>
      <g id="Group_4224" data-name="Group 4224">
        <g id="Group_4223" data-name="Group 4223">
          <g id="Group_4222" data-name="Group 4222">
            <g id="Group_4221" data-name="Group 4221">
              <rect id="Rectangle_2943" data-name="Rectangle 2943" width="1.169" height="1.169" rx="0.27" transform="translate(72.568 270.878)" fill="inherit"/>
            </g>
          </g>
        </g>
      </g>
      <g id="Group_4228" data-name="Group 4228">
        <g id="Group_4227" data-name="Group 4227">
          <g id="Group_4226" data-name="Group 4226">
            <g id="Group_4225" data-name="Group 4225">
              <rect id="Rectangle_2944" data-name="Rectangle 2944" width="1.169" height="1.169" rx="0.27" transform="translate(70.23 270.878)" fill="inherit"/>
            </g>
          </g>
        </g>
      </g>
      <g id="Group_4232" data-name="Group 4232">
        <g id="Group_4231" data-name="Group 4231">
          <g id="Group_4230" data-name="Group 4230">
            <g id="Group_4229" data-name="Group 4229">
              <path id="Path_2412" data-name="Path 2412" d="M86.1,271.122a.641.641,0,0,0-.438-.21H84.652c-.148,0-.2.1-.109.217l.5.668a.605.605,0,0,0,.43.217h1.071c.148,0,.194-.1.1-.211Z" fill="inherit"/>
            </g>
          </g>
        </g>
      </g>
    </g>
    <g id="Group_4237" data-name="Group 4237">
      <g id="Group_4236" data-name="Group 4236">
        <g id="Group_4235" data-name="Group 4235">
          <g id="Group_4234" data-name="Group 4234">
            <path id="Path_2413" data-name="Path 2413" d="M92.507,295.676a4.454,4.454,0,0,0-8.616,0H82.264a6.042,6.042,0,0,1,11.87,0Z" fill="inherit"/>
          </g>
        </g>
      </g>
    </g>
    <g id="Group_4241" data-name="Group 4241">
      <g id="Group_4240" data-name="Group 4240">
        <g id="Group_4239" data-name="Group 4239">
          <g id="Group_4238" data-name="Group 4238">
            <path id="Path_2414" data-name="Path 2414" d="M82.26,295.676a4.454,4.454,0,0,0-8.616,0H72.017a6.042,6.042,0,0,1,11.87,0Z" fill="inherit"/>
          </g>
        </g>
      </g>
    </g>
    <g id="Group_4245" data-name="Group 4245">
      <g id="Group_4244" data-name="Group 4244">
        <g id="Group_4243" data-name="Group 4243">
          <g id="Group_4242" data-name="Group 4242">
            <path id="Path_2415" data-name="Path 2415" d="M72.013,295.676a4.453,4.453,0,0,0-8.615,0H61.77a6.043,6.043,0,0,1,11.871,0Z" fill="inherit"/>
          </g>
        </g>
      </g>
    </g>
    <g id="Group_4249" data-name="Group 4249">
      <g id="Group_4248" data-name="Group 4248">
        <g id="Group_4247" data-name="Group 4247">
          <g id="Group_4246" data-name="Group 4246">
            <path id="Path_2416" data-name="Path 2416" d="M102.753,295.676a4.454,4.454,0,0,0-8.616,0H92.51a6.042,6.042,0,0,1,11.87,0Z" fill="inherit"/>
          </g>
        </g>
      </g>
    </g>
    <g id="Group_4253" data-name="Group 4253">
      <g id="Group_4252" data-name="Group 4252">
        <g id="Group_4251" data-name="Group 4251">
          <g id="Group_4250" data-name="Group 4250">
            <path id="Path_2417" data-name="Path 2417" d="M69.542,282.39h20a7.513,7.513,0,0,0,3.876-.85,4.112,4.112,0,0,0,1.927-2.722h9.782l-.306.772H96.033a5,5,0,0,1-2.243,2.7,7.784,7.784,0,0,1-3.943.883h-19.5a.977.977,0,0,1-.595-.2A.91.91,0,0,1,69.542,282.39Z" fill="inherit"/>
          </g>
        </g>
      </g>
    </g>
  </g>
</svg>
