<svg xmlns="http://www.w3.org/2000/svg"  viewBox="0 0 34.01 35.525">
  <g  transform="translate(-424.012 -252.838)">
    <path id="Path_2228" data-name="Path 2228" d="M449.211,277.336l-.36,2.164c5.506.98,7.006,2.424,7.006,3.093,0,1.289-5.618,3.659-14.841,3.659s-14.84-2.37-14.84-3.659c0-.617,1.7-2.166,7.006-3.093l-.412-2.164c-3.244.617-8.758,2.111-8.758,5.255,0,3.813,8.555,5.772,17.005,5.772s17.005-1.958,17.005-5.772h0C458.023,280.172,455.034,278.419,449.211,277.336Z" fill="inherit"/>
    <path id="Path_2501" data-name="Path 2501" d="M441.371,254.838a6.846,6.846,0,0,1,6.838,6.839c0,4.609-4.049,12.729-6.846,17.644-2.794-4.875-6.83-12.94-6.83-17.644a6.847,6.847,0,0,1,6.838-6.839m0-2a8.854,8.854,0,0,0-8.838,8.839c0,7.673,8.838,21.539,8.838,21.539s8.838-14.025,8.838-21.539a8.854,8.854,0,0,0-8.838-8.839Z" fill="inherit"/>
  </g>
</svg>
