<svg xmlns="http://www.w3.org/2000/svg"  viewBox="0 0 29.958 35.391">
  <g  transform="translate(-486.77 -252.883)">
    <path id="Path_2503" data-name="Path 2503" d="M508.691,255.036c3.216,1.282,4.87,4.424,5.6,6.308l-5.963-6.139.364-.169m-.114-2.153-3.645,1.7,9.623,9.907,2.173-2.066s-1.64-7.616-8.151-9.538Z" fill="inherit"/>
    <circle id="Ellipse_79" data-name="Ellipse 79" cx="2.815" cy="2.815" r="2.815" transform="translate(498.471 275.213)" fill="inherit"/>
    <path id="Path_2504" data-name="Path 2504" d="M490.637,263.606l8.706,8.066a6.657,6.657,0,0,0-4.7,6.356c0,.176.007.351.02.523a8.709,8.709,0,0,0-2.1.682,7.786,7.786,0,0,1-1.02.382l-.005-.092c-.01-.182-.021-.362-.04-.54a3.46,3.46,0,0,0-1.435-2.431,2.093,2.093,0,0,0-.26-1.494,2.365,2.365,0,0,0,.557-1.723,2.447,2.447,0,0,0-.895-1.682c1.951-1.909,2.52-3.958,1.556-5.711l-.048-.086a6.877,6.877,0,0,1-.545-1.149,6.044,6.044,0,0,1,.212-1.1m8.079,20.551a6.611,6.611,0,0,0,4.116.332c.071.55.157,1.086.252,1.6a29.333,29.333,0,0,1-3.313.181c-.53,0-1.034-.014-1.5-.041.06-.266.12-.531.182-.8.072-.306.177-.755.262-1.281M490.1,260.38a7.864,7.864,0,0,0-1.674,4.222,4.987,4.987,0,0,0,.841,2.305c.728,1.324-.661,2.9-1.754,3.815-.485.406-.92.815-.668,1.444.18.448,1.48.847,1.519,1.329.043.536-1.228.9-1.164,1.461a1.6,1.6,0,0,0,.833,1.075c.113.079.055.161.052.161h0c-.752.391-.418,1.323.591,1.829l.212.151a1.463,1.463,0,0,1,.619,1.023,10.488,10.488,0,0,0,.128,1.28,1.648,1.648,0,0,0,1.79,1.153h.019c1.2,0,2.63-1.128,3.879-1.128a1.7,1.7,0,0,1,.674.131c1.351.576.759,3.293.511,4.349-.229.978-.439,1.971-.683,2.955a19.074,19.074,0,0,0,3.947.339c2.863,0,5.737-.382,5.644-.792a24.824,24.824,0,0,1-.757-6.265,4.641,4.641,0,1,1,1.067-4.562c.22-.377.463-.751.725-1.124L490.1,260.38Z" fill="inherit"/>
    <path id="Path_2505" data-name="Path 2505" d="M497.289,257.1l13.61,10.545-1.408,2.1L495.862,257.7l1.427-.6m.3-2.294-5.448,2.273.558.494,16.8,14.859.372.33,3.721-5.555-.617-.478-14.637-11.34-.752-.583Z" fill="inherit"/>
  </g>
</svg>
