<svg xmlns="http://www.w3.org/2000/svg"  viewBox="0 0 28.955 35.192">
  <g  transform="translate(-174.652 -182.658)">
    <g id="Group_4170" data-name="Group 4170">
      <g id="Group_4082" data-name="Group 4082">
        <g id="Group_4072" data-name="Group 4072">
          <g id="Group_4070" data-name="Group 4070">
            <path id="Path_2246" data-name="Path 2246" d="M195.286,202.658l4.273.817-4.273.817Z" fill="inherit"/>
          </g>
          <g id="Group_4071" data-name="Group 4071">
            <path id="Path_2247" data-name="Path 2247" d="M182.973,202.658l-4.272.817,4.272.817Z" fill="inherit"/>
          </g>
        </g>
        <g id="Group_4075" data-name="Group 4075">
          <g id="Group_4073" data-name="Group 4073">
            <path id="Path_2248" data-name="Path 2248" d="M188.313,197.316l.816-4.272.816,4.272Z" fill="inherit"/>
          </g>
          <g id="Group_4074" data-name="Group 4074">
            <path id="Path_2249" data-name="Path 2249" d="M188.313,209.632l.816,4.273.816-4.273Z" fill="inherit"/>
          </g>
        </g>
        <g id="Group_4078" data-name="Group 4078">
          <g id="Group_4076" data-name="Group 4076">
            <path id="Path_2250" data-name="Path 2250" d="M184.547,199.7l-1.707-2.513,2.513,1.707Z" fill="inherit"/>
          </g>
          <g id="Group_4077" data-name="Group 4077">
            <path id="Path_2251" data-name="Path 2251" d="M192.9,208.058l2.513,1.706-1.707-2.513Z" fill="inherit"/>
          </g>
        </g>
        <g id="Group_4081" data-name="Group 4081">
          <g id="Group_4079" data-name="Group 4079">
            <path id="Path_2252" data-name="Path 2252" d="M185.353,208.058l-2.513,1.706,1.707-2.513Z" fill="inherit"/>
          </g>
          <g id="Group_4080" data-name="Group 4080">
            <path id="Path_2253" data-name="Path 2253" d="M193.711,199.7l1.707-2.513-2.513,1.707Z" fill="inherit"/>
          </g>
        </g>
      </g>
      <g id="Group_4085" data-name="Group 4085">
        <path id="Path_2256" data-name="Path 2256" d="M189.1,209.866a6.5,6.5,0,1,1,6.5-6.5h0A6.508,6.508,0,0,1,189.1,209.866Zm0-12.317a5.816,5.816,0,1,0,5.816,5.817A5.816,5.816,0,0,0,189.1,197.549Z" fill="inherit"/>
      </g>
      <g id="Group_4169" data-name="Group 4169">
        <path id="Path_2384" data-name="Path 2384" d="M189.129,199.933a3.5,3.5,0,0,1,1.663.433l-1.662-8.7-1.662,8.7A3.505,3.505,0,0,1,189.129,199.933Z" fill="inherit"/>
        <path id="Path_2385" data-name="Path 2385" d="M189.129,207.015h0a3.5,3.5,0,0,1-1.708-.457l1.709,8.734,1.709-8.736A3.492,3.492,0,0,1,189.129,207.015Z" fill="inherit"/>
      </g>
      <g id="Group_4084" data-name="Group 4084">
        <path id="Path_2255" data-name="Path 2255" d="M189.175,206.5a3,3,0,1,1,3-3,3,3,0,0,1-3,3Zm0-3.867a.869.869,0,1,0,.869.869A.869.869,0,0,0,189.175,202.633Z" fill="inherit"/>
      </g>
    </g>
    <path id="Path_2386" data-name="Path 2386" d="M191.845,185.374a2.716,2.716,0,1,0-5,1.459v2.684l.006.006h4.554l.006-.006v-2.684A2.691,2.691,0,0,0,191.845,185.374Zm-2.715-1.628v0a1.63,1.63,0,1,1-1.629,1.631A1.629,1.629,0,0,1,189.13,183.744Z" fill="inherit"/>
    <g id="Group_4171" data-name="Group 4171">
      <path id="Path_2387" data-name="Path 2387" d="M189.129,217.85a14.478,14.478,0,1,1,14.478-14.477A14.494,14.494,0,0,1,189.129,217.85Zm0-26.956a12.478,12.478,0,1,0,12.478,12.479A12.492,12.492,0,0,0,189.129,190.894Z" fill="inherit"/>
    </g>
  </g>
</svg>
