<svg xmlns="http://www.w3.org/2000/svg"  viewBox="0 0 45.826 35.435">
  <g  transform="translate(-153 -252.839)">
    <g id="Group_4262" data-name="Group 4262">
      <path id="Path_2423" data-name="Path 2423" d="M176.033,264.355h-1.772a9.744,9.744,0,0,0-19.489,0H153a11.517,11.517,0,0,1,23.033,0Z" fill="inherit"/>
    </g>
    <g id="Group_4263" data-name="Group 4263">
      <path id="Path_2424" data-name="Path 2424" d="M198.826,288.274H153V264.355h1.772V286.5h44.054Z" fill="inherit"/>
    </g>
    <g id="Group_4264" data-name="Group 4264">
      <rect id="Rectangle_2945" data-name="Rectangle 2945" width="1.772" height="6.201" transform="translate(174.261 264.355)" fill="inherit"/>
    </g>
    <g id="Group_4275" data-name="Group 4275">
      <g id="Group_4266" data-name="Group 4266">
        <g id="Group_4265" data-name="Group 4265">
          <path id="Path_2425" data-name="Path 2425" d="M193.708,285.3H153.041V270.34h34.192a10.732,10.732,0,0,1,7.99,3.573l1.5,1.676h-9.2a5.478,5.478,0,0,0,5.377,4.464h5.052v1.005A4.248,4.248,0,0,1,193.708,285.3Zm-38.655-2.012h38.655a2.233,2.233,0,0,0,1.992-1.226h-2.8a7.49,7.49,0,0,1-7.481-7.481v-1.005h6.27a8.72,8.72,0,0,0-4.455-1.227h-32.18Z" fill="inherit"/>
        </g>
      </g>
      <g id="Group_4274" data-name="Group 4274">
        <g id="Group_4267" data-name="Group 4267">
          <rect id="Rectangle_2946" data-name="Rectangle 2946" width="1.601" height="12.806" transform="translate(176.088 271.392)" fill="inherit"/>
        </g>
        <g id="Group_4268" data-name="Group 4268">
          <path id="Path_2426" data-name="Path 2426" d="M174.488,281.8h-20.01v-1.6h18.409v-4.8H154.477v-1.6h20.01Z" fill="inherit"/>
        </g>
        <g id="Group_4269" data-name="Group 4269">
          <rect id="Rectangle_2947" data-name="Rectangle 2947" width="1.601" height="6.403" transform="translate(166.483 274.594)" fill="inherit"/>
        </g>
        <g id="Group_4270" data-name="Group 4270">
          <rect id="Rectangle_2948" data-name="Rectangle 2948" width="1.601" height="6.403" transform="translate(160.08 274.594)" fill="inherit"/>
        </g>
        <g id="Group_4271" data-name="Group 4271">
          <rect id="Rectangle_2949" data-name="Rectangle 2949" width="1.601" height="12.806" transform="translate(182.492 271.392)" fill="inherit"/>
        </g>
        <g id="Group_4272" data-name="Group 4272">
          <rect id="Rectangle_2950" data-name="Rectangle 2950" width="6.203" height="1.601" transform="translate(177.089 273.793)" fill="inherit"/>
        </g>
        <g id="Group_4273" data-name="Group 4273">
          <rect id="Rectangle_2951" data-name="Rectangle 2951" width="6.403" height="1.601" transform="translate(176.889 280.197)" fill="inherit"/>
        </g>
      </g>
    </g>
  </g>
</svg>
