<svg xmlns="http://www.w3.org/2000/svg" viewBox="0 0 30.032 35.243">
  <g  transform="translate(-277.355 -252.888)">
    <path id="Path_2441" data-name="Path 2441" d="M298.565,284.793a4.242,4.242,0,0,1-2.752-.982c-2.137-1.784-2.025-4.067-1.934-5.9.021-.428.041-.831.031-1.2-.051-1.98-.277-8.53-.551-12.116-.3-3.944.019-6.659.979-8.3a6.948,6.948,0,0,1,5.774-3.4,7.323,7.323,0,0,1,6.265,4.376c1.448,2.895,1.344,6.859-.346,13.255-.619,2.345-1.038,4.453-1.408,6.313a21.864,21.864,0,0,1-1.433,5.343A5.5,5.5,0,0,1,298.565,284.793Zm1.552-30.138a5.2,5.2,0,0,0-4.253,2.529c-.763,1.3-1.012,3.751-.743,7.275.276,3.62.5,10.213.556,12.2.011.436-.011.892-.033,1.333-.082,1.665-.16,3.238,1.3,4.457a2.461,2.461,0,0,0,1.62.572,3.8,3.8,0,0,0,3.074-1.7,22.211,22.211,0,0,0,1.251-4.842c.356-1.791.8-4.021,1.433-6.419,1.549-5.865,1.7-9.57.473-12.014A5.617,5.617,0,0,0,300.117,254.655Z" fill="inherit"/>
    <path id="Path_2442" data-name="Path 2442" d="M286.177,288.131h0a5.5,5.5,0,0,1-4.625-2.618,21.865,21.865,0,0,1-1.433-5.343c-.37-1.86-.789-3.968-1.408-6.313-1.69-6.4-1.794-10.36-.346-13.255a7.322,7.322,0,0,1,6.26-4.376,6.951,6.951,0,0,1,5.779,3.4c.96,1.643,1.281,4.358.979,8.3-.274,3.587-.5,10.137-.551,12.117-.01.369.01.772.031,1.2.091,1.834.2,4.117-1.934,5.9A4.24,4.24,0,0,1,286.177,288.131Zm-1.549-30.138a5.618,5.618,0,0,0-4.682,3.4c-1.223,2.444-1.077,6.149.473,12.014.633,2.4,1.077,4.627,1.433,6.419a22.209,22.209,0,0,0,1.251,4.842,3.8,3.8,0,0,0,3.074,1.7h0a2.461,2.461,0,0,0,1.62-.572c1.461-1.219,1.383-2.792,1.3-4.457-.021-.441-.044-.9-.033-1.333.052-1.992.28-8.585.556-12.205.27-3.524.02-5.972-.742-7.275A5.2,5.2,0,0,0,284.628,257.993Z" fill="inherit"/>
    <g id="Group_4324" data-name="Group 4324">
      <path id="Path_2443" data-name="Path 2443" d="M283.99,262.14a6.068,6.068,0,0,0-1.537,1.768,11.824,11.824,0,0,0-1.577,3.828,14.1,14.1,0,0,0,.148,6.414c.051.2.287.083.277-.13a18,18,0,0,1,.309-4.87,10.06,10.06,0,0,1,1.548-3.882,2.425,2.425,0,0,1,1.254-1.007,1.069,1.069,0,0,1,1.063.4,14.618,14.618,0,0,1,2.772,6.3,17.938,17.938,0,0,1,.267,2.534c.007.41.145.41.244.071a8.577,8.577,0,0,0,0-4.368,23.788,23.788,0,0,0-3.3-6.956A1.1,1.1,0,0,0,283.99,262.14Z" fill="inherit"/>
    </g>
    <path id="Path_2444" data-name="Path 2444" d="M300.752,258.895a6.06,6.06,0,0,1,1.537,1.767,11.831,11.831,0,0,1,1.577,3.829,14.1,14.1,0,0,1-.148,6.414c-.051.194-.287.082-.277-.13a18.006,18.006,0,0,0-.309-4.871,10.067,10.067,0,0,0-1.548-3.882,2.423,2.423,0,0,0-1.254-1.006,1.068,1.068,0,0,0-1.063.394,14.617,14.617,0,0,0-2.772,6.306,17.922,17.922,0,0,0-.267,2.533c-.006.411-.145.41-.244.071a8.573,8.573,0,0,1,0-4.367,23.774,23.774,0,0,1,3.3-6.956A1.1,1.1,0,0,1,300.752,258.895Z" fill="inherit"/>
  </g>
</svg>
