<svg xmlns="http://www.w3.org/2000/svg" width="41.14" height="35.422" viewBox="0 0 41.14 35.422">
  <g  transform="translate(-220.718 -252.852)">
    <g id="Group_4279" data-name="Group 4279">
      <g id="Group_4278" data-name="Group 4278">
        <g id="Group_4277" data-name="Group 4277">
          <path id="Path_2427" data-name="Path 2427" d="M248.121,280.18a32.122,32.122,0,0,1,.356-8.048,19.845,19.845,0,0,1,3.875-8.222c.213-.245.783-.766.972-.705.295.1-.01.743-.2,1.1a21.391,21.391,0,0,0-2.318,7.613,33.32,33.32,0,0,0,.308,8.226Z" fill="inherit"/>
        </g>
      </g>
    </g>
    <g id="Group_4282" data-name="Group 4282">
      <g id="Group_4281" data-name="Group 4281">
        <g id="Group_4280" data-name="Group 4280">
          <path id="Path_2428" data-name="Path 2428" d="M261.533,256.628c-.38.29-1.644-.668-3.789.486a7.247,7.247,0,0,0-2.443,2.8c-.233.388-1.03,1.557-.962.9a11.48,11.48,0,0,1,1.522-4.6,3.875,3.875,0,0,1,4.752-.982C261.228,255.576,261.909,256.34,261.533,256.628Z" fill="inherit"/>
        </g>
      </g>
    </g>
    <g id="Group_4285" data-name="Group 4285">
      <g id="Group_4284" data-name="Group 4284">
        <g id="Group_4283" data-name="Group 4283">
          <path id="Path_2429" data-name="Path 2429" d="M246.422,254.495c.282-.377,3.118-2.876,5.922-.876s1.238,7.713.851,8.5-.469-.778-.558-1.34c-.075-.476-.919-4-2.364-5.084a4.039,4.039,0,0,0-3.642-.452C246.124,255.407,246.136,254.881,246.422,254.495Z" fill="inherit"/>
        </g>
      </g>
    </g>
    <g id="Group_4288" data-name="Group 4288">
      <g id="Group_4287" data-name="Group 4287">
        <g id="Group_4286" data-name="Group 4286">
          <path id="Path_2430" data-name="Path 2430" d="M257.8,259.336a2.9,2.9,0,0,1,3.588,1.362,6.073,6.073,0,0,1,.257,3.932c-.192.751-.529-.01-.848-.49a3.211,3.211,0,0,0-2.6-1.759,7.929,7.929,0,0,0-3.627,1.1c-.307.21-.584-.131-.389-.588C254.287,262.643,255.657,259.981,257.8,259.336Z" fill="inherit"/>
        </g>
      </g>
    </g>
    <g id="Group_4291" data-name="Group 4291">
      <g id="Group_4290" data-name="Group 4290">
        <g id="Group_4289" data-name="Group 4289">
          <path id="Path_2431" data-name="Path 2431" d="M256.35,264.555a3.923,3.923,0,0,1,1.423,4.323c-.379,1.818-.9,2.039-1.131,2.056s-.254-.438-.253-.622a9.216,9.216,0,0,0-.563-3.1,6.191,6.191,0,0,0-1.962-2.8c-.165-.118.025-.3.4-.371A2.9,2.9,0,0,1,256.35,264.555Z" fill="inherit"/>
        </g>
      </g>
    </g>
    <g id="Group_4294" data-name="Group 4294">
      <g id="Group_4293" data-name="Group 4293">
        <g id="Group_4292" data-name="Group 4292">
          <path id="Path_2432" data-name="Path 2432" d="M248.56,258.869a3.434,3.434,0,0,1,3.593,2.406c.565,1.6.245,2.187-.205,1.6a3.736,3.736,0,0,0-3.446-1.557,3.874,3.874,0,0,0-2.807,2.054c-.268.5-.659.506-.659-.328S245.634,259.168,248.56,258.869Z" fill="inherit"/>
        </g>
      </g>
    </g>
    <path id="Path_2433" data-name="Path 2433" d="M241.156,279.1c6.238,0,11.433,3.107,12.436,7.172H228.719c1-4.065,6.2-7.172,12.437-7.172m0-2c-8.07,0-14.612,4.748-14.612,10.605,0,.19.008.379.021.567h29.182c.013-.188.02-.377.02-.567,0-5.857-6.542-10.605-14.611-10.605Z" fill="inherit"/>
    <g id="Group_4298" data-name="Group 4298">
      <g id="Group_4297" data-name="Group 4297">
        <g id="Group_4296" data-name="Group 4296">
          <g id="Group_4295" data-name="Group 4295">
            <path id="Path_2434" data-name="Path 2434" d="M234.453,280.18a32.069,32.069,0,0,0-.356-8.048,19.833,19.833,0,0,0-3.874-8.222c-.213-.245-.783-.766-.972-.705-.3.1.01.743.2,1.1a21.411,21.411,0,0,1,2.318,7.613,33.373,33.373,0,0,1-.308,8.226Z" fill="inherit"/>
          </g>
        </g>
      </g>
    </g>
    <g id="Group_4302" data-name="Group 4302">
      <g id="Group_4301" data-name="Group 4301">
        <g id="Group_4300" data-name="Group 4300">
          <g id="Group_4299" data-name="Group 4299">
            <path id="Path_2435" data-name="Path 2435" d="M221.907,257.158c.334.256,1.446-.586,3.332.428a6.361,6.361,0,0,1,2.148,2.461c.205.342.906,1.369.846.794a10.072,10.072,0,0,0-1.338-4.049,3.408,3.408,0,0,0-4.179-.864C222.176,256.234,221.577,256.9,221.907,257.158Z" fill="inherit"/>
          </g>
        </g>
      </g>
    </g>
    <g id="Group_4306" data-name="Group 4306">
      <g id="Group_4305" data-name="Group 4305">
        <g id="Group_4304" data-name="Group 4304">
          <g id="Group_4303" data-name="Group 4303">
            <path id="Path_2436" data-name="Path 2436" d="M235.182,255.6c-.242-.324-2.683-2.474-5.094-.754s-1.065,6.635-.732,7.315.4-.67.479-1.152c.065-.41.791-3.441,2.034-4.374a3.474,3.474,0,0,1,3.133-.389C235.438,256.385,235.428,255.932,235.182,255.6Z" fill="inherit"/>
          </g>
        </g>
      </g>
    </g>
    <g id="Group_4310" data-name="Group 4310">
      <g id="Group_4309" data-name="Group 4309">
        <g id="Group_4308" data-name="Group 4308">
          <g id="Group_4307" data-name="Group 4307">
            <path id="Path_2437" data-name="Path 2437" d="M224.771,259.336a2.9,2.9,0,0,0-3.589,1.362,6.079,6.079,0,0,0-.256,3.932c.192.751.529-.01.847-.49a3.214,3.214,0,0,1,2.6-1.759,7.92,7.92,0,0,1,3.626,1.1c.308.21.584-.131.39-.588C228.288,262.643,226.917,259.981,224.771,259.336Z" fill="inherit"/>
          </g>
        </g>
      </g>
    </g>
    <g id="Group_4314" data-name="Group 4314">
      <g id="Group_4313" data-name="Group 4313">
        <g id="Group_4312" data-name="Group 4312">
          <g id="Group_4311" data-name="Group 4311">
            <path id="Path_2438" data-name="Path 2438" d="M226.225,264.555a3.923,3.923,0,0,0-1.423,4.323c.379,1.818.9,2.039,1.131,2.056s.254-.438.253-.622a9.189,9.189,0,0,1,.563-3.1,6.192,6.192,0,0,1,1.961-2.8c.166-.118-.024-.3-.4-.371A2.9,2.9,0,0,0,226.225,264.555Z" fill="inherit"/>
          </g>
        </g>
      </g>
    </g>
    <g id="Group_4318" data-name="Group 4318">
      <g id="Group_4317" data-name="Group 4317">
        <g id="Group_4316" data-name="Group 4316">
          <g id="Group_4315" data-name="Group 4315">
            <path id="Path_2439" data-name="Path 2439" d="M234.015,258.869a3.434,3.434,0,0,0-3.593,2.406c-.565,1.6-.245,2.187.205,1.6a3.736,3.736,0,0,1,3.446-1.557,3.874,3.874,0,0,1,2.807,2.054c.269.5.658.506.658-.328S236.941,259.168,234.015,258.869Z" fill="inherit"/>
          </g>
        </g>
      </g>
    </g>
    <g id="Group_4322" data-name="Group 4322">
      <g id="Group_4321" data-name="Group 4321">
        <g id="Group_4320" data-name="Group 4320">
          <g id="Group_4319" data-name="Group 4319">
            <path id="Path_2440" data-name="Path 2440" d="M250.119,267.759c.033.107-.259.427-.4.545-.758.658-2.4,2.7-4.437,3.386a12.569,12.569,0,0,1-4.549.714,11.377,11.377,0,0,1-5.037-.921,17.572,17.572,0,0,1-3.95-3.179c-.138-.118-.43-.438-.395-.545.053-.166.417.006.616.113a12.006,12.006,0,0,0,4.274,1.3,35.912,35.912,0,0,0,8.983,0,11.992,11.992,0,0,0,4.274-1.3C249.7,267.765,250.066,267.593,250.119,267.759Z" fill="inherit"/>
          </g>
        </g>
      </g>
    </g>
  </g>
</svg>
